999
Tape sprocket created by tapegear.py
  0
SECTION
  2
HEADER
  9
$ACADVER
  1
AC1014
  9
$HANDSEED
  5
FFFF
  0
ENDSEC
  0
SECTION
  2
TABLES
  0
TABLE
  2
VPORT
  5
8
330
0
100
AcDbSymbolTable
 70
     4
  0
VPORT
  5
2E
330
8
100
AcDbSymbolTableRecord
100
AcDbViewportTableRecord
  2
*ACTIVE
 70
     0
 10
0.0
 20
0.0
 11
1.0
 21
1.0
 12
4.25
 22
5.5
 13
0.0
 23
0.0
 14
10.0
 24
10.0
 15
10.0
 25
10.0
 16
0.0
 26
0.0
 36
1.0
 17
0.0
 27
0.0
 37
0.0
 40
11
 41
1.24
 42
50.0
 43
0.0
 44
0.0
 50
0.0
 51
0.0
 71
     0
 72
   100
 73
     1
 74
     3
 75
     0
 76
     0
 77
     0
 78
     0
  0
ENDTAB
  0
TABLE
  2
LTYPE
  5
5
330
0
100
AcDbSymbolTable
 70
     1
  0
LTYPE
  5
14
330
5
100
AcDbSymbolTableRecord
100
AcDbLinetypeTableRecord
  2
BYBLOCK
 70
     0
  3

 72
    65
 73
     0
 40
0.0
  0
LTYPE
  5
15
330
5
100
AcDbSymbolTableRecord
100
AcDbLinetypeTableRecord
  2
BYLAYER
 70
     0
  3

 72
    65
 73
     0
 40
0.0
  0
LTYPE
  5
16
330
5
100
AcDbSymbolTableRecord
100
AcDbLinetypeTableRecord
  2
CONTINUOUS
 70
     0
  3
Solid line
 72
    65
 73
     0
 40
0.0
  0
ENDTAB
  0
TABLE
  2
STYLE
  5
3
330
0
100
AcDbSymbolTable
 70
     1
  0
STYLE
  5
11
330
3
100
AcDbSymbolTableRecord
100
AcDbTextStyleTableRecord
  2
STANDARD
 70
     0
 40
0.0
 41
1.0
 50
0.0
 71
     0
 42
2.5
  3
txt
  4

  0
ENDTAB
  0
TABLE
  2
VIEW
  5
6
330
0
100
AcDbSymbolTable
 70
     0
  0
ENDTAB
  0
TABLE
  2
UCS
  5
7
330
0
100
AcDbSymbolTable
 70
     0
  0
ENDTAB
  0
TABLE
  2
APPID
  5
9
330
0
100
AcDbSymbolTable
 70
     2
  0
APPID
  5
12
330
9
100
AcDbSymbolTableRecord
100
AcDbRegAppTableRecord
  2
ACAD
 70
     0
  0
ENDTAB
  0
TABLE
  2
DIMSTYLE
  5
A
330
0
100
AcDbSymbolTable
 70
     1
  0
DIMSTYLE
105
27
330
A
100
AcDbSymbolTableRecord
100
AcDbDimStyleTableRecord
  2
ISO-25
 70
     0
  3

  4

  5

  6

  7

 40
1.0
 41
2.5
 42
0.625
 43
3.75
 44
1.25
 45
0.0
 46
0.0
 47
0.0
 48
0.0
140
2.5
141
2.5
142
0.0
143
0.03937007874016
144
1.0
145
0.0
146
1.0
147
0.625
 71
     0
 72
     0
 73
     0
 74
     0
 75
     0
 76
     0
 77
     1
 78
     8
170
     0
171
     3
172
     1
173
     0
174
     0
175
     0
176
     0
177
     0
178
     0
270
     2
271
     2
272
     2
273
     2
274
     3
340
11
275
     0
280
     0
281
     0
282
     0
283
     0
284
     8
285
     0
286
     0
287
     3
288
     0
  0
ENDTAB
  0
TABLE
  2
BLOCK_RECORD
  5
1
330
0
100
AcDbSymbolTable
 70
     1
  0
BLOCK_RECORD
  5
1F
330
1
100
AcDbSymbolTableRecord
100
AcDbBlockTableRecord
  2
*MODEL_SPACE
  0
BLOCK_RECORD
  5
1B
330
1
100
AcDbSymbolTableRecord
100
AcDbBlockTableRecord
  2
*PAPER_SPACE
  0
ENDTAB
0
TABLE
2
LAYER
5
2
330
0
100
AcDbSymbolTable
70
2
0
LAYER
5
10
330
2
100
AcDbSymbolTableRecord
100
AcDbLayerTableRecord
2
Default
70
0
62
7
6
CONTINUOUS
0
LAYER
5
10
330
2
100
AcDbSymbolTableRecord
100
AcDbLayerTableRecord
2
Drills
70
0
62
7
6
CONTINUOUS
0
ENDTAB
0
ENDSEC
  0
SECTION
  2
BLOCKS
  0
BLOCK
  5
20
330
1F
100
AcDbEntity
  8
0
100
AcDbBlockBegin
  2
*MODEL_SPACE
 70
     0
 10
0.0
 20
0.0
 30
0.0
  3
*MODEL_SPACE
  1

  0
ENDBLK
  5
21
330
1F
100
AcDbEntity
  8
0
100
AcDbBlockEnd
  0
BLOCK
  5
1C
330
1B
100
AcDbEntity
 67
     1
  8
0
100
AcDbBlockBegin
  2
*PAPER_SPACE
  1

  0
ENDBLK
  5
1D
330
1B
100
AcDbEntity
 67
     1
  8
0
100
AcDbBlockEnd
  0
ENDSEC
  0
SECTION
  2
ENTITIES
0
LINE
8
Default
62
4
5
255
100
AcDbEntity
100
AcDbLine
10
434.209003
20
-9.096047
30
0.0
11
484.997860
21
-10.160000
31
0.0
0
LINE
8
Default
62
4
5
255
100
AcDbEntity
100
AcDbLine
10
484.997860
20
-10.160000
30
0.0
11
498.173908
21
-5.217437
31
0.0
0
LINE
8
Default
62
4
5
255
100
AcDbEntity
100
AcDbLine
10
498.173908
20
-5.217437
30
0.0
11
498.173908
21
5.217437
31
0.0
0
LINE
8
Default
62
4
5
255
100
AcDbEntity
100
AcDbLine
10
498.173908
20
5.217437
30
0.0
11
484.997860
21
10.160000
31
0.0
0
LINE
8
Default
62
4
5
255
100
AcDbEntity
100
AcDbLine
10
484.997860
20
10.160000
30
0.0
11
434.209003
21
9.096047
31
0.0
0
LINE
8
Default
62
4
5
255
100
AcDbEntity
100
AcDbLine
10
434.209003
20
9.096047
30
0.0
11
426.611669
21
81.379851
31
0.0
0
LINE
8
Default
62
4
5
255
100
AcDbEntity
100
AcDbLine
10
426.611669
20
81.379851
30
0.0
11
476.511876
21
90.898745
31
0.0
0
LINE
8
Default
62
4
5
255
100
AcDbEntity
100
AcDbLine
10
476.511876
20
90.898745
30
0.0
11
488.372379
21
98.472756
31
0.0
0
LINE
8
Default
62
4
5
255
100
AcDbEntity
100
AcDbLine
10
488.372379
20
98.472756
30
0.0
11
486.202847
21
108.679603
31
0.0
0
LINE
8
Default
62
4
5
255
100
AcDbEntity
100
AcDbLine
10
486.202847
20
108.679603
30
0.0
11
472.287110
21
110.774705
31
0.0
0
LINE
8
Default
62
4
5
255
100
AcDbEntity
100
AcDbLine
10
472.287110
20
110.774705
30
0.0
11
422.829319
21
99.174405
31
0.0
0
LINE
8
Default
62
4
5
255
100
AcDbEntity
100
AcDbLine
10
422.829319
20
99.174405
30
0.0
11
400.369358
21
168.299059
31
0.0
0
LINE
8
Default
62
4
5
255
100
AcDbEntity
100
AcDbLine
10
400.369358
20
168.299059
30
0.0
11
447.200036
21
187.984779
31
0.0
0
LINE
8
Default
62
4
5
255
100
AcDbEntity
100
AcDbLine
10
447.200036
20
187.984779
30
0.0
11
457.226634
21
197.859217
31
0.0
0
LINE
8
Default
62
4
5
255
100
AcDbEntity
100
AcDbLine
10
457.226634
20
197.859217
30
0.0
11
452.982388
21
207.391949
31
0.0
0
LINE
8
Default
62
4
5
255
100
AcDbEntity
100
AcDbLine
10
452.982388
20
207.391949
30
0.0
11
438.935147
21
206.548023
31
0.0
0
LINE
8
Default
62
4
5
255
100
AcDbEntity
100
AcDbLine
10
438.935147
20
206.548023
30
0.0
11
392.969966
21
184.918365
31
0.0
0
LINE
8
Default
62
4
5
255
100
AcDbEntity
100
AcDbLine
10
392.969966
20
184.918365
30
0.0
11
356.628985
21
247.862791
31
0.0
0
LINE
8
Default
62
4
5
255
100
AcDbEntity
100
AcDbLine
10
356.628985
20
247.862791
30
0.0
11
398.343409
21
276.854977
31
0.0
0
LINE
8
Default
62
4
5
255
100
AcDbEntity
100
AcDbLine
10
398.343409
20
276.854977
30
0.0
11
406.097891
21
288.598281
31
0.0
0
LINE
8
Default
62
4
5
255
100
AcDbEntity
100
AcDbLine
10
406.097891
20
288.598281
30
0.0
11
399.964425
21
297.040272
31
0.0
0
LINE
8
Default
62
4
5
255
100
AcDbEntity
100
AcDbLine
10
399.964425
20
297.040272
30
0.0
11
386.399612
21
293.294202
31
0.0
0
LINE
8
Default
62
4
5
255
100
AcDbEntity
100
AcDbLine
10
386.399612
20
293.294202
30
0.0
11
345.935940
21
262.580505
31
0.0
0
LINE
8
Default
62
4
5
255
100
AcDbEntity
100
AcDbLine
10
345.935940
20
262.580505
30
0.0
11
297.302214
21
316.593730
31
0.0
0
LINE
8
Default
62
4
5
255
100
AcDbEntity
100
AcDbLine
10
297.302214
20
316.593730
30
0.0
11
332.077263
21
353.625283
31
0.0
0
LINE
8
Default
62
4
5
255
100
AcDbEntity
100
AcDbLine
10
332.077263
20
353.625283
30
0.0
11
337.220721
21
366.724215
31
0.0
0
LINE
8
Default
62
4
5
255
100
AcDbEntity
100
AcDbLine
10
337.220721
20
366.724215
30
0.0
11
329.466098
21
373.706509
31
0.0
0
LINE
8
Default
62
4
5
255
100
AcDbEntity
100
AcDbLine
10
329.466098
20
373.706509
30
0.0
11
316.976560
21
367.222017
31
0.0
0
LINE
8
Default
62
4
5
255
100
AcDbEntity
100
AcDbLine
10
316.976560
20
367.222017
30
0.0
11
283.782853
21
328.766617
31
0.0
0
LINE
8
Default
62
4
5
255
100
AcDbEntity
100
AcDbLine
10
283.782853
20
328.766617
30
0.0
11
224.981909
21
371.488003
31
0.0
0
LINE
8
Default
62
4
5
255
100
AcDbEntity
100
AcDbLine
10
224.981909
20
371.488003
30
0.0
11
251.297748
21
414.940467
31
0.0
0
LINE
8
Default
62
4
5
255
100
AcDbEntity
100
AcDbLine
10
251.297748
20
414.940467
30
0.0
11
253.605387
21
428.822541
31
0.0
0
LINE
8
Default
62
4
5
255
100
AcDbEntity
100
AcDbLine
10
253.605387
20
428.822541
30
0.0
11
244.568521
21
434.039979
31
0.0
0
LINE
8
Default
62
4
5
255
100
AcDbEntity
100
AcDbLine
10
244.568521
20
434.039979
30
0.0
11
233.700112
21
425.100467
31
0.0
0
LINE
8
Default
62
4
5
255
100
AcDbEntity
100
AcDbLine
10
233.700112
20
425.100467
30
0.0
11
209.227093
21
380.584050
31
0.0
0
LINE
8
Default
62
4
5
255
100
AcDbEntity
100
AcDbLine
10
209.227093
20
380.584050
30
0.0
11
142.828816
21
410.146468
31
0.0
0
LINE
8
Default
62
4
5
255
100
AcDbEntity
100
AcDbLine
10
142.828816
20
410.146468
30
0.0
11
159.535315
21
458.120762
31
0.0
0
LINE
8
Default
62
4
5
255
100
AcDbEntity
100
AcDbLine
10
159.535315
20
458.120762
30
0.0
11
158.906281
21
472.179265
31
0.0
0
LINE
8
Default
62
4
5
255
100
AcDbEntity
100
AcDbLine
10
158.906281
20
472.179265
30
0.0
11
148.982126
21
475.403818
31
0.0
0
LINE
8
Default
62
4
5
255
100
AcDbEntity
100
AcDbLine
10
148.982126
20
475.403818
30
0.0
11
140.209847
21
464.399987
31
0.0
0
LINE
8
Default
62
4
5
255
100
AcDbEntity
100
AcDbLine
10
140.209847
20
464.399987
30
0.0
11
125.527106
21
415.768134
31
0.0
0
LINE
8
Default
62
4
5
255
100
AcDbEntity
100
AcDbLine
10
125.527106
20
415.768134
30
0.0
11
54.433418
21
430.879564
31
0.0
0
LINE
8
Default
62
4
5
255
100
AcDbEntity
100
AcDbLine
10
54.433418
20
430.879564
30
0.0
11
60.800423
21
481.278981
31
0.0
0
LINE
8
Default
62
4
5
255
100
AcDbEntity
100
AcDbLine
10
60.800423
20
481.278981
30
0.0
11
57.262209
21
494.899489
31
0.0
0
LINE
8
Default
62
4
5
255
100
AcDbEntity
100
AcDbLine
10
57.262209
20
494.899489
30
0.0
11
46.884498
21
495.990230
31
0.0
0
LINE
8
Default
62
4
5
255
100
AcDbEntity
100
AcDbLine
10
46.884498
20
495.990230
30
0.0
11
40.591738
21
483.403000
31
0.0
0
LINE
8
Default
62
4
5
255
100
AcDbEntity
100
AcDbLine
10
40.591738
20
483.403000
30
0.0
11
36.340982
21
432.781156
31
0.0
0
LINE
8
Default
62
4
5
255
100
AcDbEntity
100
AcDbLine
10
36.340982
20
432.781156
30
0.0
11
-36.340982
21
432.781156
31
0.0
0
LINE
8
Default
62
4
5
255
100
AcDbEntity
100
AcDbLine
10
-36.340982
20
432.781156
30
0.0
11
-40.591738
21
483.403000
31
0.0
0
LINE
8
Default
62
4
5
255
100
AcDbEntity
100
AcDbLine
10
-40.591738
20
483.403000
30
0.0
11
-46.884498
21
495.990230
31
0.0
0
LINE
8
Default
62
4
5
255
100
AcDbEntity
100
AcDbLine
10
-46.884498
20
495.990230
30
0.0
11
-57.262209
21
494.899489
31
0.0
0
LINE
8
Default
62
4
5
255
100
AcDbEntity
100
AcDbLine
10
-57.262209
20
494.899489
30
0.0
11
-60.800423
21
481.278981
31
0.0
0
LINE
8
Default
62
4
5
255
100
AcDbEntity
100
AcDbLine
10
-60.800423
20
481.278981
30
0.0
11
-54.433418
21
430.879564
31
0.0
0
LINE
8
Default
62
4
5
255
100
AcDbEntity
100
AcDbLine
10
-54.433418
20
430.879564
30
0.0
11
-125.527106
21
415.768134
31
0.0
0
LINE
8
Default
62
4
5
255
100
AcDbEntity
100
AcDbLine
10
-125.527106
20
415.768134
30
0.0
11
-140.209847
21
464.399987
31
0.0
0
LINE
8
Default
62
4
5
255
100
AcDbEntity
100
AcDbLine
10
-140.209847
20
464.399987
30
0.0
11
-148.982126
21
475.403818
31
0.0
0
LINE
8
Default
62
4
5
255
100
AcDbEntity
100
AcDbLine
10
-148.982126
20
475.403818
30
0.0
11
-158.906281
21
472.179265
31
0.0
0
LINE
8
Default
62
4
5
255
100
AcDbEntity
100
AcDbLine
10
-158.906281
20
472.179265
30
0.0
11
-159.535315
21
458.120762
31
0.0
0
LINE
8
Default
62
4
5
255
100
AcDbEntity
100
AcDbLine
10
-159.535315
20
458.120762
30
0.0
11
-142.828816
21
410.146468
31
0.0
0
LINE
8
Default
62
4
5
255
100
AcDbEntity
100
AcDbLine
10
-142.828816
20
410.146468
30
0.0
11
-209.227093
21
380.584050
31
0.0
0
LINE
8
Default
62
4
5
255
100
AcDbEntity
100
AcDbLine
10
-209.227093
20
380.584050
30
0.0
11
-233.700112
21
425.100467
31
0.0
0
LINE
8
Default
62
4
5
255
100
AcDbEntity
100
AcDbLine
10
-233.700112
20
425.100467
30
0.0
11
-244.568521
21
434.039979
31
0.0
0
LINE
8
Default
62
4
5
255
100
AcDbEntity
100
AcDbLine
10
-244.568521
20
434.039979
30
0.0
11
-253.605387
21
428.822541
31
0.0
0
LINE
8
Default
62
4
5
255
100
AcDbEntity
100
AcDbLine
10
-253.605387
20
428.822541
30
0.0
11
-251.297748
21
414.940467
31
0.0
0
LINE
8
Default
62
4
5
255
100
AcDbEntity
100
AcDbLine
10
-251.297748
20
414.940467
30
0.0
11
-224.981909
21
371.488003
31
0.0
0
LINE
8
Default
62
4
5
255
100
AcDbEntity
100
AcDbLine
10
-224.981909
20
371.488003
30
0.0
11
-283.782853
21
328.766617
31
0.0
0
LINE
8
Default
62
4
5
255
100
AcDbEntity
100
AcDbLine
10
-283.782853
20
328.766617
30
0.0
11
-316.976560
21
367.222017
31
0.0
0
LINE
8
Default
62
4
5
255
100
AcDbEntity
100
AcDbLine
10
-316.976560
20
367.222017
30
0.0
11
-329.466098
21
373.706509
31
0.0
0
LINE
8
Default
62
4
5
255
100
AcDbEntity
100
AcDbLine
10
-329.466098
20
373.706509
30
0.0
11
-337.220721
21
366.724215
31
0.0
0
LINE
8
Default
62
4
5
255
100
AcDbEntity
100
AcDbLine
10
-337.220721
20
366.724215
30
0.0
11
-332.077263
21
353.625283
31
0.0
0
LINE
8
Default
62
4
5
255
100
AcDbEntity
100
AcDbLine
10
-332.077263
20
353.625283
30
0.0
11
-297.302214
21
316.593730
31
0.0
0
LINE
8
Default
62
4
5
255
100
AcDbEntity
100
AcDbLine
10
-297.302214
20
316.593730
30
0.0
11
-345.935940
21
262.580505
31
0.0
0
LINE
8
Default
62
4
5
255
100
AcDbEntity
100
AcDbLine
10
-345.935940
20
262.580505
30
0.0
11
-386.399612
21
293.294202
31
0.0
0
LINE
8
Default
62
4
5
255
100
AcDbEntity
100
AcDbLine
10
-386.399612
20
293.294202
30
0.0
11
-399.964425
21
297.040272
31
0.0
0
LINE
8
Default
62
4
5
255
100
AcDbEntity
100
AcDbLine
10
-399.964425
20
297.040272
30
0.0
11
-406.097891
21
288.598281
31
0.0
0
LINE
8
Default
62
4
5
255
100
AcDbEntity
100
AcDbLine
10
-406.097891
20
288.598281
30
0.0
11
-398.343409
21
276.854977
31
0.0
0
LINE
8
Default
62
4
5
255
100
AcDbEntity
100
AcDbLine
10
-398.343409
20
276.854977
30
0.0
11
-356.628985
21
247.862791
31
0.0
0
LINE
8
Default
62
4
5
255
100
AcDbEntity
100
AcDbLine
10
-356.628985
20
247.862791
30
0.0
11
-392.969966
21
184.918365
31
0.0
0
LINE
8
Default
62
4
5
255
100
AcDbEntity
100
AcDbLine
10
-392.969966
20
184.918365
30
0.0
11
-438.935147
21
206.548023
31
0.0
0
LINE
8
Default
62
4
5
255
100
AcDbEntity
100
AcDbLine
10
-438.935147
20
206.548023
30
0.0
11
-452.982388
21
207.391949
31
0.0
0
LINE
8
Default
62
4
5
255
100
AcDbEntity
100
AcDbLine
10
-452.982388
20
207.391949
30
0.0
11
-457.226634
21
197.859217
31
0.0
0
LINE
8
Default
62
4
5
255
100
AcDbEntity
100
AcDbLine
10
-457.226634
20
197.859217
30
0.0
11
-447.200036
21
187.984779
31
0.0
0
LINE
8
Default
62
4
5
255
100
AcDbEntity
100
AcDbLine
10
-447.200036
20
187.984779
30
0.0
11
-400.369358
21
168.299059
31
0.0
0
LINE
8
Default
62
4
5
255
100
AcDbEntity
100
AcDbLine
10
-400.369358
20
168.299059
30
0.0
11
-422.829319
21
99.174405
31
0.0
0
LINE
8
Default
62
4
5
255
100
AcDbEntity
100
AcDbLine
10
-422.829319
20
99.174405
30
0.0
11
-472.287110
21
110.774705
31
0.0
0
LINE
8
Default
62
4
5
255
100
AcDbEntity
100
AcDbLine
10
-472.287110
20
110.774705
30
0.0
11
-486.202847
21
108.679603
31
0.0
0
LINE
8
Default
62
4
5
255
100
AcDbEntity
100
AcDbLine
10
-486.202847
20
108.679603
30
0.0
11
-488.372379
21
98.472756
31
0.0
0
LINE
8
Default
62
4
5
255
100
AcDbEntity
100
AcDbLine
10
-488.372379
20
98.472756
30
0.0
11
-476.511876
21
90.898745
31
0.0
0
LINE
8
Default
62
4
5
255
100
AcDbEntity
100
AcDbLine
10
-476.511876
20
90.898745
30
0.0
11
-426.611669
21
81.379851
31
0.0
0
LINE
8
Default
62
4
5
255
100
AcDbEntity
100
AcDbLine
10
-426.611669
20
81.379851
30
0.0
11
-434.209003
21
9.096047
31
0.0
0
LINE
8
Default
62
4
5
255
100
AcDbEntity
100
AcDbLine
10
-434.209003
20
9.096047
30
0.0
11
-484.997860
21
10.160000
31
0.0
0
LINE
8
Default
62
4
5
255
100
AcDbEntity
100
AcDbLine
10
-484.997860
20
10.160000
30
0.0
11
-498.173908
21
5.217437
31
0.0
0
LINE
8
Default
62
4
5
255
100
AcDbEntity
100
AcDbLine
10
-498.173908
20
5.217437
30
0.0
11
-498.173908
21
-5.217437
31
0.0
0
LINE
8
Default
62
4
5
255
100
AcDbEntity
100
AcDbLine
10
-498.173908
20
-5.217437
30
0.0
11
-484.997860
21
-10.160000
31
0.0
0
LINE
8
Default
62
4
5
255
100
AcDbEntity
100
AcDbLine
10
-484.997860
20
-10.160000
30
0.0
11
-434.209003
21
-9.096047
31
0.0
0
LINE
8
Default
62
4
5
255
100
AcDbEntity
100
AcDbLine
10
-434.209003
20
-9.096047
30
0.0
11
-426.611669
21
-81.379851
31
0.0
0
LINE
8
Default
62
4
5
255
100
AcDbEntity
100
AcDbLine
10
-426.611669
20
-81.379851
30
0.0
11
-476.511876
21
-90.898745
31
0.0
0
LINE
8
Default
62
4
5
255
100
AcDbEntity
100
AcDbLine
10
-476.511876
20
-90.898745
30
0.0
11
-488.372379
21
-98.472756
31
0.0
0
LINE
8
Default
62
4
5
255
100
AcDbEntity
100
AcDbLine
10
-488.372379
20
-98.472756
30
0.0
11
-486.202847
21
-108.679603
31
0.0
0
LINE
8
Default
62
4
5
255
100
AcDbEntity
100
AcDbLine
10
-486.202847
20
-108.679603
30
0.0
11
-472.287110
21
-110.774705
31
0.0
0
LINE
8
Default
62
4
5
255
100
AcDbEntity
100
AcDbLine
10
-472.287110
20
-110.774705
30
0.0
11
-422.829319
21
-99.174405
31
0.0
0
LINE
8
Default
62
4
5
255
100
AcDbEntity
100
AcDbLine
10
-422.829319
20
-99.174405
30
0.0
11
-400.369358
21
-168.299059
31
0.0
0
LINE
8
Default
62
4
5
255
100
AcDbEntity
100
AcDbLine
10
-400.369358
20
-168.299059
30
0.0
11
-447.200036
21
-187.984779
31
0.0
0
LINE
8
Default
62
4
5
255
100
AcDbEntity
100
AcDbLine
10
-447.200036
20
-187.984779
30
0.0
11
-457.226634
21
-197.859217
31
0.0
0
LINE
8
Default
62
4
5
255
100
AcDbEntity
100
AcDbLine
10
-457.226634
20
-197.859217
30
0.0
11
-452.982388
21
-207.391949
31
0.0
0
LINE
8
Default
62
4
5
255
100
AcDbEntity
100
AcDbLine
10
-452.982388
20
-207.391949
30
0.0
11
-438.935147
21
-206.548023
31
0.0
0
LINE
8
Default
62
4
5
255
100
AcDbEntity
100
AcDbLine
10
-438.935147
20
-206.548023
30
0.0
11
-392.969966
21
-184.918365
31
0.0
0
LINE
8
Default
62
4
5
255
100
AcDbEntity
100
AcDbLine
10
-392.969966
20
-184.918365
30
0.0
11
-356.628985
21
-247.862791
31
0.0
0
LINE
8
Default
62
4
5
255
100
AcDbEntity
100
AcDbLine
10
-356.628985
20
-247.862791
30
0.0
11
-398.343409
21
-276.854977
31
0.0
0
LINE
8
Default
62
4
5
255
100
AcDbEntity
100
AcDbLine
10
-398.343409
20
-276.854977
30
0.0
11
-406.097891
21
-288.598281
31
0.0
0
LINE
8
Default
62
4
5
255
100
AcDbEntity
100
AcDbLine
10
-406.097891
20
-288.598281
30
0.0
11
-399.964425
21
-297.040272
31
0.0
0
LINE
8
Default
62
4
5
255
100
AcDbEntity
100
AcDbLine
10
-399.964425
20
-297.040272
30
0.0
11
-386.399612
21
-293.294202
31
0.0
0
LINE
8
Default
62
4
5
255
100
AcDbEntity
100
AcDbLine
10
-386.399612
20
-293.294202
30
0.0
11
-345.935940
21
-262.580505
31
0.0
0
LINE
8
Default
62
4
5
255
100
AcDbEntity
100
AcDbLine
10
-345.935940
20
-262.580505
30
0.0
11
-297.302214
21
-316.593730
31
0.0
0
LINE
8
Default
62
4
5
255
100
AcDbEntity
100
AcDbLine
10
-297.302214
20
-316.593730
30
0.0
11
-332.077263
21
-353.625283
31
0.0
0
LINE
8
Default
62
4
5
255
100
AcDbEntity
100
AcDbLine
10
-332.077263
20
-353.625283
30
0.0
11
-337.220721
21
-366.724215
31
0.0
0
LINE
8
Default
62
4
5
255
100
AcDbEntity
100
AcDbLine
10
-337.220721
20
-366.724215
30
0.0
11
-329.466098
21
-373.706509
31
0.0
0
LINE
8
Default
62
4
5
255
100
AcDbEntity
100
AcDbLine
10
-329.466098
20
-373.706509
30
0.0
11
-316.976560
21
-367.222017
31
0.0
0
LINE
8
Default
62
4
5
255
100
AcDbEntity
100
AcDbLine
10
-316.976560
20
-367.222017
30
0.0
11
-283.782853
21
-328.766617
31
0.0
0
LINE
8
Default
62
4
5
255
100
AcDbEntity
100
AcDbLine
10
-283.782853
20
-328.766617
30
0.0
11
-224.981909
21
-371.488003
31
0.0
0
LINE
8
Default
62
4
5
255
100
AcDbEntity
100
AcDbLine
10
-224.981909
20
-371.488003
30
0.0
11
-251.297748
21
-414.940467
31
0.0
0
LINE
8
Default
62
4
5
255
100
AcDbEntity
100
AcDbLine
10
-251.297748
20
-414.940467
30
0.0
11
-253.605387
21
-428.822541
31
0.0
0
LINE
8
Default
62
4
5
255
100
AcDbEntity
100
AcDbLine
10
-253.605387
20
-428.822541
30
0.0
11
-244.568521
21
-434.039979
31
0.0
0
LINE
8
Default
62
4
5
255
100
AcDbEntity
100
AcDbLine
10
-244.568521
20
-434.039979
30
0.0
11
-233.700112
21
-425.100467
31
0.0
0
LINE
8
Default
62
4
5
255
100
AcDbEntity
100
AcDbLine
10
-233.700112
20
-425.100467
30
0.0
11
-209.227093
21
-380.584050
31
0.0
0
LINE
8
Default
62
4
5
255
100
AcDbEntity
100
AcDbLine
10
-209.227093
20
-380.584050
30
0.0
11
-142.828816
21
-410.146468
31
0.0
0
LINE
8
Default
62
4
5
255
100
AcDbEntity
100
AcDbLine
10
-142.828816
20
-410.146468
30
0.0
11
-159.535315
21
-458.120762
31
0.0
0
LINE
8
Default
62
4
5
255
100
AcDbEntity
100
AcDbLine
10
-159.535315
20
-458.120762
30
0.0
11
-158.906281
21
-472.179265
31
0.0
0
LINE
8
Default
62
4
5
255
100
AcDbEntity
100
AcDbLine
10
-158.906281
20
-472.179265
30
0.0
11
-148.982126
21
-475.403818
31
0.0
0
LINE
8
Default
62
4
5
255
100
AcDbEntity
100
AcDbLine
10
-148.982126
20
-475.403818
30
0.0
11
-140.209847
21
-464.399987
31
0.0
0
LINE
8
Default
62
4
5
255
100
AcDbEntity
100
AcDbLine
10
-140.209847
20
-464.399987
30
0.0
11
-125.527106
21
-415.768134
31
0.0
0
LINE
8
Default
62
4
5
255
100
AcDbEntity
100
AcDbLine
10
-125.527106
20
-415.768134
30
0.0
11
-54.433418
21
-430.879564
31
0.0
0
LINE
8
Default
62
4
5
255
100
AcDbEntity
100
AcDbLine
10
-54.433418
20
-430.879564
30
0.0
11
-60.800423
21
-481.278981
31
0.0
0
LINE
8
Default
62
4
5
255
100
AcDbEntity
100
AcDbLine
10
-60.800423
20
-481.278981
30
0.0
11
-57.262209
21
-494.899489
31
0.0
0
LINE
8
Default
62
4
5
255
100
AcDbEntity
100
AcDbLine
10
-57.262209
20
-494.899489
30
0.0
11
-46.884498
21
-495.990230
31
0.0
0
LINE
8
Default
62
4
5
255
100
AcDbEntity
100
AcDbLine
10
-46.884498
20
-495.990230
30
0.0
11
-40.591738
21
-483.403000
31
0.0
0
LINE
8
Default
62
4
5
255
100
AcDbEntity
100
AcDbLine
10
-40.591738
20
-483.403000
30
0.0
11
-36.340982
21
-432.781156
31
0.0
0
LINE
8
Default
62
4
5
255
100
AcDbEntity
100
AcDbLine
10
-36.340982
20
-432.781156
30
0.0
11
36.340982
21
-432.781156
31
0.0
0
LINE
8
Default
62
4
5
255
100
AcDbEntity
100
AcDbLine
10
36.340982
20
-432.781156
30
0.0
11
40.591738
21
-483.403000
31
0.0
0
LINE
8
Default
62
4
5
255
100
AcDbEntity
100
AcDbLine
10
40.591738
20
-483.403000
30
0.0
11
46.884498
21
-495.990230
31
0.0
0
LINE
8
Default
62
4
5
255
100
AcDbEntity
100
AcDbLine
10
46.884498
20
-495.990230
30
0.0
11
57.262209
21
-494.899489
31
0.0
0
LINE
8
Default
62
4
5
255
100
AcDbEntity
100
AcDbLine
10
57.262209
20
-494.899489
30
0.0
11
60.800423
21
-481.278981
31
0.0
0
LINE
8
Default
62
4
5
255
100
AcDbEntity
100
AcDbLine
10
60.800423
20
-481.278981
30
0.0
11
54.433418
21
-430.879564
31
0.0
0
LINE
8
Default
62
4
5
255
100
AcDbEntity
100
AcDbLine
10
54.433418
20
-430.879564
30
0.0
11
125.527106
21
-415.768134
31
0.0
0
LINE
8
Default
62
4
5
255
100
AcDbEntity
100
AcDbLine
10
125.527106
20
-415.768134
30
0.0
11
140.209847
21
-464.399987
31
0.0
0
LINE
8
Default
62
4
5
255
100
AcDbEntity
100
AcDbLine
10
140.209847
20
-464.399987
30
0.0
11
148.982126
21
-475.403818
31
0.0
0
LINE
8
Default
62
4
5
255
100
AcDbEntity
100
AcDbLine
10
148.982126
20
-475.403818
30
0.0
11
158.906281
21
-472.179265
31
0.0
0
LINE
8
Default
62
4
5
255
100
AcDbEntity
100
AcDbLine
10
158.906281
20
-472.179265
30
0.0
11
159.535315
21
-458.120762
31
0.0
0
LINE
8
Default
62
4
5
255
100
AcDbEntity
100
AcDbLine
10
159.535315
20
-458.120762
30
0.0
11
142.828816
21
-410.146468
31
0.0
0
LINE
8
Default
62
4
5
255
100
AcDbEntity
100
AcDbLine
10
142.828816
20
-410.146468
30
0.0
11
209.227093
21
-380.584050
31
0.0
0
LINE
8
Default
62
4
5
255
100
AcDbEntity
100
AcDbLine
10
209.227093
20
-380.584050
30
0.0
11
233.700112
21
-425.100467
31
0.0
0
LINE
8
Default
62
4
5
255
100
AcDbEntity
100
AcDbLine
10
233.700112
20
-425.100467
30
0.0
11
244.568521
21
-434.039979
31
0.0
0
LINE
8
Default
62
4
5
255
100
AcDbEntity
100
AcDbLine
10
244.568521
20
-434.039979
30
0.0
11
253.605387
21
-428.822541
31
0.0
0
LINE
8
Default
62
4
5
255
100
AcDbEntity
100
AcDbLine
10
253.605387
20
-428.822541
30
0.0
11
251.297748
21
-414.940467
31
0.0
0
LINE
8
Default
62
4
5
255
100
AcDbEntity
100
AcDbLine
10
251.297748
20
-414.940467
30
0.0
11
224.981909
21
-371.488003
31
0.0
0
LINE
8
Default
62
4
5
255
100
AcDbEntity
100
AcDbLine
10
224.981909
20
-371.488003
30
0.0
11
283.782853
21
-328.766617
31
0.0
0
LINE
8
Default
62
4
5
255
100
AcDbEntity
100
AcDbLine
10
283.782853
20
-328.766617
30
0.0
11
316.976560
21
-367.222017
31
0.0
0
LINE
8
Default
62
4
5
255
100
AcDbEntity
100
AcDbLine
10
316.976560
20
-367.222017
30
0.0
11
329.466098
21
-373.706509
31
0.0
0
LINE
8
Default
62
4
5
255
100
AcDbEntity
100
AcDbLine
10
329.466098
20
-373.706509
30
0.0
11
337.220721
21
-366.724215
31
0.0
0
LINE
8
Default
62
4
5
255
100
AcDbEntity
100
AcDbLine
10
337.220721
20
-366.724215
30
0.0
11
332.077263
21
-353.625283
31
0.0
0
LINE
8
Default
62
4
5
255
100
AcDbEntity
100
AcDbLine
10
332.077263
20
-353.625283
30
0.0
11
297.302214
21
-316.593730
31
0.0
0
LINE
8
Default
62
4
5
255
100
AcDbEntity
100
AcDbLine
10
297.302214
20
-316.593730
30
0.0
11
345.935940
21
-262.580505
31
0.0
0
LINE
8
Default
62
4
5
255
100
AcDbEntity
100
AcDbLine
10
345.935940
20
-262.580505
30
0.0
11
386.399612
21
-293.294202
31
0.0
0
LINE
8
Default
62
4
5
255
100
AcDbEntity
100
AcDbLine
10
386.399612
20
-293.294202
30
0.0
11
399.964425
21
-297.040272
31
0.0
0
LINE
8
Default
62
4
5
255
100
AcDbEntity
100
AcDbLine
10
399.964425
20
-297.040272
30
0.0
11
406.097891
21
-288.598281
31
0.0
0
LINE
8
Default
62
4
5
255
100
AcDbEntity
100
AcDbLine
10
406.097891
20
-288.598281
30
0.0
11
398.343409
21
-276.854977
31
0.0
0
LINE
8
Default
62
4
5
255
100
AcDbEntity
100
AcDbLine
10
398.343409
20
-276.854977
30
0.0
11
356.628985
21
-247.862791
31
0.0
0
LINE
8
Default
62
4
5
255
100
AcDbEntity
100
AcDbLine
10
356.628985
20
-247.862791
30
0.0
11
392.969966
21
-184.918365
31
0.0
0
LINE
8
Default
62
4
5
255
100
AcDbEntity
100
AcDbLine
10
392.969966
20
-184.918365
30
0.0
11
438.935147
21
-206.548023
31
0.0
0
LINE
8
Default
62
4
5
255
100
AcDbEntity
100
AcDbLine
10
438.935147
20
-206.548023
30
0.0
11
452.982388
21
-207.391949
31
0.0
0
LINE
8
Default
62
4
5
255
100
AcDbEntity
100
AcDbLine
10
452.982388
20
-207.391949
30
0.0
11
457.226634
21
-197.859217
31
0.0
0
LINE
8
Default
62
4
5
255
100
AcDbEntity
100
AcDbLine
10
457.226634
20
-197.859217
30
0.0
11
447.200036
21
-187.984779
31
0.0
0
LINE
8
Default
62
4
5
255
100
AcDbEntity
100
AcDbLine
10
447.200036
20
-187.984779
30
0.0
11
400.369358
21
-168.299059
31
0.0
0
LINE
8
Default
62
4
5
255
100
AcDbEntity
100
AcDbLine
10
400.369358
20
-168.299059
30
0.0
11
422.829319
21
-99.174405
31
0.0
0
LINE
8
Default
62
4
5
255
100
AcDbEntity
100
AcDbLine
10
422.829319
20
-99.174405
30
0.0
11
472.287110
21
-110.774705
31
0.0
0
LINE
8
Default
62
4
5
255
100
AcDbEntity
100
AcDbLine
10
472.287110
20
-110.774705
30
0.0
11
486.202847
21
-108.679603
31
0.0
0
LINE
8
Default
62
4
5
255
100
AcDbEntity
100
AcDbLine
10
486.202847
20
-108.679603
30
0.0
11
488.372379
21
-98.472756
31
0.0
0
LINE
8
Default
62
4
5
255
100
AcDbEntity
100
AcDbLine
10
488.372379
20
-98.472756
30
0.0
11
476.511876
21
-90.898745
31
0.0
0
LINE
8
Default
62
4
5
255
100
AcDbEntity
100
AcDbLine
10
476.511876
20
-90.898745
30
0.0
11
426.611669
21
-81.379851
31
0.0
0
LINE
8
Default
62
4
5
255
100
AcDbEntity
100
AcDbLine
10
426.611669
20
-81.379851
30
0.0
11
434.209003
21
-9.096047
31
0.0
  0
ENDSEC
  0
SECTION
  2
OBJECTS
  0
DICTIONARY
  5
C
330
0
100
AcDbDictionary
  3
ACAD_GROUP
350
D
  3
ACAD_MLINESTYLE
350
17
  0
DICTIONARY
  5
D
330
C
100
AcDbDictionary
  0
DICTIONARY
  5
1A
330
C
100
AcDbDictionary
  0
DICTIONARY
  5
17
330
C
100
AcDbDictionary
  3
STANDARD
350
18
  0
DICTIONARY
  5
19
330
C
100
AcDbDictionary
  0
ENDSEC
  0
EOF