G04 #@! TF.FileFunction,Soldermask,Top*
%FSLAX46Y46*%
G04 Gerber Fmt 4.6, Leading zero omitted, Abs format (unit mm)*
G04 Created by KiCad (PCBNEW 4.0.7) date 05/01/18 21:21:02*
%MOMM*%
%LPD*%
G01*
G04 APERTURE LIST*
%ADD10C,0.020000*%
%ADD11R,3.900000X2.000000*%
%ADD12R,1.600000X1.600000*%
%ADD13R,1.300000X1.200000*%
%ADD14R,2.100000X2.100000*%
%ADD15O,2.100000X2.100000*%
%ADD16R,0.900000X0.650000*%
%ADD17R,1.400000X3.050000*%
%ADD18R,2.400000X4.200000*%
%ADD19R,2.400000X1.900000*%
%ADD20R,1.800000X2.200000*%
%ADD21R,1.650000X1.400000*%
%ADD22R,1.400000X1.650000*%
%ADD23R,1.700000X1.100000*%
%ADD24R,1.100000X1.700000*%
%ADD25R,1.140000X2.800000*%
%ADD26R,0.650000X1.100000*%
%ADD27R,1.100000X0.650000*%
%ADD28R,1.687500X1.687500*%
%ADD29R,5.000000X1.400000*%
%ADD30R,7.400000X4.400000*%
%ADD31R,1.400000X1.400000*%
%ADD32R,2.400000X1.400000*%
%ADD33R,1.950000X1.700000*%
%ADD34R,1.700000X1.950000*%
%ADD35C,2.000000*%
G04 APERTURE END LIST*
D10*
D11*
X128684000Y-143383000D03*
X123284000Y-143383000D03*
X128684000Y-150495000D03*
X123284000Y-150495000D03*
D12*
X83058000Y-44280000D03*
X83058000Y-42080000D03*
D13*
X91329000Y-152339000D03*
X91329000Y-154239000D03*
X93329000Y-153289000D03*
D14*
X103759000Y-137668000D03*
D15*
X106299000Y-137668000D03*
X108839000Y-137668000D03*
X111379000Y-137668000D03*
X113919000Y-137668000D03*
D13*
X102854000Y-112075000D03*
X102854000Y-110175000D03*
X100854000Y-111125000D03*
D14*
X149479000Y-77343000D03*
D15*
X152019000Y-77343000D03*
D16*
X120076000Y-135616000D03*
X120076000Y-135116000D03*
X120076000Y-134616000D03*
X120076000Y-134116000D03*
X120076000Y-133616000D03*
X120076000Y-133116000D03*
X118176000Y-133116000D03*
X118176000Y-133616000D03*
X118176000Y-134116000D03*
X118176000Y-134616000D03*
X118176000Y-135116000D03*
X118176000Y-135616000D03*
D17*
X119126000Y-134366000D03*
D18*
X89687000Y-158750000D03*
D19*
X95987000Y-158750000D03*
X95987000Y-156450000D03*
X95987000Y-161050000D03*
D20*
X119056000Y-145583000D03*
X119056000Y-141183000D03*
X116656000Y-141183000D03*
X116656000Y-145583000D03*
D21*
X103378000Y-57642000D03*
X103378000Y-55642000D03*
X121793000Y-136541000D03*
X121793000Y-138541000D03*
D22*
X163814000Y-159385000D03*
X161814000Y-159385000D03*
D21*
X123825000Y-137176000D03*
X123825000Y-139176000D03*
D22*
X119491000Y-137541000D03*
X117491000Y-137541000D03*
X111141000Y-155321000D03*
X113141000Y-155321000D03*
D21*
X114554000Y-153400000D03*
X114554000Y-151400000D03*
X102870000Y-154067000D03*
X102870000Y-156067000D03*
X100965000Y-150638000D03*
X100965000Y-152638000D03*
D22*
X109204000Y-155956000D03*
X107204000Y-155956000D03*
X112284000Y-149479000D03*
X114284000Y-149479000D03*
D21*
X100965000Y-156448000D03*
X100965000Y-154448000D03*
X98933000Y-156448000D03*
X98933000Y-154448000D03*
X98933000Y-150638000D03*
X98933000Y-152638000D03*
X112649000Y-141494000D03*
X112649000Y-143494000D03*
D23*
X105156000Y-156906000D03*
X105156000Y-155006000D03*
D24*
X106868000Y-107315000D03*
X104968000Y-107315000D03*
X104968000Y-113030000D03*
X106868000Y-113030000D03*
X112837000Y-153289000D03*
X110937000Y-153289000D03*
X97978000Y-109093000D03*
X96078000Y-109093000D03*
X93157000Y-110998000D03*
X95057000Y-110998000D03*
X98867000Y-106807000D03*
X96967000Y-106807000D03*
D23*
X83058000Y-48194000D03*
X83058000Y-46294000D03*
D24*
X109154000Y-154051000D03*
X107254000Y-154051000D03*
D23*
X114554000Y-143317000D03*
X114554000Y-141417000D03*
D25*
X90678000Y-104984000D03*
X90678000Y-108884000D03*
X89408000Y-104984000D03*
X89408000Y-108884000D03*
X88138000Y-104984000D03*
X88138000Y-108884000D03*
X86868000Y-104984000D03*
X86868000Y-108884000D03*
X85598000Y-104984000D03*
X85598000Y-108884000D03*
D24*
X104968000Y-110109000D03*
X106868000Y-110109000D03*
X87437000Y-156210000D03*
X85537000Y-156210000D03*
D14*
X97282000Y-118872000D03*
D15*
X99822000Y-118872000D03*
X102362000Y-118872000D03*
X104902000Y-118872000D03*
X107442000Y-118872000D03*
X109982000Y-118872000D03*
D14*
X85598000Y-153162000D03*
D15*
X88138000Y-153162000D03*
D14*
X151384000Y-157861000D03*
D15*
X151384000Y-160401000D03*
D14*
X99314000Y-55499000D03*
D15*
X99314000Y-58039000D03*
D14*
X91694000Y-130048000D03*
D15*
X89154000Y-130048000D03*
X91694000Y-127508000D03*
X89154000Y-127508000D03*
X91694000Y-124968000D03*
X89154000Y-124968000D03*
D14*
X91694000Y-145796000D03*
D15*
X89154000Y-145796000D03*
X91694000Y-143256000D03*
X89154000Y-143256000D03*
X91694000Y-140716000D03*
X89154000Y-140716000D03*
D26*
X104057000Y-149704000D03*
X104557000Y-149704000D03*
X105057000Y-149704000D03*
X105557000Y-149704000D03*
X106057000Y-149704000D03*
X106557000Y-149704000D03*
X107057000Y-149704000D03*
X107557000Y-149704000D03*
X108057000Y-149704000D03*
X108557000Y-149704000D03*
X109057000Y-149704000D03*
X109557000Y-149704000D03*
D27*
X110207000Y-149054000D03*
X110207000Y-148554000D03*
X110207000Y-148054000D03*
X110207000Y-147554000D03*
X110207000Y-147054000D03*
X110207000Y-146554000D03*
X110207000Y-146054000D03*
X110207000Y-145554000D03*
X110207000Y-145054000D03*
X110207000Y-144554000D03*
X110207000Y-144054000D03*
X110207000Y-143554000D03*
D26*
X109557000Y-142904000D03*
X109057000Y-142904000D03*
X108557000Y-142904000D03*
X108057000Y-142904000D03*
X107557000Y-142904000D03*
X107057000Y-142904000D03*
X106557000Y-142904000D03*
X106057000Y-142904000D03*
X105557000Y-142904000D03*
X105057000Y-142904000D03*
X104557000Y-142904000D03*
X104057000Y-142904000D03*
D27*
X103407000Y-143554000D03*
X103407000Y-144054000D03*
X103407000Y-144554000D03*
X103407000Y-145054000D03*
X103407000Y-145554000D03*
X103407000Y-146054000D03*
X103407000Y-146554000D03*
X103407000Y-147054000D03*
X103407000Y-147554000D03*
X103407000Y-148054000D03*
X103407000Y-148554000D03*
X103407000Y-149054000D03*
D28*
X108738250Y-144372750D03*
X107450750Y-144372750D03*
X106163250Y-144372750D03*
X104875750Y-144372750D03*
X108738250Y-145660250D03*
X107450750Y-145660250D03*
X106163250Y-145660250D03*
X104875750Y-145660250D03*
X108738250Y-146947750D03*
X107450750Y-146947750D03*
X106163250Y-146947750D03*
X104875750Y-146947750D03*
X108738250Y-148235250D03*
X107450750Y-148235250D03*
X106163250Y-148235250D03*
X104875750Y-148235250D03*
D14*
X166370000Y-159385000D03*
X159258000Y-159385000D03*
X103378000Y-59944000D03*
X103378000Y-53213000D03*
D24*
X117840000Y-149509000D03*
X115940000Y-149509000D03*
D29*
X110852000Y-107276000D03*
X110852000Y-115676000D03*
X110852000Y-114276000D03*
X110852000Y-108676000D03*
X110852000Y-110076000D03*
X110852000Y-111476000D03*
D30*
X117152000Y-111476000D03*
D29*
X110852000Y-112876000D03*
D31*
X226818300Y-118243700D03*
X226818300Y-119643700D03*
X226818300Y-121043700D03*
D32*
X235318300Y-118243700D03*
X235318300Y-119643700D03*
X235318300Y-121043700D03*
D33*
X106456000Y-47208000D03*
X97506000Y-47208000D03*
X106456000Y-42708000D03*
X97506000Y-42708000D03*
X95280000Y-47208000D03*
X86330000Y-47208000D03*
X95280000Y-42708000D03*
X86330000Y-42708000D03*
D34*
X89372000Y-58009000D03*
X89372000Y-66959000D03*
X84872000Y-58009000D03*
X84872000Y-66959000D03*
D35*
X83337400Y-158343600D03*
X119405400Y-42672000D03*
X196977000Y-81584800D03*
M02*
