  0
SECTION
  2
HEADER
  9
$ANGBASE
  50
0.0
  9
$ANGDIR
  70
1
  9
$MEASUREMENT
  70
0
  0
ENDSEC
  0
SECTION
  2
TABLES
  0
TABLE
  2
LTYPE
  70
4
  0
LTYPE
  5
40F
  2
CONTINUOUS
  70
0
  3
Solid line
  72
65
  73
0
  40
0.0
  0
LTYPE
  5
410
  2
DASHDOT
 70
0
  3
Dash Dot ____ _ ____ _
 72
65
 73
4
 40
2.0
 49
1.25
 49
-0.25
 49
0.25
 49
-0.25
  0
LTYPE
  5
411
  2
DASHED
 70
0
  3
Dashed __ __ __ __ __
 72
65
 73
2
 40
0.75
 49
0.5
 49
-0.25
  0
LTYPE
  5
43B
  2
DOTTED
 70
0
  3
Dotted .  .  .  .
 72
65
 73
2
 40
0.2
 49
0.0
 49
-0.2
  0
ENDTAB
  0
TABLE
  2
STYLE
  70
4
  0
STYLE
  2
KICAD
  70
0
  40
0
  41
1
  42
1
  50
0
  71
0
  3
isocp.shx
  0
STYLE
  2
KICADB
  70
0
  40
0
  41
1
  42
1
  50
0
  71
0
  3
isocp.shx
  0
STYLE
  2
KICADI
  70
0
  40
0
  41
1
  42
1
  50
15
  71
0
  3
isocp.shx
  0
STYLE
  2
KICADBI
  70
0
  40
0
  41
1
  42
1
  50
15
  71
0
  3
isocp.shx
  0
ENDTAB
  0
TABLE
  2
LAYER
  70
1
  0
LAYER
  2
BLACK
  70
0
  62
7
  6
CONTINUOUS
  0
ENDTAB
  0
ENDSEC
  0
SECTION
  2
ENTITIES
0
LINE
8
BLACK
6
CONTINUOUS
10
4.56756
20
-6.28413
11
4.58476
21
-6.29126
0
LINE
8
BLACK
6
CONTINUOUS
10
4.58476
20
-6.29126
11
4.60024
21
-6.3016
0
LINE
8
BLACK
6
CONTINUOUS
10
4.60024
20
-6.3016
11
4.6134
21
-6.31476
0
LINE
8
BLACK
6
CONTINUOUS
10
4.6134
20
-6.31476
11
4.62374
21
-6.33024
0
LINE
8
BLACK
6
CONTINUOUS
10
4.62374
20
-6.33024
11
4.63087
21
-6.34744
0
LINE
8
BLACK
6
CONTINUOUS
10
4.63087
20
-6.34744
11
4.6345
21
-6.36569
0
LINE
8
BLACK
6
CONTINUOUS
10
4.6345
20
-6.36569
11
4.6345
21
-6.38431
0
LINE
8
BLACK
6
CONTINUOUS
10
4.6345
20
-6.38431
11
4.63087
21
-6.40256
0
LINE
8
BLACK
6
CONTINUOUS
10
4.63087
20
-6.40256
11
4.62374
21
-6.41976
0
LINE
8
BLACK
6
CONTINUOUS
10
4.62374
20
-6.41976
11
4.6134
21
-6.43524
0
LINE
8
BLACK
6
CONTINUOUS
10
4.6134
20
-6.43524
11
4.60024
21
-6.4484
0
LINE
8
BLACK
6
CONTINUOUS
10
4.60024
20
-6.4484
11
4.58476
21
-6.45874
0
LINE
8
BLACK
6
CONTINUOUS
10
4.58476
20
-6.45874
11
4.56756
21
-6.46587
0
LINE
8
BLACK
6
CONTINUOUS
10
4.56756
20
-6.46587
11
4.54931
21
-6.4695
0
LINE
8
BLACK
6
CONTINUOUS
10
4.54931
20
-6.4695
11
4.53069
21
-6.4695
0
LINE
8
BLACK
6
CONTINUOUS
10
4.53069
20
-6.4695
11
4.51244
21
-6.46587
0
LINE
8
BLACK
6
CONTINUOUS
10
4.51244
20
-6.46587
11
4.49524
21
-6.45874
0
LINE
8
BLACK
6
CONTINUOUS
10
4.49524
20
-6.45874
11
4.47976
21
-6.4484
0
LINE
8
BLACK
6
CONTINUOUS
10
4.47976
20
-6.4484
11
4.4666
21
-6.43524
0
LINE
8
BLACK
6
CONTINUOUS
10
4.4666
20
-6.43524
11
4.45626
21
-6.41976
0
LINE
8
BLACK
6
CONTINUOUS
10
4.45626
20
-6.41976
11
4.44913
21
-6.40256
0
LINE
8
BLACK
6
CONTINUOUS
10
4.44913
20
-6.40256
11
4.4455
21
-6.38431
0
LINE
8
BLACK
6
CONTINUOUS
10
4.4455
20
-6.38431
11
4.4455
21
-6.36569
0
LINE
8
BLACK
6
CONTINUOUS
10
4.4455
20
-6.36569
11
4.44913
21
-6.34744
0
LINE
8
BLACK
6
CONTINUOUS
10
4.44913
20
-6.34744
11
4.45626
21
-6.33024
0
LINE
8
BLACK
6
CONTINUOUS
10
4.45626
20
-6.33024
11
4.4666
21
-6.31476
0
LINE
8
BLACK
6
CONTINUOUS
10
4.4666
20
-6.31476
11
4.47976
21
-6.3016
0
LINE
8
BLACK
6
CONTINUOUS
10
4.47976
20
-6.3016
11
4.49524
21
-6.29126
0
LINE
8
BLACK
6
CONTINUOUS
10
4.49524
20
-6.29126
11
4.51244
21
-6.28413
0
LINE
8
BLACK
6
CONTINUOUS
10
4.51244
20
-6.28413
11
4.53069
21
-6.2805
0
LINE
8
BLACK
6
CONTINUOUS
10
4.53069
20
-6.2805
11
4.54931
21
-6.2805
0
LINE
8
BLACK
6
CONTINUOUS
10
4.54931
20
-6.2805
11
4.56756
21
-6.28413
0
LINE
8
BLACK
6
CONTINUOUS
10
3.82626
20
-6.37795
11
3.73177
21
-6.37795
0
LINE
8
BLACK
6
CONTINUOUS
10
3.73177
20
-6.37795
11
3.73177
21
-6.30315
0
LINE
8
BLACK
6
CONTINUOUS
10
3.73177
20
-6.30315
11
3.82626
21
-6.30315
0
LINE
8
BLACK
6
CONTINUOUS
10
3.82626
20
-6.30315
11
3.82626
21
-6.37795
0
LINE
8
BLACK
6
CONTINUOUS
10
5.97206
20
-6.27525
11
5.97958
21
-6.27837
0
LINE
8
BLACK
6
CONTINUOUS
10
5.97958
20
-6.27837
11
5.98635
21
-6.28289
0
LINE
8
BLACK
6
CONTINUOUS
10
5.98635
20
-6.28289
11
5.99211
21
-6.28865
0
LINE
8
BLACK
6
CONTINUOUS
10
5.99211
20
-6.28865
11
5.99663
21
-6.29542
0
LINE
8
BLACK
6
CONTINUOUS
10
5.99663
20
-6.29542
11
5.99975
21
-6.30294
0
LINE
8
BLACK
6
CONTINUOUS
10
5.99975
20
-6.30294
11
6.00134
21
-6.31093
0
LINE
8
BLACK
6
CONTINUOUS
10
6.00134
20
-6.31093
11
6.00134
21
-6.31907
0
LINE
8
BLACK
6
CONTINUOUS
10
6.00134
20
-6.31907
11
5.99975
21
-6.32706
0
LINE
8
BLACK
6
CONTINUOUS
10
5.99975
20
-6.32706
11
5.99663
21
-6.33458
0
LINE
8
BLACK
6
CONTINUOUS
10
5.99663
20
-6.33458
11
5.99211
21
-6.34135
0
LINE
8
BLACK
6
CONTINUOUS
10
5.99211
20
-6.34135
11
5.98635
21
-6.34711
0
LINE
8
BLACK
6
CONTINUOUS
10
5.98635
20
-6.34711
11
5.97958
21
-6.35163
0
LINE
8
BLACK
6
CONTINUOUS
10
5.97958
20
-6.35163
11
5.97206
21
-6.35475
0
LINE
8
BLACK
6
CONTINUOUS
10
5.97206
20
-6.35475
11
5.96407
21
-6.35634
0
LINE
8
BLACK
6
CONTINUOUS
10
5.96407
20
-6.35634
11
5.95593
21
-6.35634
0
LINE
8
BLACK
6
CONTINUOUS
10
5.95593
20
-6.35634
11
5.94794
21
-6.35475
0
LINE
8
BLACK
6
CONTINUOUS
10
5.94794
20
-6.35475
11
5.94042
21
-6.35163
0
LINE
8
BLACK
6
CONTINUOUS
10
5.94042
20
-6.35163
11
5.93365
21
-6.34711
0
LINE
8
BLACK
6
CONTINUOUS
10
5.93365
20
-6.34711
11
5.92789
21
-6.34135
0
LINE
8
BLACK
6
CONTINUOUS
10
5.92789
20
-6.34135
11
5.92337
21
-6.33458
0
LINE
8
BLACK
6
CONTINUOUS
10
5.92337
20
-6.33458
11
5.92025
21
-6.32706
0
LINE
8
BLACK
6
CONTINUOUS
10
5.92025
20
-6.32706
11
5.91866
21
-6.31907
0
LINE
8
BLACK
6
CONTINUOUS
10
5.91866
20
-6.31907
11
5.91866
21
-6.31093
0
LINE
8
BLACK
6
CONTINUOUS
10
5.91866
20
-6.31093
11
5.92025
21
-6.30294
0
LINE
8
BLACK
6
CONTINUOUS
10
5.92025
20
-6.30294
11
5.92337
21
-6.29542
0
LINE
8
BLACK
6
CONTINUOUS
10
5.92337
20
-6.29542
11
5.92789
21
-6.28865
0
LINE
8
BLACK
6
CONTINUOUS
10
5.92789
20
-6.28865
11
5.93365
21
-6.28289
0
LINE
8
BLACK
6
CONTINUOUS
10
5.93365
20
-6.28289
11
5.94042
21
-6.27837
0
LINE
8
BLACK
6
CONTINUOUS
10
5.94042
20
-6.27837
11
5.94794
21
-6.27525
0
LINE
8
BLACK
6
CONTINUOUS
10
5.94794
20
-6.27525
11
5.95593
21
-6.27366
0
LINE
8
BLACK
6
CONTINUOUS
10
5.95593
20
-6.27366
11
5.96407
21
-6.27366
0
LINE
8
BLACK
6
CONTINUOUS
10
5.96407
20
-6.27366
11
5.97206
21
-6.27525
0
LINE
8
BLACK
6
CONTINUOUS
10
3.57823
20
-6.33268
11
3.48374
21
-6.33268
0
LINE
8
BLACK
6
CONTINUOUS
10
3.48374
20
-6.33268
11
3.48374
21
-6.16732
0
LINE
8
BLACK
6
CONTINUOUS
10
3.48374
20
-6.16732
11
3.57823
21
-6.16732
0
LINE
8
BLACK
6
CONTINUOUS
10
3.57823
20
-6.16732
11
3.57823
21
-6.33268
0
LINE
8
BLACK
6
CONTINUOUS
10
6.59134
20
-6.31634
11
6.50866
21
-6.31634
0
LINE
8
BLACK
6
CONTINUOUS
10
6.50866
20
-6.31634
11
6.50866
21
-6.23366
0
LINE
8
BLACK
6
CONTINUOUS
10
6.50866
20
-6.23366
11
6.59134
21
-6.23366
0
LINE
8
BLACK
6
CONTINUOUS
10
6.59134
20
-6.23366
11
6.59134
21
-6.31634
0
LINE
8
BLACK
6
CONTINUOUS
10
6.31134
20
-6.31634
11
6.22866
21
-6.31634
0
LINE
8
BLACK
6
CONTINUOUS
10
6.22866
20
-6.31634
11
6.22866
21
-6.23366
0
LINE
8
BLACK
6
CONTINUOUS
10
6.22866
20
-6.23366
11
6.31134
21
-6.23366
0
LINE
8
BLACK
6
CONTINUOUS
10
6.31134
20
-6.23366
11
6.31134
21
-6.31634
0
LINE
8
BLACK
6
CONTINUOUS
10
6.47693
20
-6.30748
11
6.42181
21
-6.30748
0
LINE
8
BLACK
6
CONTINUOUS
10
6.42181
20
-6.30748
11
6.42181
21
-6.24252
0
LINE
8
BLACK
6
CONTINUOUS
10
6.42181
20
-6.24252
11
6.47693
21
-6.24252
0
LINE
8
BLACK
6
CONTINUOUS
10
6.47693
20
-6.24252
11
6.47693
21
-6.30748
0
LINE
8
BLACK
6
CONTINUOUS
10
6.39819
20
-6.30748
11
6.34307
21
-6.30748
0
LINE
8
BLACK
6
CONTINUOUS
10
6.34307
20
-6.30748
11
6.34307
21
-6.24252
0
LINE
8
BLACK
6
CONTINUOUS
10
6.34307
20
-6.24252
11
6.39819
21
-6.24252
0
LINE
8
BLACK
6
CONTINUOUS
10
6.39819
20
-6.24252
11
6.39819
21
-6.30748
0
LINE
8
BLACK
6
CONTINUOUS
10
3.82626
20
-6.2874
11
3.73177
21
-6.2874
0
LINE
8
BLACK
6
CONTINUOUS
10
3.73177
20
-6.2874
11
3.73177
21
-6.2126
0
LINE
8
BLACK
6
CONTINUOUS
10
3.73177
20
-6.2126
11
3.82626
21
-6.2126
0
LINE
8
BLACK
6
CONTINUOUS
10
3.82626
20
-6.2126
11
3.82626
21
-6.2874
0
LINE
8
BLACK
6
CONTINUOUS
10
6.00134
20
-6.25634
11
5.91866
21
-6.25634
0
LINE
8
BLACK
6
CONTINUOUS
10
5.91866
20
-6.25634
11
5.91866
21
-6.17366
0
LINE
8
BLACK
6
CONTINUOUS
10
5.91866
20
-6.17366
11
6.00134
21
-6.17366
0
LINE
8
BLACK
6
CONTINUOUS
10
6.00134
20
-6.17366
11
6.00134
21
-6.25634
0
LINE
8
BLACK
6
CONTINUOUS
10
4.17346
20
-6.19906
11
4.10654
21
-6.19906
0
LINE
8
BLACK
6
CONTINUOUS
10
4.10654
20
-6.19906
11
4.10654
21
-6.15575
0
LINE
8
BLACK
6
CONTINUOUS
10
4.10654
20
-6.15575
11
4.17346
21
-6.15575
0
LINE
8
BLACK
6
CONTINUOUS
10
4.17346
20
-6.15575
11
4.17346
21
-6.19906
0
LINE
8
BLACK
6
CONTINUOUS
10
3.82626
20
-6.19685
11
3.73177
21
-6.19685
0
LINE
8
BLACK
6
CONTINUOUS
10
3.73177
20
-6.19685
11
3.73177
21
-6.12205
0
LINE
8
BLACK
6
CONTINUOUS
10
3.73177
20
-6.12205
11
3.82626
21
-6.12205
0
LINE
8
BLACK
6
CONTINUOUS
10
3.82626
20
-6.12205
11
3.82626
21
-6.19685
0
LINE
8
BLACK
6
CONTINUOUS
10
4.00748
20
-6.18693
11
3.94252
21
-6.18693
0
LINE
8
BLACK
6
CONTINUOUS
10
3.94252
20
-6.18693
11
3.94252
21
-6.13181
0
LINE
8
BLACK
6
CONTINUOUS
10
3.94252
20
-6.13181
11
4.00748
21
-6.13181
0
LINE
8
BLACK
6
CONTINUOUS
10
4.00748
20
-6.13181
11
4.00748
21
-6.18693
0
LINE
8
BLACK
6
CONTINUOUS
10
3.92748
20
-6.18693
11
3.86252
21
-6.18693
0
LINE
8
BLACK
6
CONTINUOUS
10
3.86252
20
-6.18693
11
3.86252
21
-6.13181
0
LINE
8
BLACK
6
CONTINUOUS
10
3.86252
20
-6.13181
11
3.92748
21
-6.13181
0
LINE
8
BLACK
6
CONTINUOUS
10
3.92748
20
-6.13181
11
3.92748
21
-6.18693
0
LINE
8
BLACK
6
CONTINUOUS
10
3.38925
20
-6.18346
11
3.34594
21
-6.18346
0
LINE
8
BLACK
6
CONTINUOUS
10
3.34594
20
-6.18346
11
3.34594
21
-6.11654
0
LINE
8
BLACK
6
CONTINUOUS
10
3.34594
20
-6.11654
11
3.38925
21
-6.11654
0
LINE
8
BLACK
6
CONTINUOUS
10
3.38925
20
-6.11654
11
3.38925
21
-6.18346
0
LINE
8
BLACK
6
CONTINUOUS
10
3.46406
20
-6.18346
11
3.42075
21
-6.18346
0
LINE
8
BLACK
6
CONTINUOUS
10
3.42075
20
-6.18346
11
3.42075
21
-6.11654
0
LINE
8
BLACK
6
CONTINUOUS
10
3.42075
20
-6.11654
11
3.46406
21
-6.11654
0
LINE
8
BLACK
6
CONTINUOUS
10
3.46406
20
-6.11654
11
3.46406
21
-6.18346
0
LINE
8
BLACK
6
CONTINUOUS
10
4.24819
20
-6.17248
11
4.19307
21
-6.17248
0
LINE
8
BLACK
6
CONTINUOUS
10
4.19307
20
-6.17248
11
4.19307
21
-6.10752
0
LINE
8
BLACK
6
CONTINUOUS
10
4.19307
20
-6.10752
11
4.24819
21
-6.10752
0
LINE
8
BLACK
6
CONTINUOUS
10
4.24819
20
-6.10752
11
4.24819
21
-6.17248
0
LINE
8
BLACK
6
CONTINUOUS
10
4.32693
20
-6.17248
11
4.27181
21
-6.17248
0
LINE
8
BLACK
6
CONTINUOUS
10
4.27181
20
-6.17248
11
4.27181
21
-6.10752
0
LINE
8
BLACK
6
CONTINUOUS
10
4.27181
20
-6.10752
11
4.32693
21
-6.10752
0
LINE
8
BLACK
6
CONTINUOUS
10
4.32693
20
-6.10752
11
4.32693
21
-6.17248
0
LINE
8
BLACK
6
CONTINUOUS
10
4.08248
20
-6.17193
11
4.01752
21
-6.17193
0
LINE
8
BLACK
6
CONTINUOUS
10
4.01752
20
-6.17193
11
4.01752
21
-6.11681
0
LINE
8
BLACK
6
CONTINUOUS
10
4.01752
20
-6.11681
11
4.08248
21
-6.11681
0
LINE
8
BLACK
6
CONTINUOUS
10
4.08248
20
-6.11681
11
4.08248
21
-6.17193
0
LINE
8
BLACK
6
CONTINUOUS
10
4.48193
20
-6.14748
11
4.42681
21
-6.14748
0
LINE
8
BLACK
6
CONTINUOUS
10
4.42681
20
-6.14748
11
4.42681
21
-6.08252
0
LINE
8
BLACK
6
CONTINUOUS
10
4.42681
20
-6.08252
11
4.48193
21
-6.08252
0
LINE
8
BLACK
6
CONTINUOUS
10
4.48193
20
-6.08252
11
4.48193
21
-6.14748
0
LINE
8
BLACK
6
CONTINUOUS
10
4.40319
20
-6.14748
11
4.34807
21
-6.14748
0
LINE
8
BLACK
6
CONTINUOUS
10
4.34807
20
-6.14748
11
4.34807
21
-6.08252
0
LINE
8
BLACK
6
CONTINUOUS
10
4.34807
20
-6.08252
11
4.40319
21
-6.08252
0
LINE
8
BLACK
6
CONTINUOUS
10
4.40319
20
-6.08252
11
4.40319
21
-6.14748
0
LINE
8
BLACK
6
CONTINUOUS
10
4.17346
20
-6.12425
11
4.10654
21
-6.12425
0
LINE
8
BLACK
6
CONTINUOUS
10
4.10654
20
-6.12425
11
4.10654
21
-6.08094
0
LINE
8
BLACK
6
CONTINUOUS
10
4.10654
20
-6.08094
11
4.17346
21
-6.08094
0
LINE
8
BLACK
6
CONTINUOUS
10
4.17346
20
-6.08094
11
4.17346
21
-6.12425
0
LINE
8
BLACK
6
CONTINUOUS
10
4.00748
20
-6.10819
11
3.94252
21
-6.10819
0
LINE
8
BLACK
6
CONTINUOUS
10
3.94252
20
-6.10819
11
3.94252
21
-6.05307
0
LINE
8
BLACK
6
CONTINUOUS
10
3.94252
20
-6.05307
11
4.00748
21
-6.05307
0
LINE
8
BLACK
6
CONTINUOUS
10
4.00748
20
-6.05307
11
4.00748
21
-6.10819
0
LINE
8
BLACK
6
CONTINUOUS
10
3.92748
20
-6.10819
11
3.86252
21
-6.10819
0
LINE
8
BLACK
6
CONTINUOUS
10
3.86252
20
-6.10819
11
3.86252
21
-6.05307
0
LINE
8
BLACK
6
CONTINUOUS
10
3.86252
20
-6.05307
11
3.92748
21
-6.05307
0
LINE
8
BLACK
6
CONTINUOUS
10
3.92748
20
-6.05307
11
3.92748
21
-6.10819
0
LINE
8
BLACK
6
CONTINUOUS
10
4.31906
20
-6.09846
11
4.27575
21
-6.09846
0
LINE
8
BLACK
6
CONTINUOUS
10
4.27575
20
-6.09846
11
4.27575
21
-6.03154
0
LINE
8
BLACK
6
CONTINUOUS
10
4.27575
20
-6.03154
11
4.31906
21
-6.03154
0
LINE
8
BLACK
6
CONTINUOUS
10
4.31906
20
-6.03154
11
4.31906
21
-6.09846
0
LINE
8
BLACK
6
CONTINUOUS
10
4.24425
20
-6.09846
11
4.20094
21
-6.09846
0
LINE
8
BLACK
6
CONTINUOUS
10
4.20094
20
-6.09846
11
4.20094
21
-6.03154
0
LINE
8
BLACK
6
CONTINUOUS
10
4.20094
20
-6.03154
11
4.24425
21
-6.03154
0
LINE
8
BLACK
6
CONTINUOUS
10
4.24425
20
-6.03154
11
4.24425
21
-6.09846
0
LINE
8
BLACK
6
CONTINUOUS
10
3.62122
20
-6.09602
11
3.57004
21
-6.09602
0
LINE
8
BLACK
6
CONTINUOUS
10
3.57004
20
-6.09602
11
3.57004
21
-6.04878
0
LINE
8
BLACK
6
CONTINUOUS
10
3.57004
20
-6.04878
11
3.62122
21
-6.04878
0
LINE
8
BLACK
6
CONTINUOUS
10
3.62122
20
-6.04878
11
3.62122
21
-6.09602
0
LINE
8
BLACK
6
CONTINUOUS
10
4.08248
20
-6.09319
11
4.01752
21
-6.09319
0
LINE
8
BLACK
6
CONTINUOUS
10
4.01752
20
-6.09319
11
4.01752
21
-6.03807
0
LINE
8
BLACK
6
CONTINUOUS
10
4.01752
20
-6.03807
11
4.08248
21
-6.03807
0
LINE
8
BLACK
6
CONTINUOUS
10
4.08248
20
-6.03807
11
4.08248
21
-6.09319
0
LINE
8
BLACK
6
CONTINUOUS
10
3.41134
20
-6.07134
11
3.32866
21
-6.07134
0
LINE
8
BLACK
6
CONTINUOUS
10
3.32866
20
-6.07134
11
3.32866
21
-5.98866
0
LINE
8
BLACK
6
CONTINUOUS
10
3.32866
20
-5.98866
11
3.41134
21
-5.98866
0
LINE
8
BLACK
6
CONTINUOUS
10
3.41134
20
-5.98866
11
3.41134
21
-6.07134
0
LINE
8
BLACK
6
CONTINUOUS
10
3.48206
20
-5.99025
11
3.48958
21
-5.99337
0
LINE
8
BLACK
6
CONTINUOUS
10
3.48958
20
-5.99337
11
3.49635
21
-5.99789
0
LINE
8
BLACK
6
CONTINUOUS
10
3.49635
20
-5.99789
11
3.50211
21
-6.00365
0
LINE
8
BLACK
6
CONTINUOUS
10
3.50211
20
-6.00365
11
3.50663
21
-6.01042
0
LINE
8
BLACK
6
CONTINUOUS
10
3.50663
20
-6.01042
11
3.50975
21
-6.01794
0
LINE
8
BLACK
6
CONTINUOUS
10
3.50975
20
-6.01794
11
3.51134
21
-6.02593
0
LINE
8
BLACK
6
CONTINUOUS
10
3.51134
20
-6.02593
11
3.51134
21
-6.03407
0
LINE
8
BLACK
6
CONTINUOUS
10
3.51134
20
-6.03407
11
3.50975
21
-6.04206
0
LINE
8
BLACK
6
CONTINUOUS
10
3.50975
20
-6.04206
11
3.50663
21
-6.04958
0
LINE
8
BLACK
6
CONTINUOUS
10
3.50663
20
-6.04958
11
3.50211
21
-6.05635
0
LINE
8
BLACK
6
CONTINUOUS
10
3.50211
20
-6.05635
11
3.49635
21
-6.06211
0
LINE
8
BLACK
6
CONTINUOUS
10
3.49635
20
-6.06211
11
3.48958
21
-6.06663
0
LINE
8
BLACK
6
CONTINUOUS
10
3.48958
20
-6.06663
11
3.48206
21
-6.06975
0
LINE
8
BLACK
6
CONTINUOUS
10
3.48206
20
-6.06975
11
3.47407
21
-6.07134
0
LINE
8
BLACK
6
CONTINUOUS
10
3.47407
20
-6.07134
11
3.46593
21
-6.07134
0
LINE
8
BLACK
6
CONTINUOUS
10
3.46593
20
-6.07134
11
3.45794
21
-6.06975
0
LINE
8
BLACK
6
CONTINUOUS
10
3.45794
20
-6.06975
11
3.45042
21
-6.06663
0
LINE
8
BLACK
6
CONTINUOUS
10
3.45042
20
-6.06663
11
3.44365
21
-6.06211
0
LINE
8
BLACK
6
CONTINUOUS
10
3.44365
20
-6.06211
11
3.43789
21
-6.05635
0
LINE
8
BLACK
6
CONTINUOUS
10
3.43789
20
-6.05635
11
3.43337
21
-6.04958
0
LINE
8
BLACK
6
CONTINUOUS
10
3.43337
20
-6.04958
11
3.43025
21
-6.04206
0
LINE
8
BLACK
6
CONTINUOUS
10
3.43025
20
-6.04206
11
3.42866
21
-6.03407
0
LINE
8
BLACK
6
CONTINUOUS
10
3.42866
20
-6.03407
11
3.42866
21
-6.02593
0
LINE
8
BLACK
6
CONTINUOUS
10
3.42866
20
-6.02593
11
3.43025
21
-6.01794
0
LINE
8
BLACK
6
CONTINUOUS
10
3.43025
20
-6.01794
11
3.43337
21
-6.01042
0
LINE
8
BLACK
6
CONTINUOUS
10
3.43337
20
-6.01042
11
3.43789
21
-6.00365
0
LINE
8
BLACK
6
CONTINUOUS
10
3.43789
20
-6.00365
11
3.44365
21
-5.99789
0
LINE
8
BLACK
6
CONTINUOUS
10
3.44365
20
-5.99789
11
3.45042
21
-5.99337
0
LINE
8
BLACK
6
CONTINUOUS
10
3.45042
20
-5.99337
11
3.45794
21
-5.99025
0
LINE
8
BLACK
6
CONTINUOUS
10
3.45794
20
-5.99025
11
3.46593
21
-5.98866
0
LINE
8
BLACK
6
CONTINUOUS
10
3.46593
20
-5.98866
11
3.47407
21
-5.98866
0
LINE
8
BLACK
6
CONTINUOUS
10
3.47407
20
-5.98866
11
3.48206
21
-5.99025
0
LINE
8
BLACK
6
CONTINUOUS
10
4.46406
20
-6.06846
11
4.42075
21
-6.06846
0
LINE
8
BLACK
6
CONTINUOUS
10
4.42075
20
-6.06846
11
4.42075
21
-6.00154
0
LINE
8
BLACK
6
CONTINUOUS
10
4.42075
20
-6.00154
11
4.46406
21
-6.00154
0
LINE
8
BLACK
6
CONTINUOUS
10
4.46406
20
-6.00154
11
4.46406
21
-6.06846
0
LINE
8
BLACK
6
CONTINUOUS
10
4.38925
20
-6.06846
11
4.34594
21
-6.06846
0
LINE
8
BLACK
6
CONTINUOUS
10
4.34594
20
-6.06846
11
4.34594
21
-6.00154
0
LINE
8
BLACK
6
CONTINUOUS
10
4.34594
20
-6.00154
11
4.38925
21
-6.00154
0
LINE
8
BLACK
6
CONTINUOUS
10
4.38925
20
-6.00154
11
4.38925
21
-6.06846
0
LINE
8
BLACK
6
CONTINUOUS
10
4.54248
20
-6.06693
11
4.47752
21
-6.06693
0
LINE
8
BLACK
6
CONTINUOUS
10
4.47752
20
-6.06693
11
4.47752
21
-6.01181
0
LINE
8
BLACK
6
CONTINUOUS
10
4.47752
20
-6.01181
11
4.54248
21
-6.01181
0
LINE
8
BLACK
6
CONTINUOUS
10
4.54248
20
-6.01181
11
4.54248
21
-6.06693
0
LINE
8
BLACK
6
CONTINUOUS
10
3.69996
20
-6.05862
11
3.64878
21
-6.05862
0
LINE
8
BLACK
6
CONTINUOUS
10
3.64878
20
-6.05862
11
3.64878
21
-6.01138
0
LINE
8
BLACK
6
CONTINUOUS
10
3.64878
20
-6.01138
11
3.69996
21
-6.01138
0
LINE
8
BLACK
6
CONTINUOUS
10
3.69996
20
-6.01138
11
3.69996
21
-6.05862
0
LINE
8
BLACK
6
CONTINUOUS
10
4.00748
20
-6.03693
11
3.94252
21
-6.03693
0
LINE
8
BLACK
6
CONTINUOUS
10
3.94252
20
-6.03693
11
3.94252
21
-5.98181
0
LINE
8
BLACK
6
CONTINUOUS
10
3.94252
20
-5.98181
11
4.00748
21
-5.98181
0
LINE
8
BLACK
6
CONTINUOUS
10
4.00748
20
-5.98181
11
4.00748
21
-6.03693
0
LINE
8
BLACK
6
CONTINUOUS
10
3.92748
20
-6.03693
11
3.86252
21
-6.03693
0
LINE
8
BLACK
6
CONTINUOUS
10
3.86252
20
-6.03693
11
3.86252
21
-5.98181
0
LINE
8
BLACK
6
CONTINUOUS
10
3.86252
20
-5.98181
11
3.92748
21
-5.98181
0
LINE
8
BLACK
6
CONTINUOUS
10
3.92748
20
-5.98181
11
3.92748
21
-6.03693
0
LINE
8
BLACK
6
CONTINUOUS
10
3.62122
20
-6.02122
11
3.57004
21
-6.02122
0
LINE
8
BLACK
6
CONTINUOUS
10
3.57004
20
-6.02122
11
3.57004
21
-5.97398
0
LINE
8
BLACK
6
CONTINUOUS
10
3.57004
20
-5.97398
11
3.62122
21
-5.97398
0
LINE
8
BLACK
6
CONTINUOUS
10
3.62122
20
-5.97398
11
3.62122
21
-6.02122
0
LINE
8
BLACK
6
CONTINUOUS
10
4.54248
20
-5.98819
11
4.47752
21
-5.98819
0
LINE
8
BLACK
6
CONTINUOUS
10
4.47752
20
-5.98819
11
4.47752
21
-5.93307
0
LINE
8
BLACK
6
CONTINUOUS
10
4.47752
20
-5.93307
11
4.54248
21
-5.93307
0
LINE
8
BLACK
6
CONTINUOUS
10
4.54248
20
-5.93307
11
4.54248
21
-5.98819
0
LINE
8
BLACK
6
CONTINUOUS
10
5.14307
20
-5.96437
11
4.98953
21
-5.96437
0
LINE
8
BLACK
6
CONTINUOUS
10
4.98953
20
-5.96437
11
4.98953
21
-5.88563
0
LINE
8
BLACK
6
CONTINUOUS
10
4.98953
20
-5.88563
11
5.14307
21
-5.88563
0
LINE
8
BLACK
6
CONTINUOUS
10
5.14307
20
-5.88563
11
5.14307
21
-5.96437
0
LINE
8
BLACK
6
CONTINUOUS
10
4.93047
20
-5.96437
11
4.77693
21
-5.96437
0
LINE
8
BLACK
6
CONTINUOUS
10
4.77693
20
-5.96437
11
4.77693
21
-5.88563
0
LINE
8
BLACK
6
CONTINUOUS
10
4.77693
20
-5.88563
11
4.93047
21
-5.88563
0
LINE
8
BLACK
6
CONTINUOUS
10
4.93047
20
-5.88563
11
4.93047
21
-5.96437
0
LINE
8
BLACK
6
CONTINUOUS
10
4.00748
20
-5.95819
11
3.94252
21
-5.95819
0
LINE
8
BLACK
6
CONTINUOUS
10
3.94252
20
-5.95819
11
3.94252
21
-5.90307
0
LINE
8
BLACK
6
CONTINUOUS
10
3.94252
20
-5.90307
11
4.00748
21
-5.90307
0
LINE
8
BLACK
6
CONTINUOUS
10
4.00748
20
-5.90307
11
4.00748
21
-5.95819
0
LINE
8
BLACK
6
CONTINUOUS
10
3.92748
20
-5.95819
11
3.86252
21
-5.95819
0
LINE
8
BLACK
6
CONTINUOUS
10
3.86252
20
-5.95819
11
3.86252
21
-5.90307
0
LINE
8
BLACK
6
CONTINUOUS
10
3.86252
20
-5.90307
11
3.92748
21
-5.90307
0
LINE
8
BLACK
6
CONTINUOUS
10
3.92748
20
-5.90307
11
3.92748
21
-5.95819
0
LINE
8
BLACK
6
CONTINUOUS
10
4.58622
20
-5.91965
11
4.54291
21
-5.91965
0
LINE
8
BLACK
6
CONTINUOUS
10
4.54291
20
-5.91965
11
4.54291
21
-5.85272
0
LINE
8
BLACK
6
CONTINUOUS
10
4.54291
20
-5.85272
11
4.58622
21
-5.85272
0
LINE
8
BLACK
6
CONTINUOUS
10
4.58622
20
-5.85272
11
4.58622
21
-5.91965
0
LINE
8
BLACK
6
CONTINUOUS
10
4.66102
20
-5.91965
11
4.61772
21
-5.91965
0
LINE
8
BLACK
6
CONTINUOUS
10
4.61772
20
-5.91965
11
4.61772
21
-5.85272
0
LINE
8
BLACK
6
CONTINUOUS
10
4.61772
20
-5.85272
11
4.66102
21
-5.85272
0
LINE
8
BLACK
6
CONTINUOUS
10
4.66102
20
-5.85272
11
4.66102
21
-5.91965
0
LINE
8
BLACK
6
CONTINUOUS
10
4.44819
20
-5.91748
11
4.39307
21
-5.91748
0
LINE
8
BLACK
6
CONTINUOUS
10
4.39307
20
-5.91748
11
4.39307
21
-5.85252
0
LINE
8
BLACK
6
CONTINUOUS
10
4.39307
20
-5.85252
11
4.44819
21
-5.85252
0
LINE
8
BLACK
6
CONTINUOUS
10
4.44819
20
-5.85252
11
4.44819
21
-5.91748
0
LINE
8
BLACK
6
CONTINUOUS
10
4.52693
20
-5.91748
11
4.47181
21
-5.91748
0
LINE
8
BLACK
6
CONTINUOUS
10
4.47181
20
-5.91748
11
4.47181
21
-5.85252
0
LINE
8
BLACK
6
CONTINUOUS
10
4.47181
20
-5.85252
11
4.52693
21
-5.85252
0
LINE
8
BLACK
6
CONTINUOUS
10
4.52693
20
-5.85252
11
4.52693
21
-5.91748
0
LINE
8
BLACK
6
CONTINUOUS
10
4.32606
20
-5.88106
11
4.32606
21
-5.91551
0
LINE
8
BLACK
6
CONTINUOUS
10
4.32606
20
-5.91551
11
4.08394
21
-5.91551
0
LINE
8
BLACK
6
CONTINUOUS
10
4.08394
20
-5.91551
11
4.08394
21
-5.88106
0
LINE
8
BLACK
6
CONTINUOUS
10
4.08394
20
-5.88106
11
4.04949
21
-5.88106
0
LINE
8
BLACK
6
CONTINUOUS
10
4.04949
20
-5.88106
11
4.04949
21
-5.63894
0
LINE
8
BLACK
6
CONTINUOUS
10
4.04949
20
-5.63894
11
4.08394
21
-5.63894
0
LINE
8
BLACK
6
CONTINUOUS
10
4.08394
20
-5.63894
11
4.08394
21
-5.60449
0
LINE
8
BLACK
6
CONTINUOUS
10
4.08394
20
-5.60449
11
4.32606
21
-5.60449
0
LINE
8
BLACK
6
CONTINUOUS
10
4.32606
20
-5.60449
11
4.32606
21
-5.63894
0
LINE
8
BLACK
6
CONTINUOUS
10
4.32606
20
-5.63894
11
4.36051
21
-5.63894
0
LINE
8
BLACK
6
CONTINUOUS
10
4.36051
20
-5.63894
11
4.36051
21
-5.88106
0
LINE
8
BLACK
6
CONTINUOUS
10
4.36051
20
-5.88106
11
4.32606
21
-5.88106
0
LINE
8
BLACK
6
CONTINUOUS
10
4.3172
20
-5.8722
11
4.3172
21
-5.6478
0
LINE
8
BLACK
6
CONTINUOUS
10
4.3172
20
-5.6478
11
4.0928
21
-5.6478
0
LINE
8
BLACK
6
CONTINUOUS
10
4.0928
20
-5.6478
11
4.0928
21
-5.8722
0
LINE
8
BLACK
6
CONTINUOUS
10
4.0928
20
-5.8722
11
4.3172
21
-5.8722
0
LINE
8
BLACK
6
CONTINUOUS
10
4.09575
20
-5.86925
11
4.09575
21
-5.65075
0
LINE
8
BLACK
6
CONTINUOUS
10
4.09575
20
-5.65075
11
4.31425
21
-5.65075
0
LINE
8
BLACK
6
CONTINUOUS
10
4.31425
20
-5.65075
11
4.31425
21
-5.86925
0
LINE
8
BLACK
6
CONTINUOUS
10
4.31425
20
-5.86925
11
4.09575
21
-5.86925
0
LINE
8
BLACK
6
CONTINUOUS
10
3.65134
20
-5.78134
11
3.56866
21
-5.78134
0
LINE
8
BLACK
6
CONTINUOUS
10
3.56866
20
-5.78134
11
3.56866
21
-5.69866
0
LINE
8
BLACK
6
CONTINUOUS
10
3.56866
20
-5.69866
11
3.65134
21
-5.69866
0
LINE
8
BLACK
6
CONTINUOUS
10
3.65134
20
-5.69866
11
3.65134
21
-5.78134
0
LINE
8
BLACK
6
CONTINUOUS
10
3.52206
20
-5.70025
11
3.52958
21
-5.70337
0
LINE
8
BLACK
6
CONTINUOUS
10
3.52958
20
-5.70337
11
3.53635
21
-5.70789
0
LINE
8
BLACK
6
CONTINUOUS
10
3.53635
20
-5.70789
11
3.54211
21
-5.71365
0
LINE
8
BLACK
6
CONTINUOUS
10
3.54211
20
-5.71365
11
3.54663
21
-5.72042
0
LINE
8
BLACK
6
CONTINUOUS
10
3.54663
20
-5.72042
11
3.54975
21
-5.72794
0
LINE
8
BLACK
6
CONTINUOUS
10
3.54975
20
-5.72794
11
3.55134
21
-5.73593
0
LINE
8
BLACK
6
CONTINUOUS
10
3.55134
20
-5.73593
11
3.55134
21
-5.74407
0
LINE
8
BLACK
6
CONTINUOUS
10
3.55134
20
-5.74407
11
3.54975
21
-5.75206
0
LINE
8
BLACK
6
CONTINUOUS
10
3.54975
20
-5.75206
11
3.54663
21
-5.75958
0
LINE
8
BLACK
6
CONTINUOUS
10
3.54663
20
-5.75958
11
3.54211
21
-5.76635
0
LINE
8
BLACK
6
CONTINUOUS
10
3.54211
20
-5.76635
11
3.53635
21
-5.77211
0
LINE
8
BLACK
6
CONTINUOUS
10
3.53635
20
-5.77211
11
3.52958
21
-5.77663
0
LINE
8
BLACK
6
CONTINUOUS
10
3.52958
20
-5.77663
11
3.52206
21
-5.77975
0
LINE
8
BLACK
6
CONTINUOUS
10
3.52206
20
-5.77975
11
3.51407
21
-5.78134
0
LINE
8
BLACK
6
CONTINUOUS
10
3.51407
20
-5.78134
11
3.50593
21
-5.78134
0
LINE
8
BLACK
6
CONTINUOUS
10
3.50593
20
-5.78134
11
3.49794
21
-5.77975
0
LINE
8
BLACK
6
CONTINUOUS
10
3.49794
20
-5.77975
11
3.49042
21
-5.77663
0
LINE
8
BLACK
6
CONTINUOUS
10
3.49042
20
-5.77663
11
3.48365
21
-5.77211
0
LINE
8
BLACK
6
CONTINUOUS
10
3.48365
20
-5.77211
11
3.47789
21
-5.76635
0
LINE
8
BLACK
6
CONTINUOUS
10
3.47789
20
-5.76635
11
3.47337
21
-5.75958
0
LINE
8
BLACK
6
CONTINUOUS
10
3.47337
20
-5.75958
11
3.47025
21
-5.75206
0
LINE
8
BLACK
6
CONTINUOUS
10
3.47025
20
-5.75206
11
3.46866
21
-5.74407
0
LINE
8
BLACK
6
CONTINUOUS
10
3.46866
20
-5.74407
11
3.46866
21
-5.73593
0
LINE
8
BLACK
6
CONTINUOUS
10
3.46866
20
-5.73593
11
3.47025
21
-5.72794
0
LINE
8
BLACK
6
CONTINUOUS
10
3.47025
20
-5.72794
11
3.47337
21
-5.72042
0
LINE
8
BLACK
6
CONTINUOUS
10
3.47337
20
-5.72042
11
3.47789
21
-5.71365
0
LINE
8
BLACK
6
CONTINUOUS
10
3.47789
20
-5.71365
11
3.48365
21
-5.70789
0
LINE
8
BLACK
6
CONTINUOUS
10
3.48365
20
-5.70789
11
3.49042
21
-5.70337
0
LINE
8
BLACK
6
CONTINUOUS
10
3.49042
20
-5.70337
11
3.49794
21
-5.70025
0
LINE
8
BLACK
6
CONTINUOUS
10
3.49794
20
-5.70025
11
3.50593
21
-5.69866
0
LINE
8
BLACK
6
CONTINUOUS
10
3.50593
20
-5.69866
11
3.51407
21
-5.69866
0
LINE
8
BLACK
6
CONTINUOUS
10
3.51407
20
-5.69866
11
3.52206
21
-5.70025
0
LINE
8
BLACK
6
CONTINUOUS
10
4.62819
20
-5.77492
11
4.55732
21
-5.77492
0
LINE
8
BLACK
6
CONTINUOUS
10
4.55732
20
-5.77492
11
4.55732
21
-5.68831
0
LINE
8
BLACK
6
CONTINUOUS
10
4.55732
20
-5.68831
11
4.62819
21
-5.68831
0
LINE
8
BLACK
6
CONTINUOUS
10
4.62819
20
-5.68831
11
4.62819
21
-5.77492
0
LINE
8
BLACK
6
CONTINUOUS
10
4.72268
20
-5.77492
11
4.65181
21
-5.77492
0
LINE
8
BLACK
6
CONTINUOUS
10
4.65181
20
-5.77492
11
4.65181
21
-5.68831
0
LINE
8
BLACK
6
CONTINUOUS
10
4.65181
20
-5.68831
11
4.72268
21
-5.68831
0
LINE
8
BLACK
6
CONTINUOUS
10
4.72268
20
-5.68831
11
4.72268
21
-5.77492
0
LINE
8
BLACK
6
CONTINUOUS
10
5.14307
20
-5.68437
11
4.98953
21
-5.68437
0
LINE
8
BLACK
6
CONTINUOUS
10
4.98953
20
-5.68437
11
4.98953
21
-5.60563
0
LINE
8
BLACK
6
CONTINUOUS
10
4.98953
20
-5.60563
11
5.14307
21
-5.60563
0
LINE
8
BLACK
6
CONTINUOUS
10
5.14307
20
-5.60563
11
5.14307
21
-5.68437
0
LINE
8
BLACK
6
CONTINUOUS
10
4.93047
20
-5.68437
11
4.77693
21
-5.68437
0
LINE
8
BLACK
6
CONTINUOUS
10
4.77693
20
-5.68437
11
4.77693
21
-5.60563
0
LINE
8
BLACK
6
CONTINUOUS
10
4.77693
20
-5.60563
11
4.93047
21
-5.60563
0
LINE
8
BLACK
6
CONTINUOUS
10
4.93047
20
-5.60563
11
4.93047
21
-5.68437
0
LINE
8
BLACK
6
CONTINUOUS
10
3.62206
20
-5.60025
11
3.62958
21
-5.60337
0
LINE
8
BLACK
6
CONTINUOUS
10
3.62958
20
-5.60337
11
3.63635
21
-5.60789
0
LINE
8
BLACK
6
CONTINUOUS
10
3.63635
20
-5.60789
11
3.64211
21
-5.61365
0
LINE
8
BLACK
6
CONTINUOUS
10
3.64211
20
-5.61365
11
3.64663
21
-5.62042
0
LINE
8
BLACK
6
CONTINUOUS
10
3.64663
20
-5.62042
11
3.64975
21
-5.62794
0
LINE
8
BLACK
6
CONTINUOUS
10
3.64975
20
-5.62794
11
3.65134
21
-5.63593
0
LINE
8
BLACK
6
CONTINUOUS
10
3.65134
20
-5.63593
11
3.65134
21
-5.64407
0
LINE
8
BLACK
6
CONTINUOUS
10
3.65134
20
-5.64407
11
3.64975
21
-5.65206
0
LINE
8
BLACK
6
CONTINUOUS
10
3.64975
20
-5.65206
11
3.64663
21
-5.65958
0
LINE
8
BLACK
6
CONTINUOUS
10
3.64663
20
-5.65958
11
3.64211
21
-5.66635
0
LINE
8
BLACK
6
CONTINUOUS
10
3.64211
20
-5.66635
11
3.63635
21
-5.67211
0
LINE
8
BLACK
6
CONTINUOUS
10
3.63635
20
-5.67211
11
3.62958
21
-5.67663
0
LINE
8
BLACK
6
CONTINUOUS
10
3.62958
20
-5.67663
11
3.62206
21
-5.67975
0
LINE
8
BLACK
6
CONTINUOUS
10
3.62206
20
-5.67975
11
3.61407
21
-5.68134
0
LINE
8
BLACK
6
CONTINUOUS
10
3.61407
20
-5.68134
11
3.60593
21
-5.68134
0
LINE
8
BLACK
6
CONTINUOUS
10
3.60593
20
-5.68134
11
3.59794
21
-5.67975
0
LINE
8
BLACK
6
CONTINUOUS
10
3.59794
20
-5.67975
11
3.59042
21
-5.67663
0
LINE
8
BLACK
6
CONTINUOUS
10
3.59042
20
-5.67663
11
3.58365
21
-5.67211
0
LINE
8
BLACK
6
CONTINUOUS
10
3.58365
20
-5.67211
11
3.57789
21
-5.66635
0
LINE
8
BLACK
6
CONTINUOUS
10
3.57789
20
-5.66635
11
3.57337
21
-5.65958
0
LINE
8
BLACK
6
CONTINUOUS
10
3.57337
20
-5.65958
11
3.57025
21
-5.65206
0
LINE
8
BLACK
6
CONTINUOUS
10
3.57025
20
-5.65206
11
3.56866
21
-5.64407
0
LINE
8
BLACK
6
CONTINUOUS
10
3.56866
20
-5.64407
11
3.56866
21
-5.63593
0
LINE
8
BLACK
6
CONTINUOUS
10
3.56866
20
-5.63593
11
3.57025
21
-5.62794
0
LINE
8
BLACK
6
CONTINUOUS
10
3.57025
20
-5.62794
11
3.57337
21
-5.62042
0
LINE
8
BLACK
6
CONTINUOUS
10
3.57337
20
-5.62042
11
3.57789
21
-5.61365
0
LINE
8
BLACK
6
CONTINUOUS
10
3.57789
20
-5.61365
11
3.58365
21
-5.60789
0
LINE
8
BLACK
6
CONTINUOUS
10
3.58365
20
-5.60789
11
3.59042
21
-5.60337
0
LINE
8
BLACK
6
CONTINUOUS
10
3.59042
20
-5.60337
11
3.59794
21
-5.60025
0
LINE
8
BLACK
6
CONTINUOUS
10
3.59794
20
-5.60025
11
3.60593
21
-5.59866
0
LINE
8
BLACK
6
CONTINUOUS
10
3.60593
20
-5.59866
11
3.61407
21
-5.59866
0
LINE
8
BLACK
6
CONTINUOUS
10
3.61407
20
-5.59866
11
3.62206
21
-5.60025
0
LINE
8
BLACK
6
CONTINUOUS
10
3.52206
20
-5.60025
11
3.52958
21
-5.60337
0
LINE
8
BLACK
6
CONTINUOUS
10
3.52958
20
-5.60337
11
3.53635
21
-5.60789
0
LINE
8
BLACK
6
CONTINUOUS
10
3.53635
20
-5.60789
11
3.54211
21
-5.61365
0
LINE
8
BLACK
6
CONTINUOUS
10
3.54211
20
-5.61365
11
3.54663
21
-5.62042
0
LINE
8
BLACK
6
CONTINUOUS
10
3.54663
20
-5.62042
11
3.54975
21
-5.62794
0
LINE
8
BLACK
6
CONTINUOUS
10
3.54975
20
-5.62794
11
3.55134
21
-5.63593
0
LINE
8
BLACK
6
CONTINUOUS
10
3.55134
20
-5.63593
11
3.55134
21
-5.64407
0
LINE
8
BLACK
6
CONTINUOUS
10
3.55134
20
-5.64407
11
3.54975
21
-5.65206
0
LINE
8
BLACK
6
CONTINUOUS
10
3.54975
20
-5.65206
11
3.54663
21
-5.65958
0
LINE
8
BLACK
6
CONTINUOUS
10
3.54663
20
-5.65958
11
3.54211
21
-5.66635
0
LINE
8
BLACK
6
CONTINUOUS
10
3.54211
20
-5.66635
11
3.53635
21
-5.67211
0
LINE
8
BLACK
6
CONTINUOUS
10
3.53635
20
-5.67211
11
3.52958
21
-5.67663
0
LINE
8
BLACK
6
CONTINUOUS
10
3.52958
20
-5.67663
11
3.52206
21
-5.67975
0
LINE
8
BLACK
6
CONTINUOUS
10
3.52206
20
-5.67975
11
3.51407
21
-5.68134
0
LINE
8
BLACK
6
CONTINUOUS
10
3.51407
20
-5.68134
11
3.50593
21
-5.68134
0
LINE
8
BLACK
6
CONTINUOUS
10
3.50593
20
-5.68134
11
3.49794
21
-5.67975
0
LINE
8
BLACK
6
CONTINUOUS
10
3.49794
20
-5.67975
11
3.49042
21
-5.67663
0
LINE
8
BLACK
6
CONTINUOUS
10
3.49042
20
-5.67663
11
3.48365
21
-5.67211
0
LINE
8
BLACK
6
CONTINUOUS
10
3.48365
20
-5.67211
11
3.47789
21
-5.66635
0
LINE
8
BLACK
6
CONTINUOUS
10
3.47789
20
-5.66635
11
3.47337
21
-5.65958
0
LINE
8
BLACK
6
CONTINUOUS
10
3.47337
20
-5.65958
11
3.47025
21
-5.65206
0
LINE
8
BLACK
6
CONTINUOUS
10
3.47025
20
-5.65206
11
3.46866
21
-5.64407
0
LINE
8
BLACK
6
CONTINUOUS
10
3.46866
20
-5.64407
11
3.46866
21
-5.63593
0
LINE
8
BLACK
6
CONTINUOUS
10
3.46866
20
-5.63593
11
3.47025
21
-5.62794
0
LINE
8
BLACK
6
CONTINUOUS
10
3.47025
20
-5.62794
11
3.47337
21
-5.62042
0
LINE
8
BLACK
6
CONTINUOUS
10
3.47337
20
-5.62042
11
3.47789
21
-5.61365
0
LINE
8
BLACK
6
CONTINUOUS
10
3.47789
20
-5.61365
11
3.48365
21
-5.60789
0
LINE
8
BLACK
6
CONTINUOUS
10
3.48365
20
-5.60789
11
3.49042
21
-5.60337
0
LINE
8
BLACK
6
CONTINUOUS
10
3.49042
20
-5.60337
11
3.49794
21
-5.60025
0
LINE
8
BLACK
6
CONTINUOUS
10
3.49794
20
-5.60025
11
3.50593
21
-5.59866
0
LINE
8
BLACK
6
CONTINUOUS
10
3.50593
20
-5.59866
11
3.51407
21
-5.59866
0
LINE
8
BLACK
6
CONTINUOUS
10
3.51407
20
-5.59866
11
3.52206
21
-5.60025
0
LINE
8
BLACK
6
CONTINUOUS
10
4.46748
20
-5.67693
11
4.40252
21
-5.67693
0
LINE
8
BLACK
6
CONTINUOUS
10
4.40252
20
-5.67693
11
4.40252
21
-5.62181
0
LINE
8
BLACK
6
CONTINUOUS
10
4.40252
20
-5.62181
11
4.46748
21
-5.62181
0
LINE
8
BLACK
6
CONTINUOUS
10
4.46748
20
-5.62181
11
4.46748
21
-5.67693
0
LINE
8
BLACK
6
CONTINUOUS
10
4.54346
20
-5.66406
11
4.47654
21
-5.66406
0
LINE
8
BLACK
6
CONTINUOUS
10
4.47654
20
-5.66406
11
4.47654
21
-5.62075
0
LINE
8
BLACK
6
CONTINUOUS
10
4.47654
20
-5.62075
11
4.54346
21
-5.62075
0
LINE
8
BLACK
6
CONTINUOUS
10
4.54346
20
-5.62075
11
4.54346
21
-5.66406
0
LINE
8
BLACK
6
CONTINUOUS
10
4.62819
20
-5.60169
11
4.55732
21
-5.60169
0
LINE
8
BLACK
6
CONTINUOUS
10
4.55732
20
-5.60169
11
4.55732
21
-5.51508
0
LINE
8
BLACK
6
CONTINUOUS
10
4.55732
20
-5.51508
11
4.62819
21
-5.51508
0
LINE
8
BLACK
6
CONTINUOUS
10
4.62819
20
-5.51508
11
4.62819
21
-5.60169
0
LINE
8
BLACK
6
CONTINUOUS
10
4.72268
20
-5.60169
11
4.65181
21
-5.60169
0
LINE
8
BLACK
6
CONTINUOUS
10
4.65181
20
-5.60169
11
4.65181
21
-5.51508
0
LINE
8
BLACK
6
CONTINUOUS
10
4.65181
20
-5.51508
11
4.72268
21
-5.51508
0
LINE
8
BLACK
6
CONTINUOUS
10
4.72268
20
-5.51508
11
4.72268
21
-5.60169
0
LINE
8
BLACK
6
CONTINUOUS
10
4.46748
20
-5.59819
11
4.40252
21
-5.59819
0
LINE
8
BLACK
6
CONTINUOUS
10
4.40252
20
-5.59819
11
4.40252
21
-5.54307
0
LINE
8
BLACK
6
CONTINUOUS
10
4.40252
20
-5.54307
11
4.46748
21
-5.54307
0
LINE
8
BLACK
6
CONTINUOUS
10
4.46748
20
-5.54307
11
4.46748
21
-5.59819
0
LINE
8
BLACK
6
CONTINUOUS
10
4.54346
20
-5.58925
11
4.47654
21
-5.58925
0
LINE
8
BLACK
6
CONTINUOUS
10
4.47654
20
-5.58925
11
4.47654
21
-5.54594
0
LINE
8
BLACK
6
CONTINUOUS
10
4.47654
20
-5.54594
11
4.54346
21
-5.54594
0
LINE
8
BLACK
6
CONTINUOUS
10
4.54346
20
-5.54594
11
4.54346
21
-5.58925
0
LINE
8
BLACK
6
CONTINUOUS
10
3.52206
20
-5.50025
11
3.52958
21
-5.50337
0
LINE
8
BLACK
6
CONTINUOUS
10
3.52958
20
-5.50337
11
3.53635
21
-5.50789
0
LINE
8
BLACK
6
CONTINUOUS
10
3.53635
20
-5.50789
11
3.54211
21
-5.51365
0
LINE
8
BLACK
6
CONTINUOUS
10
3.54211
20
-5.51365
11
3.54663
21
-5.52042
0
LINE
8
BLACK
6
CONTINUOUS
10
3.54663
20
-5.52042
11
3.54975
21
-5.52794
0
LINE
8
BLACK
6
CONTINUOUS
10
3.54975
20
-5.52794
11
3.55134
21
-5.53593
0
LINE
8
BLACK
6
CONTINUOUS
10
3.55134
20
-5.53593
11
3.55134
21
-5.54407
0
LINE
8
BLACK
6
CONTINUOUS
10
3.55134
20
-5.54407
11
3.54975
21
-5.55206
0
LINE
8
BLACK
6
CONTINUOUS
10
3.54975
20
-5.55206
11
3.54663
21
-5.55958
0
LINE
8
BLACK
6
CONTINUOUS
10
3.54663
20
-5.55958
11
3.54211
21
-5.56635
0
LINE
8
BLACK
6
CONTINUOUS
10
3.54211
20
-5.56635
11
3.53635
21
-5.57211
0
LINE
8
BLACK
6
CONTINUOUS
10
3.53635
20
-5.57211
11
3.52958
21
-5.57663
0
LINE
8
BLACK
6
CONTINUOUS
10
3.52958
20
-5.57663
11
3.52206
21
-5.57975
0
LINE
8
BLACK
6
CONTINUOUS
10
3.52206
20
-5.57975
11
3.51407
21
-5.58134
0
LINE
8
BLACK
6
CONTINUOUS
10
3.51407
20
-5.58134
11
3.50593
21
-5.58134
0
LINE
8
BLACK
6
CONTINUOUS
10
3.50593
20
-5.58134
11
3.49794
21
-5.57975
0
LINE
8
BLACK
6
CONTINUOUS
10
3.49794
20
-5.57975
11
3.49042
21
-5.57663
0
LINE
8
BLACK
6
CONTINUOUS
10
3.49042
20
-5.57663
11
3.48365
21
-5.57211
0
LINE
8
BLACK
6
CONTINUOUS
10
3.48365
20
-5.57211
11
3.47789
21
-5.56635
0
LINE
8
BLACK
6
CONTINUOUS
10
3.47789
20
-5.56635
11
3.47337
21
-5.55958
0
LINE
8
BLACK
6
CONTINUOUS
10
3.47337
20
-5.55958
11
3.47025
21
-5.55206
0
LINE
8
BLACK
6
CONTINUOUS
10
3.47025
20
-5.55206
11
3.46866
21
-5.54407
0
LINE
8
BLACK
6
CONTINUOUS
10
3.46866
20
-5.54407
11
3.46866
21
-5.53593
0
LINE
8
BLACK
6
CONTINUOUS
10
3.46866
20
-5.53593
11
3.47025
21
-5.52794
0
LINE
8
BLACK
6
CONTINUOUS
10
3.47025
20
-5.52794
11
3.47337
21
-5.52042
0
LINE
8
BLACK
6
CONTINUOUS
10
3.47337
20
-5.52042
11
3.47789
21
-5.51365
0
LINE
8
BLACK
6
CONTINUOUS
10
3.47789
20
-5.51365
11
3.48365
21
-5.50789
0
LINE
8
BLACK
6
CONTINUOUS
10
3.48365
20
-5.50789
11
3.49042
21
-5.50337
0
LINE
8
BLACK
6
CONTINUOUS
10
3.49042
20
-5.50337
11
3.49794
21
-5.50025
0
LINE
8
BLACK
6
CONTINUOUS
10
3.49794
20
-5.50025
11
3.50593
21
-5.49866
0
LINE
8
BLACK
6
CONTINUOUS
10
3.50593
20
-5.49866
11
3.51407
21
-5.49866
0
LINE
8
BLACK
6
CONTINUOUS
10
3.51407
20
-5.49866
11
3.52206
21
-5.50025
0
LINE
8
BLACK
6
CONTINUOUS
10
3.62206
20
-5.50025
11
3.62958
21
-5.50337
0
LINE
8
BLACK
6
CONTINUOUS
10
3.62958
20
-5.50337
11
3.63635
21
-5.50789
0
LINE
8
BLACK
6
CONTINUOUS
10
3.63635
20
-5.50789
11
3.64211
21
-5.51365
0
LINE
8
BLACK
6
CONTINUOUS
10
3.64211
20
-5.51365
11
3.64663
21
-5.52042
0
LINE
8
BLACK
6
CONTINUOUS
10
3.64663
20
-5.52042
11
3.64975
21
-5.52794
0
LINE
8
BLACK
6
CONTINUOUS
10
3.64975
20
-5.52794
11
3.65134
21
-5.53593
0
LINE
8
BLACK
6
CONTINUOUS
10
3.65134
20
-5.53593
11
3.65134
21
-5.54407
0
LINE
8
BLACK
6
CONTINUOUS
10
3.65134
20
-5.54407
11
3.64975
21
-5.55206
0
LINE
8
BLACK
6
CONTINUOUS
10
3.64975
20
-5.55206
11
3.64663
21
-5.55958
0
LINE
8
BLACK
6
CONTINUOUS
10
3.64663
20
-5.55958
11
3.64211
21
-5.56635
0
LINE
8
BLACK
6
CONTINUOUS
10
3.64211
20
-5.56635
11
3.63635
21
-5.57211
0
LINE
8
BLACK
6
CONTINUOUS
10
3.63635
20
-5.57211
11
3.62958
21
-5.57663
0
LINE
8
BLACK
6
CONTINUOUS
10
3.62958
20
-5.57663
11
3.62206
21
-5.57975
0
LINE
8
BLACK
6
CONTINUOUS
10
3.62206
20
-5.57975
11
3.61407
21
-5.58134
0
LINE
8
BLACK
6
CONTINUOUS
10
3.61407
20
-5.58134
11
3.60593
21
-5.58134
0
LINE
8
BLACK
6
CONTINUOUS
10
3.60593
20
-5.58134
11
3.59794
21
-5.57975
0
LINE
8
BLACK
6
CONTINUOUS
10
3.59794
20
-5.57975
11
3.59042
21
-5.57663
0
LINE
8
BLACK
6
CONTINUOUS
10
3.59042
20
-5.57663
11
3.58365
21
-5.57211
0
LINE
8
BLACK
6
CONTINUOUS
10
3.58365
20
-5.57211
11
3.57789
21
-5.56635
0
LINE
8
BLACK
6
CONTINUOUS
10
3.57789
20
-5.56635
11
3.57337
21
-5.55958
0
LINE
8
BLACK
6
CONTINUOUS
10
3.57337
20
-5.55958
11
3.57025
21
-5.55206
0
LINE
8
BLACK
6
CONTINUOUS
10
3.57025
20
-5.55206
11
3.56866
21
-5.54407
0
LINE
8
BLACK
6
CONTINUOUS
10
3.56866
20
-5.54407
11
3.56866
21
-5.53593
0
LINE
8
BLACK
6
CONTINUOUS
10
3.56866
20
-5.53593
11
3.57025
21
-5.52794
0
LINE
8
BLACK
6
CONTINUOUS
10
3.57025
20
-5.52794
11
3.57337
21
-5.52042
0
LINE
8
BLACK
6
CONTINUOUS
10
3.57337
20
-5.52042
11
3.57789
21
-5.51365
0
LINE
8
BLACK
6
CONTINUOUS
10
3.57789
20
-5.51365
11
3.58365
21
-5.50789
0
LINE
8
BLACK
6
CONTINUOUS
10
3.58365
20
-5.50789
11
3.59042
21
-5.50337
0
LINE
8
BLACK
6
CONTINUOUS
10
3.59042
20
-5.50337
11
3.59794
21
-5.50025
0
LINE
8
BLACK
6
CONTINUOUS
10
3.59794
20
-5.50025
11
3.60593
21
-5.49866
0
LINE
8
BLACK
6
CONTINUOUS
10
3.60593
20
-5.49866
11
3.61407
21
-5.49866
0
LINE
8
BLACK
6
CONTINUOUS
10
3.61407
20
-5.49866
11
3.62206
21
-5.50025
0
LINE
8
BLACK
6
CONTINUOUS
10
4.90748
20
-5.50693
11
4.84252
21
-5.50693
0
LINE
8
BLACK
6
CONTINUOUS
10
4.84252
20
-5.50693
11
4.84252
21
-5.45181
0
LINE
8
BLACK
6
CONTINUOUS
10
4.84252
20
-5.45181
11
4.90748
21
-5.45181
0
LINE
8
BLACK
6
CONTINUOUS
10
4.90748
20
-5.45181
11
4.90748
21
-5.50693
0
LINE
8
BLACK
6
CONTINUOUS
10
4.82748
20
-5.48193
11
4.76252
21
-5.48193
0
LINE
8
BLACK
6
CONTINUOUS
10
4.76252
20
-5.48193
11
4.76252
21
-5.42681
0
LINE
8
BLACK
6
CONTINUOUS
10
4.76252
20
-5.42681
11
4.82748
21
-5.42681
0
LINE
8
BLACK
6
CONTINUOUS
10
4.82748
20
-5.42681
11
4.82748
21
-5.48193
0
LINE
8
BLACK
6
CONTINUOUS
10
4.19706
20
-5.38025
11
4.20458
21
-5.38337
0
LINE
8
BLACK
6
CONTINUOUS
10
4.20458
20
-5.38337
11
4.21135
21
-5.38789
0
LINE
8
BLACK
6
CONTINUOUS
10
4.21135
20
-5.38789
11
4.21711
21
-5.39365
0
LINE
8
BLACK
6
CONTINUOUS
10
4.21711
20
-5.39365
11
4.22163
21
-5.40042
0
LINE
8
BLACK
6
CONTINUOUS
10
4.22163
20
-5.40042
11
4.22475
21
-5.40794
0
LINE
8
BLACK
6
CONTINUOUS
10
4.22475
20
-5.40794
11
4.22634
21
-5.41593
0
LINE
8
BLACK
6
CONTINUOUS
10
4.22634
20
-5.41593
11
4.22634
21
-5.42407
0
LINE
8
BLACK
6
CONTINUOUS
10
4.22634
20
-5.42407
11
4.22475
21
-5.43206
0
LINE
8
BLACK
6
CONTINUOUS
10
4.22475
20
-5.43206
11
4.22163
21
-5.43958
0
LINE
8
BLACK
6
CONTINUOUS
10
4.22163
20
-5.43958
11
4.21711
21
-5.44635
0
LINE
8
BLACK
6
CONTINUOUS
10
4.21711
20
-5.44635
11
4.21135
21
-5.45211
0
LINE
8
BLACK
6
CONTINUOUS
10
4.21135
20
-5.45211
11
4.20458
21
-5.45663
0
LINE
8
BLACK
6
CONTINUOUS
10
4.20458
20
-5.45663
11
4.19706
21
-5.45975
0
LINE
8
BLACK
6
CONTINUOUS
10
4.19706
20
-5.45975
11
4.18907
21
-5.46134
0
LINE
8
BLACK
6
CONTINUOUS
10
4.18907
20
-5.46134
11
4.18093
21
-5.46134
0
LINE
8
BLACK
6
CONTINUOUS
10
4.18093
20
-5.46134
11
4.17294
21
-5.45975
0
LINE
8
BLACK
6
CONTINUOUS
10
4.17294
20
-5.45975
11
4.16542
21
-5.45663
0
LINE
8
BLACK
6
CONTINUOUS
10
4.16542
20
-5.45663
11
4.15865
21
-5.45211
0
LINE
8
BLACK
6
CONTINUOUS
10
4.15865
20
-5.45211
11
4.15289
21
-5.44635
0
LINE
8
BLACK
6
CONTINUOUS
10
4.15289
20
-5.44635
11
4.14837
21
-5.43958
0
LINE
8
BLACK
6
CONTINUOUS
10
4.14837
20
-5.43958
11
4.14525
21
-5.43206
0
LINE
8
BLACK
6
CONTINUOUS
10
4.14525
20
-5.43206
11
4.14366
21
-5.42407
0
LINE
8
BLACK
6
CONTINUOUS
10
4.14366
20
-5.42407
11
4.14366
21
-5.41593
0
LINE
8
BLACK
6
CONTINUOUS
10
4.14366
20
-5.41593
11
4.14525
21
-5.40794
0
LINE
8
BLACK
6
CONTINUOUS
10
4.14525
20
-5.40794
11
4.14837
21
-5.40042
0
LINE
8
BLACK
6
CONTINUOUS
10
4.14837
20
-5.40042
11
4.15289
21
-5.39365
0
LINE
8
BLACK
6
CONTINUOUS
10
4.15289
20
-5.39365
11
4.15865
21
-5.38789
0
LINE
8
BLACK
6
CONTINUOUS
10
4.15865
20
-5.38789
11
4.16542
21
-5.38337
0
LINE
8
BLACK
6
CONTINUOUS
10
4.16542
20
-5.38337
11
4.17294
21
-5.38025
0
LINE
8
BLACK
6
CONTINUOUS
10
4.17294
20
-5.38025
11
4.18093
21
-5.37866
0
LINE
8
BLACK
6
CONTINUOUS
10
4.18093
20
-5.37866
11
4.18907
21
-5.37866
0
LINE
8
BLACK
6
CONTINUOUS
10
4.18907
20
-5.37866
11
4.19706
21
-5.38025
0
LINE
8
BLACK
6
CONTINUOUS
10
4.49706
20
-5.38025
11
4.50458
21
-5.38337
0
LINE
8
BLACK
6
CONTINUOUS
10
4.50458
20
-5.38337
11
4.51135
21
-5.38789
0
LINE
8
BLACK
6
CONTINUOUS
10
4.51135
20
-5.38789
11
4.51711
21
-5.39365
0
LINE
8
BLACK
6
CONTINUOUS
10
4.51711
20
-5.39365
11
4.52163
21
-5.40042
0
LINE
8
BLACK
6
CONTINUOUS
10
4.52163
20
-5.40042
11
4.52475
21
-5.40794
0
LINE
8
BLACK
6
CONTINUOUS
10
4.52475
20
-5.40794
11
4.52634
21
-5.41593
0
LINE
8
BLACK
6
CONTINUOUS
10
4.52634
20
-5.41593
11
4.52634
21
-5.42407
0
LINE
8
BLACK
6
CONTINUOUS
10
4.52634
20
-5.42407
11
4.52475
21
-5.43206
0
LINE
8
BLACK
6
CONTINUOUS
10
4.52475
20
-5.43206
11
4.52163
21
-5.43958
0
LINE
8
BLACK
6
CONTINUOUS
10
4.52163
20
-5.43958
11
4.51711
21
-5.44635
0
LINE
8
BLACK
6
CONTINUOUS
10
4.51711
20
-5.44635
11
4.51135
21
-5.45211
0
LINE
8
BLACK
6
CONTINUOUS
10
4.51135
20
-5.45211
11
4.50458
21
-5.45663
0
LINE
8
BLACK
6
CONTINUOUS
10
4.50458
20
-5.45663
11
4.49706
21
-5.45975
0
LINE
8
BLACK
6
CONTINUOUS
10
4.49706
20
-5.45975
11
4.48907
21
-5.46134
0
LINE
8
BLACK
6
CONTINUOUS
10
4.48907
20
-5.46134
11
4.48093
21
-5.46134
0
LINE
8
BLACK
6
CONTINUOUS
10
4.48093
20
-5.46134
11
4.47294
21
-5.45975
0
LINE
8
BLACK
6
CONTINUOUS
10
4.47294
20
-5.45975
11
4.46542
21
-5.45663
0
LINE
8
BLACK
6
CONTINUOUS
10
4.46542
20
-5.45663
11
4.45865
21
-5.45211
0
LINE
8
BLACK
6
CONTINUOUS
10
4.45865
20
-5.45211
11
4.45289
21
-5.44635
0
LINE
8
BLACK
6
CONTINUOUS
10
4.45289
20
-5.44635
11
4.44837
21
-5.43958
0
LINE
8
BLACK
6
CONTINUOUS
10
4.44837
20
-5.43958
11
4.44525
21
-5.43206
0
LINE
8
BLACK
6
CONTINUOUS
10
4.44525
20
-5.43206
11
4.44366
21
-5.42407
0
LINE
8
BLACK
6
CONTINUOUS
10
4.44366
20
-5.42407
11
4.44366
21
-5.41593
0
LINE
8
BLACK
6
CONTINUOUS
10
4.44366
20
-5.41593
11
4.44525
21
-5.40794
0
LINE
8
BLACK
6
CONTINUOUS
10
4.44525
20
-5.40794
11
4.44837
21
-5.40042
0
LINE
8
BLACK
6
CONTINUOUS
10
4.44837
20
-5.40042
11
4.45289
21
-5.39365
0
LINE
8
BLACK
6
CONTINUOUS
10
4.45289
20
-5.39365
11
4.45865
21
-5.38789
0
LINE
8
BLACK
6
CONTINUOUS
10
4.45865
20
-5.38789
11
4.46542
21
-5.38337
0
LINE
8
BLACK
6
CONTINUOUS
10
4.46542
20
-5.38337
11
4.47294
21
-5.38025
0
LINE
8
BLACK
6
CONTINUOUS
10
4.47294
20
-5.38025
11
4.48093
21
-5.37866
0
LINE
8
BLACK
6
CONTINUOUS
10
4.48093
20
-5.37866
11
4.48907
21
-5.37866
0
LINE
8
BLACK
6
CONTINUOUS
10
4.48907
20
-5.37866
11
4.49706
21
-5.38025
0
LINE
8
BLACK
6
CONTINUOUS
10
4.39706
20
-5.38025
11
4.40458
21
-5.38337
0
LINE
8
BLACK
6
CONTINUOUS
10
4.40458
20
-5.38337
11
4.41135
21
-5.38789
0
LINE
8
BLACK
6
CONTINUOUS
10
4.41135
20
-5.38789
11
4.41711
21
-5.39365
0
LINE
8
BLACK
6
CONTINUOUS
10
4.41711
20
-5.39365
11
4.42163
21
-5.40042
0
LINE
8
BLACK
6
CONTINUOUS
10
4.42163
20
-5.40042
11
4.42475
21
-5.40794
0
LINE
8
BLACK
6
CONTINUOUS
10
4.42475
20
-5.40794
11
4.42634
21
-5.41593
0
LINE
8
BLACK
6
CONTINUOUS
10
4.42634
20
-5.41593
11
4.42634
21
-5.42407
0
LINE
8
BLACK
6
CONTINUOUS
10
4.42634
20
-5.42407
11
4.42475
21
-5.43206
0
LINE
8
BLACK
6
CONTINUOUS
10
4.42475
20
-5.43206
11
4.42163
21
-5.43958
0
LINE
8
BLACK
6
CONTINUOUS
10
4.42163
20
-5.43958
11
4.41711
21
-5.44635
0
LINE
8
BLACK
6
CONTINUOUS
10
4.41711
20
-5.44635
11
4.41135
21
-5.45211
0
LINE
8
BLACK
6
CONTINUOUS
10
4.41135
20
-5.45211
11
4.40458
21
-5.45663
0
LINE
8
BLACK
6
CONTINUOUS
10
4.40458
20
-5.45663
11
4.39706
21
-5.45975
0
LINE
8
BLACK
6
CONTINUOUS
10
4.39706
20
-5.45975
11
4.38907
21
-5.46134
0
LINE
8
BLACK
6
CONTINUOUS
10
4.38907
20
-5.46134
11
4.38093
21
-5.46134
0
LINE
8
BLACK
6
CONTINUOUS
10
4.38093
20
-5.46134
11
4.37294
21
-5.45975
0
LINE
8
BLACK
6
CONTINUOUS
10
4.37294
20
-5.45975
11
4.36542
21
-5.45663
0
LINE
8
BLACK
6
CONTINUOUS
10
4.36542
20
-5.45663
11
4.35865
21
-5.45211
0
LINE
8
BLACK
6
CONTINUOUS
10
4.35865
20
-5.45211
11
4.35289
21
-5.44635
0
LINE
8
BLACK
6
CONTINUOUS
10
4.35289
20
-5.44635
11
4.34837
21
-5.43958
0
LINE
8
BLACK
6
CONTINUOUS
10
4.34837
20
-5.43958
11
4.34525
21
-5.43206
0
LINE
8
BLACK
6
CONTINUOUS
10
4.34525
20
-5.43206
11
4.34366
21
-5.42407
0
LINE
8
BLACK
6
CONTINUOUS
10
4.34366
20
-5.42407
11
4.34366
21
-5.41593
0
LINE
8
BLACK
6
CONTINUOUS
10
4.34366
20
-5.41593
11
4.34525
21
-5.40794
0
LINE
8
BLACK
6
CONTINUOUS
10
4.34525
20
-5.40794
11
4.34837
21
-5.40042
0
LINE
8
BLACK
6
CONTINUOUS
10
4.34837
20
-5.40042
11
4.35289
21
-5.39365
0
LINE
8
BLACK
6
CONTINUOUS
10
4.35289
20
-5.39365
11
4.35865
21
-5.38789
0
LINE
8
BLACK
6
CONTINUOUS
10
4.35865
20
-5.38789
11
4.36542
21
-5.38337
0
LINE
8
BLACK
6
CONTINUOUS
10
4.36542
20
-5.38337
11
4.37294
21
-5.38025
0
LINE
8
BLACK
6
CONTINUOUS
10
4.37294
20
-5.38025
11
4.38093
21
-5.37866
0
LINE
8
BLACK
6
CONTINUOUS
10
4.38093
20
-5.37866
11
4.38907
21
-5.37866
0
LINE
8
BLACK
6
CONTINUOUS
10
4.38907
20
-5.37866
11
4.39706
21
-5.38025
0
LINE
8
BLACK
6
CONTINUOUS
10
4.29706
20
-5.38025
11
4.30458
21
-5.38337
0
LINE
8
BLACK
6
CONTINUOUS
10
4.30458
20
-5.38337
11
4.31135
21
-5.38789
0
LINE
8
BLACK
6
CONTINUOUS
10
4.31135
20
-5.38789
11
4.31711
21
-5.39365
0
LINE
8
BLACK
6
CONTINUOUS
10
4.31711
20
-5.39365
11
4.32163
21
-5.40042
0
LINE
8
BLACK
6
CONTINUOUS
10
4.32163
20
-5.40042
11
4.32475
21
-5.40794
0
LINE
8
BLACK
6
CONTINUOUS
10
4.32475
20
-5.40794
11
4.32634
21
-5.41593
0
LINE
8
BLACK
6
CONTINUOUS
10
4.32634
20
-5.41593
11
4.32634
21
-5.42407
0
LINE
8
BLACK
6
CONTINUOUS
10
4.32634
20
-5.42407
11
4.32475
21
-5.43206
0
LINE
8
BLACK
6
CONTINUOUS
10
4.32475
20
-5.43206
11
4.32163
21
-5.43958
0
LINE
8
BLACK
6
CONTINUOUS
10
4.32163
20
-5.43958
11
4.31711
21
-5.44635
0
LINE
8
BLACK
6
CONTINUOUS
10
4.31711
20
-5.44635
11
4.31135
21
-5.45211
0
LINE
8
BLACK
6
CONTINUOUS
10
4.31135
20
-5.45211
11
4.30458
21
-5.45663
0
LINE
8
BLACK
6
CONTINUOUS
10
4.30458
20
-5.45663
11
4.29706
21
-5.45975
0
LINE
8
BLACK
6
CONTINUOUS
10
4.29706
20
-5.45975
11
4.28907
21
-5.46134
0
LINE
8
BLACK
6
CONTINUOUS
10
4.28907
20
-5.46134
11
4.28093
21
-5.46134
0
LINE
8
BLACK
6
CONTINUOUS
10
4.28093
20
-5.46134
11
4.27294
21
-5.45975
0
LINE
8
BLACK
6
CONTINUOUS
10
4.27294
20
-5.45975
11
4.26542
21
-5.45663
0
LINE
8
BLACK
6
CONTINUOUS
10
4.26542
20
-5.45663
11
4.25865
21
-5.45211
0
LINE
8
BLACK
6
CONTINUOUS
10
4.25865
20
-5.45211
11
4.25289
21
-5.44635
0
LINE
8
BLACK
6
CONTINUOUS
10
4.25289
20
-5.44635
11
4.24837
21
-5.43958
0
LINE
8
BLACK
6
CONTINUOUS
10
4.24837
20
-5.43958
11
4.24525
21
-5.43206
0
LINE
8
BLACK
6
CONTINUOUS
10
4.24525
20
-5.43206
11
4.24366
21
-5.42407
0
LINE
8
BLACK
6
CONTINUOUS
10
4.24366
20
-5.42407
11
4.24366
21
-5.41593
0
LINE
8
BLACK
6
CONTINUOUS
10
4.24366
20
-5.41593
11
4.24525
21
-5.40794
0
LINE
8
BLACK
6
CONTINUOUS
10
4.24525
20
-5.40794
11
4.24837
21
-5.40042
0
LINE
8
BLACK
6
CONTINUOUS
10
4.24837
20
-5.40042
11
4.25289
21
-5.39365
0
LINE
8
BLACK
6
CONTINUOUS
10
4.25289
20
-5.39365
11
4.25865
21
-5.38789
0
LINE
8
BLACK
6
CONTINUOUS
10
4.25865
20
-5.38789
11
4.26542
21
-5.38337
0
LINE
8
BLACK
6
CONTINUOUS
10
4.26542
20
-5.38337
11
4.27294
21
-5.38025
0
LINE
8
BLACK
6
CONTINUOUS
10
4.27294
20
-5.38025
11
4.28093
21
-5.37866
0
LINE
8
BLACK
6
CONTINUOUS
10
4.28093
20
-5.37866
11
4.28907
21
-5.37866
0
LINE
8
BLACK
6
CONTINUOUS
10
4.28907
20
-5.37866
11
4.29706
21
-5.38025
0
LINE
8
BLACK
6
CONTINUOUS
10
4.12634
20
-5.46134
11
4.04366
21
-5.46134
0
LINE
8
BLACK
6
CONTINUOUS
10
4.04366
20
-5.46134
11
4.04366
21
-5.37866
0
LINE
8
BLACK
6
CONTINUOUS
10
4.04366
20
-5.37866
11
4.12634
21
-5.37866
0
LINE
8
BLACK
6
CONTINUOUS
10
4.12634
20
-5.37866
11
4.12634
21
-5.46134
0
LINE
8
BLACK
6
CONTINUOUS
10
4.65319
20
-5.44748
11
4.59807
21
-5.44748
0
LINE
8
BLACK
6
CONTINUOUS
10
4.59807
20
-5.44748
11
4.59807
21
-5.38252
0
LINE
8
BLACK
6
CONTINUOUS
10
4.59807
20
-5.38252
11
4.65319
21
-5.38252
0
LINE
8
BLACK
6
CONTINUOUS
10
4.65319
20
-5.38252
11
4.65319
21
-5.44748
0
LINE
8
BLACK
6
CONTINUOUS
10
4.73193
20
-5.44748
11
4.67681
21
-5.44748
0
LINE
8
BLACK
6
CONTINUOUS
10
4.67681
20
-5.44748
11
4.67681
21
-5.38252
0
LINE
8
BLACK
6
CONTINUOUS
10
4.67681
20
-5.38252
11
4.73193
21
-5.38252
0
LINE
8
BLACK
6
CONTINUOUS
10
4.73193
20
-5.38252
11
4.73193
21
-5.44748
0
LINE
8
BLACK
6
CONTINUOUS
10
4.90748
20
-5.42819
11
4.84252
21
-5.42819
0
LINE
8
BLACK
6
CONTINUOUS
10
4.84252
20
-5.42819
11
4.84252
21
-5.37307
0
LINE
8
BLACK
6
CONTINUOUS
10
4.84252
20
-5.37307
11
4.90748
21
-5.37307
0
LINE
8
BLACK
6
CONTINUOUS
10
4.90748
20
-5.37307
11
4.90748
21
-5.42819
0
LINE
8
BLACK
6
CONTINUOUS
10
4.82748
20
-5.40319
11
4.76252
21
-5.40319
0
LINE
8
BLACK
6
CONTINUOUS
10
4.76252
20
-5.40319
11
4.76252
21
-5.34807
0
LINE
8
BLACK
6
CONTINUOUS
10
4.76252
20
-5.34807
11
4.82748
21
-5.34807
0
LINE
8
BLACK
6
CONTINUOUS
10
4.82748
20
-5.34807
11
4.82748
21
-5.40319
0
LINE
8
BLACK
6
CONTINUOUS
10
4.70969
20
-5.35201
11
4.70969
21
-5.35004
0
LINE
8
BLACK
6
CONTINUOUS
10
4.70969
20
-5.35004
11
4.67031
21
-5.35004
0
LINE
8
BLACK
6
CONTINUOUS
10
4.67031
20
-5.35004
11
4.67031
21
-5.35201
0
LINE
8
BLACK
6
CONTINUOUS
10
4.67031
20
-5.35201
11
4.63488
21
-5.35201
0
LINE
8
BLACK
6
CONTINUOUS
10
4.63488
20
-5.35201
11
4.63488
21
-5.22799
0
LINE
8
BLACK
6
CONTINUOUS
10
4.63488
20
-5.22799
11
4.67031
21
-5.22799
0
LINE
8
BLACK
6
CONTINUOUS
10
4.67031
20
-5.22799
11
4.67031
21
-5.22996
0
LINE
8
BLACK
6
CONTINUOUS
10
4.67031
20
-5.22996
11
4.70969
21
-5.22996
0
LINE
8
BLACK
6
CONTINUOUS
10
4.70969
20
-5.22996
11
4.70969
21
-5.22799
0
LINE
8
BLACK
6
CONTINUOUS
10
4.70969
20
-5.22799
11
4.74512
21
-5.22799
0
LINE
8
BLACK
6
CONTINUOUS
10
4.74512
20
-5.22799
11
4.74512
21
-5.35201
0
LINE
8
BLACK
6
CONTINUOUS
10
4.74512
20
-5.35201
11
4.70969
21
-5.35201
0
LINE
8
BLACK
6
CONTINUOUS
10
6.87756
20
-5.01413
11
6.89476
21
-5.02126
0
LINE
8
BLACK
6
CONTINUOUS
10
6.89476
20
-5.02126
11
6.91024
21
-5.0316
0
LINE
8
BLACK
6
CONTINUOUS
10
6.91024
20
-5.0316
11
6.9234
21
-5.04476
0
LINE
8
BLACK
6
CONTINUOUS
10
6.9234
20
-5.04476
11
6.93374
21
-5.06024
0
LINE
8
BLACK
6
CONTINUOUS
10
6.93374
20
-5.06024
11
6.94087
21
-5.07744
0
LINE
8
BLACK
6
CONTINUOUS
10
6.94087
20
-5.07744
11
6.9445
21
-5.09569
0
LINE
8
BLACK
6
CONTINUOUS
10
6.9445
20
-5.09569
11
6.9445
21
-5.11431
0
LINE
8
BLACK
6
CONTINUOUS
10
6.9445
20
-5.11431
11
6.94087
21
-5.13256
0
LINE
8
BLACK
6
CONTINUOUS
10
6.94087
20
-5.13256
11
6.93374
21
-5.14976
0
LINE
8
BLACK
6
CONTINUOUS
10
6.93374
20
-5.14976
11
6.9234
21
-5.16524
0
LINE
8
BLACK
6
CONTINUOUS
10
6.9234
20
-5.16524
11
6.91024
21
-5.1784
0
LINE
8
BLACK
6
CONTINUOUS
10
6.91024
20
-5.1784
11
6.89476
21
-5.18874
0
LINE
8
BLACK
6
CONTINUOUS
10
6.89476
20
-5.18874
11
6.87756
21
-5.19587
0
LINE
8
BLACK
6
CONTINUOUS
10
6.87756
20
-5.19587
11
6.85931
21
-5.1995
0
LINE
8
BLACK
6
CONTINUOUS
10
6.85931
20
-5.1995
11
6.84069
21
-5.1995
0
LINE
8
BLACK
6
CONTINUOUS
10
6.84069
20
-5.1995
11
6.82244
21
-5.19587
0
LINE
8
BLACK
6
CONTINUOUS
10
6.82244
20
-5.19587
11
6.80524
21
-5.18874
0
LINE
8
BLACK
6
CONTINUOUS
10
6.80524
20
-5.18874
11
6.78976
21
-5.1784
0
LINE
8
BLACK
6
CONTINUOUS
10
6.78976
20
-5.1784
11
6.7766
21
-5.16524
0
LINE
8
BLACK
6
CONTINUOUS
10
6.7766
20
-5.16524
11
6.76626
21
-5.14976
0
LINE
8
BLACK
6
CONTINUOUS
10
6.76626
20
-5.14976
11
6.75913
21
-5.13256
0
LINE
8
BLACK
6
CONTINUOUS
10
6.75913
20
-5.13256
11
6.7555
21
-5.11431
0
LINE
8
BLACK
6
CONTINUOUS
10
6.7555
20
-5.11431
11
6.7555
21
-5.09569
0
LINE
8
BLACK
6
CONTINUOUS
10
6.7555
20
-5.09569
11
6.75913
21
-5.07744
0
LINE
8
BLACK
6
CONTINUOUS
10
6.75913
20
-5.07744
11
6.76626
21
-5.06024
0
LINE
8
BLACK
6
CONTINUOUS
10
6.76626
20
-5.06024
11
6.7766
21
-5.04476
0
LINE
8
BLACK
6
CONTINUOUS
10
6.7766
20
-5.04476
11
6.78976
21
-5.0316
0
LINE
8
BLACK
6
CONTINUOUS
10
6.78976
20
-5.0316
11
6.80524
21
-5.02126
0
LINE
8
BLACK
6
CONTINUOUS
10
6.80524
20
-5.02126
11
6.82244
21
-5.01413
0
LINE
8
BLACK
6
CONTINUOUS
10
6.82244
20
-5.01413
11
6.84069
21
-5.0105
0
LINE
8
BLACK
6
CONTINUOUS
10
6.84069
20
-5.0105
11
6.85931
21
-5.0105
0
LINE
8
BLACK
6
CONTINUOUS
10
6.85931
20
-5.0105
11
6.87756
21
-5.01413
0
LINE
8
BLACK
6
CONTINUOUS
10
3.52206
20
-5.08025
11
3.52958
21
-5.08337
0
LINE
8
BLACK
6
CONTINUOUS
10
3.52958
20
-5.08337
11
3.53635
21
-5.08789
0
LINE
8
BLACK
6
CONTINUOUS
10
3.53635
20
-5.08789
11
3.54211
21
-5.09365
0
LINE
8
BLACK
6
CONTINUOUS
10
3.54211
20
-5.09365
11
3.54663
21
-5.10042
0
LINE
8
BLACK
6
CONTINUOUS
10
3.54663
20
-5.10042
11
3.54975
21
-5.10794
0
LINE
8
BLACK
6
CONTINUOUS
10
3.54975
20
-5.10794
11
3.55134
21
-5.11593
0
LINE
8
BLACK
6
CONTINUOUS
10
3.55134
20
-5.11593
11
3.55134
21
-5.12407
0
LINE
8
BLACK
6
CONTINUOUS
10
3.55134
20
-5.12407
11
3.54975
21
-5.13206
0
LINE
8
BLACK
6
CONTINUOUS
10
3.54975
20
-5.13206
11
3.54663
21
-5.13958
0
LINE
8
BLACK
6
CONTINUOUS
10
3.54663
20
-5.13958
11
3.54211
21
-5.14635
0
LINE
8
BLACK
6
CONTINUOUS
10
3.54211
20
-5.14635
11
3.53635
21
-5.15211
0
LINE
8
BLACK
6
CONTINUOUS
10
3.53635
20
-5.15211
11
3.52958
21
-5.15663
0
LINE
8
BLACK
6
CONTINUOUS
10
3.52958
20
-5.15663
11
3.52206
21
-5.15975
0
LINE
8
BLACK
6
CONTINUOUS
10
3.52206
20
-5.15975
11
3.51407
21
-5.16134
0
LINE
8
BLACK
6
CONTINUOUS
10
3.51407
20
-5.16134
11
3.50593
21
-5.16134
0
LINE
8
BLACK
6
CONTINUOUS
10
3.50593
20
-5.16134
11
3.49794
21
-5.15975
0
LINE
8
BLACK
6
CONTINUOUS
10
3.49794
20
-5.15975
11
3.49042
21
-5.15663
0
LINE
8
BLACK
6
CONTINUOUS
10
3.49042
20
-5.15663
11
3.48365
21
-5.15211
0
LINE
8
BLACK
6
CONTINUOUS
10
3.48365
20
-5.15211
11
3.47789
21
-5.14635
0
LINE
8
BLACK
6
CONTINUOUS
10
3.47789
20
-5.14635
11
3.47337
21
-5.13958
0
LINE
8
BLACK
6
CONTINUOUS
10
3.47337
20
-5.13958
11
3.47025
21
-5.13206
0
LINE
8
BLACK
6
CONTINUOUS
10
3.47025
20
-5.13206
11
3.46866
21
-5.12407
0
LINE
8
BLACK
6
CONTINUOUS
10
3.46866
20
-5.12407
11
3.46866
21
-5.11593
0
LINE
8
BLACK
6
CONTINUOUS
10
3.46866
20
-5.11593
11
3.47025
21
-5.10794
0
LINE
8
BLACK
6
CONTINUOUS
10
3.47025
20
-5.10794
11
3.47337
21
-5.10042
0
LINE
8
BLACK
6
CONTINUOUS
10
3.47337
20
-5.10042
11
3.47789
21
-5.09365
0
LINE
8
BLACK
6
CONTINUOUS
10
3.47789
20
-5.09365
11
3.48365
21
-5.08789
0
LINE
8
BLACK
6
CONTINUOUS
10
3.48365
20
-5.08789
11
3.49042
21
-5.08337
0
LINE
8
BLACK
6
CONTINUOUS
10
3.49042
20
-5.08337
11
3.49794
21
-5.08025
0
LINE
8
BLACK
6
CONTINUOUS
10
3.49794
20
-5.08025
11
3.50593
21
-5.07866
0
LINE
8
BLACK
6
CONTINUOUS
10
3.50593
20
-5.07866
11
3.51407
21
-5.07866
0
LINE
8
BLACK
6
CONTINUOUS
10
3.51407
20
-5.07866
11
3.52206
21
-5.08025
0
LINE
8
BLACK
6
CONTINUOUS
10
3.65134
20
-5.16134
11
3.56866
21
-5.16134
0
LINE
8
BLACK
6
CONTINUOUS
10
3.56866
20
-5.16134
11
3.56866
21
-5.07866
0
LINE
8
BLACK
6
CONTINUOUS
10
3.56866
20
-5.07866
11
3.65134
21
-5.07866
0
LINE
8
BLACK
6
CONTINUOUS
10
3.65134
20
-5.07866
11
3.65134
21
-5.16134
0
LINE
8
BLACK
6
CONTINUOUS
10
3.52206
20
-4.98025
11
3.52958
21
-4.98337
0
LINE
8
BLACK
6
CONTINUOUS
10
3.52958
20
-4.98337
11
3.53635
21
-4.98789
0
LINE
8
BLACK
6
CONTINUOUS
10
3.53635
20
-4.98789
11
3.54211
21
-4.99365
0
LINE
8
BLACK
6
CONTINUOUS
10
3.54211
20
-4.99365
11
3.54663
21
-5.00042
0
LINE
8
BLACK
6
CONTINUOUS
10
3.54663
20
-5.00042
11
3.54975
21
-5.00794
0
LINE
8
BLACK
6
CONTINUOUS
10
3.54975
20
-5.00794
11
3.55134
21
-5.01593
0
LINE
8
BLACK
6
CONTINUOUS
10
3.55134
20
-5.01593
11
3.55134
21
-5.02407
0
LINE
8
BLACK
6
CONTINUOUS
10
3.55134
20
-5.02407
11
3.54975
21
-5.03206
0
LINE
8
BLACK
6
CONTINUOUS
10
3.54975
20
-5.03206
11
3.54663
21
-5.03958
0
LINE
8
BLACK
6
CONTINUOUS
10
3.54663
20
-5.03958
11
3.54211
21
-5.04635
0
LINE
8
BLACK
6
CONTINUOUS
10
3.54211
20
-5.04635
11
3.53635
21
-5.05211
0
LINE
8
BLACK
6
CONTINUOUS
10
3.53635
20
-5.05211
11
3.52958
21
-5.05663
0
LINE
8
BLACK
6
CONTINUOUS
10
3.52958
20
-5.05663
11
3.52206
21
-5.05975
0
LINE
8
BLACK
6
CONTINUOUS
10
3.52206
20
-5.05975
11
3.51407
21
-5.06134
0
LINE
8
BLACK
6
CONTINUOUS
10
3.51407
20
-5.06134
11
3.50593
21
-5.06134
0
LINE
8
BLACK
6
CONTINUOUS
10
3.50593
20
-5.06134
11
3.49794
21
-5.05975
0
LINE
8
BLACK
6
CONTINUOUS
10
3.49794
20
-5.05975
11
3.49042
21
-5.05663
0
LINE
8
BLACK
6
CONTINUOUS
10
3.49042
20
-5.05663
11
3.48365
21
-5.05211
0
LINE
8
BLACK
6
CONTINUOUS
10
3.48365
20
-5.05211
11
3.47789
21
-5.04635
0
LINE
8
BLACK
6
CONTINUOUS
10
3.47789
20
-5.04635
11
3.47337
21
-5.03958
0
LINE
8
BLACK
6
CONTINUOUS
10
3.47337
20
-5.03958
11
3.47025
21
-5.03206
0
LINE
8
BLACK
6
CONTINUOUS
10
3.47025
20
-5.03206
11
3.46866
21
-5.02407
0
LINE
8
BLACK
6
CONTINUOUS
10
3.46866
20
-5.02407
11
3.46866
21
-5.01593
0
LINE
8
BLACK
6
CONTINUOUS
10
3.46866
20
-5.01593
11
3.47025
21
-5.00794
0
LINE
8
BLACK
6
CONTINUOUS
10
3.47025
20
-5.00794
11
3.47337
21
-5.00042
0
LINE
8
BLACK
6
CONTINUOUS
10
3.47337
20
-5.00042
11
3.47789
21
-4.99365
0
LINE
8
BLACK
6
CONTINUOUS
10
3.47789
20
-4.99365
11
3.48365
21
-4.98789
0
LINE
8
BLACK
6
CONTINUOUS
10
3.48365
20
-4.98789
11
3.49042
21
-4.98337
0
LINE
8
BLACK
6
CONTINUOUS
10
3.49042
20
-4.98337
11
3.49794
21
-4.98025
0
LINE
8
BLACK
6
CONTINUOUS
10
3.49794
20
-4.98025
11
3.50593
21
-4.97866
0
LINE
8
BLACK
6
CONTINUOUS
10
3.50593
20
-4.97866
11
3.51407
21
-4.97866
0
LINE
8
BLACK
6
CONTINUOUS
10
3.51407
20
-4.97866
11
3.52206
21
-4.98025
0
LINE
8
BLACK
6
CONTINUOUS
10
3.62206
20
-4.98025
11
3.62958
21
-4.98337
0
LINE
8
BLACK
6
CONTINUOUS
10
3.62958
20
-4.98337
11
3.63635
21
-4.98789
0
LINE
8
BLACK
6
CONTINUOUS
10
3.63635
20
-4.98789
11
3.64211
21
-4.99365
0
LINE
8
BLACK
6
CONTINUOUS
10
3.64211
20
-4.99365
11
3.64663
21
-5.00042
0
LINE
8
BLACK
6
CONTINUOUS
10
3.64663
20
-5.00042
11
3.64975
21
-5.00794
0
LINE
8
BLACK
6
CONTINUOUS
10
3.64975
20
-5.00794
11
3.65134
21
-5.01593
0
LINE
8
BLACK
6
CONTINUOUS
10
3.65134
20
-5.01593
11
3.65134
21
-5.02407
0
LINE
8
BLACK
6
CONTINUOUS
10
3.65134
20
-5.02407
11
3.64975
21
-5.03206
0
LINE
8
BLACK
6
CONTINUOUS
10
3.64975
20
-5.03206
11
3.64663
21
-5.03958
0
LINE
8
BLACK
6
CONTINUOUS
10
3.64663
20
-5.03958
11
3.64211
21
-5.04635
0
LINE
8
BLACK
6
CONTINUOUS
10
3.64211
20
-5.04635
11
3.63635
21
-5.05211
0
LINE
8
BLACK
6
CONTINUOUS
10
3.63635
20
-5.05211
11
3.62958
21
-5.05663
0
LINE
8
BLACK
6
CONTINUOUS
10
3.62958
20
-5.05663
11
3.62206
21
-5.05975
0
LINE
8
BLACK
6
CONTINUOUS
10
3.62206
20
-5.05975
11
3.61407
21
-5.06134
0
LINE
8
BLACK
6
CONTINUOUS
10
3.61407
20
-5.06134
11
3.60593
21
-5.06134
0
LINE
8
BLACK
6
CONTINUOUS
10
3.60593
20
-5.06134
11
3.59794
21
-5.05975
0
LINE
8
BLACK
6
CONTINUOUS
10
3.59794
20
-5.05975
11
3.59042
21
-5.05663
0
LINE
8
BLACK
6
CONTINUOUS
10
3.59042
20
-5.05663
11
3.58365
21
-5.05211
0
LINE
8
BLACK
6
CONTINUOUS
10
3.58365
20
-5.05211
11
3.57789
21
-5.04635
0
LINE
8
BLACK
6
CONTINUOUS
10
3.57789
20
-5.04635
11
3.57337
21
-5.03958
0
LINE
8
BLACK
6
CONTINUOUS
10
3.57337
20
-5.03958
11
3.57025
21
-5.03206
0
LINE
8
BLACK
6
CONTINUOUS
10
3.57025
20
-5.03206
11
3.56866
21
-5.02407
0
LINE
8
BLACK
6
CONTINUOUS
10
3.56866
20
-5.02407
11
3.56866
21
-5.01593
0
LINE
8
BLACK
6
CONTINUOUS
10
3.56866
20
-5.01593
11
3.57025
21
-5.00794
0
LINE
8
BLACK
6
CONTINUOUS
10
3.57025
20
-5.00794
11
3.57337
21
-5.00042
0
LINE
8
BLACK
6
CONTINUOUS
10
3.57337
20
-5.00042
11
3.57789
21
-4.99365
0
LINE
8
BLACK
6
CONTINUOUS
10
3.57789
20
-4.99365
11
3.58365
21
-4.98789
0
LINE
8
BLACK
6
CONTINUOUS
10
3.58365
20
-4.98789
11
3.59042
21
-4.98337
0
LINE
8
BLACK
6
CONTINUOUS
10
3.59042
20
-4.98337
11
3.59794
21
-4.98025
0
LINE
8
BLACK
6
CONTINUOUS
10
3.59794
20
-4.98025
11
3.60593
21
-4.97866
0
LINE
8
BLACK
6
CONTINUOUS
10
3.60593
20
-4.97866
11
3.61407
21
-4.97866
0
LINE
8
BLACK
6
CONTINUOUS
10
3.61407
20
-4.97866
11
3.62206
21
-4.98025
0
LINE
8
BLACK
6
CONTINUOUS
10
3.62206
20
-4.88025
11
3.62958
21
-4.88337
0
LINE
8
BLACK
6
CONTINUOUS
10
3.62958
20
-4.88337
11
3.63635
21
-4.88789
0
LINE
8
BLACK
6
CONTINUOUS
10
3.63635
20
-4.88789
11
3.64211
21
-4.89365
0
LINE
8
BLACK
6
CONTINUOUS
10
3.64211
20
-4.89365
11
3.64663
21
-4.90042
0
LINE
8
BLACK
6
CONTINUOUS
10
3.64663
20
-4.90042
11
3.64975
21
-4.90794
0
LINE
8
BLACK
6
CONTINUOUS
10
3.64975
20
-4.90794
11
3.65134
21
-4.91593
0
LINE
8
BLACK
6
CONTINUOUS
10
3.65134
20
-4.91593
11
3.65134
21
-4.92407
0
LINE
8
BLACK
6
CONTINUOUS
10
3.65134
20
-4.92407
11
3.64975
21
-4.93206
0
LINE
8
BLACK
6
CONTINUOUS
10
3.64975
20
-4.93206
11
3.64663
21
-4.93958
0
LINE
8
BLACK
6
CONTINUOUS
10
3.64663
20
-4.93958
11
3.64211
21
-4.94635
0
LINE
8
BLACK
6
CONTINUOUS
10
3.64211
20
-4.94635
11
3.63635
21
-4.95211
0
LINE
8
BLACK
6
CONTINUOUS
10
3.63635
20
-4.95211
11
3.62958
21
-4.95663
0
LINE
8
BLACK
6
CONTINUOUS
10
3.62958
20
-4.95663
11
3.62206
21
-4.95975
0
LINE
8
BLACK
6
CONTINUOUS
10
3.62206
20
-4.95975
11
3.61407
21
-4.96134
0
LINE
8
BLACK
6
CONTINUOUS
10
3.61407
20
-4.96134
11
3.60593
21
-4.96134
0
LINE
8
BLACK
6
CONTINUOUS
10
3.60593
20
-4.96134
11
3.59794
21
-4.95975
0
LINE
8
BLACK
6
CONTINUOUS
10
3.59794
20
-4.95975
11
3.59042
21
-4.95663
0
LINE
8
BLACK
6
CONTINUOUS
10
3.59042
20
-4.95663
11
3.58365
21
-4.95211
0
LINE
8
BLACK
6
CONTINUOUS
10
3.58365
20
-4.95211
11
3.57789
21
-4.94635
0
LINE
8
BLACK
6
CONTINUOUS
10
3.57789
20
-4.94635
11
3.57337
21
-4.93958
0
LINE
8
BLACK
6
CONTINUOUS
10
3.57337
20
-4.93958
11
3.57025
21
-4.93206
0
LINE
8
BLACK
6
CONTINUOUS
10
3.57025
20
-4.93206
11
3.56866
21
-4.92407
0
LINE
8
BLACK
6
CONTINUOUS
10
3.56866
20
-4.92407
11
3.56866
21
-4.91593
0
LINE
8
BLACK
6
CONTINUOUS
10
3.56866
20
-4.91593
11
3.57025
21
-4.90794
0
LINE
8
BLACK
6
CONTINUOUS
10
3.57025
20
-4.90794
11
3.57337
21
-4.90042
0
LINE
8
BLACK
6
CONTINUOUS
10
3.57337
20
-4.90042
11
3.57789
21
-4.89365
0
LINE
8
BLACK
6
CONTINUOUS
10
3.57789
20
-4.89365
11
3.58365
21
-4.88789
0
LINE
8
BLACK
6
CONTINUOUS
10
3.58365
20
-4.88789
11
3.59042
21
-4.88337
0
LINE
8
BLACK
6
CONTINUOUS
10
3.59042
20
-4.88337
11
3.59794
21
-4.88025
0
LINE
8
BLACK
6
CONTINUOUS
10
3.59794
20
-4.88025
11
3.60593
21
-4.87866
0
LINE
8
BLACK
6
CONTINUOUS
10
3.60593
20
-4.87866
11
3.61407
21
-4.87866
0
LINE
8
BLACK
6
CONTINUOUS
10
3.61407
20
-4.87866
11
3.62206
21
-4.88025
0
LINE
8
BLACK
6
CONTINUOUS
10
3.52206
20
-4.88025
11
3.52958
21
-4.88337
0
LINE
8
BLACK
6
CONTINUOUS
10
3.52958
20
-4.88337
11
3.53635
21
-4.88789
0
LINE
8
BLACK
6
CONTINUOUS
10
3.53635
20
-4.88789
11
3.54211
21
-4.89365
0
LINE
8
BLACK
6
CONTINUOUS
10
3.54211
20
-4.89365
11
3.54663
21
-4.90042
0
LINE
8
BLACK
6
CONTINUOUS
10
3.54663
20
-4.90042
11
3.54975
21
-4.90794
0
LINE
8
BLACK
6
CONTINUOUS
10
3.54975
20
-4.90794
11
3.55134
21
-4.91593
0
LINE
8
BLACK
6
CONTINUOUS
10
3.55134
20
-4.91593
11
3.55134
21
-4.92407
0
LINE
8
BLACK
6
CONTINUOUS
10
3.55134
20
-4.92407
11
3.54975
21
-4.93206
0
LINE
8
BLACK
6
CONTINUOUS
10
3.54975
20
-4.93206
11
3.54663
21
-4.93958
0
LINE
8
BLACK
6
CONTINUOUS
10
3.54663
20
-4.93958
11
3.54211
21
-4.94635
0
LINE
8
BLACK
6
CONTINUOUS
10
3.54211
20
-4.94635
11
3.53635
21
-4.95211
0
LINE
8
BLACK
6
CONTINUOUS
10
3.53635
20
-4.95211
11
3.52958
21
-4.95663
0
LINE
8
BLACK
6
CONTINUOUS
10
3.52958
20
-4.95663
11
3.52206
21
-4.95975
0
LINE
8
BLACK
6
CONTINUOUS
10
3.52206
20
-4.95975
11
3.51407
21
-4.96134
0
LINE
8
BLACK
6
CONTINUOUS
10
3.51407
20
-4.96134
11
3.50593
21
-4.96134
0
LINE
8
BLACK
6
CONTINUOUS
10
3.50593
20
-4.96134
11
3.49794
21
-4.95975
0
LINE
8
BLACK
6
CONTINUOUS
10
3.49794
20
-4.95975
11
3.49042
21
-4.95663
0
LINE
8
BLACK
6
CONTINUOUS
10
3.49042
20
-4.95663
11
3.48365
21
-4.95211
0
LINE
8
BLACK
6
CONTINUOUS
10
3.48365
20
-4.95211
11
3.47789
21
-4.94635
0
LINE
8
BLACK
6
CONTINUOUS
10
3.47789
20
-4.94635
11
3.47337
21
-4.93958
0
LINE
8
BLACK
6
CONTINUOUS
10
3.47337
20
-4.93958
11
3.47025
21
-4.93206
0
LINE
8
BLACK
6
CONTINUOUS
10
3.47025
20
-4.93206
11
3.46866
21
-4.92407
0
LINE
8
BLACK
6
CONTINUOUS
10
3.46866
20
-4.92407
11
3.46866
21
-4.91593
0
LINE
8
BLACK
6
CONTINUOUS
10
3.46866
20
-4.91593
11
3.47025
21
-4.90794
0
LINE
8
BLACK
6
CONTINUOUS
10
3.47025
20
-4.90794
11
3.47337
21
-4.90042
0
LINE
8
BLACK
6
CONTINUOUS
10
3.47337
20
-4.90042
11
3.47789
21
-4.89365
0
LINE
8
BLACK
6
CONTINUOUS
10
3.47789
20
-4.89365
11
3.48365
21
-4.88789
0
LINE
8
BLACK
6
CONTINUOUS
10
3.48365
20
-4.88789
11
3.49042
21
-4.88337
0
LINE
8
BLACK
6
CONTINUOUS
10
3.49042
20
-4.88337
11
3.49794
21
-4.88025
0
LINE
8
BLACK
6
CONTINUOUS
10
3.49794
20
-4.88025
11
3.50593
21
-4.87866
0
LINE
8
BLACK
6
CONTINUOUS
10
3.50593
20
-4.87866
11
3.51407
21
-4.87866
0
LINE
8
BLACK
6
CONTINUOUS
10
3.51407
20
-4.87866
11
3.52206
21
-4.88025
0
LINE
8
BLACK
6
CONTINUOUS
10
8.99678
20
-4.51747
11
8.99678
21
-4.9033
0
LINE
8
BLACK
6
CONTINUOUS
10
8.99678
20
-4.9033
11
8.9023
21
-4.9033
0
LINE
8
BLACK
6
CONTINUOUS
10
8.9023
20
-4.9033
11
8.9023
21
-4.51747
0
LINE
8
BLACK
6
CONTINUOUS
10
8.9023
20
-4.51747
11
8.99678
21
-4.51747
0
LINE
8
BLACK
6
CONTINUOUS
10
9.31174
20
-4.6277
11
9.31174
21
-4.79306
0
LINE
8
BLACK
6
CONTINUOUS
10
9.31174
20
-4.79306
11
9.21726
21
-4.79306
0
LINE
8
BLACK
6
CONTINUOUS
10
9.21726
20
-4.79306
11
9.21726
21
-4.6277
0
LINE
8
BLACK
6
CONTINUOUS
10
9.21726
20
-4.6277
11
9.31174
21
-4.6277
0
LINE
8
BLACK
6
CONTINUOUS
10
3.87134
20
-4.72134
11
3.78866
21
-4.72134
0
LINE
8
BLACK
6
CONTINUOUS
10
3.78866
20
-4.72134
11
3.78866
21
-4.63866
0
LINE
8
BLACK
6
CONTINUOUS
10
3.78866
20
-4.63866
11
3.87134
21
-4.63866
0
LINE
8
BLACK
6
CONTINUOUS
10
3.87134
20
-4.63866
11
3.87134
21
-4.72134
0
LINE
8
BLACK
6
CONTINUOUS
10
4.34206
20
-4.64025
11
4.34958
21
-4.64337
0
LINE
8
BLACK
6
CONTINUOUS
10
4.34958
20
-4.64337
11
4.35635
21
-4.64789
0
LINE
8
BLACK
6
CONTINUOUS
10
4.35635
20
-4.64789
11
4.36211
21
-4.65365
0
LINE
8
BLACK
6
CONTINUOUS
10
4.36211
20
-4.65365
11
4.36663
21
-4.66042
0
LINE
8
BLACK
6
CONTINUOUS
10
4.36663
20
-4.66042
11
4.36975
21
-4.66794
0
LINE
8
BLACK
6
CONTINUOUS
10
4.36975
20
-4.66794
11
4.37134
21
-4.67593
0
LINE
8
BLACK
6
CONTINUOUS
10
4.37134
20
-4.67593
11
4.37134
21
-4.68407
0
LINE
8
BLACK
6
CONTINUOUS
10
4.37134
20
-4.68407
11
4.36975
21
-4.69206
0
LINE
8
BLACK
6
CONTINUOUS
10
4.36975
20
-4.69206
11
4.36663
21
-4.69958
0
LINE
8
BLACK
6
CONTINUOUS
10
4.36663
20
-4.69958
11
4.36211
21
-4.70635
0
LINE
8
BLACK
6
CONTINUOUS
10
4.36211
20
-4.70635
11
4.35635
21
-4.71211
0
LINE
8
BLACK
6
CONTINUOUS
10
4.35635
20
-4.71211
11
4.34958
21
-4.71663
0
LINE
8
BLACK
6
CONTINUOUS
10
4.34958
20
-4.71663
11
4.34206
21
-4.71975
0
LINE
8
BLACK
6
CONTINUOUS
10
4.34206
20
-4.71975
11
4.33407
21
-4.72134
0
LINE
8
BLACK
6
CONTINUOUS
10
4.33407
20
-4.72134
11
4.32593
21
-4.72134
0
LINE
8
BLACK
6
CONTINUOUS
10
4.32593
20
-4.72134
11
4.31794
21
-4.71975
0
LINE
8
BLACK
6
CONTINUOUS
10
4.31794
20
-4.71975
11
4.31042
21
-4.71663
0
LINE
8
BLACK
6
CONTINUOUS
10
4.31042
20
-4.71663
11
4.30365
21
-4.71211
0
LINE
8
BLACK
6
CONTINUOUS
10
4.30365
20
-4.71211
11
4.29789
21
-4.70635
0
LINE
8
BLACK
6
CONTINUOUS
10
4.29789
20
-4.70635
11
4.29337
21
-4.69958
0
LINE
8
BLACK
6
CONTINUOUS
10
4.29337
20
-4.69958
11
4.29025
21
-4.69206
0
LINE
8
BLACK
6
CONTINUOUS
10
4.29025
20
-4.69206
11
4.28866
21
-4.68407
0
LINE
8
BLACK
6
CONTINUOUS
10
4.28866
20
-4.68407
11
4.28866
21
-4.67593
0
LINE
8
BLACK
6
CONTINUOUS
10
4.28866
20
-4.67593
11
4.29025
21
-4.66794
0
LINE
8
BLACK
6
CONTINUOUS
10
4.29025
20
-4.66794
11
4.29337
21
-4.66042
0
LINE
8
BLACK
6
CONTINUOUS
10
4.29337
20
-4.66042
11
4.29789
21
-4.65365
0
LINE
8
BLACK
6
CONTINUOUS
10
4.29789
20
-4.65365
11
4.30365
21
-4.64789
0
LINE
8
BLACK
6
CONTINUOUS
10
4.30365
20
-4.64789
11
4.31042
21
-4.64337
0
LINE
8
BLACK
6
CONTINUOUS
10
4.31042
20
-4.64337
11
4.31794
21
-4.64025
0
LINE
8
BLACK
6
CONTINUOUS
10
4.31794
20
-4.64025
11
4.32593
21
-4.63866
0
LINE
8
BLACK
6
CONTINUOUS
10
4.32593
20
-4.63866
11
4.33407
21
-4.63866
0
LINE
8
BLACK
6
CONTINUOUS
10
4.33407
20
-4.63866
11
4.34206
21
-4.64025
0
LINE
8
BLACK
6
CONTINUOUS
10
4.24206
20
-4.64025
11
4.24958
21
-4.64337
0
LINE
8
BLACK
6
CONTINUOUS
10
4.24958
20
-4.64337
11
4.25635
21
-4.64789
0
LINE
8
BLACK
6
CONTINUOUS
10
4.25635
20
-4.64789
11
4.26211
21
-4.65365
0
LINE
8
BLACK
6
CONTINUOUS
10
4.26211
20
-4.65365
11
4.26663
21
-4.66042
0
LINE
8
BLACK
6
CONTINUOUS
10
4.26663
20
-4.66042
11
4.26975
21
-4.66794
0
LINE
8
BLACK
6
CONTINUOUS
10
4.26975
20
-4.66794
11
4.27134
21
-4.67593
0
LINE
8
BLACK
6
CONTINUOUS
10
4.27134
20
-4.67593
11
4.27134
21
-4.68407
0
LINE
8
BLACK
6
CONTINUOUS
10
4.27134
20
-4.68407
11
4.26975
21
-4.69206
0
LINE
8
BLACK
6
CONTINUOUS
10
4.26975
20
-4.69206
11
4.26663
21
-4.69958
0
LINE
8
BLACK
6
CONTINUOUS
10
4.26663
20
-4.69958
11
4.26211
21
-4.70635
0
LINE
8
BLACK
6
CONTINUOUS
10
4.26211
20
-4.70635
11
4.25635
21
-4.71211
0
LINE
8
BLACK
6
CONTINUOUS
10
4.25635
20
-4.71211
11
4.24958
21
-4.71663
0
LINE
8
BLACK
6
CONTINUOUS
10
4.24958
20
-4.71663
11
4.24206
21
-4.71975
0
LINE
8
BLACK
6
CONTINUOUS
10
4.24206
20
-4.71975
11
4.23407
21
-4.72134
0
LINE
8
BLACK
6
CONTINUOUS
10
4.23407
20
-4.72134
11
4.22593
21
-4.72134
0
LINE
8
BLACK
6
CONTINUOUS
10
4.22593
20
-4.72134
11
4.21794
21
-4.71975
0
LINE
8
BLACK
6
CONTINUOUS
10
4.21794
20
-4.71975
11
4.21042
21
-4.71663
0
LINE
8
BLACK
6
CONTINUOUS
10
4.21042
20
-4.71663
11
4.20365
21
-4.71211
0
LINE
8
BLACK
6
CONTINUOUS
10
4.20365
20
-4.71211
11
4.19789
21
-4.70635
0
LINE
8
BLACK
6
CONTINUOUS
10
4.19789
20
-4.70635
11
4.19337
21
-4.69958
0
LINE
8
BLACK
6
CONTINUOUS
10
4.19337
20
-4.69958
11
4.19025
21
-4.69206
0
LINE
8
BLACK
6
CONTINUOUS
10
4.19025
20
-4.69206
11
4.18866
21
-4.68407
0
LINE
8
BLACK
6
CONTINUOUS
10
4.18866
20
-4.68407
11
4.18866
21
-4.67593
0
LINE
8
BLACK
6
CONTINUOUS
10
4.18866
20
-4.67593
11
4.19025
21
-4.66794
0
LINE
8
BLACK
6
CONTINUOUS
10
4.19025
20
-4.66794
11
4.19337
21
-4.66042
0
LINE
8
BLACK
6
CONTINUOUS
10
4.19337
20
-4.66042
11
4.19789
21
-4.65365
0
LINE
8
BLACK
6
CONTINUOUS
10
4.19789
20
-4.65365
11
4.20365
21
-4.64789
0
LINE
8
BLACK
6
CONTINUOUS
10
4.20365
20
-4.64789
11
4.21042
21
-4.64337
0
LINE
8
BLACK
6
CONTINUOUS
10
4.21042
20
-4.64337
11
4.21794
21
-4.64025
0
LINE
8
BLACK
6
CONTINUOUS
10
4.21794
20
-4.64025
11
4.22593
21
-4.63866
0
LINE
8
BLACK
6
CONTINUOUS
10
4.22593
20
-4.63866
11
4.23407
21
-4.63866
0
LINE
8
BLACK
6
CONTINUOUS
10
4.23407
20
-4.63866
11
4.24206
21
-4.64025
0
LINE
8
BLACK
6
CONTINUOUS
10
4.14206
20
-4.64025
11
4.14958
21
-4.64337
0
LINE
8
BLACK
6
CONTINUOUS
10
4.14958
20
-4.64337
11
4.15635
21
-4.64789
0
LINE
8
BLACK
6
CONTINUOUS
10
4.15635
20
-4.64789
11
4.16211
21
-4.65365
0
LINE
8
BLACK
6
CONTINUOUS
10
4.16211
20
-4.65365
11
4.16663
21
-4.66042
0
LINE
8
BLACK
6
CONTINUOUS
10
4.16663
20
-4.66042
11
4.16975
21
-4.66794
0
LINE
8
BLACK
6
CONTINUOUS
10
4.16975
20
-4.66794
11
4.17134
21
-4.67593
0
LINE
8
BLACK
6
CONTINUOUS
10
4.17134
20
-4.67593
11
4.17134
21
-4.68407
0
LINE
8
BLACK
6
CONTINUOUS
10
4.17134
20
-4.68407
11
4.16975
21
-4.69206
0
LINE
8
BLACK
6
CONTINUOUS
10
4.16975
20
-4.69206
11
4.16663
21
-4.69958
0
LINE
8
BLACK
6
CONTINUOUS
10
4.16663
20
-4.69958
11
4.16211
21
-4.70635
0
LINE
8
BLACK
6
CONTINUOUS
10
4.16211
20
-4.70635
11
4.15635
21
-4.71211
0
LINE
8
BLACK
6
CONTINUOUS
10
4.15635
20
-4.71211
11
4.14958
21
-4.71663
0
LINE
8
BLACK
6
CONTINUOUS
10
4.14958
20
-4.71663
11
4.14206
21
-4.71975
0
LINE
8
BLACK
6
CONTINUOUS
10
4.14206
20
-4.71975
11
4.13407
21
-4.72134
0
LINE
8
BLACK
6
CONTINUOUS
10
4.13407
20
-4.72134
11
4.12593
21
-4.72134
0
LINE
8
BLACK
6
CONTINUOUS
10
4.12593
20
-4.72134
11
4.11794
21
-4.71975
0
LINE
8
BLACK
6
CONTINUOUS
10
4.11794
20
-4.71975
11
4.11042
21
-4.71663
0
LINE
8
BLACK
6
CONTINUOUS
10
4.11042
20
-4.71663
11
4.10365
21
-4.71211
0
LINE
8
BLACK
6
CONTINUOUS
10
4.10365
20
-4.71211
11
4.09789
21
-4.70635
0
LINE
8
BLACK
6
CONTINUOUS
10
4.09789
20
-4.70635
11
4.09337
21
-4.69958
0
LINE
8
BLACK
6
CONTINUOUS
10
4.09337
20
-4.69958
11
4.09025
21
-4.69206
0
LINE
8
BLACK
6
CONTINUOUS
10
4.09025
20
-4.69206
11
4.08866
21
-4.68407
0
LINE
8
BLACK
6
CONTINUOUS
10
4.08866
20
-4.68407
11
4.08866
21
-4.67593
0
LINE
8
BLACK
6
CONTINUOUS
10
4.08866
20
-4.67593
11
4.09025
21
-4.66794
0
LINE
8
BLACK
6
CONTINUOUS
10
4.09025
20
-4.66794
11
4.09337
21
-4.66042
0
LINE
8
BLACK
6
CONTINUOUS
10
4.09337
20
-4.66042
11
4.09789
21
-4.65365
0
LINE
8
BLACK
6
CONTINUOUS
10
4.09789
20
-4.65365
11
4.10365
21
-4.64789
0
LINE
8
BLACK
6
CONTINUOUS
10
4.10365
20
-4.64789
11
4.11042
21
-4.64337
0
LINE
8
BLACK
6
CONTINUOUS
10
4.11042
20
-4.64337
11
4.11794
21
-4.64025
0
LINE
8
BLACK
6
CONTINUOUS
10
4.11794
20
-4.64025
11
4.12593
21
-4.63866
0
LINE
8
BLACK
6
CONTINUOUS
10
4.12593
20
-4.63866
11
4.13407
21
-4.63866
0
LINE
8
BLACK
6
CONTINUOUS
10
4.13407
20
-4.63866
11
4.14206
21
-4.64025
0
LINE
8
BLACK
6
CONTINUOUS
10
4.04206
20
-4.64025
11
4.04958
21
-4.64337
0
LINE
8
BLACK
6
CONTINUOUS
10
4.04958
20
-4.64337
11
4.05635
21
-4.64789
0
LINE
8
BLACK
6
CONTINUOUS
10
4.05635
20
-4.64789
11
4.06211
21
-4.65365
0
LINE
8
BLACK
6
CONTINUOUS
10
4.06211
20
-4.65365
11
4.06663
21
-4.66042
0
LINE
8
BLACK
6
CONTINUOUS
10
4.06663
20
-4.66042
11
4.06975
21
-4.66794
0
LINE
8
BLACK
6
CONTINUOUS
10
4.06975
20
-4.66794
11
4.07134
21
-4.67593
0
LINE
8
BLACK
6
CONTINUOUS
10
4.07134
20
-4.67593
11
4.07134
21
-4.68407
0
LINE
8
BLACK
6
CONTINUOUS
10
4.07134
20
-4.68407
11
4.06975
21
-4.69206
0
LINE
8
BLACK
6
CONTINUOUS
10
4.06975
20
-4.69206
11
4.06663
21
-4.69958
0
LINE
8
BLACK
6
CONTINUOUS
10
4.06663
20
-4.69958
11
4.06211
21
-4.70635
0
LINE
8
BLACK
6
CONTINUOUS
10
4.06211
20
-4.70635
11
4.05635
21
-4.71211
0
LINE
8
BLACK
6
CONTINUOUS
10
4.05635
20
-4.71211
11
4.04958
21
-4.71663
0
LINE
8
BLACK
6
CONTINUOUS
10
4.04958
20
-4.71663
11
4.04206
21
-4.71975
0
LINE
8
BLACK
6
CONTINUOUS
10
4.04206
20
-4.71975
11
4.03407
21
-4.72134
0
LINE
8
BLACK
6
CONTINUOUS
10
4.03407
20
-4.72134
11
4.02593
21
-4.72134
0
LINE
8
BLACK
6
CONTINUOUS
10
4.02593
20
-4.72134
11
4.01794
21
-4.71975
0
LINE
8
BLACK
6
CONTINUOUS
10
4.01794
20
-4.71975
11
4.01042
21
-4.71663
0
LINE
8
BLACK
6
CONTINUOUS
10
4.01042
20
-4.71663
11
4.00365
21
-4.71211
0
LINE
8
BLACK
6
CONTINUOUS
10
4.00365
20
-4.71211
11
3.99789
21
-4.70635
0
LINE
8
BLACK
6
CONTINUOUS
10
3.99789
20
-4.70635
11
3.99337
21
-4.69958
0
LINE
8
BLACK
6
CONTINUOUS
10
3.99337
20
-4.69958
11
3.99025
21
-4.69206
0
LINE
8
BLACK
6
CONTINUOUS
10
3.99025
20
-4.69206
11
3.98866
21
-4.68407
0
LINE
8
BLACK
6
CONTINUOUS
10
3.98866
20
-4.68407
11
3.98866
21
-4.67593
0
LINE
8
BLACK
6
CONTINUOUS
10
3.98866
20
-4.67593
11
3.99025
21
-4.66794
0
LINE
8
BLACK
6
CONTINUOUS
10
3.99025
20
-4.66794
11
3.99337
21
-4.66042
0
LINE
8
BLACK
6
CONTINUOUS
10
3.99337
20
-4.66042
11
3.99789
21
-4.65365
0
LINE
8
BLACK
6
CONTINUOUS
10
3.99789
20
-4.65365
11
4.00365
21
-4.64789
0
LINE
8
BLACK
6
CONTINUOUS
10
4.00365
20
-4.64789
11
4.01042
21
-4.64337
0
LINE
8
BLACK
6
CONTINUOUS
10
4.01042
20
-4.64337
11
4.01794
21
-4.64025
0
LINE
8
BLACK
6
CONTINUOUS
10
4.01794
20
-4.64025
11
4.02593
21
-4.63866
0
LINE
8
BLACK
6
CONTINUOUS
10
4.02593
20
-4.63866
11
4.03407
21
-4.63866
0
LINE
8
BLACK
6
CONTINUOUS
10
4.03407
20
-4.63866
11
4.04206
21
-4.64025
0
LINE
8
BLACK
6
CONTINUOUS
10
3.94206
20
-4.64025
11
3.94958
21
-4.64337
0
LINE
8
BLACK
6
CONTINUOUS
10
3.94958
20
-4.64337
11
3.95635
21
-4.64789
0
LINE
8
BLACK
6
CONTINUOUS
10
3.95635
20
-4.64789
11
3.96211
21
-4.65365
0
LINE
8
BLACK
6
CONTINUOUS
10
3.96211
20
-4.65365
11
3.96663
21
-4.66042
0
LINE
8
BLACK
6
CONTINUOUS
10
3.96663
20
-4.66042
11
3.96975
21
-4.66794
0
LINE
8
BLACK
6
CONTINUOUS
10
3.96975
20
-4.66794
11
3.97134
21
-4.67593
0
LINE
8
BLACK
6
CONTINUOUS
10
3.97134
20
-4.67593
11
3.97134
21
-4.68407
0
LINE
8
BLACK
6
CONTINUOUS
10
3.97134
20
-4.68407
11
3.96975
21
-4.69206
0
LINE
8
BLACK
6
CONTINUOUS
10
3.96975
20
-4.69206
11
3.96663
21
-4.69958
0
LINE
8
BLACK
6
CONTINUOUS
10
3.96663
20
-4.69958
11
3.96211
21
-4.70635
0
LINE
8
BLACK
6
CONTINUOUS
10
3.96211
20
-4.70635
11
3.95635
21
-4.71211
0
LINE
8
BLACK
6
CONTINUOUS
10
3.95635
20
-4.71211
11
3.94958
21
-4.71663
0
LINE
8
BLACK
6
CONTINUOUS
10
3.94958
20
-4.71663
11
3.94206
21
-4.71975
0
LINE
8
BLACK
6
CONTINUOUS
10
3.94206
20
-4.71975
11
3.93407
21
-4.72134
0
LINE
8
BLACK
6
CONTINUOUS
10
3.93407
20
-4.72134
11
3.92593
21
-4.72134
0
LINE
8
BLACK
6
CONTINUOUS
10
3.92593
20
-4.72134
11
3.91794
21
-4.71975
0
LINE
8
BLACK
6
CONTINUOUS
10
3.91794
20
-4.71975
11
3.91042
21
-4.71663
0
LINE
8
BLACK
6
CONTINUOUS
10
3.91042
20
-4.71663
11
3.90365
21
-4.71211
0
LINE
8
BLACK
6
CONTINUOUS
10
3.90365
20
-4.71211
11
3.89789
21
-4.70635
0
LINE
8
BLACK
6
CONTINUOUS
10
3.89789
20
-4.70635
11
3.89337
21
-4.69958
0
LINE
8
BLACK
6
CONTINUOUS
10
3.89337
20
-4.69958
11
3.89025
21
-4.69206
0
LINE
8
BLACK
6
CONTINUOUS
10
3.89025
20
-4.69206
11
3.88866
21
-4.68407
0
LINE
8
BLACK
6
CONTINUOUS
10
3.88866
20
-4.68407
11
3.88866
21
-4.67593
0
LINE
8
BLACK
6
CONTINUOUS
10
3.88866
20
-4.67593
11
3.89025
21
-4.66794
0
LINE
8
BLACK
6
CONTINUOUS
10
3.89025
20
-4.66794
11
3.89337
21
-4.66042
0
LINE
8
BLACK
6
CONTINUOUS
10
3.89337
20
-4.66042
11
3.89789
21
-4.65365
0
LINE
8
BLACK
6
CONTINUOUS
10
3.89789
20
-4.65365
11
3.90365
21
-4.64789
0
LINE
8
BLACK
6
CONTINUOUS
10
3.90365
20
-4.64789
11
3.91042
21
-4.64337
0
LINE
8
BLACK
6
CONTINUOUS
10
3.91042
20
-4.64337
11
3.91794
21
-4.64025
0
LINE
8
BLACK
6
CONTINUOUS
10
3.91794
20
-4.64025
11
3.92593
21
-4.63866
0
LINE
8
BLACK
6
CONTINUOUS
10
3.92593
20
-4.63866
11
3.93407
21
-4.63866
0
LINE
8
BLACK
6
CONTINUOUS
10
3.93407
20
-4.63866
11
3.94206
21
-4.64025
0
LINE
8
BLACK
6
CONTINUOUS
10
4.46268
20
-4.19591
11
4.46268
21
-4.58173
0
LINE
8
BLACK
6
CONTINUOUS
10
4.46268
20
-4.58173
11
4.26583
21
-4.58173
0
LINE
8
BLACK
6
CONTINUOUS
10
4.26583
20
-4.58173
11
4.26583
21
-4.19591
0
LINE
8
BLACK
6
CONTINUOUS
10
4.26583
20
-4.19591
11
4.46268
21
-4.19591
0
LINE
8
BLACK
6
CONTINUOUS
10
4.22906
20
-4.48346
11
4.18575
21
-4.48346
0
LINE
8
BLACK
6
CONTINUOUS
10
4.18575
20
-4.48346
11
4.18575
21
-4.41654
0
LINE
8
BLACK
6
CONTINUOUS
10
4.18575
20
-4.41654
11
4.22906
21
-4.41654
0
LINE
8
BLACK
6
CONTINUOUS
10
4.22906
20
-4.41654
11
4.22906
21
-4.48346
0
LINE
8
BLACK
6
CONTINUOUS
10
4.15425
20
-4.48346
11
4.11094
21
-4.48346
0
LINE
8
BLACK
6
CONTINUOUS
10
4.11094
20
-4.48346
11
4.11094
21
-4.41654
0
LINE
8
BLACK
6
CONTINUOUS
10
4.11094
20
-4.41654
11
4.15425
21
-4.41654
0
LINE
8
BLACK
6
CONTINUOUS
10
4.15425
20
-4.41654
11
4.15425
21
-4.48346
0
LINE
8
BLACK
6
CONTINUOUS
10
4.75795
20
-4.47543
11
4.46661
21
-4.47543
0
LINE
8
BLACK
6
CONTINUOUS
10
4.46661
20
-4.47543
11
4.46661
21
-4.3022
0
LINE
8
BLACK
6
CONTINUOUS
10
4.46661
20
-4.3022
11
4.75795
21
-4.3022
0
LINE
8
BLACK
6
CONTINUOUS
10
4.75795
20
-4.3022
11
4.75795
21
-4.47543
0
LINE
8
BLACK
6
CONTINUOUS
10
4.07496
20
-4.43602
11
4.02378
21
-4.43602
0
LINE
8
BLACK
6
CONTINUOUS
10
4.02378
20
-4.43602
11
4.02378
21
-4.38878
0
LINE
8
BLACK
6
CONTINUOUS
10
4.02378
20
-4.38878
11
4.07496
21
-4.38878
0
LINE
8
BLACK
6
CONTINUOUS
10
4.07496
20
-4.38878
11
4.07496
21
-4.43602
0
LINE
8
BLACK
6
CONTINUOUS
10
3.76406
20
-4.40346
11
3.72075
21
-4.40346
0
LINE
8
BLACK
6
CONTINUOUS
10
3.72075
20
-4.40346
11
3.72075
21
-4.33654
0
LINE
8
BLACK
6
CONTINUOUS
10
3.72075
20
-4.33654
11
3.76406
21
-4.33654
0
LINE
8
BLACK
6
CONTINUOUS
10
3.76406
20
-4.33654
11
3.76406
21
-4.40346
0
LINE
8
BLACK
6
CONTINUOUS
10
3.68925
20
-4.40346
11
3.64594
21
-4.40346
0
LINE
8
BLACK
6
CONTINUOUS
10
3.64594
20
-4.40346
11
3.64594
21
-4.33654
0
LINE
8
BLACK
6
CONTINUOUS
10
3.64594
20
-4.33654
11
3.68925
21
-4.33654
0
LINE
8
BLACK
6
CONTINUOUS
10
3.68925
20
-4.33654
11
3.68925
21
-4.40346
0
LINE
8
BLACK
6
CONTINUOUS
10
3.99622
20
-4.39862
11
3.94504
21
-4.39862
0
LINE
8
BLACK
6
CONTINUOUS
10
3.94504
20
-4.39862
11
3.94504
21
-4.35138
0
LINE
8
BLACK
6
CONTINUOUS
10
3.94504
20
-4.35138
11
3.99622
21
-4.35138
0
LINE
8
BLACK
6
CONTINUOUS
10
3.99622
20
-4.35138
11
3.99622
21
-4.39862
0
LINE
8
BLACK
6
CONTINUOUS
10
4.22906
20
-4.36846
11
4.18575
21
-4.36846
0
LINE
8
BLACK
6
CONTINUOUS
10
4.18575
20
-4.36846
11
4.18575
21
-4.30154
0
LINE
8
BLACK
6
CONTINUOUS
10
4.18575
20
-4.30154
11
4.22906
21
-4.30154
0
LINE
8
BLACK
6
CONTINUOUS
10
4.22906
20
-4.30154
11
4.22906
21
-4.36846
0
LINE
8
BLACK
6
CONTINUOUS
10
4.15425
20
-4.36846
11
4.11094
21
-4.36846
0
LINE
8
BLACK
6
CONTINUOUS
10
4.11094
20
-4.36846
11
4.11094
21
-4.30154
0
LINE
8
BLACK
6
CONTINUOUS
10
4.11094
20
-4.30154
11
4.15425
21
-4.30154
0
LINE
8
BLACK
6
CONTINUOUS
10
4.15425
20
-4.30154
11
4.15425
21
-4.36846
0
LINE
8
BLACK
6
CONTINUOUS
10
4.07496
20
-4.36122
11
4.02378
21
-4.36122
0
LINE
8
BLACK
6
CONTINUOUS
10
4.02378
20
-4.36122
11
4.02378
21
-4.31398
0
LINE
8
BLACK
6
CONTINUOUS
10
4.02378
20
-4.31398
11
4.07496
21
-4.31398
0
LINE
8
BLACK
6
CONTINUOUS
10
4.07496
20
-4.31398
11
4.07496
21
-4.36122
0
LINE
8
BLACK
6
CONTINUOUS
10
3.44244
20
-4.34189
11
3.39756
21
-4.34189
0
LINE
8
BLACK
6
CONTINUOUS
10
3.39756
20
-4.34189
11
3.39756
21
-4.23165
0
LINE
8
BLACK
6
CONTINUOUS
10
3.39756
20
-4.23165
11
3.44244
21
-4.23165
0
LINE
8
BLACK
6
CONTINUOUS
10
3.44244
20
-4.23165
11
3.44244
21
-4.34189
0
LINE
8
BLACK
6
CONTINUOUS
10
3.59244
20
-4.34189
11
3.54756
21
-4.34189
0
LINE
8
BLACK
6
CONTINUOUS
10
3.54756
20
-4.34189
11
3.54756
21
-4.23165
0
LINE
8
BLACK
6
CONTINUOUS
10
3.54756
20
-4.23165
11
3.59244
21
-4.23165
0
LINE
8
BLACK
6
CONTINUOUS
10
3.59244
20
-4.23165
11
3.59244
21
-4.34189
0
LINE
8
BLACK
6
CONTINUOUS
10
3.54244
20
-4.34189
11
3.49756
21
-4.34189
0
LINE
8
BLACK
6
CONTINUOUS
10
3.49756
20
-4.34189
11
3.49756
21
-4.23165
0
LINE
8
BLACK
6
CONTINUOUS
10
3.49756
20
-4.23165
11
3.54244
21
-4.23165
0
LINE
8
BLACK
6
CONTINUOUS
10
3.54244
20
-4.23165
11
3.54244
21
-4.34189
0
LINE
8
BLACK
6
CONTINUOUS
10
3.49244
20
-4.34189
11
3.44756
21
-4.34189
0
LINE
8
BLACK
6
CONTINUOUS
10
3.44756
20
-4.34189
11
3.44756
21
-4.23165
0
LINE
8
BLACK
6
CONTINUOUS
10
3.44756
20
-4.23165
11
3.49244
21
-4.23165
0
LINE
8
BLACK
6
CONTINUOUS
10
3.49244
20
-4.23165
11
3.49244
21
-4.34189
0
LINE
8
BLACK
6
CONTINUOUS
10
3.39244
20
-4.34189
11
3.34756
21
-4.34189
0
LINE
8
BLACK
6
CONTINUOUS
10
3.34756
20
-4.34189
11
3.34756
21
-4.23165
0
LINE
8
BLACK
6
CONTINUOUS
10
3.34756
20
-4.23165
11
3.39244
21
-4.23165
0
LINE
8
BLACK
6
CONTINUOUS
10
3.39244
20
-4.23165
11
3.39244
21
-4.34189
0
LINE
8
BLACK
6
CONTINUOUS
10
3.80425
20
-4.32846
11
3.76094
21
-4.32846
0
LINE
8
BLACK
6
CONTINUOUS
10
3.76094
20
-4.32846
11
3.76094
21
-4.26154
0
LINE
8
BLACK
6
CONTINUOUS
10
3.76094
20
-4.26154
11
3.80425
21
-4.26154
0
LINE
8
BLACK
6
CONTINUOUS
10
3.80425
20
-4.26154
11
3.80425
21
-4.32846
0
LINE
8
BLACK
6
CONTINUOUS
10
3.87906
20
-4.32846
11
3.83575
21
-4.32846
0
LINE
8
BLACK
6
CONTINUOUS
10
3.83575
20
-4.32846
11
3.83575
21
-4.26154
0
LINE
8
BLACK
6
CONTINUOUS
10
3.83575
20
-4.26154
11
3.87906
21
-4.26154
0
LINE
8
BLACK
6
CONTINUOUS
10
3.87906
20
-4.26154
11
3.87906
21
-4.32846
0
LINE
8
BLACK
6
CONTINUOUS
10
4.15425
20
-4.25846
11
4.11094
21
-4.25846
0
LINE
8
BLACK
6
CONTINUOUS
10
4.11094
20
-4.25846
11
4.11094
21
-4.19154
0
LINE
8
BLACK
6
CONTINUOUS
10
4.11094
20
-4.19154
11
4.15425
21
-4.19154
0
LINE
8
BLACK
6
CONTINUOUS
10
4.15425
20
-4.19154
11
4.15425
21
-4.25846
0
LINE
8
BLACK
6
CONTINUOUS
10
4.22906
20
-4.25846
11
4.18575
21
-4.25846
0
LINE
8
BLACK
6
CONTINUOUS
10
4.18575
20
-4.25846
11
4.18575
21
-4.19154
0
LINE
8
BLACK
6
CONTINUOUS
10
4.18575
20
-4.19154
11
4.22906
21
-4.19154
0
LINE
8
BLACK
6
CONTINUOUS
10
4.22906
20
-4.19154
11
4.22906
21
-4.25846
0
LINE
8
BLACK
6
CONTINUOUS
10
3.83925
20
-4.23846
11
3.79594
21
-4.23846
0
LINE
8
BLACK
6
CONTINUOUS
10
3.79594
20
-4.23846
11
3.79594
21
-4.17154
0
LINE
8
BLACK
6
CONTINUOUS
10
3.79594
20
-4.17154
11
3.83925
21
-4.17154
0
LINE
8
BLACK
6
CONTINUOUS
10
3.83925
20
-4.17154
11
3.83925
21
-4.23846
0
LINE
8
BLACK
6
CONTINUOUS
10
3.91406
20
-4.23846
11
3.87075
21
-4.23846
0
LINE
8
BLACK
6
CONTINUOUS
10
3.87075
20
-4.23846
11
3.87075
21
-4.17154
0
LINE
8
BLACK
6
CONTINUOUS
10
3.87075
20
-4.17154
11
3.91406
21
-4.17154
0
LINE
8
BLACK
6
CONTINUOUS
10
3.91406
20
-4.17154
11
3.91406
21
-4.23846
0
LINE
8
BLACK
6
CONTINUOUS
10
3.54244
20
-4.18835
11
3.49756
21
-4.18835
0
LINE
8
BLACK
6
CONTINUOUS
10
3.49756
20
-4.18835
11
3.49756
21
-4.07811
0
LINE
8
BLACK
6
CONTINUOUS
10
3.49756
20
-4.07811
11
3.54244
21
-4.07811
0
LINE
8
BLACK
6
CONTINUOUS
10
3.54244
20
-4.07811
11
3.54244
21
-4.18835
0
LINE
8
BLACK
6
CONTINUOUS
10
3.59244
20
-4.18835
11
3.54756
21
-4.18835
0
LINE
8
BLACK
6
CONTINUOUS
10
3.54756
20
-4.18835
11
3.54756
21
-4.07811
0
LINE
8
BLACK
6
CONTINUOUS
10
3.54756
20
-4.07811
11
3.59244
21
-4.07811
0
LINE
8
BLACK
6
CONTINUOUS
10
3.59244
20
-4.07811
11
3.59244
21
-4.18835
0
LINE
8
BLACK
6
CONTINUOUS
10
3.49244
20
-4.18835
11
3.44756
21
-4.18835
0
LINE
8
BLACK
6
CONTINUOUS
10
3.44756
20
-4.18835
11
3.44756
21
-4.07811
0
LINE
8
BLACK
6
CONTINUOUS
10
3.44756
20
-4.07811
11
3.49244
21
-4.07811
0
LINE
8
BLACK
6
CONTINUOUS
10
3.49244
20
-4.07811
11
3.49244
21
-4.18835
0
LINE
8
BLACK
6
CONTINUOUS
10
3.39244
20
-4.18835
11
3.34756
21
-4.18835
0
LINE
8
BLACK
6
CONTINUOUS
10
3.34756
20
-4.18835
11
3.34756
21
-4.07811
0
LINE
8
BLACK
6
CONTINUOUS
10
3.34756
20
-4.07811
11
3.39244
21
-4.07811
0
LINE
8
BLACK
6
CONTINUOUS
10
3.39244
20
-4.07811
11
3.39244
21
-4.18835
0
LINE
8
BLACK
6
CONTINUOUS
10
3.44244
20
-4.18835
11
3.39756
21
-4.18835
0
LINE
8
BLACK
6
CONTINUOUS
10
3.39756
20
-4.18835
11
3.39756
21
-4.07811
0
LINE
8
BLACK
6
CONTINUOUS
10
3.39756
20
-4.07811
11
3.44244
21
-4.07811
0
LINE
8
BLACK
6
CONTINUOUS
10
3.44244
20
-4.07811
11
3.44244
21
-4.18835
0
LINE
8
BLACK
6
CONTINUOUS
10
9.25756
20
-3.15413
11
9.27476
21
-3.16126
0
LINE
8
BLACK
6
CONTINUOUS
10
9.27476
20
-3.16126
11
9.29024
21
-3.1716
0
LINE
8
BLACK
6
CONTINUOUS
10
9.29024
20
-3.1716
11
9.3034
21
-3.18476
0
LINE
8
BLACK
6
CONTINUOUS
10
9.3034
20
-3.18476
11
9.31374
21
-3.20024
0
LINE
8
BLACK
6
CONTINUOUS
10
9.31374
20
-3.20024
11
9.32087
21
-3.21744
0
LINE
8
BLACK
6
CONTINUOUS
10
9.32087
20
-3.21744
11
9.3245
21
-3.23569
0
LINE
8
BLACK
6
CONTINUOUS
10
9.3245
20
-3.23569
11
9.3245
21
-3.25431
0
LINE
8
BLACK
6
CONTINUOUS
10
9.3245
20
-3.25431
11
9.32087
21
-3.27256
0
LINE
8
BLACK
6
CONTINUOUS
10
9.32087
20
-3.27256
11
9.31374
21
-3.28976
0
LINE
8
BLACK
6
CONTINUOUS
10
9.31374
20
-3.28976
11
9.3034
21
-3.30524
0
LINE
8
BLACK
6
CONTINUOUS
10
9.3034
20
-3.30524
11
9.29024
21
-3.3184
0
LINE
8
BLACK
6
CONTINUOUS
10
9.29024
20
-3.3184
11
9.27476
21
-3.32874
0
LINE
8
BLACK
6
CONTINUOUS
10
9.27476
20
-3.32874
11
9.25756
21
-3.33587
0
LINE
8
BLACK
6
CONTINUOUS
10
9.25756
20
-3.33587
11
9.23931
21
-3.3395
0
LINE
8
BLACK
6
CONTINUOUS
10
9.23931
20
-3.3395
11
9.22069
21
-3.3395
0
LINE
8
BLACK
6
CONTINUOUS
10
9.22069
20
-3.3395
11
9.20244
21
-3.33587
0
LINE
8
BLACK
6
CONTINUOUS
10
9.20244
20
-3.33587
11
9.18524
21
-3.32874
0
LINE
8
BLACK
6
CONTINUOUS
10
9.18524
20
-3.32874
11
9.16976
21
-3.3184
0
LINE
8
BLACK
6
CONTINUOUS
10
9.16976
20
-3.3184
11
9.1566
21
-3.30524
0
LINE
8
BLACK
6
CONTINUOUS
10
9.1566
20
-3.30524
11
9.14626
21
-3.28976
0
LINE
8
BLACK
6
CONTINUOUS
10
9.14626
20
-3.28976
11
9.13913
21
-3.27256
0
LINE
8
BLACK
6
CONTINUOUS
10
9.13913
20
-3.27256
11
9.1355
21
-3.25431
0
LINE
8
BLACK
6
CONTINUOUS
10
9.1355
20
-3.25431
11
9.1355
21
-3.23569
0
LINE
8
BLACK
6
CONTINUOUS
10
9.1355
20
-3.23569
11
9.13913
21
-3.21744
0
LINE
8
BLACK
6
CONTINUOUS
10
9.13913
20
-3.21744
11
9.14626
21
-3.20024
0
LINE
8
BLACK
6
CONTINUOUS
10
9.14626
20
-3.20024
11
9.1566
21
-3.18476
0
LINE
8
BLACK
6
CONTINUOUS
10
9.1566
20
-3.18476
11
9.16976
21
-3.1716
0
LINE
8
BLACK
6
CONTINUOUS
10
9.16976
20
-3.1716
11
9.18524
21
-3.16126
0
LINE
8
BLACK
6
CONTINUOUS
10
9.18524
20
-3.16126
11
9.20244
21
-3.15413
0
LINE
8
BLACK
6
CONTINUOUS
10
9.20244
20
-3.15413
11
9.22069
21
-3.1505
0
LINE
8
BLACK
6
CONTINUOUS
10
9.22069
20
-3.1505
11
9.23931
21
-3.1505
0
LINE
8
BLACK
6
CONTINUOUS
10
9.23931
20
-3.1505
11
9.25756
21
-3.15413
0
LINE
8
BLACK
6
CONTINUOUS
10
5.99706
20
-3.00525
11
6.00458
21
-3.00837
0
LINE
8
BLACK
6
CONTINUOUS
10
6.00458
20
-3.00837
11
6.01135
21
-3.01289
0
LINE
8
BLACK
6
CONTINUOUS
10
6.01135
20
-3.01289
11
6.01711
21
-3.01865
0
LINE
8
BLACK
6
CONTINUOUS
10
6.01711
20
-3.01865
11
6.02163
21
-3.02542
0
LINE
8
BLACK
6
CONTINUOUS
10
6.02163
20
-3.02542
11
6.02475
21
-3.03294
0
LINE
8
BLACK
6
CONTINUOUS
10
6.02475
20
-3.03294
11
6.02634
21
-3.04093
0
LINE
8
BLACK
6
CONTINUOUS
10
6.02634
20
-3.04093
11
6.02634
21
-3.04907
0
LINE
8
BLACK
6
CONTINUOUS
10
6.02634
20
-3.04907
11
6.02475
21
-3.05706
0
LINE
8
BLACK
6
CONTINUOUS
10
6.02475
20
-3.05706
11
6.02163
21
-3.06458
0
LINE
8
BLACK
6
CONTINUOUS
10
6.02163
20
-3.06458
11
6.01711
21
-3.07135
0
LINE
8
BLACK
6
CONTINUOUS
10
6.01711
20
-3.07135
11
6.01135
21
-3.07711
0
LINE
8
BLACK
6
CONTINUOUS
10
6.01135
20
-3.07711
11
6.00458
21
-3.08163
0
LINE
8
BLACK
6
CONTINUOUS
10
6.00458
20
-3.08163
11
5.99706
21
-3.08475
0
LINE
8
BLACK
6
CONTINUOUS
10
5.99706
20
-3.08475
11
5.98907
21
-3.08634
0
LINE
8
BLACK
6
CONTINUOUS
10
5.98907
20
-3.08634
11
5.98093
21
-3.08634
0
LINE
8
BLACK
6
CONTINUOUS
10
5.98093
20
-3.08634
11
5.97294
21
-3.08475
0
LINE
8
BLACK
6
CONTINUOUS
10
5.97294
20
-3.08475
11
5.96542
21
-3.08163
0
LINE
8
BLACK
6
CONTINUOUS
10
5.96542
20
-3.08163
11
5.95865
21
-3.07711
0
LINE
8
BLACK
6
CONTINUOUS
10
5.95865
20
-3.07711
11
5.95289
21
-3.07135
0
LINE
8
BLACK
6
CONTINUOUS
10
5.95289
20
-3.07135
11
5.94837
21
-3.06458
0
LINE
8
BLACK
6
CONTINUOUS
10
5.94837
20
-3.06458
11
5.94525
21
-3.05706
0
LINE
8
BLACK
6
CONTINUOUS
10
5.94525
20
-3.05706
11
5.94366
21
-3.04907
0
LINE
8
BLACK
6
CONTINUOUS
10
5.94366
20
-3.04907
11
5.94366
21
-3.04093
0
LINE
8
BLACK
6
CONTINUOUS
10
5.94366
20
-3.04093
11
5.94525
21
-3.03294
0
LINE
8
BLACK
6
CONTINUOUS
10
5.94525
20
-3.03294
11
5.94837
21
-3.02542
0
LINE
8
BLACK
6
CONTINUOUS
10
5.94837
20
-3.02542
11
5.95289
21
-3.01865
0
LINE
8
BLACK
6
CONTINUOUS
10
5.95289
20
-3.01865
11
5.95865
21
-3.01289
0
LINE
8
BLACK
6
CONTINUOUS
10
5.95865
20
-3.01289
11
5.96542
21
-3.00837
0
LINE
8
BLACK
6
CONTINUOUS
10
5.96542
20
-3.00837
11
5.97294
21
-3.00525
0
LINE
8
BLACK
6
CONTINUOUS
10
5.97294
20
-3.00525
11
5.98093
21
-3.00366
0
LINE
8
BLACK
6
CONTINUOUS
10
5.98093
20
-3.00366
11
5.98907
21
-3.00366
0
LINE
8
BLACK
6
CONTINUOUS
10
5.98907
20
-3.00366
11
5.99706
21
-3.00525
0
LINE
8
BLACK
6
CONTINUOUS
10
5.92634
20
-3.08634
11
5.84366
21
-3.08634
0
LINE
8
BLACK
6
CONTINUOUS
10
5.84366
20
-3.08634
11
5.84366
21
-3.00366
0
LINE
8
BLACK
6
CONTINUOUS
10
5.84366
20
-3.00366
11
5.92634
21
-3.00366
0
LINE
8
BLACK
6
CONTINUOUS
10
5.92634
20
-3.00366
11
5.92634
21
-3.08634
0
LINE
8
BLACK
6
CONTINUOUS
10
3.55205
20
-2.67457
11
3.48512
21
-2.67457
0
LINE
8
BLACK
6
CONTINUOUS
10
3.48512
20
-2.67457
11
3.48512
21
-2.5978
0
LINE
8
BLACK
6
CONTINUOUS
10
3.48512
20
-2.5978
11
3.55205
21
-2.5978
0
LINE
8
BLACK
6
CONTINUOUS
10
3.55205
20
-2.5978
11
3.55205
21
-2.67457
0
LINE
8
BLACK
6
CONTINUOUS
10
3.37488
20
-2.67457
11
3.30795
21
-2.67457
0
LINE
8
BLACK
6
CONTINUOUS
10
3.30795
20
-2.67457
11
3.30795
21
-2.5978
0
LINE
8
BLACK
6
CONTINUOUS
10
3.30795
20
-2.5978
11
3.37488
21
-2.5978
0
LINE
8
BLACK
6
CONTINUOUS
10
3.37488
20
-2.5978
11
3.37488
21
-2.67457
0
LINE
8
BLACK
6
CONTINUOUS
10
4.11134
20
-2.40134
11
4.02866
21
-2.40134
0
LINE
8
BLACK
6
CONTINUOUS
10
4.02866
20
-2.40134
11
4.02866
21
-2.31866
0
LINE
8
BLACK
6
CONTINUOUS
10
4.02866
20
-2.31866
11
4.11134
21
-2.31866
0
LINE
8
BLACK
6
CONTINUOUS
10
4.11134
20
-2.31866
11
4.11134
21
-2.40134
0
LINE
8
BLACK
6
CONTINUOUS
10
3.92206
20
-2.24525
11
3.92958
21
-2.24837
0
LINE
8
BLACK
6
CONTINUOUS
10
3.92958
20
-2.24837
11
3.93635
21
-2.25289
0
LINE
8
BLACK
6
CONTINUOUS
10
3.93635
20
-2.25289
11
3.94211
21
-2.25865
0
LINE
8
BLACK
6
CONTINUOUS
10
3.94211
20
-2.25865
11
3.94663
21
-2.26542
0
LINE
8
BLACK
6
CONTINUOUS
10
3.94663
20
-2.26542
11
3.94975
21
-2.27294
0
LINE
8
BLACK
6
CONTINUOUS
10
3.94975
20
-2.27294
11
3.95134
21
-2.28093
0
LINE
8
BLACK
6
CONTINUOUS
10
3.95134
20
-2.28093
11
3.95134
21
-2.28907
0
LINE
8
BLACK
6
CONTINUOUS
10
3.95134
20
-2.28907
11
3.94975
21
-2.29706
0
LINE
8
BLACK
6
CONTINUOUS
10
3.94975
20
-2.29706
11
3.94663
21
-2.30458
0
LINE
8
BLACK
6
CONTINUOUS
10
3.94663
20
-2.30458
11
3.94211
21
-2.31135
0
LINE
8
BLACK
6
CONTINUOUS
10
3.94211
20
-2.31135
11
3.93635
21
-2.31711
0
LINE
8
BLACK
6
CONTINUOUS
10
3.93635
20
-2.31711
11
3.92958
21
-2.32163
0
LINE
8
BLACK
6
CONTINUOUS
10
3.92958
20
-2.32163
11
3.92206
21
-2.32475
0
LINE
8
BLACK
6
CONTINUOUS
10
3.92206
20
-2.32475
11
3.91407
21
-2.32634
0
LINE
8
BLACK
6
CONTINUOUS
10
3.91407
20
-2.32634
11
3.90593
21
-2.32634
0
LINE
8
BLACK
6
CONTINUOUS
10
3.90593
20
-2.32634
11
3.89794
21
-2.32475
0
LINE
8
BLACK
6
CONTINUOUS
10
3.89794
20
-2.32475
11
3.89042
21
-2.32163
0
LINE
8
BLACK
6
CONTINUOUS
10
3.89042
20
-2.32163
11
3.88365
21
-2.31711
0
LINE
8
BLACK
6
CONTINUOUS
10
3.88365
20
-2.31711
11
3.87789
21
-2.31135
0
LINE
8
BLACK
6
CONTINUOUS
10
3.87789
20
-2.31135
11
3.87337
21
-2.30458
0
LINE
8
BLACK
6
CONTINUOUS
10
3.87337
20
-2.30458
11
3.87025
21
-2.29706
0
LINE
8
BLACK
6
CONTINUOUS
10
3.87025
20
-2.29706
11
3.86866
21
-2.28907
0
LINE
8
BLACK
6
CONTINUOUS
10
3.86866
20
-2.28907
11
3.86866
21
-2.28093
0
LINE
8
BLACK
6
CONTINUOUS
10
3.86866
20
-2.28093
11
3.87025
21
-2.27294
0
LINE
8
BLACK
6
CONTINUOUS
10
3.87025
20
-2.27294
11
3.87337
21
-2.26542
0
LINE
8
BLACK
6
CONTINUOUS
10
3.87337
20
-2.26542
11
3.87789
21
-2.25865
0
LINE
8
BLACK
6
CONTINUOUS
10
3.87789
20
-2.25865
11
3.88365
21
-2.25289
0
LINE
8
BLACK
6
CONTINUOUS
10
3.88365
20
-2.25289
11
3.89042
21
-2.24837
0
LINE
8
BLACK
6
CONTINUOUS
10
3.89042
20
-2.24837
11
3.89794
21
-2.24525
0
LINE
8
BLACK
6
CONTINUOUS
10
3.89794
20
-2.24525
11
3.90593
21
-2.24366
0
LINE
8
BLACK
6
CONTINUOUS
10
3.90593
20
-2.24366
11
3.91407
21
-2.24366
0
LINE
8
BLACK
6
CONTINUOUS
10
3.91407
20
-2.24366
11
3.92206
21
-2.24525
0
LINE
8
BLACK
6
CONTINUOUS
10
3.37488
20
-2.3222
11
3.30795
21
-2.3222
0
LINE
8
BLACK
6
CONTINUOUS
10
3.30795
20
-2.3222
11
3.30795
21
-2.24543
0
LINE
8
BLACK
6
CONTINUOUS
10
3.30795
20
-2.24543
11
3.37488
21
-2.24543
0
LINE
8
BLACK
6
CONTINUOUS
10
3.37488
20
-2.24543
11
3.37488
21
-2.3222
0
LINE
8
BLACK
6
CONTINUOUS
10
3.55205
20
-2.3222
11
3.48512
21
-2.3222
0
LINE
8
BLACK
6
CONTINUOUS
10
3.48512
20
-2.3222
11
3.48512
21
-2.24543
0
LINE
8
BLACK
6
CONTINUOUS
10
3.48512
20
-2.24543
11
3.55205
21
-2.24543
0
LINE
8
BLACK
6
CONTINUOUS
10
3.55205
20
-2.24543
11
3.55205
21
-2.3222
0
LINE
8
BLACK
6
CONTINUOUS
10
4.10248
20
-2.29693
11
4.03752
21
-2.29693
0
LINE
8
BLACK
6
CONTINUOUS
10
4.03752
20
-2.29693
11
4.03752
21
-2.24181
0
LINE
8
BLACK
6
CONTINUOUS
10
4.03752
20
-2.24181
11
4.10248
21
-2.24181
0
LINE
8
BLACK
6
CONTINUOUS
10
4.10248
20
-2.24181
11
4.10248
21
-2.29693
0
LINE
8
BLACK
6
CONTINUOUS
10
3.95134
20
-2.22634
11
3.86866
21
-2.22634
0
LINE
8
BLACK
6
CONTINUOUS
10
3.86866
20
-2.22634
11
3.86866
21
-2.14366
0
LINE
8
BLACK
6
CONTINUOUS
10
3.86866
20
-2.14366
11
3.95134
21
-2.14366
0
LINE
8
BLACK
6
CONTINUOUS
10
3.95134
20
-2.14366
11
3.95134
21
-2.22634
0
LINE
8
BLACK
6
CONTINUOUS
10
4.10248
20
-2.21819
11
4.03752
21
-2.21819
0
LINE
8
BLACK
6
CONTINUOUS
10
4.03752
20
-2.21819
11
4.03752
21
-2.16307
0
LINE
8
BLACK
6
CONTINUOUS
10
4.03752
20
-2.16307
11
4.10248
21
-2.16307
0
LINE
8
BLACK
6
CONTINUOUS
10
4.10248
20
-2.16307
11
4.10248
21
-2.21819
0
LINE
8
BLACK
6
CONTINUOUS
10
4.11134
20
-2.13634
11
4.02866
21
-2.13634
0
LINE
8
BLACK
6
CONTINUOUS
10
4.02866
20
-2.13634
11
4.02866
21
-2.05366
0
LINE
8
BLACK
6
CONTINUOUS
10
4.02866
20
-2.05366
11
4.11134
21
-2.05366
0
LINE
8
BLACK
6
CONTINUOUS
10
4.11134
20
-2.05366
11
4.11134
21
-2.13634
0
LINE
8
BLACK
6
CONTINUOUS
10
3.30346
20
-1.91906
11
3.23654
21
-1.91906
0
LINE
8
BLACK
6
CONTINUOUS
10
3.23654
20
-1.91906
11
3.23654
21
-1.87575
0
LINE
8
BLACK
6
CONTINUOUS
10
3.23654
20
-1.87575
11
3.30346
21
-1.87575
0
LINE
8
BLACK
6
CONTINUOUS
10
3.30346
20
-1.87575
11
3.30346
21
-1.91906
0
LINE
8
BLACK
6
CONTINUOUS
10
3.4372
20
-1.89205
11
3.36043
21
-1.89205
0
LINE
8
BLACK
6
CONTINUOUS
10
3.36043
20
-1.89205
11
3.36043
21
-1.82512
0
LINE
8
BLACK
6
CONTINUOUS
10
3.36043
20
-1.82512
11
3.4372
21
-1.82512
0
LINE
8
BLACK
6
CONTINUOUS
10
3.4372
20
-1.82512
11
3.4372
21
-1.89205
0
LINE
8
BLACK
6
CONTINUOUS
10
3.78957
20
-1.89205
11
3.7128
21
-1.89205
0
LINE
8
BLACK
6
CONTINUOUS
10
3.7128
20
-1.89205
11
3.7128
21
-1.82512
0
LINE
8
BLACK
6
CONTINUOUS
10
3.7128
20
-1.82512
11
3.78957
21
-1.82512
0
LINE
8
BLACK
6
CONTINUOUS
10
3.78957
20
-1.82512
11
3.78957
21
-1.89205
0
LINE
8
BLACK
6
CONTINUOUS
10
3.8772
20
-1.89205
11
3.80043
21
-1.89205
0
LINE
8
BLACK
6
CONTINUOUS
10
3.80043
20
-1.89205
11
3.80043
21
-1.82512
0
LINE
8
BLACK
6
CONTINUOUS
10
3.80043
20
-1.82512
11
3.8772
21
-1.82512
0
LINE
8
BLACK
6
CONTINUOUS
10
3.8772
20
-1.82512
11
3.8772
21
-1.89205
0
LINE
8
BLACK
6
CONTINUOUS
10
4.22957
20
-1.89205
11
4.1528
21
-1.89205
0
LINE
8
BLACK
6
CONTINUOUS
10
4.1528
20
-1.89205
11
4.1528
21
-1.82512
0
LINE
8
BLACK
6
CONTINUOUS
10
4.1528
20
-1.82512
11
4.22957
21
-1.82512
0
LINE
8
BLACK
6
CONTINUOUS
10
4.22957
20
-1.82512
11
4.22957
21
-1.89205
0
LINE
8
BLACK
6
CONTINUOUS
10
3.30346
20
-1.84425
11
3.23654
21
-1.84425
0
LINE
8
BLACK
6
CONTINUOUS
10
3.23654
20
-1.84425
11
3.23654
21
-1.80094
0
LINE
8
BLACK
6
CONTINUOUS
10
3.23654
20
-1.80094
11
3.30346
21
-1.80094
0
LINE
8
BLACK
6
CONTINUOUS
10
3.30346
20
-1.80094
11
3.30346
21
-1.84425
0
LINE
8
BLACK
6
CONTINUOUS
10
4.72756
20
-1.61913
11
4.74476
21
-1.62626
0
LINE
8
BLACK
6
CONTINUOUS
10
4.74476
20
-1.62626
11
4.76024
21
-1.6366
0
LINE
8
BLACK
6
CONTINUOUS
10
4.76024
20
-1.6366
11
4.7734
21
-1.64976
0
LINE
8
BLACK
6
CONTINUOUS
10
4.7734
20
-1.64976
11
4.78374
21
-1.66524
0
LINE
8
BLACK
6
CONTINUOUS
10
4.78374
20
-1.66524
11
4.79087
21
-1.68244
0
LINE
8
BLACK
6
CONTINUOUS
10
4.79087
20
-1.68244
11
4.7945
21
-1.70069
0
LINE
8
BLACK
6
CONTINUOUS
10
4.7945
20
-1.70069
11
4.7945
21
-1.71931
0
LINE
8
BLACK
6
CONTINUOUS
10
4.7945
20
-1.71931
11
4.79087
21
-1.73756
0
LINE
8
BLACK
6
CONTINUOUS
10
4.79087
20
-1.73756
11
4.78374
21
-1.75476
0
LINE
8
BLACK
6
CONTINUOUS
10
4.78374
20
-1.75476
11
4.7734
21
-1.77024
0
LINE
8
BLACK
6
CONTINUOUS
10
4.7734
20
-1.77024
11
4.76024
21
-1.7834
0
LINE
8
BLACK
6
CONTINUOUS
10
4.76024
20
-1.7834
11
4.74476
21
-1.79374
0
LINE
8
BLACK
6
CONTINUOUS
10
4.74476
20
-1.79374
11
4.72756
21
-1.80087
0
LINE
8
BLACK
6
CONTINUOUS
10
4.72756
20
-1.80087
11
4.70931
21
-1.8045
0
LINE
8
BLACK
6
CONTINUOUS
10
4.70931
20
-1.8045
11
4.69069
21
-1.8045
0
LINE
8
BLACK
6
CONTINUOUS
10
4.69069
20
-1.8045
11
4.67244
21
-1.80087
0
LINE
8
BLACK
6
CONTINUOUS
10
4.67244
20
-1.80087
11
4.65524
21
-1.79374
0
LINE
8
BLACK
6
CONTINUOUS
10
4.65524
20
-1.79374
11
4.63976
21
-1.7834
0
LINE
8
BLACK
6
CONTINUOUS
10
4.63976
20
-1.7834
11
4.6266
21
-1.77024
0
LINE
8
BLACK
6
CONTINUOUS
10
4.6266
20
-1.77024
11
4.61626
21
-1.75476
0
LINE
8
BLACK
6
CONTINUOUS
10
4.61626
20
-1.75476
11
4.60913
21
-1.73756
0
LINE
8
BLACK
6
CONTINUOUS
10
4.60913
20
-1.73756
11
4.6055
21
-1.71931
0
LINE
8
BLACK
6
CONTINUOUS
10
4.6055
20
-1.71931
11
4.6055
21
-1.70069
0
LINE
8
BLACK
6
CONTINUOUS
10
4.6055
20
-1.70069
11
4.60913
21
-1.68244
0
LINE
8
BLACK
6
CONTINUOUS
10
4.60913
20
-1.68244
11
4.61626
21
-1.66524
0
LINE
8
BLACK
6
CONTINUOUS
10
4.61626
20
-1.66524
11
4.6266
21
-1.64976
0
LINE
8
BLACK
6
CONTINUOUS
10
4.6266
20
-1.64976
11
4.63976
21
-1.6366
0
LINE
8
BLACK
6
CONTINUOUS
10
4.63976
20
-1.6366
11
4.65524
21
-1.62626
0
LINE
8
BLACK
6
CONTINUOUS
10
4.65524
20
-1.62626
11
4.67244
21
-1.61913
0
LINE
8
BLACK
6
CONTINUOUS
10
4.67244
20
-1.61913
11
4.69069
21
-1.6155
0
LINE
8
BLACK
6
CONTINUOUS
10
4.69069
20
-1.6155
11
4.70931
21
-1.6155
0
LINE
8
BLACK
6
CONTINUOUS
10
4.70931
20
-1.6155
11
4.72756
21
-1.61913
0
LINE
8
BLACK
6
CONTINUOUS
10
3.3015
20
-1.7748
11
3.2385
21
-1.7748
0
LINE
8
BLACK
6
CONTINUOUS
10
3.2385
20
-1.7748
11
3.2385
21
-1.71181
0
LINE
8
BLACK
6
CONTINUOUS
10
3.2385
20
-1.71181
11
3.3015
21
-1.71181
0
LINE
8
BLACK
6
CONTINUOUS
10
3.3015
20
-1.71181
11
3.3015
21
-1.7748
0
LINE
8
BLACK
6
CONTINUOUS
10
3.4372
20
-1.71488
11
3.36043
21
-1.71488
0
LINE
8
BLACK
6
CONTINUOUS
10
3.36043
20
-1.71488
11
3.36043
21
-1.64795
0
LINE
8
BLACK
6
CONTINUOUS
10
3.36043
20
-1.64795
11
3.4372
21
-1.64795
0
LINE
8
BLACK
6
CONTINUOUS
10
3.4372
20
-1.64795
11
3.4372
21
-1.71488
0
LINE
8
BLACK
6
CONTINUOUS
10
3.78957
20
-1.71488
11
3.7128
21
-1.71488
0
LINE
8
BLACK
6
CONTINUOUS
10
3.7128
20
-1.71488
11
3.7128
21
-1.64795
0
LINE
8
BLACK
6
CONTINUOUS
10
3.7128
20
-1.64795
11
3.78957
21
-1.64795
0
LINE
8
BLACK
6
CONTINUOUS
10
3.78957
20
-1.64795
11
3.78957
21
-1.71488
0
LINE
8
BLACK
6
CONTINUOUS
10
3.8772
20
-1.71488
11
3.80043
21
-1.71488
0
LINE
8
BLACK
6
CONTINUOUS
10
3.80043
20
-1.71488
11
3.80043
21
-1.64795
0
LINE
8
BLACK
6
CONTINUOUS
10
3.80043
20
-1.64795
11
3.8772
21
-1.64795
0
LINE
8
BLACK
6
CONTINUOUS
10
3.8772
20
-1.64795
11
3.8772
21
-1.71488
0
LINE
8
BLACK
6
CONTINUOUS
10
4.22957
20
-1.71488
11
4.1528
21
-1.71488
0
LINE
8
BLACK
6
CONTINUOUS
10
4.1528
20
-1.71488
11
4.1528
21
-1.64795
0
LINE
8
BLACK
6
CONTINUOUS
10
4.1528
20
-1.64795
11
4.22957
21
-1.64795
0
LINE
8
BLACK
6
CONTINUOUS
10
4.22957
20
-1.64795
11
4.22957
21
-1.71488
0
LINE
8
BLACK
6
CONTINUOUS
10
3.3015
20
-1.68819
11
3.2385
21
-1.68819
0
LINE
8
BLACK
6
CONTINUOUS
10
3.2385
20
-1.68819
11
3.2385
21
-1.6252
0
LINE
8
BLACK
6
CONTINUOUS
10
3.2385
20
-1.6252
11
3.3015
21
-1.6252
0
LINE
8
BLACK
6
CONTINUOUS
10
3.3015
20
-1.6252
11
3.3015
21
-1.68819
  0
ENDSEC
  0
EOF
