M48
;DRILL file {KiCad 4.0.7} date 05/01/18 21:21:05
;FORMAT={2:4/ absolute / inch / suppress trailing zeros}
FMAT,2
INCH,LZ
T1C0.016
T2C0.020
T3C0.039
%
G90
G05
M72
T1
X0342Y-0402
X0345Y-045
X0348Y-0442
X0367Y-04205
X0372Y-05655
X0378Y-0608
X0381Y-04915
X038185Y-041027
X0384Y-0495
X0395Y-04205
X03975Y-0621
X0422Y-0596
X04235Y-0439
X0436Y-0558
X04385Y-0564
X043895Y-057305
X0439Y-0578
X044484Y-056933
X0475Y-0551
X0475Y-0573
X05065Y-0611
T2
X0373Y-05805
T3
X0337Y-0603
X0347Y-0603
X0351Y-0492
X0351Y-0502
X0351Y-0512
X0351Y-0554
X0351Y-0564
X0351Y-0574
X0361Y-0492
X0361Y-0502
X0361Y-0512
X0361Y-0554
X0361Y-0564
X0361Y-0574
X0383Y-0468
X0391Y-02185
X0391Y-02285
X0393Y-0468
X0403Y-0468
X0407Y-02095
X0407Y-0236
X04085Y-0542
X0413Y-0468
X04185Y-0542
X0423Y-0468
X04285Y-0542
X0433Y-0468
X04385Y-0542
X04485Y-0542
X05885Y-03045
X0596Y-06215
X0596Y-06315
X05985Y-03045
X0627Y-06275
X0655Y-06275
T0
M30
