G04 #@! TF.FileFunction,Legend,Top*
%FSLAX46Y46*%
G04 Gerber Fmt 4.6, Leading zero omitted, Abs format (unit mm)*
G04 Created by KiCad (PCBNEW 4.0.7) date 05/01/18 21:21:02*
%MOMM*%
%LPD*%
G01*
G04 APERTURE LIST*
%ADD10C,0.020000*%
%ADD11C,0.200000*%
%ADD12C,0.120000*%
%ADD13C,0.150000*%
G04 APERTURE END LIST*
D10*
D11*
X118465600Y-111683800D02*
X118465600Y-111277400D01*
X119837200Y-111683800D02*
X118465600Y-111683800D01*
X119837200Y-111277400D02*
X119837200Y-111683800D01*
X118465600Y-111277400D02*
X119837200Y-111277400D01*
X110032800Y-109474000D02*
X110083600Y-109474000D01*
X110032800Y-113487200D02*
X110032800Y-109474000D01*
X120650000Y-113487200D02*
X110032800Y-113487200D01*
X120650000Y-109474000D02*
X120650000Y-113487200D01*
X110058200Y-109474000D02*
X120650000Y-109474000D01*
D12*
X129284000Y-140843000D02*
X129284000Y-142263000D01*
X122684000Y-140083000D02*
X122684000Y-142263000D01*
X122684000Y-146683000D02*
X122684000Y-144503000D01*
X129284000Y-145923000D02*
X129284000Y-144503000D01*
X122684000Y-140083000D02*
X128524000Y-140083000D01*
X128524000Y-140083000D02*
X129284000Y-140843000D01*
X129284000Y-145923000D02*
X128524000Y-146683000D01*
X128524000Y-146683000D02*
X122684000Y-146683000D01*
X129284000Y-147955000D02*
X129284000Y-149375000D01*
X122684000Y-147195000D02*
X122684000Y-149375000D01*
X122684000Y-153795000D02*
X122684000Y-151615000D01*
X129284000Y-153035000D02*
X129284000Y-151615000D01*
X122684000Y-147195000D02*
X128524000Y-147195000D01*
X128524000Y-147195000D02*
X129284000Y-147955000D01*
X129284000Y-153035000D02*
X128524000Y-153795000D01*
X128524000Y-153795000D02*
X122684000Y-153795000D01*
X83758000Y-41380000D02*
X82358000Y-41380000D01*
X82358000Y-41380000D02*
X82358000Y-44180000D01*
X83758000Y-41380000D02*
X83758000Y-44180000D01*
X93089000Y-154869000D02*
X93089000Y-153939000D01*
X93089000Y-151709000D02*
X93089000Y-152639000D01*
X93089000Y-151709000D02*
X90929000Y-151709000D01*
X93089000Y-154869000D02*
X91629000Y-154869000D01*
X115249000Y-138998000D02*
X115249000Y-136338000D01*
X105029000Y-138998000D02*
X115249000Y-138998000D01*
X105029000Y-136338000D02*
X115249000Y-136338000D01*
X105029000Y-138998000D02*
X105029000Y-136338000D01*
X103759000Y-138998000D02*
X102429000Y-138998000D01*
X102429000Y-138998000D02*
X102429000Y-137668000D01*
X101094000Y-109545000D02*
X101094000Y-110475000D01*
X101094000Y-112705000D02*
X101094000Y-111775000D01*
X101094000Y-112705000D02*
X103254000Y-112705000D01*
X101094000Y-109545000D02*
X102554000Y-109545000D01*
X153349000Y-78673000D02*
X153349000Y-76013000D01*
X150749000Y-78673000D02*
X153349000Y-78673000D01*
X150749000Y-76013000D02*
X153349000Y-76013000D01*
X150749000Y-78673000D02*
X150749000Y-76013000D01*
X149479000Y-78673000D02*
X148149000Y-78673000D01*
X148149000Y-78673000D02*
X148149000Y-77343000D01*
X120826000Y-134866000D02*
X120826000Y-136366000D01*
X120826000Y-136366000D02*
X119626000Y-136366000D01*
X118626000Y-132746000D02*
X119626000Y-132746000D01*
X120376000Y-135986000D02*
X118006000Y-135986000D01*
X90927000Y-155340000D02*
X90927000Y-156600000D01*
X90927000Y-162160000D02*
X90927000Y-160900000D01*
X94687000Y-155340000D02*
X90927000Y-155340000D01*
X96937000Y-162160000D02*
X90927000Y-162160000D01*
X118156000Y-146823000D02*
X118156000Y-146583000D01*
X118156000Y-146583000D02*
X117556000Y-146583000D01*
X117556000Y-140183000D02*
X118156000Y-140183000D01*
X115906000Y-144483000D02*
X115906000Y-142283000D01*
X119806000Y-142283000D02*
X119806000Y-144483000D01*
X119806000Y-144483000D02*
X120046000Y-144483000D01*
X102528000Y-56142000D02*
X102528000Y-57142000D01*
X104228000Y-57142000D02*
X104228000Y-56142000D01*
X122643000Y-138041000D02*
X122643000Y-137041000D01*
X120943000Y-137041000D02*
X120943000Y-138041000D01*
X162314000Y-160235000D02*
X163314000Y-160235000D01*
X163314000Y-158535000D02*
X162314000Y-158535000D01*
X124675000Y-138676000D02*
X124675000Y-137676000D01*
X122975000Y-137676000D02*
X122975000Y-138676000D01*
X117991000Y-138391000D02*
X118991000Y-138391000D01*
X118991000Y-136691000D02*
X117991000Y-136691000D01*
X112641000Y-154471000D02*
X111641000Y-154471000D01*
X111641000Y-156171000D02*
X112641000Y-156171000D01*
X113704000Y-151900000D02*
X113704000Y-152900000D01*
X115404000Y-152900000D02*
X115404000Y-151900000D01*
X103720000Y-155567000D02*
X103720000Y-154567000D01*
X102020000Y-154567000D02*
X102020000Y-155567000D01*
X101815000Y-152138000D02*
X101815000Y-151138000D01*
X100115000Y-151138000D02*
X100115000Y-152138000D01*
X107704000Y-156806000D02*
X108704000Y-156806000D01*
X108704000Y-155106000D02*
X107704000Y-155106000D01*
X113784000Y-148629000D02*
X112784000Y-148629000D01*
X112784000Y-150329000D02*
X113784000Y-150329000D01*
X100115000Y-154948000D02*
X100115000Y-155948000D01*
X101815000Y-155948000D02*
X101815000Y-154948000D01*
X98083000Y-154948000D02*
X98083000Y-155948000D01*
X99783000Y-155948000D02*
X99783000Y-154948000D01*
X99783000Y-152138000D02*
X99783000Y-151138000D01*
X98083000Y-151138000D02*
X98083000Y-152138000D01*
X113499000Y-142994000D02*
X113499000Y-141994000D01*
X111799000Y-141994000D02*
X111799000Y-142994000D01*
X106036000Y-155356000D02*
X106036000Y-156556000D01*
X104276000Y-156556000D02*
X104276000Y-155356000D01*
X105318000Y-106435000D02*
X106518000Y-106435000D01*
X106518000Y-108195000D02*
X105318000Y-108195000D01*
X106518000Y-113910000D02*
X105318000Y-113910000D01*
X105318000Y-112150000D02*
X106518000Y-112150000D01*
X111287000Y-152409000D02*
X112487000Y-152409000D01*
X112487000Y-154169000D02*
X111287000Y-154169000D01*
X96428000Y-108213000D02*
X97628000Y-108213000D01*
X97628000Y-109973000D02*
X96428000Y-109973000D01*
X94707000Y-111878000D02*
X93507000Y-111878000D01*
X93507000Y-110118000D02*
X94707000Y-110118000D01*
X97317000Y-105927000D02*
X98517000Y-105927000D01*
X98517000Y-107687000D02*
X97317000Y-107687000D01*
X83938000Y-46644000D02*
X83938000Y-47844000D01*
X82178000Y-47844000D02*
X82178000Y-46644000D01*
X107604000Y-153171000D02*
X108804000Y-153171000D01*
X108804000Y-154931000D02*
X107604000Y-154931000D01*
X115434000Y-141767000D02*
X115434000Y-142967000D01*
X113674000Y-142967000D02*
X113674000Y-141767000D01*
X91373000Y-105169000D02*
X91373000Y-108699000D01*
X84903000Y-105169000D02*
X84903000Y-108699000D01*
X91308000Y-103844000D02*
X91308000Y-105169000D01*
X91373000Y-105169000D02*
X91308000Y-105169000D01*
X91373000Y-108699000D02*
X91308000Y-108699000D01*
X84968000Y-105169000D02*
X84903000Y-105169000D01*
X84968000Y-108699000D02*
X84903000Y-108699000D01*
X106518000Y-110989000D02*
X105318000Y-110989000D01*
X105318000Y-109229000D02*
X106518000Y-109229000D01*
X85887000Y-155330000D02*
X87087000Y-155330000D01*
X87087000Y-157090000D02*
X85887000Y-157090000D01*
X111312000Y-120202000D02*
X111312000Y-117542000D01*
X98552000Y-120202000D02*
X111312000Y-120202000D01*
X98552000Y-117542000D02*
X111312000Y-117542000D01*
X98552000Y-120202000D02*
X98552000Y-117542000D01*
X97282000Y-120202000D02*
X95952000Y-120202000D01*
X95952000Y-120202000D02*
X95952000Y-118872000D01*
X89468000Y-154492000D02*
X89468000Y-151832000D01*
X86868000Y-154492000D02*
X89468000Y-154492000D01*
X86868000Y-151832000D02*
X89468000Y-151832000D01*
X86868000Y-154492000D02*
X86868000Y-151832000D01*
X85598000Y-154492000D02*
X84268000Y-154492000D01*
X84268000Y-154492000D02*
X84268000Y-153162000D01*
X150054000Y-161731000D02*
X152714000Y-161731000D01*
X150054000Y-159131000D02*
X150054000Y-161731000D01*
X152714000Y-159131000D02*
X152714000Y-161731000D01*
X150054000Y-159131000D02*
X152714000Y-159131000D01*
X150054000Y-157861000D02*
X150054000Y-156531000D01*
X150054000Y-156531000D02*
X151384000Y-156531000D01*
X97984000Y-59369000D02*
X100644000Y-59369000D01*
X97984000Y-56769000D02*
X97984000Y-59369000D01*
X100644000Y-56769000D02*
X100644000Y-59369000D01*
X97984000Y-56769000D02*
X100644000Y-56769000D01*
X97984000Y-55499000D02*
X97984000Y-54169000D01*
X97984000Y-54169000D02*
X99314000Y-54169000D01*
X87714000Y-131378000D02*
X87714000Y-123638000D01*
X87714000Y-123638000D02*
X85054000Y-123638000D01*
X85054000Y-123638000D02*
X85054000Y-131378000D01*
X85054000Y-131378000D02*
X87714000Y-131378000D01*
X85054000Y-130428000D02*
X79054000Y-130428000D01*
X79054000Y-130428000D02*
X79054000Y-129668000D01*
X79054000Y-129668000D02*
X85054000Y-129668000D01*
X85054000Y-130368000D02*
X79054000Y-130368000D01*
X85054000Y-130248000D02*
X79054000Y-130248000D01*
X85054000Y-130128000D02*
X79054000Y-130128000D01*
X85054000Y-130008000D02*
X79054000Y-130008000D01*
X85054000Y-129888000D02*
X79054000Y-129888000D01*
X85054000Y-129768000D02*
X79054000Y-129768000D01*
X88111071Y-130428000D02*
X87714000Y-130428000D01*
X88111071Y-129668000D02*
X87714000Y-129668000D01*
X90584000Y-130428000D02*
X90196929Y-130428000D01*
X90584000Y-129668000D02*
X90196929Y-129668000D01*
X87714000Y-128778000D02*
X85054000Y-128778000D01*
X85054000Y-127888000D02*
X79054000Y-127888000D01*
X79054000Y-127888000D02*
X79054000Y-127128000D01*
X79054000Y-127128000D02*
X85054000Y-127128000D01*
X88111071Y-127888000D02*
X87714000Y-127888000D01*
X88111071Y-127128000D02*
X87714000Y-127128000D01*
X90651071Y-127888000D02*
X90196929Y-127888000D01*
X90651071Y-127128000D02*
X90196929Y-127128000D01*
X87714000Y-126238000D02*
X85054000Y-126238000D01*
X85054000Y-125348000D02*
X79054000Y-125348000D01*
X79054000Y-125348000D02*
X79054000Y-124588000D01*
X79054000Y-124588000D02*
X85054000Y-124588000D01*
X88111071Y-125348000D02*
X87714000Y-125348000D01*
X88111071Y-124588000D02*
X87714000Y-124588000D01*
X90651071Y-125348000D02*
X90196929Y-125348000D01*
X90651071Y-124588000D02*
X90196929Y-124588000D01*
X92964000Y-130048000D02*
X92964000Y-131318000D01*
X92964000Y-131318000D02*
X91694000Y-131318000D01*
X87714000Y-147126000D02*
X87714000Y-139386000D01*
X87714000Y-139386000D02*
X85054000Y-139386000D01*
X85054000Y-139386000D02*
X85054000Y-147126000D01*
X85054000Y-147126000D02*
X87714000Y-147126000D01*
X85054000Y-146176000D02*
X79054000Y-146176000D01*
X79054000Y-146176000D02*
X79054000Y-145416000D01*
X79054000Y-145416000D02*
X85054000Y-145416000D01*
X85054000Y-146116000D02*
X79054000Y-146116000D01*
X85054000Y-145996000D02*
X79054000Y-145996000D01*
X85054000Y-145876000D02*
X79054000Y-145876000D01*
X85054000Y-145756000D02*
X79054000Y-145756000D01*
X85054000Y-145636000D02*
X79054000Y-145636000D01*
X85054000Y-145516000D02*
X79054000Y-145516000D01*
X88111071Y-146176000D02*
X87714000Y-146176000D01*
X88111071Y-145416000D02*
X87714000Y-145416000D01*
X90584000Y-146176000D02*
X90196929Y-146176000D01*
X90584000Y-145416000D02*
X90196929Y-145416000D01*
X87714000Y-144526000D02*
X85054000Y-144526000D01*
X85054000Y-143636000D02*
X79054000Y-143636000D01*
X79054000Y-143636000D02*
X79054000Y-142876000D01*
X79054000Y-142876000D02*
X85054000Y-142876000D01*
X88111071Y-143636000D02*
X87714000Y-143636000D01*
X88111071Y-142876000D02*
X87714000Y-142876000D01*
X90651071Y-143636000D02*
X90196929Y-143636000D01*
X90651071Y-142876000D02*
X90196929Y-142876000D01*
X87714000Y-141986000D02*
X85054000Y-141986000D01*
X85054000Y-141096000D02*
X79054000Y-141096000D01*
X79054000Y-141096000D02*
X79054000Y-140336000D01*
X79054000Y-140336000D02*
X85054000Y-140336000D01*
X88111071Y-141096000D02*
X87714000Y-141096000D01*
X88111071Y-140336000D02*
X87714000Y-140336000D01*
X90651071Y-141096000D02*
X90196929Y-141096000D01*
X90651071Y-140336000D02*
X90196929Y-140336000D01*
X92964000Y-145796000D02*
X92964000Y-147066000D01*
X92964000Y-147066000D02*
X91694000Y-147066000D01*
D13*
X103182000Y-142679000D02*
X103707000Y-142679000D01*
X110432000Y-149929000D02*
X109907000Y-149929000D01*
X110432000Y-142679000D02*
X109907000Y-142679000D01*
X103182000Y-149929000D02*
X103182000Y-149404000D01*
X110432000Y-149929000D02*
X110432000Y-149404000D01*
X110432000Y-142679000D02*
X110432000Y-143204000D01*
X103182000Y-142679000D02*
X103182000Y-143204000D01*
D12*
X167700000Y-160715000D02*
X167700000Y-158055000D01*
X167640000Y-160715000D02*
X167700000Y-160715000D01*
X167640000Y-158055000D02*
X167700000Y-158055000D01*
X167640000Y-160715000D02*
X167640000Y-158055000D01*
X166370000Y-160715000D02*
X165040000Y-160715000D01*
X165040000Y-160715000D02*
X165040000Y-159385000D01*
X157928000Y-160715000D02*
X160588000Y-160715000D01*
X157928000Y-160655000D02*
X157928000Y-160715000D01*
X160588000Y-160655000D02*
X160588000Y-160715000D01*
X157928000Y-160655000D02*
X160588000Y-160655000D01*
X157928000Y-159385000D02*
X157928000Y-158055000D01*
X157928000Y-158055000D02*
X159258000Y-158055000D01*
X102048000Y-61274000D02*
X104708000Y-61274000D01*
X102048000Y-61214000D02*
X102048000Y-61274000D01*
X104708000Y-61214000D02*
X104708000Y-61274000D01*
X102048000Y-61214000D02*
X104708000Y-61214000D01*
X102048000Y-59944000D02*
X102048000Y-58614000D01*
X102048000Y-58614000D02*
X103378000Y-58614000D01*
X102048000Y-54543000D02*
X104708000Y-54543000D01*
X102048000Y-54483000D02*
X102048000Y-54543000D01*
X104708000Y-54483000D02*
X104708000Y-54543000D01*
X102048000Y-54483000D02*
X104708000Y-54483000D01*
X102048000Y-53213000D02*
X102048000Y-51883000D01*
X102048000Y-51883000D02*
X103378000Y-51883000D01*
X116290000Y-148629000D02*
X117490000Y-148629000D01*
X117490000Y-150389000D02*
X116290000Y-150389000D01*
D13*
X111652000Y-113476000D02*
X111652000Y-109476000D01*
X228118300Y-119783700D02*
X229318300Y-119783700D01*
X229318300Y-119783700D02*
X229318300Y-119503700D01*
X229318300Y-119503700D02*
X228118300Y-119503700D01*
X228118300Y-119503700D02*
X228118300Y-119783700D01*
X233718300Y-119643700D02*
G75*
G03X233718300Y-119643700I-500000J0D01*
G01*
X234048300Y-122313700D02*
X234048300Y-117233700D01*
X234048300Y-117233700D02*
X227698300Y-117233700D01*
X227698300Y-117233700D02*
X227698300Y-122313700D01*
X227698300Y-122313700D02*
X234048300Y-122313700D01*
X234048300Y-122313700D02*
X236588300Y-122313700D01*
X236588300Y-122313700D02*
X236588300Y-117233700D01*
X236518300Y-117233700D02*
X225958300Y-117233700D01*
X225958300Y-117233700D02*
X225958300Y-122313700D01*
X225958300Y-122313700D02*
X228498300Y-122313700D01*
D12*
X105131000Y-48158000D02*
X105131000Y-48408000D01*
X105131000Y-48408000D02*
X98831000Y-48408000D01*
X98831000Y-48408000D02*
X98831000Y-48158000D01*
X105131000Y-43658000D02*
X105131000Y-46258000D01*
X98831000Y-41758000D02*
X98831000Y-41508000D01*
X98831000Y-41508000D02*
X105131000Y-41508000D01*
X105131000Y-41508000D02*
X105131000Y-41758000D01*
X98831000Y-46258000D02*
X98831000Y-43658000D01*
X93955000Y-48158000D02*
X93955000Y-48408000D01*
X93955000Y-48408000D02*
X87655000Y-48408000D01*
X87655000Y-48408000D02*
X87655000Y-48158000D01*
X93955000Y-43658000D02*
X93955000Y-46258000D01*
X87655000Y-41758000D02*
X87655000Y-41508000D01*
X87655000Y-41508000D02*
X93955000Y-41508000D01*
X93955000Y-41508000D02*
X93955000Y-41758000D01*
X87655000Y-46258000D02*
X87655000Y-43658000D01*
X90322000Y-59334000D02*
X90572000Y-59334000D01*
X90572000Y-59334000D02*
X90572000Y-65634000D01*
X90572000Y-65634000D02*
X90322000Y-65634000D01*
X85822000Y-59334000D02*
X88422000Y-59334000D01*
X83922000Y-65634000D02*
X83672000Y-65634000D01*
X83672000Y-65634000D02*
X83672000Y-59334000D01*
X83672000Y-59334000D02*
X83922000Y-59334000D01*
X88422000Y-65634000D02*
X85822000Y-65634000D01*
D13*
X122277143Y-145962666D02*
X122324762Y-146010285D01*
X122372381Y-146153142D01*
X122372381Y-146248380D01*
X122324762Y-146391238D01*
X122229524Y-146486476D01*
X122134286Y-146534095D01*
X121943810Y-146581714D01*
X121800952Y-146581714D01*
X121610476Y-146534095D01*
X121515238Y-146486476D01*
X121420000Y-146391238D01*
X121372381Y-146248380D01*
X121372381Y-146153142D01*
X121420000Y-146010285D01*
X121467619Y-145962666D01*
X122372381Y-145010285D02*
X122372381Y-145581714D01*
X122372381Y-145296000D02*
X121372381Y-145296000D01*
X121515238Y-145391238D01*
X121610476Y-145486476D01*
X121658095Y-145581714D01*
X129883048Y-140544429D02*
X130644953Y-140544429D01*
X130264001Y-140925381D02*
X130264001Y-140163476D01*
X122150143Y-152947666D02*
X122197762Y-152995285D01*
X122245381Y-153138142D01*
X122245381Y-153233380D01*
X122197762Y-153376238D01*
X122102524Y-153471476D01*
X122007286Y-153519095D01*
X121816810Y-153566714D01*
X121673952Y-153566714D01*
X121483476Y-153519095D01*
X121388238Y-153471476D01*
X121293000Y-153376238D01*
X121245381Y-153233380D01*
X121245381Y-153138142D01*
X121293000Y-152995285D01*
X121340619Y-152947666D01*
X121340619Y-152566714D02*
X121293000Y-152519095D01*
X121245381Y-152423857D01*
X121245381Y-152185761D01*
X121293000Y-152090523D01*
X121340619Y-152042904D01*
X121435857Y-151995285D01*
X121531095Y-151995285D01*
X121673952Y-152042904D01*
X122245381Y-152614333D01*
X122245381Y-151995285D01*
X129883048Y-147656429D02*
X130644953Y-147656429D01*
X130264001Y-148037381D02*
X130264001Y-147275476D01*
X85161381Y-43918095D02*
X84161381Y-43918095D01*
X84161381Y-43680000D01*
X84209000Y-43537142D01*
X84304238Y-43441904D01*
X84399476Y-43394285D01*
X84589952Y-43346666D01*
X84732810Y-43346666D01*
X84923286Y-43394285D01*
X85018524Y-43441904D01*
X85113762Y-43537142D01*
X85161381Y-43680000D01*
X85161381Y-43918095D01*
X85161381Y-42394285D02*
X85161381Y-42965714D01*
X85161381Y-42680000D02*
X84161381Y-42680000D01*
X84304238Y-42775238D01*
X84399476Y-42870476D01*
X84447095Y-42965714D01*
X91590905Y-151241381D02*
X91590905Y-150241381D01*
X91829000Y-150241381D01*
X91971858Y-150289000D01*
X92067096Y-150384238D01*
X92114715Y-150479476D01*
X92162334Y-150669952D01*
X92162334Y-150812810D01*
X92114715Y-151003286D01*
X92067096Y-151098524D01*
X91971858Y-151193762D01*
X91829000Y-151241381D01*
X91590905Y-151241381D01*
X92543286Y-150336619D02*
X92590905Y-150289000D01*
X92686143Y-150241381D01*
X92924239Y-150241381D01*
X93019477Y-150289000D01*
X93067096Y-150336619D01*
X93114715Y-150431857D01*
X93114715Y-150527095D01*
X93067096Y-150669952D01*
X92495667Y-151241381D01*
X93114715Y-151241381D01*
X100881381Y-138477523D02*
X101595667Y-138477523D01*
X101738524Y-138525143D01*
X101833762Y-138620381D01*
X101881381Y-138763238D01*
X101881381Y-138858476D01*
X101881381Y-137477523D02*
X101881381Y-138048952D01*
X101881381Y-137763238D02*
X100881381Y-137763238D01*
X101024238Y-137858476D01*
X101119476Y-137953714D01*
X101167095Y-138048952D01*
X100881381Y-136858476D02*
X100881381Y-136763237D01*
X100929000Y-136667999D01*
X100976619Y-136620380D01*
X101071857Y-136572761D01*
X101262333Y-136525142D01*
X101500429Y-136525142D01*
X101690905Y-136572761D01*
X101786143Y-136620380D01*
X101833762Y-136667999D01*
X101881381Y-136763237D01*
X101881381Y-136858476D01*
X101833762Y-136953714D01*
X101786143Y-137001333D01*
X101690905Y-137048952D01*
X101500429Y-137096571D01*
X101262333Y-137096571D01*
X101071857Y-137048952D01*
X100976619Y-137001333D01*
X100929000Y-136953714D01*
X100881381Y-136858476D01*
X101758762Y-114172619D02*
X101663524Y-114125000D01*
X101568286Y-114029762D01*
X101425429Y-113886905D01*
X101330190Y-113839286D01*
X101234952Y-113839286D01*
X101282571Y-114077381D02*
X101187333Y-114029762D01*
X101092095Y-113934524D01*
X101044476Y-113744048D01*
X101044476Y-113410714D01*
X101092095Y-113220238D01*
X101187333Y-113125000D01*
X101282571Y-113077381D01*
X101473048Y-113077381D01*
X101568286Y-113125000D01*
X101663524Y-113220238D01*
X101711143Y-113410714D01*
X101711143Y-113744048D01*
X101663524Y-113934524D01*
X101568286Y-114029762D01*
X101473048Y-114077381D01*
X101282571Y-114077381D01*
X102663524Y-114077381D02*
X102092095Y-114077381D01*
X102377809Y-114077381D02*
X102377809Y-113077381D01*
X102282571Y-113220238D01*
X102187333Y-113315476D01*
X102092095Y-113363095D01*
X147553762Y-78676333D02*
X147601381Y-78533476D01*
X147601381Y-78295380D01*
X147553762Y-78200142D01*
X147506143Y-78152523D01*
X147410905Y-78104904D01*
X147315667Y-78104904D01*
X147220429Y-78152523D01*
X147172810Y-78200142D01*
X147125190Y-78295380D01*
X147077571Y-78485857D01*
X147029952Y-78581095D01*
X146982333Y-78628714D01*
X146887095Y-78676333D01*
X146791857Y-78676333D01*
X146696619Y-78628714D01*
X146649000Y-78581095D01*
X146601381Y-78485857D01*
X146601381Y-78247761D01*
X146649000Y-78104904D01*
X146601381Y-77771571D02*
X147601381Y-77533476D01*
X146887095Y-77342999D01*
X147601381Y-77152523D01*
X146601381Y-76914428D01*
X146601381Y-76628714D02*
X146601381Y-76009666D01*
X146982333Y-76343000D01*
X146982333Y-76200142D01*
X147029952Y-76104904D01*
X147077571Y-76057285D01*
X147172810Y-76009666D01*
X147410905Y-76009666D01*
X147506143Y-76057285D01*
X147553762Y-76104904D01*
X147601381Y-76200142D01*
X147601381Y-76485857D01*
X147553762Y-76581095D01*
X147506143Y-76628714D01*
X118110095Y-131278381D02*
X118110095Y-132087905D01*
X118157714Y-132183143D01*
X118205333Y-132230762D01*
X118300571Y-132278381D01*
X118491048Y-132278381D01*
X118586286Y-132230762D01*
X118633905Y-132183143D01*
X118681524Y-132087905D01*
X118681524Y-131278381D01*
X119110095Y-131373619D02*
X119157714Y-131326000D01*
X119252952Y-131278381D01*
X119491048Y-131278381D01*
X119586286Y-131326000D01*
X119633905Y-131373619D01*
X119681524Y-131468857D01*
X119681524Y-131564095D01*
X119633905Y-131706952D01*
X119062476Y-132278381D01*
X119681524Y-132278381D01*
X92075095Y-162702381D02*
X92075095Y-163511905D01*
X92122714Y-163607143D01*
X92170333Y-163654762D01*
X92265571Y-163702381D01*
X92456048Y-163702381D01*
X92551286Y-163654762D01*
X92598905Y-163607143D01*
X92646524Y-163511905D01*
X92646524Y-162702381D01*
X93598905Y-162702381D02*
X93122714Y-162702381D01*
X93075095Y-163178571D01*
X93122714Y-163130952D01*
X93217952Y-163083333D01*
X93456048Y-163083333D01*
X93551286Y-163130952D01*
X93598905Y-163178571D01*
X93646524Y-163273810D01*
X93646524Y-163511905D01*
X93598905Y-163607143D01*
X93551286Y-163654762D01*
X93456048Y-163702381D01*
X93217952Y-163702381D01*
X93122714Y-163654762D01*
X93075095Y-163607143D01*
X115038190Y-146018191D02*
X115514381Y-146018191D01*
X114514381Y-146351524D02*
X115038190Y-146018191D01*
X114514381Y-145684857D01*
X115514381Y-144827714D02*
X115514381Y-145399143D01*
X115514381Y-145113429D02*
X114514381Y-145113429D01*
X114657238Y-145208667D01*
X114752476Y-145303905D01*
X114800095Y-145399143D01*
X102235143Y-56808666D02*
X102282762Y-56856285D01*
X102330381Y-56999142D01*
X102330381Y-57094380D01*
X102282762Y-57237238D01*
X102187524Y-57332476D01*
X102092286Y-57380095D01*
X101901810Y-57427714D01*
X101758952Y-57427714D01*
X101568476Y-57380095D01*
X101473238Y-57332476D01*
X101378000Y-57237238D01*
X101330381Y-57094380D01*
X101330381Y-56999142D01*
X101378000Y-56856285D01*
X101425619Y-56808666D01*
X101330381Y-55903904D02*
X101330381Y-56380095D01*
X101806571Y-56427714D01*
X101758952Y-56380095D01*
X101711333Y-56284857D01*
X101711333Y-56046761D01*
X101758952Y-55951523D01*
X101806571Y-55903904D01*
X101901810Y-55856285D01*
X102139905Y-55856285D01*
X102235143Y-55903904D01*
X102282762Y-55951523D01*
X102330381Y-56046761D01*
X102330381Y-56284857D01*
X102282762Y-56380095D01*
X102235143Y-56427714D01*
X122277143Y-135040666D02*
X122324762Y-135088285D01*
X122372381Y-135231142D01*
X122372381Y-135326380D01*
X122324762Y-135469238D01*
X122229524Y-135564476D01*
X122134286Y-135612095D01*
X121943810Y-135659714D01*
X121800952Y-135659714D01*
X121610476Y-135612095D01*
X121515238Y-135564476D01*
X121420000Y-135469238D01*
X121372381Y-135326380D01*
X121372381Y-135231142D01*
X121420000Y-135088285D01*
X121467619Y-135040666D01*
X121372381Y-134707333D02*
X121372381Y-134088285D01*
X121753333Y-134421619D01*
X121753333Y-134278761D01*
X121800952Y-134183523D01*
X121848571Y-134135904D01*
X121943810Y-134088285D01*
X122181905Y-134088285D01*
X122277143Y-134135904D01*
X122324762Y-134183523D01*
X122372381Y-134278761D01*
X122372381Y-134564476D01*
X122324762Y-134659714D01*
X122277143Y-134707333D01*
X162647334Y-161242143D02*
X162599715Y-161289762D01*
X162456858Y-161337381D01*
X162361620Y-161337381D01*
X162218762Y-161289762D01*
X162123524Y-161194524D01*
X162075905Y-161099286D01*
X162028286Y-160908810D01*
X162028286Y-160765952D01*
X162075905Y-160575476D01*
X162123524Y-160480238D01*
X162218762Y-160385000D01*
X162361620Y-160337381D01*
X162456858Y-160337381D01*
X162599715Y-160385000D01*
X162647334Y-160432619D01*
X163504477Y-160670714D02*
X163504477Y-161337381D01*
X163266381Y-160289762D02*
X163028286Y-161004048D01*
X163647334Y-161004048D01*
X125706143Y-138342666D02*
X125753762Y-138390285D01*
X125801381Y-138533142D01*
X125801381Y-138628380D01*
X125753762Y-138771238D01*
X125658524Y-138866476D01*
X125563286Y-138914095D01*
X125372810Y-138961714D01*
X125229952Y-138961714D01*
X125039476Y-138914095D01*
X124944238Y-138866476D01*
X124849000Y-138771238D01*
X124801381Y-138628380D01*
X124801381Y-138533142D01*
X124849000Y-138390285D01*
X124896619Y-138342666D01*
X124801381Y-137485523D02*
X124801381Y-137676000D01*
X124849000Y-137771238D01*
X124896619Y-137818857D01*
X125039476Y-137914095D01*
X125229952Y-137961714D01*
X125610905Y-137961714D01*
X125706143Y-137914095D01*
X125753762Y-137866476D01*
X125801381Y-137771238D01*
X125801381Y-137580761D01*
X125753762Y-137485523D01*
X125706143Y-137437904D01*
X125610905Y-137390285D01*
X125372810Y-137390285D01*
X125277571Y-137437904D01*
X125229952Y-137485523D01*
X125182333Y-137580761D01*
X125182333Y-137771238D01*
X125229952Y-137866476D01*
X125277571Y-137914095D01*
X125372810Y-137961714D01*
X118324334Y-139398143D02*
X118276715Y-139445762D01*
X118133858Y-139493381D01*
X118038620Y-139493381D01*
X117895762Y-139445762D01*
X117800524Y-139350524D01*
X117752905Y-139255286D01*
X117705286Y-139064810D01*
X117705286Y-138921952D01*
X117752905Y-138731476D01*
X117800524Y-138636238D01*
X117895762Y-138541000D01*
X118038620Y-138493381D01*
X118133858Y-138493381D01*
X118276715Y-138541000D01*
X118324334Y-138588619D01*
X118657667Y-138493381D02*
X119324334Y-138493381D01*
X118895762Y-139493381D01*
X111085334Y-152122143D02*
X111037715Y-152169762D01*
X110894858Y-152217381D01*
X110799620Y-152217381D01*
X110656762Y-152169762D01*
X110561524Y-152074524D01*
X110513905Y-151979286D01*
X110466286Y-151788810D01*
X110466286Y-151645952D01*
X110513905Y-151455476D01*
X110561524Y-151360238D01*
X110656762Y-151265000D01*
X110799620Y-151217381D01*
X110894858Y-151217381D01*
X111037715Y-151265000D01*
X111085334Y-151312619D01*
X111656762Y-151645952D02*
X111561524Y-151598333D01*
X111513905Y-151550714D01*
X111466286Y-151455476D01*
X111466286Y-151407857D01*
X111513905Y-151312619D01*
X111561524Y-151265000D01*
X111656762Y-151217381D01*
X111847239Y-151217381D01*
X111942477Y-151265000D01*
X111990096Y-151312619D01*
X112037715Y-151407857D01*
X112037715Y-151455476D01*
X111990096Y-151550714D01*
X111942477Y-151598333D01*
X111847239Y-151645952D01*
X111656762Y-151645952D01*
X111561524Y-151693571D01*
X111513905Y-151741190D01*
X111466286Y-151836429D01*
X111466286Y-152026905D01*
X111513905Y-152122143D01*
X111561524Y-152169762D01*
X111656762Y-152217381D01*
X111847239Y-152217381D01*
X111942477Y-152169762D01*
X111990096Y-152122143D01*
X112037715Y-152026905D01*
X112037715Y-151836429D01*
X111990096Y-151741190D01*
X111942477Y-151693571D01*
X111847239Y-151645952D01*
X116562143Y-153455666D02*
X116609762Y-153503285D01*
X116657381Y-153646142D01*
X116657381Y-153741380D01*
X116609762Y-153884238D01*
X116514524Y-153979476D01*
X116419286Y-154027095D01*
X116228810Y-154074714D01*
X116085952Y-154074714D01*
X115895476Y-154027095D01*
X115800238Y-153979476D01*
X115705000Y-153884238D01*
X115657381Y-153741380D01*
X115657381Y-153646142D01*
X115705000Y-153503285D01*
X115752619Y-153455666D01*
X116657381Y-152979476D02*
X116657381Y-152789000D01*
X116609762Y-152693761D01*
X116562143Y-152646142D01*
X116419286Y-152550904D01*
X116228810Y-152503285D01*
X115847857Y-152503285D01*
X115752619Y-152550904D01*
X115705000Y-152598523D01*
X115657381Y-152693761D01*
X115657381Y-152884238D01*
X115705000Y-152979476D01*
X115752619Y-153027095D01*
X115847857Y-153074714D01*
X116085952Y-153074714D01*
X116181190Y-153027095D01*
X116228810Y-152979476D01*
X116276429Y-152884238D01*
X116276429Y-152693761D01*
X116228810Y-152598523D01*
X116181190Y-152550904D01*
X116085952Y-152503285D01*
X105640143Y-159646857D02*
X105687762Y-159694476D01*
X105735381Y-159837333D01*
X105735381Y-159932571D01*
X105687762Y-160075429D01*
X105592524Y-160170667D01*
X105497286Y-160218286D01*
X105306810Y-160265905D01*
X105163952Y-160265905D01*
X104973476Y-160218286D01*
X104878238Y-160170667D01*
X104783000Y-160075429D01*
X104735381Y-159932571D01*
X104735381Y-159837333D01*
X104783000Y-159694476D01*
X104830619Y-159646857D01*
X105735381Y-158694476D02*
X105735381Y-159265905D01*
X105735381Y-158980191D02*
X104735381Y-158980191D01*
X104878238Y-159075429D01*
X104973476Y-159170667D01*
X105021095Y-159265905D01*
X104735381Y-158075429D02*
X104735381Y-157980190D01*
X104783000Y-157884952D01*
X104830619Y-157837333D01*
X104925857Y-157789714D01*
X105116333Y-157742095D01*
X105354429Y-157742095D01*
X105544905Y-157789714D01*
X105640143Y-157837333D01*
X105687762Y-157884952D01*
X105735381Y-157980190D01*
X105735381Y-158075429D01*
X105687762Y-158170667D01*
X105640143Y-158218286D01*
X105544905Y-158265905D01*
X105354429Y-158313524D01*
X105116333Y-158313524D01*
X104925857Y-158265905D01*
X104830619Y-158218286D01*
X104783000Y-158170667D01*
X104735381Y-158075429D01*
X102822143Y-152280857D02*
X102869762Y-152328476D01*
X102917381Y-152471333D01*
X102917381Y-152566571D01*
X102869762Y-152709429D01*
X102774524Y-152804667D01*
X102679286Y-152852286D01*
X102488810Y-152899905D01*
X102345952Y-152899905D01*
X102155476Y-152852286D01*
X102060238Y-152804667D01*
X101965000Y-152709429D01*
X101917381Y-152566571D01*
X101917381Y-152471333D01*
X101965000Y-152328476D01*
X102012619Y-152280857D01*
X102917381Y-151328476D02*
X102917381Y-151899905D01*
X102917381Y-151614191D02*
X101917381Y-151614191D01*
X102060238Y-151709429D01*
X102155476Y-151804667D01*
X102203095Y-151899905D01*
X102917381Y-150376095D02*
X102917381Y-150947524D01*
X102917381Y-150661810D02*
X101917381Y-150661810D01*
X102060238Y-150757048D01*
X102155476Y-150852286D01*
X102203095Y-150947524D01*
X107561143Y-157837143D02*
X107513524Y-157884762D01*
X107370667Y-157932381D01*
X107275429Y-157932381D01*
X107132571Y-157884762D01*
X107037333Y-157789524D01*
X106989714Y-157694286D01*
X106942095Y-157503810D01*
X106942095Y-157360952D01*
X106989714Y-157170476D01*
X107037333Y-157075238D01*
X107132571Y-156980000D01*
X107275429Y-156932381D01*
X107370667Y-156932381D01*
X107513524Y-156980000D01*
X107561143Y-157027619D01*
X108513524Y-157932381D02*
X107942095Y-157932381D01*
X108227809Y-157932381D02*
X108227809Y-156932381D01*
X108132571Y-157075238D01*
X108037333Y-157170476D01*
X107942095Y-157218095D01*
X108894476Y-157027619D02*
X108942095Y-156980000D01*
X109037333Y-156932381D01*
X109275429Y-156932381D01*
X109370667Y-156980000D01*
X109418286Y-157027619D01*
X109465905Y-157122857D01*
X109465905Y-157218095D01*
X109418286Y-157360952D01*
X108846857Y-157932381D01*
X109465905Y-157932381D01*
X112641143Y-148336143D02*
X112593524Y-148383762D01*
X112450667Y-148431381D01*
X112355429Y-148431381D01*
X112212571Y-148383762D01*
X112117333Y-148288524D01*
X112069714Y-148193286D01*
X112022095Y-148002810D01*
X112022095Y-147859952D01*
X112069714Y-147669476D01*
X112117333Y-147574238D01*
X112212571Y-147479000D01*
X112355429Y-147431381D01*
X112450667Y-147431381D01*
X112593524Y-147479000D01*
X112641143Y-147526619D01*
X113593524Y-148431381D02*
X113022095Y-148431381D01*
X113307809Y-148431381D02*
X113307809Y-147431381D01*
X113212571Y-147574238D01*
X113117333Y-147669476D01*
X113022095Y-147717095D01*
X113926857Y-147431381D02*
X114545905Y-147431381D01*
X114212571Y-147812333D01*
X114355429Y-147812333D01*
X114450667Y-147859952D01*
X114498286Y-147907571D01*
X114545905Y-148002810D01*
X114545905Y-148240905D01*
X114498286Y-148336143D01*
X114450667Y-148383762D01*
X114355429Y-148431381D01*
X114069714Y-148431381D01*
X113974476Y-148383762D01*
X113926857Y-148336143D01*
X101195143Y-159392857D02*
X101242762Y-159440476D01*
X101290381Y-159583333D01*
X101290381Y-159678571D01*
X101242762Y-159821429D01*
X101147524Y-159916667D01*
X101052286Y-159964286D01*
X100861810Y-160011905D01*
X100718952Y-160011905D01*
X100528476Y-159964286D01*
X100433238Y-159916667D01*
X100338000Y-159821429D01*
X100290381Y-159678571D01*
X100290381Y-159583333D01*
X100338000Y-159440476D01*
X100385619Y-159392857D01*
X101290381Y-158440476D02*
X101290381Y-159011905D01*
X101290381Y-158726191D02*
X100290381Y-158726191D01*
X100433238Y-158821429D01*
X100528476Y-158916667D01*
X100576095Y-159011905D01*
X100623714Y-157583333D02*
X101290381Y-157583333D01*
X100242762Y-157821429D02*
X100957048Y-158059524D01*
X100957048Y-157440476D01*
X99290143Y-159392857D02*
X99337762Y-159440476D01*
X99385381Y-159583333D01*
X99385381Y-159678571D01*
X99337762Y-159821429D01*
X99242524Y-159916667D01*
X99147286Y-159964286D01*
X98956810Y-160011905D01*
X98813952Y-160011905D01*
X98623476Y-159964286D01*
X98528238Y-159916667D01*
X98433000Y-159821429D01*
X98385381Y-159678571D01*
X98385381Y-159583333D01*
X98433000Y-159440476D01*
X98480619Y-159392857D01*
X99385381Y-158440476D02*
X99385381Y-159011905D01*
X99385381Y-158726191D02*
X98385381Y-158726191D01*
X98528238Y-158821429D01*
X98623476Y-158916667D01*
X98671095Y-159011905D01*
X98385381Y-157535714D02*
X98385381Y-158011905D01*
X98861571Y-158059524D01*
X98813952Y-158011905D01*
X98766333Y-157916667D01*
X98766333Y-157678571D01*
X98813952Y-157583333D01*
X98861571Y-157535714D01*
X98956810Y-157488095D01*
X99194905Y-157488095D01*
X99290143Y-157535714D01*
X99337762Y-157583333D01*
X99385381Y-157678571D01*
X99385381Y-157916667D01*
X99337762Y-158011905D01*
X99290143Y-158059524D01*
X100790143Y-152280857D02*
X100837762Y-152328476D01*
X100885381Y-152471333D01*
X100885381Y-152566571D01*
X100837762Y-152709429D01*
X100742524Y-152804667D01*
X100647286Y-152852286D01*
X100456810Y-152899905D01*
X100313952Y-152899905D01*
X100123476Y-152852286D01*
X100028238Y-152804667D01*
X99933000Y-152709429D01*
X99885381Y-152566571D01*
X99885381Y-152471333D01*
X99933000Y-152328476D01*
X99980619Y-152280857D01*
X100885381Y-151328476D02*
X100885381Y-151899905D01*
X100885381Y-151614191D02*
X99885381Y-151614191D01*
X100028238Y-151709429D01*
X100123476Y-151804667D01*
X100171095Y-151899905D01*
X99885381Y-150471333D02*
X99885381Y-150661810D01*
X99933000Y-150757048D01*
X99980619Y-150804667D01*
X100123476Y-150899905D01*
X100313952Y-150947524D01*
X100694905Y-150947524D01*
X100790143Y-150899905D01*
X100837762Y-150852286D01*
X100885381Y-150757048D01*
X100885381Y-150566571D01*
X100837762Y-150471333D01*
X100790143Y-150423714D01*
X100694905Y-150376095D01*
X100456810Y-150376095D01*
X100361571Y-150423714D01*
X100313952Y-150471333D01*
X100266333Y-150566571D01*
X100266333Y-150757048D01*
X100313952Y-150852286D01*
X100361571Y-150899905D01*
X100456810Y-150947524D01*
X111625143Y-140438143D02*
X111577524Y-140485762D01*
X111434667Y-140533381D01*
X111339429Y-140533381D01*
X111196571Y-140485762D01*
X111101333Y-140390524D01*
X111053714Y-140295286D01*
X111006095Y-140104810D01*
X111006095Y-139961952D01*
X111053714Y-139771476D01*
X111101333Y-139676238D01*
X111196571Y-139581000D01*
X111339429Y-139533381D01*
X111434667Y-139533381D01*
X111577524Y-139581000D01*
X111625143Y-139628619D01*
X112577524Y-140533381D02*
X112006095Y-140533381D01*
X112291809Y-140533381D02*
X112291809Y-139533381D01*
X112196571Y-139676238D01*
X112101333Y-139771476D01*
X112006095Y-139819095D01*
X112910857Y-139533381D02*
X113577524Y-139533381D01*
X113148952Y-140533381D01*
X103322381Y-157900666D02*
X103322381Y-158376857D01*
X102322381Y-158376857D01*
X103322381Y-157043523D02*
X103322381Y-157614952D01*
X103322381Y-157329238D02*
X102322381Y-157329238D01*
X102465238Y-157424476D01*
X102560476Y-157519714D01*
X102608095Y-157614952D01*
X105751334Y-106116381D02*
X105418000Y-105640190D01*
X105179905Y-106116381D02*
X105179905Y-105116381D01*
X105560858Y-105116381D01*
X105656096Y-105164000D01*
X105703715Y-105211619D01*
X105751334Y-105306857D01*
X105751334Y-105449714D01*
X105703715Y-105544952D01*
X105656096Y-105592571D01*
X105560858Y-105640190D01*
X105179905Y-105640190D01*
X106703715Y-106116381D02*
X106132286Y-106116381D01*
X106418000Y-106116381D02*
X106418000Y-105116381D01*
X106322762Y-105259238D01*
X106227524Y-105354476D01*
X106132286Y-105402095D01*
X105751334Y-115260381D02*
X105418000Y-114784190D01*
X105179905Y-115260381D02*
X105179905Y-114260381D01*
X105560858Y-114260381D01*
X105656096Y-114308000D01*
X105703715Y-114355619D01*
X105751334Y-114450857D01*
X105751334Y-114593714D01*
X105703715Y-114688952D01*
X105656096Y-114736571D01*
X105560858Y-114784190D01*
X105179905Y-114784190D01*
X106132286Y-114355619D02*
X106179905Y-114308000D01*
X106275143Y-114260381D01*
X106513239Y-114260381D01*
X106608477Y-114308000D01*
X106656096Y-114355619D01*
X106703715Y-114450857D01*
X106703715Y-114546095D01*
X106656096Y-114688952D01*
X106084667Y-115260381D01*
X106703715Y-115260381D01*
X111847334Y-157424381D02*
X111514000Y-156948190D01*
X111275905Y-157424381D02*
X111275905Y-156424381D01*
X111656858Y-156424381D01*
X111752096Y-156472000D01*
X111799715Y-156519619D01*
X111847334Y-156614857D01*
X111847334Y-156757714D01*
X111799715Y-156852952D01*
X111752096Y-156900571D01*
X111656858Y-156948190D01*
X111275905Y-156948190D01*
X112704477Y-156424381D02*
X112514000Y-156424381D01*
X112418762Y-156472000D01*
X112371143Y-156519619D01*
X112275905Y-156662476D01*
X112228286Y-156852952D01*
X112228286Y-157233905D01*
X112275905Y-157329143D01*
X112323524Y-157376762D01*
X112418762Y-157424381D01*
X112609239Y-157424381D01*
X112704477Y-157376762D01*
X112752096Y-157329143D01*
X112799715Y-157233905D01*
X112799715Y-156995810D01*
X112752096Y-156900571D01*
X112704477Y-156852952D01*
X112609239Y-156805333D01*
X112418762Y-156805333D01*
X112323524Y-156852952D01*
X112275905Y-156900571D01*
X112228286Y-156995810D01*
X96861334Y-111195381D02*
X96528000Y-110719190D01*
X96289905Y-111195381D02*
X96289905Y-110195381D01*
X96670858Y-110195381D01*
X96766096Y-110243000D01*
X96813715Y-110290619D01*
X96861334Y-110385857D01*
X96861334Y-110528714D01*
X96813715Y-110623952D01*
X96766096Y-110671571D01*
X96670858Y-110719190D01*
X96289905Y-110719190D01*
X97194667Y-110195381D02*
X97861334Y-110195381D01*
X97432762Y-111195381D01*
X93940334Y-109800381D02*
X93607000Y-109324190D01*
X93368905Y-109800381D02*
X93368905Y-108800381D01*
X93749858Y-108800381D01*
X93845096Y-108848000D01*
X93892715Y-108895619D01*
X93940334Y-108990857D01*
X93940334Y-109133714D01*
X93892715Y-109228952D01*
X93845096Y-109276571D01*
X93749858Y-109324190D01*
X93368905Y-109324190D01*
X94511762Y-109228952D02*
X94416524Y-109181333D01*
X94368905Y-109133714D01*
X94321286Y-109038476D01*
X94321286Y-108990857D01*
X94368905Y-108895619D01*
X94416524Y-108848000D01*
X94511762Y-108800381D01*
X94702239Y-108800381D01*
X94797477Y-108848000D01*
X94845096Y-108895619D01*
X94892715Y-108990857D01*
X94892715Y-109038476D01*
X94845096Y-109133714D01*
X94797477Y-109181333D01*
X94702239Y-109228952D01*
X94511762Y-109228952D01*
X94416524Y-109276571D01*
X94368905Y-109324190D01*
X94321286Y-109419429D01*
X94321286Y-109609905D01*
X94368905Y-109705143D01*
X94416524Y-109752762D01*
X94511762Y-109800381D01*
X94702239Y-109800381D01*
X94797477Y-109752762D01*
X94845096Y-109705143D01*
X94892715Y-109609905D01*
X94892715Y-109419429D01*
X94845096Y-109324190D01*
X94797477Y-109276571D01*
X94702239Y-109228952D01*
X97750334Y-105735381D02*
X97417000Y-105259190D01*
X97178905Y-105735381D02*
X97178905Y-104735381D01*
X97559858Y-104735381D01*
X97655096Y-104783000D01*
X97702715Y-104830619D01*
X97750334Y-104925857D01*
X97750334Y-105068714D01*
X97702715Y-105163952D01*
X97655096Y-105211571D01*
X97559858Y-105259190D01*
X97178905Y-105259190D01*
X98226524Y-105735381D02*
X98417000Y-105735381D01*
X98512239Y-105687762D01*
X98559858Y-105640143D01*
X98655096Y-105497286D01*
X98702715Y-105306810D01*
X98702715Y-104925857D01*
X98655096Y-104830619D01*
X98607477Y-104783000D01*
X98512239Y-104735381D01*
X98321762Y-104735381D01*
X98226524Y-104783000D01*
X98178905Y-104830619D01*
X98131286Y-104925857D01*
X98131286Y-105163952D01*
X98178905Y-105259190D01*
X98226524Y-105306810D01*
X98321762Y-105354429D01*
X98512239Y-105354429D01*
X98607477Y-105306810D01*
X98655096Y-105259190D01*
X98702715Y-105163952D01*
X85161381Y-48013857D02*
X84685190Y-48347191D01*
X85161381Y-48585286D02*
X84161381Y-48585286D01*
X84161381Y-48204333D01*
X84209000Y-48109095D01*
X84256619Y-48061476D01*
X84351857Y-48013857D01*
X84494714Y-48013857D01*
X84589952Y-48061476D01*
X84637571Y-48109095D01*
X84685190Y-48204333D01*
X84685190Y-48585286D01*
X85161381Y-47061476D02*
X85161381Y-47632905D01*
X85161381Y-47347191D02*
X84161381Y-47347191D01*
X84304238Y-47442429D01*
X84399476Y-47537667D01*
X84447095Y-47632905D01*
X84161381Y-46442429D02*
X84161381Y-46347190D01*
X84209000Y-46251952D01*
X84256619Y-46204333D01*
X84351857Y-46156714D01*
X84542333Y-46109095D01*
X84780429Y-46109095D01*
X84970905Y-46156714D01*
X85066143Y-46204333D01*
X85113762Y-46251952D01*
X85161381Y-46347190D01*
X85161381Y-46442429D01*
X85113762Y-46537667D01*
X85066143Y-46585286D01*
X84970905Y-46632905D01*
X84780429Y-46680524D01*
X84542333Y-46680524D01*
X84351857Y-46632905D01*
X84256619Y-46585286D01*
X84209000Y-46537667D01*
X84161381Y-46442429D01*
X107434143Y-152979381D02*
X107100809Y-152503190D01*
X106862714Y-152979381D02*
X106862714Y-151979381D01*
X107243667Y-151979381D01*
X107338905Y-152027000D01*
X107386524Y-152074619D01*
X107434143Y-152169857D01*
X107434143Y-152312714D01*
X107386524Y-152407952D01*
X107338905Y-152455571D01*
X107243667Y-152503190D01*
X106862714Y-152503190D01*
X108386524Y-152979381D02*
X107815095Y-152979381D01*
X108100809Y-152979381D02*
X108100809Y-151979381D01*
X108005571Y-152122238D01*
X107910333Y-152217476D01*
X107815095Y-152265095D01*
X109338905Y-152979381D02*
X108767476Y-152979381D01*
X109053190Y-152979381D02*
X109053190Y-151979381D01*
X108957952Y-152122238D01*
X108862714Y-152217476D01*
X108767476Y-152265095D01*
X114546143Y-140533381D02*
X114212809Y-140057190D01*
X113974714Y-140533381D02*
X113974714Y-139533381D01*
X114355667Y-139533381D01*
X114450905Y-139581000D01*
X114498524Y-139628619D01*
X114546143Y-139723857D01*
X114546143Y-139866714D01*
X114498524Y-139961952D01*
X114450905Y-140009571D01*
X114355667Y-140057190D01*
X113974714Y-140057190D01*
X115498524Y-140533381D02*
X114927095Y-140533381D01*
X115212809Y-140533381D02*
X115212809Y-139533381D01*
X115117571Y-139676238D01*
X115022333Y-139771476D01*
X114927095Y-139819095D01*
X116355667Y-139866714D02*
X116355667Y-140533381D01*
X116117571Y-139485762D02*
X115879476Y-140200048D01*
X116498524Y-140200048D01*
X91825381Y-107267333D02*
X92539667Y-107267333D01*
X92682524Y-107314953D01*
X92777762Y-107410191D01*
X92825381Y-107553048D01*
X92825381Y-107648286D01*
X91825381Y-106886381D02*
X91825381Y-106219714D01*
X92825381Y-106648286D01*
X103211334Y-109037381D02*
X102878000Y-108561190D01*
X102639905Y-109037381D02*
X102639905Y-108037381D01*
X103020858Y-108037381D01*
X103116096Y-108085000D01*
X103163715Y-108132619D01*
X103211334Y-108227857D01*
X103211334Y-108370714D01*
X103163715Y-108465952D01*
X103116096Y-108513571D01*
X103020858Y-108561190D01*
X102639905Y-108561190D01*
X104116096Y-108037381D02*
X103639905Y-108037381D01*
X103592286Y-108513571D01*
X103639905Y-108465952D01*
X103735143Y-108418333D01*
X103973239Y-108418333D01*
X104068477Y-108465952D01*
X104116096Y-108513571D01*
X104163715Y-108608810D01*
X104163715Y-108846905D01*
X104116096Y-108942143D01*
X104068477Y-108989762D01*
X103973239Y-109037381D01*
X103735143Y-109037381D01*
X103639905Y-108989762D01*
X103592286Y-108942143D01*
X85844143Y-158312381D02*
X85510809Y-157836190D01*
X85272714Y-158312381D02*
X85272714Y-157312381D01*
X85653667Y-157312381D01*
X85748905Y-157360000D01*
X85796524Y-157407619D01*
X85844143Y-157502857D01*
X85844143Y-157645714D01*
X85796524Y-157740952D01*
X85748905Y-157788571D01*
X85653667Y-157836190D01*
X85272714Y-157836190D01*
X86796524Y-158312381D02*
X86225095Y-158312381D01*
X86510809Y-158312381D02*
X86510809Y-157312381D01*
X86415571Y-157455238D01*
X86320333Y-157550476D01*
X86225095Y-157598095D01*
X87177476Y-157407619D02*
X87225095Y-157360000D01*
X87320333Y-157312381D01*
X87558429Y-157312381D01*
X87653667Y-157360000D01*
X87701286Y-157407619D01*
X87748905Y-157502857D01*
X87748905Y-157598095D01*
X87701286Y-157740952D01*
X87129857Y-158312381D01*
X87748905Y-158312381D01*
X94404381Y-119681523D02*
X95118667Y-119681523D01*
X95261524Y-119729143D01*
X95356762Y-119824381D01*
X95404381Y-119967238D01*
X95404381Y-120062476D01*
X95404381Y-118681523D02*
X95404381Y-119252952D01*
X95404381Y-118967238D02*
X94404381Y-118967238D01*
X94547238Y-119062476D01*
X94642476Y-119157714D01*
X94690095Y-119252952D01*
X94499619Y-118300571D02*
X94452000Y-118252952D01*
X94404381Y-118157714D01*
X94404381Y-117919618D01*
X94452000Y-117824380D01*
X94499619Y-117776761D01*
X94594857Y-117729142D01*
X94690095Y-117729142D01*
X94832952Y-117776761D01*
X95404381Y-118348190D01*
X95404381Y-117729142D01*
X85137667Y-150201381D02*
X85137667Y-150915667D01*
X85090047Y-151058524D01*
X84994809Y-151153762D01*
X84851952Y-151201381D01*
X84756714Y-151201381D01*
X85518619Y-150201381D02*
X86137667Y-150201381D01*
X85804333Y-150582333D01*
X85947191Y-150582333D01*
X86042429Y-150629952D01*
X86090048Y-150677571D01*
X86137667Y-150772810D01*
X86137667Y-151010905D01*
X86090048Y-151106143D01*
X86042429Y-151153762D01*
X85947191Y-151201381D01*
X85661476Y-151201381D01*
X85566238Y-151153762D01*
X85518619Y-151106143D01*
X151050667Y-154983381D02*
X151050667Y-155697667D01*
X151003047Y-155840524D01*
X150907809Y-155935762D01*
X150764952Y-155983381D01*
X150669714Y-155983381D01*
X151669714Y-155411952D02*
X151574476Y-155364333D01*
X151526857Y-155316714D01*
X151479238Y-155221476D01*
X151479238Y-155173857D01*
X151526857Y-155078619D01*
X151574476Y-155031000D01*
X151669714Y-154983381D01*
X151860191Y-154983381D01*
X151955429Y-155031000D01*
X152003048Y-155078619D01*
X152050667Y-155173857D01*
X152050667Y-155221476D01*
X152003048Y-155316714D01*
X151955429Y-155364333D01*
X151860191Y-155411952D01*
X151669714Y-155411952D01*
X151574476Y-155459571D01*
X151526857Y-155507190D01*
X151479238Y-155602429D01*
X151479238Y-155792905D01*
X151526857Y-155888143D01*
X151574476Y-155935762D01*
X151669714Y-155983381D01*
X151860191Y-155983381D01*
X151955429Y-155935762D01*
X152003048Y-155888143D01*
X152050667Y-155792905D01*
X152050667Y-155602429D01*
X152003048Y-155507190D01*
X151955429Y-155459571D01*
X151860191Y-155411952D01*
X98980667Y-52621381D02*
X98980667Y-53335667D01*
X98933047Y-53478524D01*
X98837809Y-53573762D01*
X98694952Y-53621381D01*
X98599714Y-53621381D01*
X99504476Y-53621381D02*
X99694952Y-53621381D01*
X99790191Y-53573762D01*
X99837810Y-53526143D01*
X99933048Y-53383286D01*
X99980667Y-53192810D01*
X99980667Y-52811857D01*
X99933048Y-52716619D01*
X99885429Y-52669000D01*
X99790191Y-52621381D01*
X99599714Y-52621381D01*
X99504476Y-52669000D01*
X99456857Y-52716619D01*
X99409238Y-52811857D01*
X99409238Y-53049952D01*
X99456857Y-53145190D01*
X99504476Y-53192810D01*
X99599714Y-53240429D01*
X99790191Y-53240429D01*
X99885429Y-53192810D01*
X99933048Y-53145190D01*
X99980667Y-53049952D01*
X85705667Y-131770381D02*
X85705667Y-132484667D01*
X85658047Y-132627524D01*
X85562809Y-132722762D01*
X85419952Y-132770381D01*
X85324714Y-132770381D01*
X86134238Y-131865619D02*
X86181857Y-131818000D01*
X86277095Y-131770381D01*
X86515191Y-131770381D01*
X86610429Y-131818000D01*
X86658048Y-131865619D01*
X86705667Y-131960857D01*
X86705667Y-132056095D01*
X86658048Y-132198952D01*
X86086619Y-132770381D01*
X86705667Y-132770381D01*
X85229477Y-147518381D02*
X85229477Y-148232667D01*
X85181857Y-148375524D01*
X85086619Y-148470762D01*
X84943762Y-148518381D01*
X84848524Y-148518381D01*
X86229477Y-148518381D02*
X85658048Y-148518381D01*
X85943762Y-148518381D02*
X85943762Y-147518381D01*
X85848524Y-147661238D01*
X85753286Y-147756476D01*
X85658048Y-147804095D01*
X87134239Y-147518381D02*
X86658048Y-147518381D01*
X86610429Y-147994571D01*
X86658048Y-147946952D01*
X86753286Y-147899333D01*
X86991382Y-147899333D01*
X87086620Y-147946952D01*
X87134239Y-147994571D01*
X87181858Y-148089810D01*
X87181858Y-148327905D01*
X87134239Y-148423143D01*
X87086620Y-148470762D01*
X86991382Y-148518381D01*
X86753286Y-148518381D01*
X86658048Y-148470762D01*
X86610429Y-148423143D01*
X101509381Y-147065905D02*
X102318905Y-147065905D01*
X102414143Y-147018286D01*
X102461762Y-146970667D01*
X102509381Y-146875429D01*
X102509381Y-146684952D01*
X102461762Y-146589714D01*
X102414143Y-146542095D01*
X102318905Y-146494476D01*
X101509381Y-146494476D01*
X101842714Y-145589714D02*
X102509381Y-145589714D01*
X101461762Y-145827810D02*
X102176048Y-146065905D01*
X102176048Y-145446857D01*
X165020667Y-156424381D02*
X165020667Y-157138667D01*
X164973047Y-157281524D01*
X164877809Y-157376762D01*
X164734952Y-157424381D01*
X164639714Y-157424381D01*
X166020667Y-157424381D02*
X165449238Y-157424381D01*
X165734952Y-157424381D02*
X165734952Y-156424381D01*
X165639714Y-156567238D01*
X165544476Y-156662476D01*
X165449238Y-156710095D01*
X157908667Y-156424381D02*
X157908667Y-157138667D01*
X157861047Y-157281524D01*
X157765809Y-157376762D01*
X157622952Y-157424381D01*
X157527714Y-157424381D01*
X158861048Y-156424381D02*
X158384857Y-156424381D01*
X158337238Y-156900571D01*
X158384857Y-156852952D01*
X158480095Y-156805333D01*
X158718191Y-156805333D01*
X158813429Y-156852952D01*
X158861048Y-156900571D01*
X158908667Y-156995810D01*
X158908667Y-157233905D01*
X158861048Y-157329143D01*
X158813429Y-157376762D01*
X158718191Y-157424381D01*
X158480095Y-157424381D01*
X158384857Y-157376762D01*
X158337238Y-157329143D01*
X102441477Y-61809381D02*
X102441477Y-62523667D01*
X102393857Y-62666524D01*
X102298619Y-62761762D01*
X102155762Y-62809381D01*
X102060524Y-62809381D01*
X103441477Y-62809381D02*
X102870048Y-62809381D01*
X103155762Y-62809381D02*
X103155762Y-61809381D01*
X103060524Y-61952238D01*
X102965286Y-62047476D01*
X102870048Y-62095095D01*
X104298620Y-61809381D02*
X104108143Y-61809381D01*
X104012905Y-61857000D01*
X103965286Y-61904619D01*
X103870048Y-62047476D01*
X103822429Y-62237952D01*
X103822429Y-62618905D01*
X103870048Y-62714143D01*
X103917667Y-62761762D01*
X104012905Y-62809381D01*
X104203382Y-62809381D01*
X104298620Y-62761762D01*
X104346239Y-62714143D01*
X104393858Y-62618905D01*
X104393858Y-62380810D01*
X104346239Y-62285571D01*
X104298620Y-62237952D01*
X104203382Y-62190333D01*
X104012905Y-62190333D01*
X103917667Y-62237952D01*
X103870048Y-62285571D01*
X103822429Y-62380810D01*
X102568477Y-50335381D02*
X102568477Y-51049667D01*
X102520857Y-51192524D01*
X102425619Y-51287762D01*
X102282762Y-51335381D01*
X102187524Y-51335381D01*
X103568477Y-51335381D02*
X102997048Y-51335381D01*
X103282762Y-51335381D02*
X103282762Y-50335381D01*
X103187524Y-50478238D01*
X103092286Y-50573476D01*
X102997048Y-50621095D01*
X103901810Y-50335381D02*
X104568477Y-50335381D01*
X104139905Y-51335381D01*
X116413809Y-151135190D02*
X116413809Y-151611381D01*
X116080476Y-150611381D02*
X116413809Y-151135190D01*
X116747143Y-150611381D01*
X117032857Y-150706619D02*
X117080476Y-150659000D01*
X117175714Y-150611381D01*
X117413810Y-150611381D01*
X117509048Y-150659000D01*
X117556667Y-150706619D01*
X117604286Y-150801857D01*
X117604286Y-150897095D01*
X117556667Y-151039952D01*
X116985238Y-151611381D01*
X117604286Y-151611381D01*
X110990095Y-114568381D02*
X110990095Y-115377905D01*
X111037714Y-115473143D01*
X111085333Y-115520762D01*
X111180571Y-115568381D01*
X111371048Y-115568381D01*
X111466286Y-115520762D01*
X111513905Y-115473143D01*
X111561524Y-115377905D01*
X111561524Y-114568381D01*
X112561524Y-115568381D02*
X111990095Y-115568381D01*
X112275809Y-115568381D02*
X112275809Y-114568381D01*
X112180571Y-114711238D01*
X112085333Y-114806476D01*
X111990095Y-114854095D01*
X234656395Y-122736081D02*
X234656395Y-123545605D01*
X234704014Y-123640843D01*
X234751633Y-123688462D01*
X234846871Y-123736081D01*
X235037348Y-123736081D01*
X235132586Y-123688462D01*
X235180205Y-123640843D01*
X235227824Y-123545605D01*
X235227824Y-122736081D01*
X235608776Y-122736081D02*
X236227824Y-122736081D01*
X235894490Y-123117033D01*
X236037348Y-123117033D01*
X236132586Y-123164652D01*
X236180205Y-123212271D01*
X236227824Y-123307510D01*
X236227824Y-123545605D01*
X236180205Y-123640843D01*
X236132586Y-123688462D01*
X236037348Y-123736081D01*
X235751633Y-123736081D01*
X235656395Y-123688462D01*
X235608776Y-123640843D01*
X100647667Y-49862762D02*
X100790524Y-49910381D01*
X101028620Y-49910381D01*
X101123858Y-49862762D01*
X101171477Y-49815143D01*
X101219096Y-49719905D01*
X101219096Y-49624667D01*
X101171477Y-49529429D01*
X101123858Y-49481810D01*
X101028620Y-49434190D01*
X100838143Y-49386571D01*
X100742905Y-49338952D01*
X100695286Y-49291333D01*
X100647667Y-49196095D01*
X100647667Y-49100857D01*
X100695286Y-49005619D01*
X100742905Y-48958000D01*
X100838143Y-48910381D01*
X101076239Y-48910381D01*
X101219096Y-48958000D01*
X101552429Y-48910381D02*
X101790524Y-49910381D01*
X101981001Y-49196095D01*
X102171477Y-49910381D01*
X102409572Y-48910381D01*
X103314334Y-49910381D02*
X102742905Y-49910381D01*
X103028619Y-49910381D02*
X103028619Y-48910381D01*
X102933381Y-49053238D01*
X102838143Y-49148476D01*
X102742905Y-49196095D01*
X89471667Y-49862762D02*
X89614524Y-49910381D01*
X89852620Y-49910381D01*
X89947858Y-49862762D01*
X89995477Y-49815143D01*
X90043096Y-49719905D01*
X90043096Y-49624667D01*
X89995477Y-49529429D01*
X89947858Y-49481810D01*
X89852620Y-49434190D01*
X89662143Y-49386571D01*
X89566905Y-49338952D01*
X89519286Y-49291333D01*
X89471667Y-49196095D01*
X89471667Y-49100857D01*
X89519286Y-49005619D01*
X89566905Y-48958000D01*
X89662143Y-48910381D01*
X89900239Y-48910381D01*
X90043096Y-48958000D01*
X90376429Y-48910381D02*
X90614524Y-49910381D01*
X90805001Y-49196095D01*
X90995477Y-49910381D01*
X91233572Y-48910381D01*
X91566905Y-49005619D02*
X91614524Y-48958000D01*
X91709762Y-48910381D01*
X91947858Y-48910381D01*
X92043096Y-48958000D01*
X92090715Y-49005619D01*
X92138334Y-49100857D01*
X92138334Y-49196095D01*
X92090715Y-49338952D01*
X91519286Y-49910381D01*
X92138334Y-49910381D01*
X92026762Y-63817333D02*
X92074381Y-63674476D01*
X92074381Y-63436380D01*
X92026762Y-63341142D01*
X91979143Y-63293523D01*
X91883905Y-63245904D01*
X91788667Y-63245904D01*
X91693429Y-63293523D01*
X91645810Y-63341142D01*
X91598190Y-63436380D01*
X91550571Y-63626857D01*
X91502952Y-63722095D01*
X91455333Y-63769714D01*
X91360095Y-63817333D01*
X91264857Y-63817333D01*
X91169619Y-63769714D01*
X91122000Y-63722095D01*
X91074381Y-63626857D01*
X91074381Y-63388761D01*
X91122000Y-63245904D01*
X91074381Y-62912571D02*
X92074381Y-62674476D01*
X91360095Y-62483999D01*
X92074381Y-62293523D01*
X91074381Y-62055428D01*
X91407714Y-61245904D02*
X92074381Y-61245904D01*
X91026762Y-61484000D02*
X91741048Y-61722095D01*
X91741048Y-61103047D01*
X83789781Y-156273333D02*
X83313590Y-156606667D01*
X83789781Y-156844762D02*
X82789781Y-156844762D01*
X82789781Y-156463809D01*
X82837400Y-156368571D01*
X82885019Y-156320952D01*
X82980257Y-156273333D01*
X83123114Y-156273333D01*
X83218352Y-156320952D01*
X83265971Y-156368571D01*
X83313590Y-156463809D01*
X83313590Y-156844762D01*
X83265971Y-155844762D02*
X83265971Y-155511428D01*
X83789781Y-155368571D02*
X83789781Y-155844762D01*
X82789781Y-155844762D01*
X82789781Y-155368571D01*
X83265971Y-154606666D02*
X83265971Y-154940000D01*
X83789781Y-154940000D02*
X82789781Y-154940000D01*
X82789781Y-154463809D01*
X82789781Y-153940000D02*
X83027876Y-153940000D01*
X82932638Y-154178095D02*
X83027876Y-153940000D01*
X82932638Y-153701904D01*
X83218352Y-154082857D02*
X83027876Y-153940000D01*
X83218352Y-153797142D01*
X82789781Y-153178095D02*
X83027876Y-153178095D01*
X82932638Y-153416190D02*
X83027876Y-153178095D01*
X82932638Y-152939999D01*
X83218352Y-153320952D02*
X83027876Y-153178095D01*
X83218352Y-153035237D01*
X114541467Y-43073581D02*
X114208133Y-42597390D01*
X113970038Y-43073581D02*
X113970038Y-42073581D01*
X114350991Y-42073581D01*
X114446229Y-42121200D01*
X114493848Y-42168819D01*
X114541467Y-42264057D01*
X114541467Y-42406914D01*
X114493848Y-42502152D01*
X114446229Y-42549771D01*
X114350991Y-42597390D01*
X113970038Y-42597390D01*
X114970038Y-42549771D02*
X115303372Y-42549771D01*
X115446229Y-43073581D02*
X114970038Y-43073581D01*
X114970038Y-42073581D01*
X115446229Y-42073581D01*
X116208134Y-42549771D02*
X115874800Y-42549771D01*
X115874800Y-43073581D02*
X115874800Y-42073581D01*
X116350991Y-42073581D01*
X116874800Y-42073581D02*
X116874800Y-42311676D01*
X116636705Y-42216438D02*
X116874800Y-42311676D01*
X117112896Y-42216438D01*
X116731943Y-42502152D02*
X116874800Y-42311676D01*
X117017658Y-42502152D01*
X117636705Y-42073581D02*
X117636705Y-42311676D01*
X117398610Y-42216438D02*
X117636705Y-42311676D01*
X117874801Y-42216438D01*
X117493848Y-42502152D02*
X117636705Y-42311676D01*
X117779563Y-42502152D01*
X191757467Y-81960981D02*
X191424133Y-81484790D01*
X191186038Y-81960981D02*
X191186038Y-80960981D01*
X191566991Y-80960981D01*
X191662229Y-81008600D01*
X191709848Y-81056219D01*
X191757467Y-81151457D01*
X191757467Y-81294314D01*
X191709848Y-81389552D01*
X191662229Y-81437171D01*
X191566991Y-81484790D01*
X191186038Y-81484790D01*
X192186038Y-81437171D02*
X192519372Y-81437171D01*
X192662229Y-81960981D02*
X192186038Y-81960981D01*
X192186038Y-80960981D01*
X192662229Y-80960981D01*
X193424134Y-81437171D02*
X193090800Y-81437171D01*
X193090800Y-81960981D02*
X193090800Y-80960981D01*
X193566991Y-80960981D01*
X194090800Y-80960981D02*
X194090800Y-81199076D01*
X193852705Y-81103838D02*
X194090800Y-81199076D01*
X194328896Y-81103838D01*
X193947943Y-81389552D02*
X194090800Y-81199076D01*
X194233658Y-81389552D01*
X194852705Y-80960981D02*
X194852705Y-81199076D01*
X194614610Y-81103838D02*
X194852705Y-81199076D01*
X195090801Y-81103838D01*
X194709848Y-81389552D02*
X194852705Y-81199076D01*
X194995563Y-81389552D01*
M02*
