G04 #@! TF.FileFunction,Profile,NP*
%FSLAX46Y46*%
G04 Gerber Fmt 4.6, Leading zero omitted, Abs format (unit mm)*
G04 Created by KiCad (PCBNEW 4.0.7) date 05/01/18 21:21:02*
%MOMM*%
%LPD*%
G01*
G04 APERTURE LIST*
%ADD10C,0.020000*%
%ADD11C,0.150000*%
%ADD12C,0.100000*%
G04 APERTURE END LIST*
D10*
D11*
X226260000Y-114041000D02*
X226260000Y-119341000D01*
X226263200Y-125044200D02*
X226263200Y-124968000D01*
X237667800Y-125044200D02*
X226263200Y-125044200D01*
X237667800Y-114046000D02*
X237667800Y-114071400D01*
X236855000Y-114046000D02*
X237667800Y-114046000D01*
X227076000Y-114046000D02*
X226314000Y-114046000D01*
X228346000Y-114046000D02*
X235585000Y-114046000D01*
X228346000Y-112395000D02*
X235585000Y-112395000D01*
X228346000Y-114046000D02*
X228346000Y-112395000D01*
X235585000Y-112395000D02*
X235585000Y-114046000D01*
X236855000Y-112395000D02*
X236855000Y-114046000D01*
X237617000Y-112395000D02*
X236855000Y-112395000D01*
X226187000Y-112395000D02*
X217170000Y-112395000D01*
X227076000Y-112395000D02*
X227076000Y-114046000D01*
X226187000Y-112395000D02*
X227076000Y-112395000D01*
X237660000Y-125041000D02*
X237660000Y-114041000D01*
X226260000Y-119541000D02*
X226260000Y-125041000D01*
D12*
X237615679Y-79191100D02*
X237615679Y-112391100D01*
D11*
X226260000Y-119341000D02*
X226260000Y-119541000D01*
D12*
X85790203Y-161890900D02*
G75*
G03X85790203Y-161890900I-1300000J0D01*
G01*
X156963299Y-71591100D02*
X148622048Y-71591100D01*
X204222613Y-79190900D02*
X237612939Y-79190900D01*
X184091818Y-79190900D02*
X174091176Y-79190900D01*
X164560559Y-79190900D02*
X164560559Y-82390900D01*
X164560559Y-82390900D02*
X174091176Y-82390900D01*
X174091176Y-79190900D02*
X174091176Y-82390900D01*
X204222613Y-79190900D02*
X184091818Y-79190900D01*
X160260559Y-74090900D02*
G75*
G03X160260559Y-74090900I-1100000J0D01*
G01*
X112920706Y-67648727D02*
X112920706Y-68648727D01*
X204415679Y-79191100D02*
X237615679Y-79191100D01*
X115420706Y-67648727D02*
G75*
G03X112920706Y-67648727I-1250000J0D01*
G01*
X115420706Y-68648727D02*
X115420706Y-67648727D01*
X235980938Y-96995147D02*
G75*
G03X235980938Y-96995147I-1250000J0D01*
G01*
X112920706Y-45648727D02*
X112920706Y-46648727D01*
X184535681Y-104691100D02*
G75*
G03X189795681Y-104691100I2630000J0D01*
G01*
X115420706Y-45648727D02*
G75*
G03X112920706Y-45648727I-1250000J0D01*
G01*
X204535681Y-104691100D02*
G75*
G03X209795681Y-104691100I2630000J0D01*
G01*
X189795681Y-100991100D02*
X204535681Y-100991100D01*
X122925841Y-46648727D02*
G75*
G03X125425841Y-46648727I1250000J0D01*
G01*
X184535681Y-101491100D02*
X184535681Y-100991100D01*
X122925841Y-45648727D02*
X122925841Y-46648727D01*
X140176400Y-65241100D02*
G75*
G03X140176400Y-65241100I-1500000J0D01*
G01*
X177165681Y-165391100D02*
X80990403Y-165391100D01*
X125425841Y-45648727D02*
G75*
G03X122925841Y-45648727I-1250000J0D01*
G01*
X217165681Y-108118480D02*
X217165681Y-101491100D01*
X217165681Y-112391100D02*
X217165681Y-100991100D01*
X125425841Y-46648727D02*
X125425841Y-45648727D01*
X204535681Y-101491100D02*
X204535681Y-100991100D01*
X177165681Y-100991100D02*
X177165681Y-165391100D01*
X221915679Y-112391100D02*
X217165681Y-112391100D01*
X152212421Y-148608907D02*
X151212421Y-148608907D01*
X184035681Y-100991100D02*
X177115681Y-100991100D01*
X152212421Y-151108907D02*
X151212421Y-151108907D01*
X80990403Y-40191100D02*
X80990403Y-165391100D01*
X177615681Y-100991100D02*
X184535681Y-100991100D01*
X151212421Y-148608907D02*
G75*
G03X151212421Y-151108907I0J-1250000D01*
G01*
X189795681Y-101491100D02*
X189795681Y-100991100D01*
X173212421Y-138603771D02*
X174212421Y-138603771D01*
X115420706Y-46648727D02*
X115420706Y-45648727D01*
X204535681Y-101491100D02*
X204535681Y-104691100D01*
X173212421Y-141103771D02*
X174212421Y-141103771D01*
X122925841Y-67648727D02*
X122925841Y-68648727D01*
X173212421Y-148608907D02*
X174212421Y-148608907D01*
X122925841Y-68648727D02*
G75*
G03X125425841Y-68648727I1250000J0D01*
G01*
X173212421Y-151108907D02*
X174212421Y-151108907D01*
X143643312Y-67051739D02*
G75*
G03X148622048Y-71591100I4978736J460639D01*
G01*
X158963299Y-71858979D02*
G75*
G03X156963299Y-71591100I-2000000J-7332121D01*
G01*
X204415679Y-79191100D02*
X184284885Y-79191100D01*
X152212421Y-151108907D02*
G75*
G03X152212421Y-148608907I0J1250000D01*
G01*
X209795681Y-100991100D02*
X209795681Y-104691100D01*
X105840403Y-78391100D02*
G75*
G03X105840403Y-78391100I-1250000J0D01*
G01*
X173212421Y-138603771D02*
G75*
G03X173212421Y-141103771I0J-1250000D01*
G01*
X140176400Y-73941100D02*
G75*
G03X140176400Y-73941100I-1500000J0D01*
G01*
X217165681Y-100991100D02*
X209795681Y-100991100D01*
X164563299Y-79191100D02*
G75*
G03X156963299Y-71591100I-7600000J0D01*
G01*
X204035681Y-100991100D02*
X197665681Y-100991100D01*
X141368126Y-42460781D02*
G75*
G03X138878758Y-40191100I-2489368J-230319D01*
G01*
X164563299Y-79191100D02*
G75*
G03X163616313Y-75517218I-7600000J0D01*
G01*
X198415681Y-97941100D02*
G75*
G03X198415681Y-97941100I-1250000J0D01*
G01*
X143643312Y-67051739D02*
X141368126Y-42460781D01*
X138878758Y-40191100D02*
X80990403Y-40191100D01*
X184535681Y-101491100D02*
X184535681Y-104691100D01*
X174212421Y-141103771D02*
G75*
G03X174212421Y-138603771I0J1250000D01*
G01*
X189795681Y-101491100D02*
X189795681Y-104691100D01*
X145176400Y-111191100D02*
G75*
G03X145176400Y-111191100I-1500000J0D01*
G01*
X173212421Y-148608907D02*
G75*
G03X173212421Y-151108907I0J-1250000D01*
G01*
X174212421Y-151108907D02*
G75*
G03X174212421Y-148608907I0J1250000D01*
G01*
X112920706Y-46648727D02*
G75*
G03X115420706Y-46648727I1250000J0D01*
G01*
X112920706Y-68648727D02*
G75*
G03X115420706Y-68648727I1250000J0D01*
G01*
X125425841Y-67648727D02*
G75*
G03X122925841Y-67648727I-1250000J0D01*
G01*
X125425841Y-68648727D02*
X125425841Y-67648727D01*
M02*
