G04 #@! TF.FileFunction,Copper,L2,Bot,Signal*
%FSLAX46Y46*%
G04 Gerber Fmt 4.6, Leading zero omitted, Abs format (unit mm)*
G04 Created by KiCad (PCBNEW 4.0.7) date 05/01/18 21:21:02*
%MOMM*%
%LPD*%
G01*
G04 APERTURE LIST*
%ADD10C,0.020000*%
%ADD11R,1.700000X1.700000*%
%ADD12O,1.700000X1.700000*%
%ADD13C,0.600000*%
%ADD14C,0.700000*%
%ADD15C,1.016000*%
%ADD16C,0.508000*%
%ADD17C,0.635000*%
%ADD18C,0.254000*%
%ADD19C,0.381000*%
G04 APERTURE END LIST*
D10*
D11*
X103759000Y-137668000D03*
D12*
X106299000Y-137668000D03*
X108839000Y-137668000D03*
X111379000Y-137668000D03*
X113919000Y-137668000D03*
D11*
X149479000Y-77343000D03*
D12*
X152019000Y-77343000D03*
D11*
X97282000Y-118872000D03*
D12*
X99822000Y-118872000D03*
X102362000Y-118872000D03*
X104902000Y-118872000D03*
X107442000Y-118872000D03*
X109982000Y-118872000D03*
D11*
X85598000Y-153162000D03*
D12*
X88138000Y-153162000D03*
D11*
X151384000Y-157861000D03*
D12*
X151384000Y-160401000D03*
D11*
X99314000Y-55499000D03*
D12*
X99314000Y-58039000D03*
D11*
X91694000Y-130048000D03*
D12*
X89154000Y-130048000D03*
X91694000Y-127508000D03*
X89154000Y-127508000D03*
X91694000Y-124968000D03*
X89154000Y-124968000D03*
D11*
X91694000Y-145796000D03*
D12*
X89154000Y-145796000D03*
X91694000Y-143256000D03*
X89154000Y-143256000D03*
X91694000Y-140716000D03*
X89154000Y-140716000D03*
D11*
X166370000Y-159385000D03*
X159258000Y-159385000D03*
X103378000Y-59944000D03*
X103378000Y-53213000D03*
D13*
X128651000Y-155194000D03*
D14*
X94742000Y-147447000D03*
D13*
X94488000Y-143637000D03*
X112990000Y-144609000D03*
X120650000Y-139954000D03*
X96012000Y-154432000D03*
X107569000Y-111506000D03*
X100330000Y-106807000D03*
X93218000Y-106807000D03*
X107188000Y-151384000D03*
X100965000Y-157734000D03*
X87630000Y-114300000D03*
X110744000Y-141732000D03*
X97536000Y-125730000D03*
X111494000Y-145554000D03*
X96774000Y-124841000D03*
X111506000Y-146812000D03*
X88392000Y-112268000D03*
X86868000Y-102108000D03*
X96990000Y-104209000D03*
X111379000Y-143256000D03*
X120650000Y-145542000D03*
D15*
X228573700Y-115543700D02*
X226238700Y-115543700D01*
X226238700Y-115543700D02*
X228573700Y-115543700D01*
X228576700Y-116943700D02*
X226235700Y-116943700D01*
X226235700Y-116943700D02*
X228576700Y-116943700D01*
X228579700Y-118343700D02*
X226232700Y-118343700D01*
X226232700Y-118343700D02*
X228579700Y-118343700D01*
X228582700Y-119743700D02*
X226229700Y-119743700D01*
X226229700Y-119743700D02*
X228582700Y-119743700D01*
X228585700Y-121143700D02*
X226226700Y-121143700D01*
X226226700Y-121143700D02*
X228585700Y-121143700D01*
X228588700Y-122543700D02*
X226223700Y-122543700D01*
X226223700Y-122543700D02*
X228588700Y-122543700D01*
X228591700Y-123943700D02*
X226220700Y-123943700D01*
X226220700Y-123943700D02*
X228591700Y-123943700D01*
D16*
X86868000Y-141478000D02*
X86868000Y-125730000D01*
X87630000Y-124968000D02*
X89154000Y-124968000D01*
X86868000Y-125730000D02*
X87630000Y-124968000D01*
X88138000Y-153162000D02*
X88138000Y-151892000D01*
X87630000Y-140716000D02*
X89154000Y-140716000D01*
X86868000Y-141478000D02*
X87630000Y-140716000D01*
X86868000Y-150622000D02*
X86868000Y-141478000D01*
X88138000Y-151892000D02*
X86868000Y-150622000D01*
D17*
X88138000Y-153162000D02*
X88138000Y-152146000D01*
X90678000Y-161290000D02*
X88138000Y-158750000D01*
X88138000Y-158750000D02*
X88138000Y-153162000D01*
D16*
X88138000Y-153162000D02*
X88138000Y-158750000D01*
D17*
X90678000Y-161290000D02*
X122555000Y-161290000D01*
X122555000Y-161290000D02*
X128651000Y-155194000D01*
D18*
X94996000Y-144145000D02*
X94488000Y-143637000D01*
X94996000Y-147193000D02*
X94996000Y-144145000D01*
X94742000Y-147447000D02*
X94996000Y-147193000D01*
D16*
X100330000Y-106807000D02*
X102870000Y-106807000D01*
X102870000Y-106807000D02*
X107569000Y-111506000D01*
X100838000Y-148336000D02*
X103124000Y-148336000D01*
X119634000Y-148336000D02*
X120396000Y-147574000D01*
X120396000Y-147574000D02*
X121920000Y-146050000D01*
X96012000Y-153162000D02*
X96012000Y-154432000D01*
X96012000Y-153162000D02*
X97028000Y-152146000D01*
X121920000Y-146050000D02*
X121920000Y-143764000D01*
X120650000Y-142494000D02*
X121920000Y-143764000D01*
X97028000Y-152146000D02*
X100838000Y-148336000D01*
X103124000Y-148336000D02*
X119634000Y-148336000D01*
X107569000Y-111506000D02*
X112395000Y-111506000D01*
X120650000Y-119761000D02*
X112522000Y-111633000D01*
X120650000Y-139954000D02*
X120650000Y-119761000D01*
X112395000Y-111506000D02*
X112522000Y-111633000D01*
X120650000Y-142494000D02*
X120650000Y-139954000D01*
X100330000Y-106807000D02*
X93218000Y-106807000D01*
X107188000Y-151511000D02*
X100965000Y-157734000D01*
X107188000Y-151384000D02*
X107188000Y-151511000D01*
X91694000Y-118364000D02*
X98425000Y-125095000D01*
X87630000Y-114300000D02*
X91694000Y-118364000D01*
X99568000Y-141732000D02*
X98552000Y-140716000D01*
X98552000Y-140716000D02*
X98552000Y-131318000D01*
X102362000Y-141732000D02*
X110744000Y-141732000D01*
X102362000Y-141732000D02*
X99568000Y-141732000D01*
X98552000Y-125222000D02*
X98552000Y-131318000D01*
X98425000Y-125095000D02*
X98552000Y-125222000D01*
X111494000Y-145554000D02*
X101739000Y-145554000D01*
X97536000Y-141351000D02*
X97536000Y-125730000D01*
X101739000Y-145554000D02*
X97536000Y-141351000D01*
X111506000Y-146812000D02*
X101600000Y-146812000D01*
X96520000Y-125095000D02*
X96774000Y-124841000D01*
X96520000Y-141732000D02*
X96520000Y-125095000D01*
X101600000Y-146812000D02*
X96520000Y-141732000D01*
X88138000Y-112014000D02*
X88392000Y-112268000D01*
X88138000Y-103378000D02*
X86868000Y-102108000D01*
X88138000Y-111760000D02*
X88138000Y-103378000D01*
X88138000Y-111760000D02*
X88138000Y-112014000D01*
X149479000Y-77343000D02*
X123856000Y-77343000D01*
X123856000Y-77343000D02*
X96990000Y-104209000D01*
D19*
X111379000Y-143256000D02*
X118364000Y-143256000D01*
X118364000Y-143256000D02*
X120650000Y-145542000D01*
X118745000Y-143637000D02*
X120650000Y-145542000D01*
D18*
G36*
X139590823Y-40972021D02*
X140194483Y-41375375D01*
X140606151Y-41991479D01*
X140748140Y-42565532D01*
X143018978Y-67109503D01*
X143032469Y-67154941D01*
X143034654Y-67202288D01*
X143393992Y-68655066D01*
X143439941Y-68752965D01*
X143481319Y-68852860D01*
X144565181Y-70474975D01*
X144738171Y-70647965D01*
X146360289Y-71731830D01*
X146492689Y-71786671D01*
X146586309Y-71825450D01*
X148499726Y-72206052D01*
X148561479Y-72206052D01*
X148622048Y-72218100D01*
X156901546Y-72218100D01*
X158452812Y-72526666D01*
X157939386Y-72869727D01*
X157565019Y-73430006D01*
X157433559Y-74090900D01*
X157565019Y-74751794D01*
X157939386Y-75312073D01*
X158499665Y-75686440D01*
X159160559Y-75817900D01*
X159821453Y-75686440D01*
X160381732Y-75312073D01*
X160756099Y-74751794D01*
X160887559Y-74090900D01*
X160775515Y-73527617D01*
X161885269Y-74269130D01*
X163175872Y-76200653D01*
X163584531Y-77484396D01*
X163933559Y-79239078D01*
X163933559Y-82390900D01*
X163981287Y-82630843D01*
X164117203Y-82834256D01*
X164320616Y-82970172D01*
X164560559Y-83017900D01*
X174091176Y-83017900D01*
X174331119Y-82970172D01*
X174534532Y-82834256D01*
X174670448Y-82630843D01*
X174718176Y-82390900D01*
X174718176Y-79817900D01*
X184283880Y-79817900D01*
X184284885Y-79818100D01*
X236988679Y-79818100D01*
X236988679Y-111743000D01*
X236855000Y-111743000D01*
X236605490Y-111792631D01*
X236393966Y-111933966D01*
X236252631Y-112145490D01*
X236220000Y-112309536D01*
X236187369Y-112145490D01*
X236046034Y-111933966D01*
X235834510Y-111792631D01*
X235585000Y-111743000D01*
X228346000Y-111743000D01*
X228096490Y-111792631D01*
X227884966Y-111933966D01*
X227743631Y-112145490D01*
X227711000Y-112309536D01*
X227678369Y-112145490D01*
X227537034Y-111933966D01*
X227325510Y-111792631D01*
X227076000Y-111743000D01*
X217792681Y-111743000D01*
X217792681Y-100991100D01*
X217744953Y-100751157D01*
X217609037Y-100547744D01*
X217405624Y-100411828D01*
X217165681Y-100364100D01*
X209795681Y-100364100D01*
X209555738Y-100411828D01*
X209352325Y-100547744D01*
X209216409Y-100751157D01*
X209168681Y-100991100D01*
X209168681Y-104629347D01*
X209004863Y-105452913D01*
X208573330Y-106098750D01*
X207927494Y-106530283D01*
X207165681Y-106681817D01*
X206403868Y-106530282D01*
X205758031Y-106098749D01*
X205326498Y-105452913D01*
X205162681Y-104629347D01*
X205162681Y-100991100D01*
X205114953Y-100751157D01*
X204979037Y-100547744D01*
X204775624Y-100411828D01*
X204535681Y-100364100D01*
X189795681Y-100364100D01*
X189555738Y-100411828D01*
X189352325Y-100547744D01*
X189216409Y-100751157D01*
X189168681Y-100991100D01*
X189168681Y-104629347D01*
X189004863Y-105452913D01*
X188573330Y-106098750D01*
X187927494Y-106530283D01*
X187165681Y-106681817D01*
X186403868Y-106530282D01*
X185758031Y-106098749D01*
X185326498Y-105452913D01*
X185162681Y-104629347D01*
X185162681Y-100991100D01*
X185114953Y-100751157D01*
X184979037Y-100547744D01*
X184775624Y-100411828D01*
X184535681Y-100364100D01*
X177115681Y-100364100D01*
X176875738Y-100411828D01*
X176672325Y-100547744D01*
X176536409Y-100751157D01*
X176488681Y-100991100D01*
X176536409Y-101231043D01*
X176538681Y-101234443D01*
X176538681Y-164764100D01*
X81617403Y-164764100D01*
X81617403Y-161890900D01*
X82563203Y-161890900D01*
X82709887Y-162628331D01*
X83127608Y-163253495D01*
X83752772Y-163671216D01*
X84490203Y-163817900D01*
X85227634Y-163671216D01*
X85852798Y-163253495D01*
X86270519Y-162628331D01*
X86417203Y-161890900D01*
X86270519Y-161153469D01*
X85852798Y-160528305D01*
X85227634Y-160110584D01*
X84490203Y-159963900D01*
X83752772Y-160110584D01*
X83127608Y-160528305D01*
X82709887Y-161153469D01*
X82563203Y-161890900D01*
X81617403Y-161890900D01*
X81617403Y-152312000D01*
X84159696Y-152312000D01*
X84159696Y-154012000D01*
X84199930Y-154225823D01*
X84326299Y-154422207D01*
X84519117Y-154553954D01*
X84748000Y-154600304D01*
X86448000Y-154600304D01*
X86661823Y-154560070D01*
X86858207Y-154433701D01*
X86989954Y-154240883D01*
X87028793Y-154049089D01*
X87128959Y-154198998D01*
X87243500Y-154275532D01*
X87243500Y-158750000D01*
X87311590Y-159092310D01*
X87505493Y-159382507D01*
X90045493Y-161922507D01*
X90335689Y-162116410D01*
X90678000Y-162184500D01*
X122555000Y-162184500D01*
X122897310Y-162116410D01*
X123187507Y-161922507D01*
X124709014Y-160401000D01*
X149929043Y-160401000D01*
X150037667Y-160947089D01*
X150347002Y-161410041D01*
X150809954Y-161719376D01*
X151356043Y-161828000D01*
X151411957Y-161828000D01*
X151958046Y-161719376D01*
X152420998Y-161410041D01*
X152730333Y-160947089D01*
X152838957Y-160401000D01*
X152730333Y-159854911D01*
X152420998Y-159391959D01*
X152271711Y-159292208D01*
X152447823Y-159259070D01*
X152644207Y-159132701D01*
X152775954Y-158939883D01*
X152822304Y-158711000D01*
X152822304Y-158535000D01*
X157819696Y-158535000D01*
X157819696Y-160235000D01*
X157859930Y-160448823D01*
X157986299Y-160645207D01*
X158179117Y-160776954D01*
X158408000Y-160823304D01*
X160108000Y-160823304D01*
X160321823Y-160783070D01*
X160518207Y-160656701D01*
X160649954Y-160463883D01*
X160696304Y-160235000D01*
X160696304Y-158535000D01*
X164931696Y-158535000D01*
X164931696Y-160235000D01*
X164971930Y-160448823D01*
X165098299Y-160645207D01*
X165291117Y-160776954D01*
X165520000Y-160823304D01*
X167220000Y-160823304D01*
X167433823Y-160783070D01*
X167630207Y-160656701D01*
X167761954Y-160463883D01*
X167808304Y-160235000D01*
X167808304Y-158535000D01*
X167768070Y-158321177D01*
X167641701Y-158124793D01*
X167448883Y-157993046D01*
X167220000Y-157946696D01*
X165520000Y-157946696D01*
X165306177Y-157986930D01*
X165109793Y-158113299D01*
X164978046Y-158306117D01*
X164931696Y-158535000D01*
X160696304Y-158535000D01*
X160656070Y-158321177D01*
X160529701Y-158124793D01*
X160336883Y-157993046D01*
X160108000Y-157946696D01*
X158408000Y-157946696D01*
X158194177Y-157986930D01*
X157997793Y-158113299D01*
X157866046Y-158306117D01*
X157819696Y-158535000D01*
X152822304Y-158535000D01*
X152822304Y-157011000D01*
X152782070Y-156797177D01*
X152655701Y-156600793D01*
X152462883Y-156469046D01*
X152234000Y-156422696D01*
X150534000Y-156422696D01*
X150320177Y-156462930D01*
X150123793Y-156589299D01*
X149992046Y-156782117D01*
X149945696Y-157011000D01*
X149945696Y-158711000D01*
X149985930Y-158924823D01*
X150112299Y-159121207D01*
X150305117Y-159252954D01*
X150496911Y-159291793D01*
X150347002Y-159391959D01*
X150037667Y-159854911D01*
X149929043Y-160401000D01*
X124709014Y-160401000D01*
X129283507Y-155826507D01*
X129333124Y-155752249D01*
X129394051Y-155691429D01*
X129427356Y-155611221D01*
X129477410Y-155536310D01*
X129494833Y-155448717D01*
X129527847Y-155369211D01*
X129527923Y-155282367D01*
X129545500Y-155194000D01*
X129528076Y-155106404D01*
X129528151Y-155020319D01*
X129494987Y-154940056D01*
X129477410Y-154851690D01*
X129427793Y-154777432D01*
X129394918Y-154697869D01*
X129333562Y-154636406D01*
X129283507Y-154561493D01*
X129209249Y-154511876D01*
X129148429Y-154450949D01*
X129068221Y-154417644D01*
X128993310Y-154367590D01*
X128905717Y-154350167D01*
X128826211Y-154317153D01*
X128739367Y-154317077D01*
X128651000Y-154299500D01*
X128563404Y-154316924D01*
X128477319Y-154316849D01*
X128397056Y-154350013D01*
X128308690Y-154367590D01*
X128234432Y-154417207D01*
X128154869Y-154450082D01*
X128093406Y-154511438D01*
X128018493Y-154561493D01*
X122184486Y-160395500D01*
X91048514Y-160395500D01*
X89032500Y-158379486D01*
X89032500Y-157907681D01*
X100087849Y-157907681D01*
X100221082Y-158230131D01*
X100467571Y-158477051D01*
X100789789Y-158610847D01*
X101138681Y-158611151D01*
X101461131Y-158477918D01*
X101708051Y-158231429D01*
X101754397Y-158119815D01*
X107775606Y-152098606D01*
X107900022Y-151912404D01*
X107931051Y-151881429D01*
X107948012Y-151840581D01*
X107955744Y-151829010D01*
X107958435Y-151815480D01*
X108064847Y-151559211D01*
X108065151Y-151210319D01*
X107931918Y-150887869D01*
X107685429Y-150640949D01*
X107363211Y-150507153D01*
X107014319Y-150506849D01*
X106691869Y-150640082D01*
X106444949Y-150886571D01*
X106311153Y-151208789D01*
X106311150Y-151212638D01*
X100579360Y-156944428D01*
X100468869Y-156990082D01*
X100221949Y-157236571D01*
X100088153Y-157558789D01*
X100087849Y-157907681D01*
X89032500Y-157907681D01*
X89032500Y-154275532D01*
X89147041Y-154198998D01*
X89456376Y-153736046D01*
X89565000Y-153189957D01*
X89565000Y-153134043D01*
X89456376Y-152587954D01*
X89147041Y-152125002D01*
X89010126Y-152033518D01*
X88964410Y-151803690D01*
X88945934Y-151776038D01*
X88905744Y-151573990D01*
X88725606Y-151304394D01*
X87699000Y-150277788D01*
X87699000Y-141822212D01*
X87974212Y-141547000D01*
X87998039Y-141547000D01*
X88117002Y-141725041D01*
X88507554Y-141986000D01*
X88117002Y-142246959D01*
X87807667Y-142709911D01*
X87699043Y-143256000D01*
X87807667Y-143802089D01*
X88117002Y-144265041D01*
X88507554Y-144526000D01*
X88117002Y-144786959D01*
X87807667Y-145249911D01*
X87699043Y-145796000D01*
X87807667Y-146342089D01*
X88117002Y-146805041D01*
X88579954Y-147114376D01*
X89126043Y-147223000D01*
X89181957Y-147223000D01*
X89728046Y-147114376D01*
X90190998Y-146805041D01*
X90264830Y-146694543D01*
X90295930Y-146859823D01*
X90422299Y-147056207D01*
X90615117Y-147187954D01*
X90844000Y-147234304D01*
X92544000Y-147234304D01*
X92757823Y-147194070D01*
X92954207Y-147067701D01*
X93085954Y-146874883D01*
X93132304Y-146646000D01*
X93132304Y-144946000D01*
X93092070Y-144732177D01*
X92965701Y-144535793D01*
X92772883Y-144404046D01*
X92581089Y-144365207D01*
X92730998Y-144265041D01*
X93040333Y-143802089D01*
X93148957Y-143256000D01*
X93040333Y-142709911D01*
X92730998Y-142246959D01*
X92340446Y-141986000D01*
X92730998Y-141725041D01*
X93040333Y-141262089D01*
X93148957Y-140716000D01*
X93040333Y-140169911D01*
X92730998Y-139706959D01*
X92268046Y-139397624D01*
X91721957Y-139289000D01*
X91666043Y-139289000D01*
X91119954Y-139397624D01*
X90657002Y-139706959D01*
X90424000Y-140055671D01*
X90190998Y-139706959D01*
X89728046Y-139397624D01*
X89181957Y-139289000D01*
X89126043Y-139289000D01*
X88579954Y-139397624D01*
X88117002Y-139706959D01*
X87998039Y-139885000D01*
X87699000Y-139885000D01*
X87699000Y-126074212D01*
X87974212Y-125799000D01*
X87998039Y-125799000D01*
X88117002Y-125977041D01*
X88507554Y-126238000D01*
X88117002Y-126498959D01*
X87807667Y-126961911D01*
X87699043Y-127508000D01*
X87807667Y-128054089D01*
X88117002Y-128517041D01*
X88507554Y-128778000D01*
X88117002Y-129038959D01*
X87807667Y-129501911D01*
X87699043Y-130048000D01*
X87807667Y-130594089D01*
X88117002Y-131057041D01*
X88579954Y-131366376D01*
X89126043Y-131475000D01*
X89181957Y-131475000D01*
X89728046Y-131366376D01*
X90190998Y-131057041D01*
X90264830Y-130946543D01*
X90295930Y-131111823D01*
X90422299Y-131308207D01*
X90615117Y-131439954D01*
X90844000Y-131486304D01*
X92544000Y-131486304D01*
X92757823Y-131446070D01*
X92954207Y-131319701D01*
X93085954Y-131126883D01*
X93132304Y-130898000D01*
X93132304Y-129198000D01*
X93092070Y-128984177D01*
X92965701Y-128787793D01*
X92772883Y-128656046D01*
X92581089Y-128617207D01*
X92730998Y-128517041D01*
X93040333Y-128054089D01*
X93148957Y-127508000D01*
X93040333Y-126961911D01*
X92730998Y-126498959D01*
X92340446Y-126238000D01*
X92730998Y-125977041D01*
X93040333Y-125514089D01*
X93148957Y-124968000D01*
X93040333Y-124421911D01*
X92730998Y-123958959D01*
X92268046Y-123649624D01*
X91721957Y-123541000D01*
X91666043Y-123541000D01*
X91119954Y-123649624D01*
X90657002Y-123958959D01*
X90424000Y-124307671D01*
X90190998Y-123958959D01*
X89728046Y-123649624D01*
X89181957Y-123541000D01*
X89126043Y-123541000D01*
X88579954Y-123649624D01*
X88117002Y-123958959D01*
X87998039Y-124137000D01*
X87630005Y-124137000D01*
X87630000Y-124136999D01*
X87311990Y-124200256D01*
X87042394Y-124380394D01*
X86280394Y-125142394D01*
X86100256Y-125411990D01*
X86037000Y-125730000D01*
X86037000Y-150622000D01*
X86100256Y-150940010D01*
X86280394Y-151209606D01*
X87169021Y-152098233D01*
X87128959Y-152125002D01*
X87029208Y-152274289D01*
X86996070Y-152098177D01*
X86869701Y-151901793D01*
X86676883Y-151770046D01*
X86448000Y-151723696D01*
X84748000Y-151723696D01*
X84534177Y-151763930D01*
X84337793Y-151890299D01*
X84206046Y-152083117D01*
X84159696Y-152312000D01*
X81617403Y-152312000D01*
X81617403Y-114473681D01*
X86752849Y-114473681D01*
X86886082Y-114796131D01*
X87132571Y-115043051D01*
X87244185Y-115089397D01*
X91106394Y-118951606D01*
X96264859Y-124110070D01*
X96030949Y-124343571D01*
X95984603Y-124455185D01*
X95932394Y-124507394D01*
X95752256Y-124776990D01*
X95689000Y-125095000D01*
X95689000Y-141732000D01*
X95752256Y-142050010D01*
X95932394Y-142319606D01*
X101012394Y-147399606D01*
X101170128Y-147505000D01*
X100838005Y-147505000D01*
X100838000Y-147504999D01*
X100519990Y-147568256D01*
X100250394Y-147748394D01*
X95424394Y-152574394D01*
X95244256Y-152843990D01*
X95181000Y-153162000D01*
X95181000Y-154146377D01*
X95135153Y-154256789D01*
X95134849Y-154605681D01*
X95268082Y-154928131D01*
X95514571Y-155175051D01*
X95836789Y-155308847D01*
X96185681Y-155309151D01*
X96508131Y-155175918D01*
X96755051Y-154929429D01*
X96888847Y-154607211D01*
X96889151Y-154258319D01*
X96843000Y-154146625D01*
X96843000Y-153506212D01*
X100612628Y-149736584D01*
X149347469Y-149736584D01*
X149347469Y-149981229D01*
X149442620Y-150459584D01*
X149481315Y-150553000D01*
X149536241Y-150685604D01*
X149807205Y-151091131D01*
X149980195Y-151264121D01*
X150385725Y-151535088D01*
X150443964Y-151559211D01*
X150611745Y-151628708D01*
X151090099Y-151723859D01*
X151151852Y-151723859D01*
X151212421Y-151735907D01*
X152212421Y-151735907D01*
X152272990Y-151723859D01*
X152334743Y-151723859D01*
X152813098Y-151628708D01*
X152980877Y-151559211D01*
X153039118Y-151535087D01*
X153444647Y-151264121D01*
X153617637Y-151091131D01*
X153888602Y-150685603D01*
X153943527Y-150553000D01*
X153982222Y-150459583D01*
X154077373Y-149981229D01*
X154077373Y-149736584D01*
X171347469Y-149736584D01*
X171347469Y-149981229D01*
X171442620Y-150459584D01*
X171481315Y-150553000D01*
X171536241Y-150685604D01*
X171807205Y-151091131D01*
X171980195Y-151264121D01*
X172385725Y-151535088D01*
X172443964Y-151559211D01*
X172611745Y-151628708D01*
X173090099Y-151723859D01*
X173151852Y-151723859D01*
X173212421Y-151735907D01*
X174212421Y-151735907D01*
X174272990Y-151723859D01*
X174334743Y-151723859D01*
X174813098Y-151628708D01*
X174980877Y-151559211D01*
X175039118Y-151535087D01*
X175444647Y-151264121D01*
X175617637Y-151091131D01*
X175888602Y-150685603D01*
X175943527Y-150553000D01*
X175982222Y-150459583D01*
X176077373Y-149981229D01*
X176077373Y-149736584D01*
X175982222Y-149258231D01*
X175929205Y-149130237D01*
X175888602Y-149032211D01*
X175617635Y-148626681D01*
X175444645Y-148453691D01*
X175039118Y-148182727D01*
X174945498Y-148143948D01*
X174813098Y-148089106D01*
X174334743Y-147993955D01*
X174272990Y-147993955D01*
X174212421Y-147981907D01*
X173212421Y-147981907D01*
X173151852Y-147993955D01*
X173090099Y-147993955D01*
X172611745Y-148089106D01*
X172518125Y-148127885D01*
X172385725Y-148182726D01*
X171980197Y-148453691D01*
X171807207Y-148626681D01*
X171536241Y-149032210D01*
X171527878Y-149052401D01*
X171442620Y-149258230D01*
X171347469Y-149736584D01*
X154077373Y-149736584D01*
X153982222Y-149258231D01*
X153929205Y-149130237D01*
X153888602Y-149032211D01*
X153617635Y-148626681D01*
X153444645Y-148453691D01*
X153039118Y-148182727D01*
X152945498Y-148143948D01*
X152813098Y-148089106D01*
X152334743Y-147993955D01*
X152272990Y-147993955D01*
X152212421Y-147981907D01*
X151212421Y-147981907D01*
X151151852Y-147993955D01*
X151090099Y-147993955D01*
X150611745Y-148089106D01*
X150518125Y-148127885D01*
X150385725Y-148182726D01*
X149980197Y-148453691D01*
X149807207Y-148626681D01*
X149536241Y-149032210D01*
X149527878Y-149052401D01*
X149442620Y-149258230D01*
X149347469Y-149736584D01*
X100612628Y-149736584D01*
X101182212Y-149167000D01*
X119634000Y-149167000D01*
X119952010Y-149103744D01*
X120221606Y-148923606D01*
X120983606Y-148161606D01*
X122507603Y-146637608D01*
X122507606Y-146637606D01*
X122687744Y-146368010D01*
X122751000Y-146050000D01*
X122751000Y-143764000D01*
X122687744Y-143445990D01*
X122507606Y-143176394D01*
X121481000Y-142149788D01*
X121481000Y-140239623D01*
X121526847Y-140129211D01*
X121527151Y-139780319D01*
X121506958Y-139731448D01*
X171347469Y-139731448D01*
X171347469Y-139976093D01*
X171442620Y-140454448D01*
X171495637Y-140582440D01*
X171536241Y-140680468D01*
X171807205Y-141085995D01*
X171980195Y-141258985D01*
X172385725Y-141529952D01*
X172454210Y-141558319D01*
X172611745Y-141623572D01*
X173090099Y-141718723D01*
X173151852Y-141718723D01*
X173212421Y-141730771D01*
X174212421Y-141730771D01*
X174272990Y-141718723D01*
X174334743Y-141718723D01*
X174813098Y-141623572D01*
X174997651Y-141547127D01*
X175039118Y-141529951D01*
X175444647Y-141258985D01*
X175617637Y-141085995D01*
X175888602Y-140680467D01*
X175946120Y-140541606D01*
X175982222Y-140454447D01*
X176077373Y-139976093D01*
X176077373Y-139731448D01*
X175982222Y-139253095D01*
X175915581Y-139092209D01*
X175888602Y-139027075D01*
X175617635Y-138621545D01*
X175444645Y-138448555D01*
X175039118Y-138177591D01*
X174945498Y-138138812D01*
X174813098Y-138083970D01*
X174334743Y-137988819D01*
X174272990Y-137988819D01*
X174212421Y-137976771D01*
X173212421Y-137976771D01*
X173151852Y-137988819D01*
X173090099Y-137988819D01*
X172611745Y-138083970D01*
X172518125Y-138122749D01*
X172385725Y-138177590D01*
X171980197Y-138448555D01*
X171807207Y-138621545D01*
X171536241Y-139027074D01*
X171515624Y-139076849D01*
X171442620Y-139253094D01*
X171347469Y-139731448D01*
X121506958Y-139731448D01*
X121481000Y-139668625D01*
X121481000Y-119761000D01*
X121417744Y-119442990D01*
X121237606Y-119173394D01*
X113255312Y-111191100D01*
X141549400Y-111191100D01*
X141711308Y-112005068D01*
X142172384Y-112695116D01*
X142862432Y-113156192D01*
X143676400Y-113318100D01*
X144490368Y-113156192D01*
X145180416Y-112695116D01*
X145641492Y-112005068D01*
X145803400Y-111191100D01*
X145641492Y-110377132D01*
X145180416Y-109687084D01*
X144490368Y-109226008D01*
X143676400Y-109064100D01*
X142862432Y-109226008D01*
X142172384Y-109687084D01*
X141711308Y-110377132D01*
X141549400Y-111191100D01*
X113255312Y-111191100D01*
X112982606Y-110918394D01*
X112713010Y-110738256D01*
X112395000Y-110675000D01*
X107913211Y-110675000D01*
X103457606Y-106219394D01*
X103188010Y-106039256D01*
X102870000Y-105976000D01*
X100615623Y-105976000D01*
X100505211Y-105930153D01*
X100156319Y-105929849D01*
X100044625Y-105976000D01*
X93503623Y-105976000D01*
X93393211Y-105930153D01*
X93044319Y-105929849D01*
X92721869Y-106063082D01*
X92474949Y-106309571D01*
X92341153Y-106631789D01*
X92340849Y-106980681D01*
X92474082Y-107303131D01*
X92720571Y-107550051D01*
X93042789Y-107683847D01*
X93391681Y-107684151D01*
X93503375Y-107638000D01*
X100044377Y-107638000D01*
X100154789Y-107683847D01*
X100503681Y-107684151D01*
X100615375Y-107638000D01*
X102525788Y-107638000D01*
X106779428Y-111891639D01*
X106825082Y-112002131D01*
X107071571Y-112249051D01*
X107393789Y-112382847D01*
X107742681Y-112383151D01*
X107854375Y-112337000D01*
X112050788Y-112337000D01*
X119819000Y-120105212D01*
X119819000Y-139668377D01*
X119773153Y-139778789D01*
X119772849Y-140127681D01*
X119819000Y-140239375D01*
X119819000Y-142494000D01*
X119882256Y-142812010D01*
X120062394Y-143081606D01*
X121089000Y-144108212D01*
X121089000Y-144774687D01*
X120882244Y-144688835D01*
X118906704Y-142713296D01*
X118657710Y-142546922D01*
X118364000Y-142488500D01*
X111817549Y-142488500D01*
X111554211Y-142379153D01*
X111337255Y-142378964D01*
X111487051Y-142229429D01*
X111620847Y-141907211D01*
X111621151Y-141558319D01*
X111487918Y-141235869D01*
X111241429Y-140988949D01*
X110919211Y-140855153D01*
X110570319Y-140854849D01*
X110458625Y-140901000D01*
X99912212Y-140901000D01*
X99383000Y-140371788D01*
X99383000Y-136818000D01*
X102320696Y-136818000D01*
X102320696Y-138518000D01*
X102360930Y-138731823D01*
X102487299Y-138928207D01*
X102680117Y-139059954D01*
X102909000Y-139106304D01*
X104609000Y-139106304D01*
X104822823Y-139066070D01*
X105019207Y-138939701D01*
X105150954Y-138746883D01*
X105189793Y-138555089D01*
X105289959Y-138704998D01*
X105752911Y-139014333D01*
X106299000Y-139122957D01*
X106845089Y-139014333D01*
X107308041Y-138704998D01*
X107569000Y-138314446D01*
X107829959Y-138704998D01*
X108292911Y-139014333D01*
X108839000Y-139122957D01*
X109385089Y-139014333D01*
X109848041Y-138704998D01*
X110109000Y-138314446D01*
X110369959Y-138704998D01*
X110832911Y-139014333D01*
X111379000Y-139122957D01*
X111925089Y-139014333D01*
X112388041Y-138704998D01*
X112649000Y-138314446D01*
X112909959Y-138704998D01*
X113372911Y-139014333D01*
X113919000Y-139122957D01*
X114465089Y-139014333D01*
X114928041Y-138704998D01*
X115237376Y-138242046D01*
X115346000Y-137695957D01*
X115346000Y-137640043D01*
X115237376Y-137093954D01*
X114928041Y-136631002D01*
X114465089Y-136321667D01*
X113919000Y-136213043D01*
X113372911Y-136321667D01*
X112909959Y-136631002D01*
X112649000Y-137021554D01*
X112388041Y-136631002D01*
X111925089Y-136321667D01*
X111379000Y-136213043D01*
X110832911Y-136321667D01*
X110369959Y-136631002D01*
X110109000Y-137021554D01*
X109848041Y-136631002D01*
X109385089Y-136321667D01*
X108839000Y-136213043D01*
X108292911Y-136321667D01*
X107829959Y-136631002D01*
X107569000Y-137021554D01*
X107308041Y-136631002D01*
X106845089Y-136321667D01*
X106299000Y-136213043D01*
X105752911Y-136321667D01*
X105289959Y-136631002D01*
X105190208Y-136780289D01*
X105157070Y-136604177D01*
X105030701Y-136407793D01*
X104837883Y-136276046D01*
X104609000Y-136229696D01*
X102909000Y-136229696D01*
X102695177Y-136269930D01*
X102498793Y-136396299D01*
X102367046Y-136589117D01*
X102320696Y-136818000D01*
X99383000Y-136818000D01*
X99383000Y-125222000D01*
X99319744Y-124903990D01*
X99139606Y-124634394D01*
X99012606Y-124507394D01*
X99012603Y-124507392D01*
X92527212Y-118022000D01*
X95843696Y-118022000D01*
X95843696Y-119722000D01*
X95883930Y-119935823D01*
X96010299Y-120132207D01*
X96203117Y-120263954D01*
X96432000Y-120310304D01*
X98132000Y-120310304D01*
X98345823Y-120270070D01*
X98542207Y-120143701D01*
X98673954Y-119950883D01*
X98712793Y-119759089D01*
X98812959Y-119908998D01*
X99275911Y-120218333D01*
X99822000Y-120326957D01*
X100368089Y-120218333D01*
X100831041Y-119908998D01*
X101092000Y-119518446D01*
X101352959Y-119908998D01*
X101815911Y-120218333D01*
X102362000Y-120326957D01*
X102908089Y-120218333D01*
X103371041Y-119908998D01*
X103632000Y-119518446D01*
X103892959Y-119908998D01*
X104355911Y-120218333D01*
X104902000Y-120326957D01*
X105448089Y-120218333D01*
X105911041Y-119908998D01*
X106172000Y-119518446D01*
X106432959Y-119908998D01*
X106895911Y-120218333D01*
X107442000Y-120326957D01*
X107988089Y-120218333D01*
X108451041Y-119908998D01*
X108712000Y-119518446D01*
X108972959Y-119908998D01*
X109435911Y-120218333D01*
X109982000Y-120326957D01*
X110528089Y-120218333D01*
X110991041Y-119908998D01*
X111300376Y-119446046D01*
X111409000Y-118899957D01*
X111409000Y-118844043D01*
X111300376Y-118297954D01*
X110991041Y-117835002D01*
X110528089Y-117525667D01*
X109982000Y-117417043D01*
X109435911Y-117525667D01*
X108972959Y-117835002D01*
X108712000Y-118225554D01*
X108451041Y-117835002D01*
X107988089Y-117525667D01*
X107442000Y-117417043D01*
X106895911Y-117525667D01*
X106432959Y-117835002D01*
X106172000Y-118225554D01*
X105911041Y-117835002D01*
X105448089Y-117525667D01*
X104902000Y-117417043D01*
X104355911Y-117525667D01*
X103892959Y-117835002D01*
X103632000Y-118225554D01*
X103371041Y-117835002D01*
X102908089Y-117525667D01*
X102362000Y-117417043D01*
X101815911Y-117525667D01*
X101352959Y-117835002D01*
X101092000Y-118225554D01*
X100831041Y-117835002D01*
X100368089Y-117525667D01*
X99822000Y-117417043D01*
X99275911Y-117525667D01*
X98812959Y-117835002D01*
X98713208Y-117984289D01*
X98680070Y-117808177D01*
X98553701Y-117611793D01*
X98360883Y-117480046D01*
X98132000Y-117433696D01*
X96432000Y-117433696D01*
X96218177Y-117473930D01*
X96021793Y-117600299D01*
X95890046Y-117793117D01*
X95843696Y-118022000D01*
X92527212Y-118022000D01*
X92281606Y-117776394D01*
X88419572Y-113914360D01*
X88373918Y-113803869D01*
X88127429Y-113556949D01*
X87805211Y-113423153D01*
X87456319Y-113422849D01*
X87133869Y-113556082D01*
X86886949Y-113802571D01*
X86753153Y-114124789D01*
X86752849Y-114473681D01*
X81617403Y-114473681D01*
X81617403Y-102281681D01*
X85990849Y-102281681D01*
X86124082Y-102604131D01*
X86370571Y-102851051D01*
X86482185Y-102897397D01*
X87307000Y-103722212D01*
X87307000Y-112014000D01*
X87370256Y-112332010D01*
X87550394Y-112601606D01*
X87602428Y-112653640D01*
X87648082Y-112764131D01*
X87894571Y-113011051D01*
X88216789Y-113144847D01*
X88565681Y-113145151D01*
X88888131Y-113011918D01*
X89135051Y-112765429D01*
X89268847Y-112443211D01*
X89269151Y-112094319D01*
X89135918Y-111771869D01*
X88969000Y-111604659D01*
X88969000Y-104382681D01*
X96112849Y-104382681D01*
X96246082Y-104705131D01*
X96492571Y-104952051D01*
X96814789Y-105085847D01*
X97163681Y-105086151D01*
X97486131Y-104952918D01*
X97733051Y-104706429D01*
X97779397Y-104594815D01*
X104433111Y-97941100D01*
X195288681Y-97941100D01*
X195431559Y-98659397D01*
X195838442Y-99268339D01*
X196447384Y-99675222D01*
X197165681Y-99818100D01*
X197883978Y-99675222D01*
X198492920Y-99268339D01*
X198899803Y-98659397D01*
X199042681Y-97941100D01*
X198899803Y-97222803D01*
X198747688Y-96995147D01*
X232853938Y-96995147D01*
X232996816Y-97713444D01*
X233403699Y-98322386D01*
X234012641Y-98729269D01*
X234730938Y-98872147D01*
X235449235Y-98729269D01*
X236058177Y-98322386D01*
X236465060Y-97713444D01*
X236607938Y-96995147D01*
X236465060Y-96276850D01*
X236058177Y-95667908D01*
X235449235Y-95261025D01*
X234730938Y-95118147D01*
X234012641Y-95261025D01*
X233403699Y-95667908D01*
X232996816Y-96276850D01*
X232853938Y-96995147D01*
X198747688Y-96995147D01*
X198492920Y-96613861D01*
X197883978Y-96206978D01*
X197165681Y-96064100D01*
X196447384Y-96206978D01*
X195838442Y-96613861D01*
X195431559Y-97222803D01*
X195288681Y-97941100D01*
X104433111Y-97941100D01*
X124200211Y-78174000D01*
X148040696Y-78174000D01*
X148040696Y-78193000D01*
X148080930Y-78406823D01*
X148207299Y-78603207D01*
X148400117Y-78734954D01*
X148629000Y-78781304D01*
X150329000Y-78781304D01*
X150542823Y-78741070D01*
X150739207Y-78614701D01*
X150870954Y-78421883D01*
X150897378Y-78291397D01*
X151252076Y-78614645D01*
X151662110Y-78784476D01*
X151892000Y-78663155D01*
X151892000Y-77470000D01*
X152146000Y-77470000D01*
X152146000Y-78663155D01*
X152375890Y-78784476D01*
X152785924Y-78614645D01*
X153214183Y-78224358D01*
X153460486Y-77699892D01*
X153339819Y-77470000D01*
X152146000Y-77470000D01*
X151892000Y-77470000D01*
X151872000Y-77470000D01*
X151872000Y-77216000D01*
X151892000Y-77216000D01*
X151892000Y-76022845D01*
X152146000Y-76022845D01*
X152146000Y-77216000D01*
X153339819Y-77216000D01*
X153460486Y-76986108D01*
X153214183Y-76461642D01*
X152785924Y-76071355D01*
X152375890Y-75901524D01*
X152146000Y-76022845D01*
X151892000Y-76022845D01*
X151662110Y-75901524D01*
X151252076Y-76071355D01*
X150898583Y-76393506D01*
X150877070Y-76279177D01*
X150750701Y-76082793D01*
X150557883Y-75951046D01*
X150329000Y-75904696D01*
X148629000Y-75904696D01*
X148415177Y-75944930D01*
X148218793Y-76071299D01*
X148087046Y-76264117D01*
X148040696Y-76493000D01*
X148040696Y-76512000D01*
X123856005Y-76512000D01*
X123856000Y-76511999D01*
X123537990Y-76575256D01*
X123268394Y-76755394D01*
X123268392Y-76755397D01*
X96604360Y-103419428D01*
X96493869Y-103465082D01*
X96246949Y-103711571D01*
X96113153Y-104033789D01*
X96112849Y-104382681D01*
X88969000Y-104382681D01*
X88969000Y-103378000D01*
X88905744Y-103059990D01*
X88725606Y-102790394D01*
X87657572Y-101722360D01*
X87611918Y-101611869D01*
X87365429Y-101364949D01*
X87043211Y-101231153D01*
X86694319Y-101230849D01*
X86371869Y-101364082D01*
X86124949Y-101610571D01*
X85991153Y-101932789D01*
X85990849Y-102281681D01*
X81617403Y-102281681D01*
X81617403Y-78391100D01*
X102713403Y-78391100D01*
X102856281Y-79109397D01*
X103263164Y-79718339D01*
X103872106Y-80125222D01*
X104590403Y-80268100D01*
X105308700Y-80125222D01*
X105917642Y-79718339D01*
X106324525Y-79109397D01*
X106467403Y-78391100D01*
X106324525Y-77672803D01*
X105917642Y-77063861D01*
X105308700Y-76656978D01*
X104590403Y-76514100D01*
X103872106Y-76656978D01*
X103263164Y-77063861D01*
X102856281Y-77672803D01*
X102713403Y-78391100D01*
X81617403Y-78391100D01*
X81617403Y-73941100D01*
X136549400Y-73941100D01*
X136711308Y-74755068D01*
X137172384Y-75445116D01*
X137862432Y-75906192D01*
X138676400Y-76068100D01*
X139490368Y-75906192D01*
X140180416Y-75445116D01*
X140641492Y-74755068D01*
X140803400Y-73941100D01*
X140641492Y-73127132D01*
X140180416Y-72437084D01*
X139490368Y-71976008D01*
X138676400Y-71814100D01*
X137862432Y-71976008D01*
X137172384Y-72437084D01*
X136711308Y-73127132D01*
X136549400Y-73941100D01*
X81617403Y-73941100D01*
X81617403Y-67648727D01*
X112293706Y-67648727D01*
X112293706Y-68648727D01*
X112305754Y-68709296D01*
X112305754Y-68771049D01*
X112400905Y-69249404D01*
X112453922Y-69377396D01*
X112494526Y-69475424D01*
X112765490Y-69880951D01*
X112938480Y-70053941D01*
X113344010Y-70324908D01*
X113476410Y-70379749D01*
X113570030Y-70418528D01*
X114048384Y-70513679D01*
X114293028Y-70513679D01*
X114771383Y-70418528D01*
X114903783Y-70363686D01*
X114997403Y-70324907D01*
X115402932Y-70053941D01*
X115575922Y-69880951D01*
X115846887Y-69475423D01*
X115901728Y-69343023D01*
X115940507Y-69249403D01*
X116035658Y-68771049D01*
X116035658Y-68709296D01*
X116047706Y-68648727D01*
X116047706Y-67648727D01*
X122298841Y-67648727D01*
X122298841Y-68648727D01*
X122310889Y-68709296D01*
X122310889Y-68771049D01*
X122406040Y-69249404D01*
X122459057Y-69377396D01*
X122499661Y-69475424D01*
X122770625Y-69880951D01*
X122943615Y-70053941D01*
X123349145Y-70324908D01*
X123481545Y-70379749D01*
X123575165Y-70418528D01*
X124053519Y-70513679D01*
X124298163Y-70513679D01*
X124776518Y-70418528D01*
X124908918Y-70363686D01*
X125002538Y-70324907D01*
X125408067Y-70053941D01*
X125581057Y-69880951D01*
X125852022Y-69475423D01*
X125906863Y-69343023D01*
X125945642Y-69249403D01*
X126040793Y-68771049D01*
X126040793Y-68709296D01*
X126052841Y-68648727D01*
X126052841Y-67648727D01*
X126040793Y-67588158D01*
X126040793Y-67526405D01*
X125945642Y-67048051D01*
X125879001Y-66887165D01*
X125852022Y-66822031D01*
X125581055Y-66416501D01*
X125408065Y-66243511D01*
X125002538Y-65972547D01*
X124908918Y-65933768D01*
X124776518Y-65878926D01*
X124298163Y-65783775D01*
X124053519Y-65783775D01*
X123575165Y-65878926D01*
X123481545Y-65917705D01*
X123349145Y-65972546D01*
X122943617Y-66243511D01*
X122770627Y-66416501D01*
X122499661Y-66822030D01*
X122491298Y-66842221D01*
X122406040Y-67048050D01*
X122310889Y-67526405D01*
X122310889Y-67588158D01*
X122298841Y-67648727D01*
X116047706Y-67648727D01*
X116035658Y-67588158D01*
X116035658Y-67526405D01*
X115940507Y-67048051D01*
X115873866Y-66887165D01*
X115846887Y-66822031D01*
X115575920Y-66416501D01*
X115402930Y-66243511D01*
X114997403Y-65972547D01*
X114903783Y-65933768D01*
X114771383Y-65878926D01*
X114293028Y-65783775D01*
X114048384Y-65783775D01*
X113570030Y-65878926D01*
X113476410Y-65917705D01*
X113344010Y-65972546D01*
X112938482Y-66243511D01*
X112765492Y-66416501D01*
X112494526Y-66822030D01*
X112486163Y-66842221D01*
X112400905Y-67048050D01*
X112305754Y-67526405D01*
X112305754Y-67588158D01*
X112293706Y-67648727D01*
X81617403Y-67648727D01*
X81617403Y-65241100D01*
X136549400Y-65241100D01*
X136711308Y-66055068D01*
X137172384Y-66745116D01*
X137862432Y-67206192D01*
X138676400Y-67368100D01*
X139490368Y-67206192D01*
X140180416Y-66745116D01*
X140641492Y-66055068D01*
X140803400Y-65241100D01*
X140641492Y-64427132D01*
X140180416Y-63737084D01*
X139490368Y-63276008D01*
X138676400Y-63114100D01*
X137862432Y-63276008D01*
X137172384Y-63737084D01*
X136711308Y-64427132D01*
X136549400Y-65241100D01*
X81617403Y-65241100D01*
X81617403Y-58039000D01*
X97859043Y-58039000D01*
X97967667Y-58585089D01*
X98277002Y-59048041D01*
X98739954Y-59357376D01*
X99286043Y-59466000D01*
X99341957Y-59466000D01*
X99888046Y-59357376D01*
X100282215Y-59094000D01*
X101939696Y-59094000D01*
X101939696Y-60794000D01*
X101979930Y-61007823D01*
X102106299Y-61204207D01*
X102299117Y-61335954D01*
X102528000Y-61382304D01*
X104228000Y-61382304D01*
X104441823Y-61342070D01*
X104638207Y-61215701D01*
X104769954Y-61022883D01*
X104816304Y-60794000D01*
X104816304Y-59094000D01*
X104776070Y-58880177D01*
X104649701Y-58683793D01*
X104456883Y-58552046D01*
X104228000Y-58505696D01*
X102528000Y-58505696D01*
X102314177Y-58545930D01*
X102117793Y-58672299D01*
X101986046Y-58865117D01*
X101939696Y-59094000D01*
X100282215Y-59094000D01*
X100350998Y-59048041D01*
X100660333Y-58585089D01*
X100768957Y-58039000D01*
X100660333Y-57492911D01*
X100350998Y-57029959D01*
X100201711Y-56930208D01*
X100377823Y-56897070D01*
X100574207Y-56770701D01*
X100705954Y-56577883D01*
X100752304Y-56349000D01*
X100752304Y-54649000D01*
X100712070Y-54435177D01*
X100585701Y-54238793D01*
X100392883Y-54107046D01*
X100164000Y-54060696D01*
X98464000Y-54060696D01*
X98250177Y-54100930D01*
X98053793Y-54227299D01*
X97922046Y-54420117D01*
X97875696Y-54649000D01*
X97875696Y-56349000D01*
X97915930Y-56562823D01*
X98042299Y-56759207D01*
X98235117Y-56890954D01*
X98426911Y-56929793D01*
X98277002Y-57029959D01*
X97967667Y-57492911D01*
X97859043Y-58039000D01*
X81617403Y-58039000D01*
X81617403Y-52363000D01*
X101939696Y-52363000D01*
X101939696Y-54063000D01*
X101979930Y-54276823D01*
X102106299Y-54473207D01*
X102299117Y-54604954D01*
X102528000Y-54651304D01*
X104228000Y-54651304D01*
X104441823Y-54611070D01*
X104638207Y-54484701D01*
X104769954Y-54291883D01*
X104816304Y-54063000D01*
X104816304Y-52363000D01*
X104776070Y-52149177D01*
X104649701Y-51952793D01*
X104456883Y-51821046D01*
X104228000Y-51774696D01*
X102528000Y-51774696D01*
X102314177Y-51814930D01*
X102117793Y-51941299D01*
X101986046Y-52134117D01*
X101939696Y-52363000D01*
X81617403Y-52363000D01*
X81617403Y-45648727D01*
X112293706Y-45648727D01*
X112293706Y-46648727D01*
X112305754Y-46709296D01*
X112305754Y-46771049D01*
X112400905Y-47249404D01*
X112453922Y-47377396D01*
X112494526Y-47475424D01*
X112765490Y-47880951D01*
X112938480Y-48053941D01*
X113344010Y-48324908D01*
X113476410Y-48379749D01*
X113570030Y-48418528D01*
X114048384Y-48513679D01*
X114293028Y-48513679D01*
X114771383Y-48418528D01*
X114903783Y-48363686D01*
X114997403Y-48324907D01*
X115402932Y-48053941D01*
X115575922Y-47880951D01*
X115846887Y-47475423D01*
X115901728Y-47343023D01*
X115940507Y-47249403D01*
X116035658Y-46771049D01*
X116035658Y-46709296D01*
X116047706Y-46648727D01*
X116047706Y-45648727D01*
X122298841Y-45648727D01*
X122298841Y-46648727D01*
X122310889Y-46709296D01*
X122310889Y-46771049D01*
X122406040Y-47249404D01*
X122459057Y-47377396D01*
X122499661Y-47475424D01*
X122770625Y-47880951D01*
X122943615Y-48053941D01*
X123349145Y-48324908D01*
X123481545Y-48379749D01*
X123575165Y-48418528D01*
X124053519Y-48513679D01*
X124298163Y-48513679D01*
X124776518Y-48418528D01*
X124908918Y-48363686D01*
X125002538Y-48324907D01*
X125408067Y-48053941D01*
X125581057Y-47880951D01*
X125852022Y-47475423D01*
X125906863Y-47343023D01*
X125945642Y-47249403D01*
X126040793Y-46771049D01*
X126040793Y-46709296D01*
X126052841Y-46648727D01*
X126052841Y-45648727D01*
X126040793Y-45588158D01*
X126040793Y-45526405D01*
X125945642Y-45048051D01*
X125879001Y-44887165D01*
X125852022Y-44822031D01*
X125581055Y-44416501D01*
X125408065Y-44243511D01*
X125002538Y-43972547D01*
X124908918Y-43933768D01*
X124776518Y-43878926D01*
X124298163Y-43783775D01*
X124053519Y-43783775D01*
X123575165Y-43878926D01*
X123481545Y-43917705D01*
X123349145Y-43972546D01*
X122943617Y-44243511D01*
X122770627Y-44416501D01*
X122499661Y-44822030D01*
X122491298Y-44842221D01*
X122406040Y-45048050D01*
X122310889Y-45526405D01*
X122310889Y-45588158D01*
X122298841Y-45648727D01*
X116047706Y-45648727D01*
X116035658Y-45588158D01*
X116035658Y-45526405D01*
X115940507Y-45048051D01*
X115873866Y-44887165D01*
X115846887Y-44822031D01*
X115575920Y-44416501D01*
X115402930Y-44243511D01*
X114997403Y-43972547D01*
X114903783Y-43933768D01*
X114771383Y-43878926D01*
X114293028Y-43783775D01*
X114048384Y-43783775D01*
X113570030Y-43878926D01*
X113476410Y-43917705D01*
X113344010Y-43972546D01*
X112938482Y-44243511D01*
X112765492Y-44416501D01*
X112494526Y-44822030D01*
X112486163Y-44842221D01*
X112400905Y-45048050D01*
X112305754Y-45526405D01*
X112305754Y-45588158D01*
X112293706Y-45648727D01*
X81617403Y-45648727D01*
X81617403Y-40818100D01*
X138817006Y-40818100D01*
X139590823Y-40972021D01*
X139590823Y-40972021D01*
G37*
X139590823Y-40972021D02*
X140194483Y-41375375D01*
X140606151Y-41991479D01*
X140748140Y-42565532D01*
X143018978Y-67109503D01*
X143032469Y-67154941D01*
X143034654Y-67202288D01*
X143393992Y-68655066D01*
X143439941Y-68752965D01*
X143481319Y-68852860D01*
X144565181Y-70474975D01*
X144738171Y-70647965D01*
X146360289Y-71731830D01*
X146492689Y-71786671D01*
X146586309Y-71825450D01*
X148499726Y-72206052D01*
X148561479Y-72206052D01*
X148622048Y-72218100D01*
X156901546Y-72218100D01*
X158452812Y-72526666D01*
X157939386Y-72869727D01*
X157565019Y-73430006D01*
X157433559Y-74090900D01*
X157565019Y-74751794D01*
X157939386Y-75312073D01*
X158499665Y-75686440D01*
X159160559Y-75817900D01*
X159821453Y-75686440D01*
X160381732Y-75312073D01*
X160756099Y-74751794D01*
X160887559Y-74090900D01*
X160775515Y-73527617D01*
X161885269Y-74269130D01*
X163175872Y-76200653D01*
X163584531Y-77484396D01*
X163933559Y-79239078D01*
X163933559Y-82390900D01*
X163981287Y-82630843D01*
X164117203Y-82834256D01*
X164320616Y-82970172D01*
X164560559Y-83017900D01*
X174091176Y-83017900D01*
X174331119Y-82970172D01*
X174534532Y-82834256D01*
X174670448Y-82630843D01*
X174718176Y-82390900D01*
X174718176Y-79817900D01*
X184283880Y-79817900D01*
X184284885Y-79818100D01*
X236988679Y-79818100D01*
X236988679Y-111743000D01*
X236855000Y-111743000D01*
X236605490Y-111792631D01*
X236393966Y-111933966D01*
X236252631Y-112145490D01*
X236220000Y-112309536D01*
X236187369Y-112145490D01*
X236046034Y-111933966D01*
X235834510Y-111792631D01*
X235585000Y-111743000D01*
X228346000Y-111743000D01*
X228096490Y-111792631D01*
X227884966Y-111933966D01*
X227743631Y-112145490D01*
X227711000Y-112309536D01*
X227678369Y-112145490D01*
X227537034Y-111933966D01*
X227325510Y-111792631D01*
X227076000Y-111743000D01*
X217792681Y-111743000D01*
X217792681Y-100991100D01*
X217744953Y-100751157D01*
X217609037Y-100547744D01*
X217405624Y-100411828D01*
X217165681Y-100364100D01*
X209795681Y-100364100D01*
X209555738Y-100411828D01*
X209352325Y-100547744D01*
X209216409Y-100751157D01*
X209168681Y-100991100D01*
X209168681Y-104629347D01*
X209004863Y-105452913D01*
X208573330Y-106098750D01*
X207927494Y-106530283D01*
X207165681Y-106681817D01*
X206403868Y-106530282D01*
X205758031Y-106098749D01*
X205326498Y-105452913D01*
X205162681Y-104629347D01*
X205162681Y-100991100D01*
X205114953Y-100751157D01*
X204979037Y-100547744D01*
X204775624Y-100411828D01*
X204535681Y-100364100D01*
X189795681Y-100364100D01*
X189555738Y-100411828D01*
X189352325Y-100547744D01*
X189216409Y-100751157D01*
X189168681Y-100991100D01*
X189168681Y-104629347D01*
X189004863Y-105452913D01*
X188573330Y-106098750D01*
X187927494Y-106530283D01*
X187165681Y-106681817D01*
X186403868Y-106530282D01*
X185758031Y-106098749D01*
X185326498Y-105452913D01*
X185162681Y-104629347D01*
X185162681Y-100991100D01*
X185114953Y-100751157D01*
X184979037Y-100547744D01*
X184775624Y-100411828D01*
X184535681Y-100364100D01*
X177115681Y-100364100D01*
X176875738Y-100411828D01*
X176672325Y-100547744D01*
X176536409Y-100751157D01*
X176488681Y-100991100D01*
X176536409Y-101231043D01*
X176538681Y-101234443D01*
X176538681Y-164764100D01*
X81617403Y-164764100D01*
X81617403Y-161890900D01*
X82563203Y-161890900D01*
X82709887Y-162628331D01*
X83127608Y-163253495D01*
X83752772Y-163671216D01*
X84490203Y-163817900D01*
X85227634Y-163671216D01*
X85852798Y-163253495D01*
X86270519Y-162628331D01*
X86417203Y-161890900D01*
X86270519Y-161153469D01*
X85852798Y-160528305D01*
X85227634Y-160110584D01*
X84490203Y-159963900D01*
X83752772Y-160110584D01*
X83127608Y-160528305D01*
X82709887Y-161153469D01*
X82563203Y-161890900D01*
X81617403Y-161890900D01*
X81617403Y-152312000D01*
X84159696Y-152312000D01*
X84159696Y-154012000D01*
X84199930Y-154225823D01*
X84326299Y-154422207D01*
X84519117Y-154553954D01*
X84748000Y-154600304D01*
X86448000Y-154600304D01*
X86661823Y-154560070D01*
X86858207Y-154433701D01*
X86989954Y-154240883D01*
X87028793Y-154049089D01*
X87128959Y-154198998D01*
X87243500Y-154275532D01*
X87243500Y-158750000D01*
X87311590Y-159092310D01*
X87505493Y-159382507D01*
X90045493Y-161922507D01*
X90335689Y-162116410D01*
X90678000Y-162184500D01*
X122555000Y-162184500D01*
X122897310Y-162116410D01*
X123187507Y-161922507D01*
X124709014Y-160401000D01*
X149929043Y-160401000D01*
X150037667Y-160947089D01*
X150347002Y-161410041D01*
X150809954Y-161719376D01*
X151356043Y-161828000D01*
X151411957Y-161828000D01*
X151958046Y-161719376D01*
X152420998Y-161410041D01*
X152730333Y-160947089D01*
X152838957Y-160401000D01*
X152730333Y-159854911D01*
X152420998Y-159391959D01*
X152271711Y-159292208D01*
X152447823Y-159259070D01*
X152644207Y-159132701D01*
X152775954Y-158939883D01*
X152822304Y-158711000D01*
X152822304Y-158535000D01*
X157819696Y-158535000D01*
X157819696Y-160235000D01*
X157859930Y-160448823D01*
X157986299Y-160645207D01*
X158179117Y-160776954D01*
X158408000Y-160823304D01*
X160108000Y-160823304D01*
X160321823Y-160783070D01*
X160518207Y-160656701D01*
X160649954Y-160463883D01*
X160696304Y-160235000D01*
X160696304Y-158535000D01*
X164931696Y-158535000D01*
X164931696Y-160235000D01*
X164971930Y-160448823D01*
X165098299Y-160645207D01*
X165291117Y-160776954D01*
X165520000Y-160823304D01*
X167220000Y-160823304D01*
X167433823Y-160783070D01*
X167630207Y-160656701D01*
X167761954Y-160463883D01*
X167808304Y-160235000D01*
X167808304Y-158535000D01*
X167768070Y-158321177D01*
X167641701Y-158124793D01*
X167448883Y-157993046D01*
X167220000Y-157946696D01*
X165520000Y-157946696D01*
X165306177Y-157986930D01*
X165109793Y-158113299D01*
X164978046Y-158306117D01*
X164931696Y-158535000D01*
X160696304Y-158535000D01*
X160656070Y-158321177D01*
X160529701Y-158124793D01*
X160336883Y-157993046D01*
X160108000Y-157946696D01*
X158408000Y-157946696D01*
X158194177Y-157986930D01*
X157997793Y-158113299D01*
X157866046Y-158306117D01*
X157819696Y-158535000D01*
X152822304Y-158535000D01*
X152822304Y-157011000D01*
X152782070Y-156797177D01*
X152655701Y-156600793D01*
X152462883Y-156469046D01*
X152234000Y-156422696D01*
X150534000Y-156422696D01*
X150320177Y-156462930D01*
X150123793Y-156589299D01*
X149992046Y-156782117D01*
X149945696Y-157011000D01*
X149945696Y-158711000D01*
X149985930Y-158924823D01*
X150112299Y-159121207D01*
X150305117Y-159252954D01*
X150496911Y-159291793D01*
X150347002Y-159391959D01*
X150037667Y-159854911D01*
X149929043Y-160401000D01*
X124709014Y-160401000D01*
X129283507Y-155826507D01*
X129333124Y-155752249D01*
X129394051Y-155691429D01*
X129427356Y-155611221D01*
X129477410Y-155536310D01*
X129494833Y-155448717D01*
X129527847Y-155369211D01*
X129527923Y-155282367D01*
X129545500Y-155194000D01*
X129528076Y-155106404D01*
X129528151Y-155020319D01*
X129494987Y-154940056D01*
X129477410Y-154851690D01*
X129427793Y-154777432D01*
X129394918Y-154697869D01*
X129333562Y-154636406D01*
X129283507Y-154561493D01*
X129209249Y-154511876D01*
X129148429Y-154450949D01*
X129068221Y-154417644D01*
X128993310Y-154367590D01*
X128905717Y-154350167D01*
X128826211Y-154317153D01*
X128739367Y-154317077D01*
X128651000Y-154299500D01*
X128563404Y-154316924D01*
X128477319Y-154316849D01*
X128397056Y-154350013D01*
X128308690Y-154367590D01*
X128234432Y-154417207D01*
X128154869Y-154450082D01*
X128093406Y-154511438D01*
X128018493Y-154561493D01*
X122184486Y-160395500D01*
X91048514Y-160395500D01*
X89032500Y-158379486D01*
X89032500Y-157907681D01*
X100087849Y-157907681D01*
X100221082Y-158230131D01*
X100467571Y-158477051D01*
X100789789Y-158610847D01*
X101138681Y-158611151D01*
X101461131Y-158477918D01*
X101708051Y-158231429D01*
X101754397Y-158119815D01*
X107775606Y-152098606D01*
X107900022Y-151912404D01*
X107931051Y-151881429D01*
X107948012Y-151840581D01*
X107955744Y-151829010D01*
X107958435Y-151815480D01*
X108064847Y-151559211D01*
X108065151Y-151210319D01*
X107931918Y-150887869D01*
X107685429Y-150640949D01*
X107363211Y-150507153D01*
X107014319Y-150506849D01*
X106691869Y-150640082D01*
X106444949Y-150886571D01*
X106311153Y-151208789D01*
X106311150Y-151212638D01*
X100579360Y-156944428D01*
X100468869Y-156990082D01*
X100221949Y-157236571D01*
X100088153Y-157558789D01*
X100087849Y-157907681D01*
X89032500Y-157907681D01*
X89032500Y-154275532D01*
X89147041Y-154198998D01*
X89456376Y-153736046D01*
X89565000Y-153189957D01*
X89565000Y-153134043D01*
X89456376Y-152587954D01*
X89147041Y-152125002D01*
X89010126Y-152033518D01*
X88964410Y-151803690D01*
X88945934Y-151776038D01*
X88905744Y-151573990D01*
X88725606Y-151304394D01*
X87699000Y-150277788D01*
X87699000Y-141822212D01*
X87974212Y-141547000D01*
X87998039Y-141547000D01*
X88117002Y-141725041D01*
X88507554Y-141986000D01*
X88117002Y-142246959D01*
X87807667Y-142709911D01*
X87699043Y-143256000D01*
X87807667Y-143802089D01*
X88117002Y-144265041D01*
X88507554Y-144526000D01*
X88117002Y-144786959D01*
X87807667Y-145249911D01*
X87699043Y-145796000D01*
X87807667Y-146342089D01*
X88117002Y-146805041D01*
X88579954Y-147114376D01*
X89126043Y-147223000D01*
X89181957Y-147223000D01*
X89728046Y-147114376D01*
X90190998Y-146805041D01*
X90264830Y-146694543D01*
X90295930Y-146859823D01*
X90422299Y-147056207D01*
X90615117Y-147187954D01*
X90844000Y-147234304D01*
X92544000Y-147234304D01*
X92757823Y-147194070D01*
X92954207Y-147067701D01*
X93085954Y-146874883D01*
X93132304Y-146646000D01*
X93132304Y-144946000D01*
X93092070Y-144732177D01*
X92965701Y-144535793D01*
X92772883Y-144404046D01*
X92581089Y-144365207D01*
X92730998Y-144265041D01*
X93040333Y-143802089D01*
X93148957Y-143256000D01*
X93040333Y-142709911D01*
X92730998Y-142246959D01*
X92340446Y-141986000D01*
X92730998Y-141725041D01*
X93040333Y-141262089D01*
X93148957Y-140716000D01*
X93040333Y-140169911D01*
X92730998Y-139706959D01*
X92268046Y-139397624D01*
X91721957Y-139289000D01*
X91666043Y-139289000D01*
X91119954Y-139397624D01*
X90657002Y-139706959D01*
X90424000Y-140055671D01*
X90190998Y-139706959D01*
X89728046Y-139397624D01*
X89181957Y-139289000D01*
X89126043Y-139289000D01*
X88579954Y-139397624D01*
X88117002Y-139706959D01*
X87998039Y-139885000D01*
X87699000Y-139885000D01*
X87699000Y-126074212D01*
X87974212Y-125799000D01*
X87998039Y-125799000D01*
X88117002Y-125977041D01*
X88507554Y-126238000D01*
X88117002Y-126498959D01*
X87807667Y-126961911D01*
X87699043Y-127508000D01*
X87807667Y-128054089D01*
X88117002Y-128517041D01*
X88507554Y-128778000D01*
X88117002Y-129038959D01*
X87807667Y-129501911D01*
X87699043Y-130048000D01*
X87807667Y-130594089D01*
X88117002Y-131057041D01*
X88579954Y-131366376D01*
X89126043Y-131475000D01*
X89181957Y-131475000D01*
X89728046Y-131366376D01*
X90190998Y-131057041D01*
X90264830Y-130946543D01*
X90295930Y-131111823D01*
X90422299Y-131308207D01*
X90615117Y-131439954D01*
X90844000Y-131486304D01*
X92544000Y-131486304D01*
X92757823Y-131446070D01*
X92954207Y-131319701D01*
X93085954Y-131126883D01*
X93132304Y-130898000D01*
X93132304Y-129198000D01*
X93092070Y-128984177D01*
X92965701Y-128787793D01*
X92772883Y-128656046D01*
X92581089Y-128617207D01*
X92730998Y-128517041D01*
X93040333Y-128054089D01*
X93148957Y-127508000D01*
X93040333Y-126961911D01*
X92730998Y-126498959D01*
X92340446Y-126238000D01*
X92730998Y-125977041D01*
X93040333Y-125514089D01*
X93148957Y-124968000D01*
X93040333Y-124421911D01*
X92730998Y-123958959D01*
X92268046Y-123649624D01*
X91721957Y-123541000D01*
X91666043Y-123541000D01*
X91119954Y-123649624D01*
X90657002Y-123958959D01*
X90424000Y-124307671D01*
X90190998Y-123958959D01*
X89728046Y-123649624D01*
X89181957Y-123541000D01*
X89126043Y-123541000D01*
X88579954Y-123649624D01*
X88117002Y-123958959D01*
X87998039Y-124137000D01*
X87630005Y-124137000D01*
X87630000Y-124136999D01*
X87311990Y-124200256D01*
X87042394Y-124380394D01*
X86280394Y-125142394D01*
X86100256Y-125411990D01*
X86037000Y-125730000D01*
X86037000Y-150622000D01*
X86100256Y-150940010D01*
X86280394Y-151209606D01*
X87169021Y-152098233D01*
X87128959Y-152125002D01*
X87029208Y-152274289D01*
X86996070Y-152098177D01*
X86869701Y-151901793D01*
X86676883Y-151770046D01*
X86448000Y-151723696D01*
X84748000Y-151723696D01*
X84534177Y-151763930D01*
X84337793Y-151890299D01*
X84206046Y-152083117D01*
X84159696Y-152312000D01*
X81617403Y-152312000D01*
X81617403Y-114473681D01*
X86752849Y-114473681D01*
X86886082Y-114796131D01*
X87132571Y-115043051D01*
X87244185Y-115089397D01*
X91106394Y-118951606D01*
X96264859Y-124110070D01*
X96030949Y-124343571D01*
X95984603Y-124455185D01*
X95932394Y-124507394D01*
X95752256Y-124776990D01*
X95689000Y-125095000D01*
X95689000Y-141732000D01*
X95752256Y-142050010D01*
X95932394Y-142319606D01*
X101012394Y-147399606D01*
X101170128Y-147505000D01*
X100838005Y-147505000D01*
X100838000Y-147504999D01*
X100519990Y-147568256D01*
X100250394Y-147748394D01*
X95424394Y-152574394D01*
X95244256Y-152843990D01*
X95181000Y-153162000D01*
X95181000Y-154146377D01*
X95135153Y-154256789D01*
X95134849Y-154605681D01*
X95268082Y-154928131D01*
X95514571Y-155175051D01*
X95836789Y-155308847D01*
X96185681Y-155309151D01*
X96508131Y-155175918D01*
X96755051Y-154929429D01*
X96888847Y-154607211D01*
X96889151Y-154258319D01*
X96843000Y-154146625D01*
X96843000Y-153506212D01*
X100612628Y-149736584D01*
X149347469Y-149736584D01*
X149347469Y-149981229D01*
X149442620Y-150459584D01*
X149481315Y-150553000D01*
X149536241Y-150685604D01*
X149807205Y-151091131D01*
X149980195Y-151264121D01*
X150385725Y-151535088D01*
X150443964Y-151559211D01*
X150611745Y-151628708D01*
X151090099Y-151723859D01*
X151151852Y-151723859D01*
X151212421Y-151735907D01*
X152212421Y-151735907D01*
X152272990Y-151723859D01*
X152334743Y-151723859D01*
X152813098Y-151628708D01*
X152980877Y-151559211D01*
X153039118Y-151535087D01*
X153444647Y-151264121D01*
X153617637Y-151091131D01*
X153888602Y-150685603D01*
X153943527Y-150553000D01*
X153982222Y-150459583D01*
X154077373Y-149981229D01*
X154077373Y-149736584D01*
X171347469Y-149736584D01*
X171347469Y-149981229D01*
X171442620Y-150459584D01*
X171481315Y-150553000D01*
X171536241Y-150685604D01*
X171807205Y-151091131D01*
X171980195Y-151264121D01*
X172385725Y-151535088D01*
X172443964Y-151559211D01*
X172611745Y-151628708D01*
X173090099Y-151723859D01*
X173151852Y-151723859D01*
X173212421Y-151735907D01*
X174212421Y-151735907D01*
X174272990Y-151723859D01*
X174334743Y-151723859D01*
X174813098Y-151628708D01*
X174980877Y-151559211D01*
X175039118Y-151535087D01*
X175444647Y-151264121D01*
X175617637Y-151091131D01*
X175888602Y-150685603D01*
X175943527Y-150553000D01*
X175982222Y-150459583D01*
X176077373Y-149981229D01*
X176077373Y-149736584D01*
X175982222Y-149258231D01*
X175929205Y-149130237D01*
X175888602Y-149032211D01*
X175617635Y-148626681D01*
X175444645Y-148453691D01*
X175039118Y-148182727D01*
X174945498Y-148143948D01*
X174813098Y-148089106D01*
X174334743Y-147993955D01*
X174272990Y-147993955D01*
X174212421Y-147981907D01*
X173212421Y-147981907D01*
X173151852Y-147993955D01*
X173090099Y-147993955D01*
X172611745Y-148089106D01*
X172518125Y-148127885D01*
X172385725Y-148182726D01*
X171980197Y-148453691D01*
X171807207Y-148626681D01*
X171536241Y-149032210D01*
X171527878Y-149052401D01*
X171442620Y-149258230D01*
X171347469Y-149736584D01*
X154077373Y-149736584D01*
X153982222Y-149258231D01*
X153929205Y-149130237D01*
X153888602Y-149032211D01*
X153617635Y-148626681D01*
X153444645Y-148453691D01*
X153039118Y-148182727D01*
X152945498Y-148143948D01*
X152813098Y-148089106D01*
X152334743Y-147993955D01*
X152272990Y-147993955D01*
X152212421Y-147981907D01*
X151212421Y-147981907D01*
X151151852Y-147993955D01*
X151090099Y-147993955D01*
X150611745Y-148089106D01*
X150518125Y-148127885D01*
X150385725Y-148182726D01*
X149980197Y-148453691D01*
X149807207Y-148626681D01*
X149536241Y-149032210D01*
X149527878Y-149052401D01*
X149442620Y-149258230D01*
X149347469Y-149736584D01*
X100612628Y-149736584D01*
X101182212Y-149167000D01*
X119634000Y-149167000D01*
X119952010Y-149103744D01*
X120221606Y-148923606D01*
X120983606Y-148161606D01*
X122507603Y-146637608D01*
X122507606Y-146637606D01*
X122687744Y-146368010D01*
X122751000Y-146050000D01*
X122751000Y-143764000D01*
X122687744Y-143445990D01*
X122507606Y-143176394D01*
X121481000Y-142149788D01*
X121481000Y-140239623D01*
X121526847Y-140129211D01*
X121527151Y-139780319D01*
X121506958Y-139731448D01*
X171347469Y-139731448D01*
X171347469Y-139976093D01*
X171442620Y-140454448D01*
X171495637Y-140582440D01*
X171536241Y-140680468D01*
X171807205Y-141085995D01*
X171980195Y-141258985D01*
X172385725Y-141529952D01*
X172454210Y-141558319D01*
X172611745Y-141623572D01*
X173090099Y-141718723D01*
X173151852Y-141718723D01*
X173212421Y-141730771D01*
X174212421Y-141730771D01*
X174272990Y-141718723D01*
X174334743Y-141718723D01*
X174813098Y-141623572D01*
X174997651Y-141547127D01*
X175039118Y-141529951D01*
X175444647Y-141258985D01*
X175617637Y-141085995D01*
X175888602Y-140680467D01*
X175946120Y-140541606D01*
X175982222Y-140454447D01*
X176077373Y-139976093D01*
X176077373Y-139731448D01*
X175982222Y-139253095D01*
X175915581Y-139092209D01*
X175888602Y-139027075D01*
X175617635Y-138621545D01*
X175444645Y-138448555D01*
X175039118Y-138177591D01*
X174945498Y-138138812D01*
X174813098Y-138083970D01*
X174334743Y-137988819D01*
X174272990Y-137988819D01*
X174212421Y-137976771D01*
X173212421Y-137976771D01*
X173151852Y-137988819D01*
X173090099Y-137988819D01*
X172611745Y-138083970D01*
X172518125Y-138122749D01*
X172385725Y-138177590D01*
X171980197Y-138448555D01*
X171807207Y-138621545D01*
X171536241Y-139027074D01*
X171515624Y-139076849D01*
X171442620Y-139253094D01*
X171347469Y-139731448D01*
X121506958Y-139731448D01*
X121481000Y-139668625D01*
X121481000Y-119761000D01*
X121417744Y-119442990D01*
X121237606Y-119173394D01*
X113255312Y-111191100D01*
X141549400Y-111191100D01*
X141711308Y-112005068D01*
X142172384Y-112695116D01*
X142862432Y-113156192D01*
X143676400Y-113318100D01*
X144490368Y-113156192D01*
X145180416Y-112695116D01*
X145641492Y-112005068D01*
X145803400Y-111191100D01*
X145641492Y-110377132D01*
X145180416Y-109687084D01*
X144490368Y-109226008D01*
X143676400Y-109064100D01*
X142862432Y-109226008D01*
X142172384Y-109687084D01*
X141711308Y-110377132D01*
X141549400Y-111191100D01*
X113255312Y-111191100D01*
X112982606Y-110918394D01*
X112713010Y-110738256D01*
X112395000Y-110675000D01*
X107913211Y-110675000D01*
X103457606Y-106219394D01*
X103188010Y-106039256D01*
X102870000Y-105976000D01*
X100615623Y-105976000D01*
X100505211Y-105930153D01*
X100156319Y-105929849D01*
X100044625Y-105976000D01*
X93503623Y-105976000D01*
X93393211Y-105930153D01*
X93044319Y-105929849D01*
X92721869Y-106063082D01*
X92474949Y-106309571D01*
X92341153Y-106631789D01*
X92340849Y-106980681D01*
X92474082Y-107303131D01*
X92720571Y-107550051D01*
X93042789Y-107683847D01*
X93391681Y-107684151D01*
X93503375Y-107638000D01*
X100044377Y-107638000D01*
X100154789Y-107683847D01*
X100503681Y-107684151D01*
X100615375Y-107638000D01*
X102525788Y-107638000D01*
X106779428Y-111891639D01*
X106825082Y-112002131D01*
X107071571Y-112249051D01*
X107393789Y-112382847D01*
X107742681Y-112383151D01*
X107854375Y-112337000D01*
X112050788Y-112337000D01*
X119819000Y-120105212D01*
X119819000Y-139668377D01*
X119773153Y-139778789D01*
X119772849Y-140127681D01*
X119819000Y-140239375D01*
X119819000Y-142494000D01*
X119882256Y-142812010D01*
X120062394Y-143081606D01*
X121089000Y-144108212D01*
X121089000Y-144774687D01*
X120882244Y-144688835D01*
X118906704Y-142713296D01*
X118657710Y-142546922D01*
X118364000Y-142488500D01*
X111817549Y-142488500D01*
X111554211Y-142379153D01*
X111337255Y-142378964D01*
X111487051Y-142229429D01*
X111620847Y-141907211D01*
X111621151Y-141558319D01*
X111487918Y-141235869D01*
X111241429Y-140988949D01*
X110919211Y-140855153D01*
X110570319Y-140854849D01*
X110458625Y-140901000D01*
X99912212Y-140901000D01*
X99383000Y-140371788D01*
X99383000Y-136818000D01*
X102320696Y-136818000D01*
X102320696Y-138518000D01*
X102360930Y-138731823D01*
X102487299Y-138928207D01*
X102680117Y-139059954D01*
X102909000Y-139106304D01*
X104609000Y-139106304D01*
X104822823Y-139066070D01*
X105019207Y-138939701D01*
X105150954Y-138746883D01*
X105189793Y-138555089D01*
X105289959Y-138704998D01*
X105752911Y-139014333D01*
X106299000Y-139122957D01*
X106845089Y-139014333D01*
X107308041Y-138704998D01*
X107569000Y-138314446D01*
X107829959Y-138704998D01*
X108292911Y-139014333D01*
X108839000Y-139122957D01*
X109385089Y-139014333D01*
X109848041Y-138704998D01*
X110109000Y-138314446D01*
X110369959Y-138704998D01*
X110832911Y-139014333D01*
X111379000Y-139122957D01*
X111925089Y-139014333D01*
X112388041Y-138704998D01*
X112649000Y-138314446D01*
X112909959Y-138704998D01*
X113372911Y-139014333D01*
X113919000Y-139122957D01*
X114465089Y-139014333D01*
X114928041Y-138704998D01*
X115237376Y-138242046D01*
X115346000Y-137695957D01*
X115346000Y-137640043D01*
X115237376Y-137093954D01*
X114928041Y-136631002D01*
X114465089Y-136321667D01*
X113919000Y-136213043D01*
X113372911Y-136321667D01*
X112909959Y-136631002D01*
X112649000Y-137021554D01*
X112388041Y-136631002D01*
X111925089Y-136321667D01*
X111379000Y-136213043D01*
X110832911Y-136321667D01*
X110369959Y-136631002D01*
X110109000Y-137021554D01*
X109848041Y-136631002D01*
X109385089Y-136321667D01*
X108839000Y-136213043D01*
X108292911Y-136321667D01*
X107829959Y-136631002D01*
X107569000Y-137021554D01*
X107308041Y-136631002D01*
X106845089Y-136321667D01*
X106299000Y-136213043D01*
X105752911Y-136321667D01*
X105289959Y-136631002D01*
X105190208Y-136780289D01*
X105157070Y-136604177D01*
X105030701Y-136407793D01*
X104837883Y-136276046D01*
X104609000Y-136229696D01*
X102909000Y-136229696D01*
X102695177Y-136269930D01*
X102498793Y-136396299D01*
X102367046Y-136589117D01*
X102320696Y-136818000D01*
X99383000Y-136818000D01*
X99383000Y-125222000D01*
X99319744Y-124903990D01*
X99139606Y-124634394D01*
X99012606Y-124507394D01*
X99012603Y-124507392D01*
X92527212Y-118022000D01*
X95843696Y-118022000D01*
X95843696Y-119722000D01*
X95883930Y-119935823D01*
X96010299Y-120132207D01*
X96203117Y-120263954D01*
X96432000Y-120310304D01*
X98132000Y-120310304D01*
X98345823Y-120270070D01*
X98542207Y-120143701D01*
X98673954Y-119950883D01*
X98712793Y-119759089D01*
X98812959Y-119908998D01*
X99275911Y-120218333D01*
X99822000Y-120326957D01*
X100368089Y-120218333D01*
X100831041Y-119908998D01*
X101092000Y-119518446D01*
X101352959Y-119908998D01*
X101815911Y-120218333D01*
X102362000Y-120326957D01*
X102908089Y-120218333D01*
X103371041Y-119908998D01*
X103632000Y-119518446D01*
X103892959Y-119908998D01*
X104355911Y-120218333D01*
X104902000Y-120326957D01*
X105448089Y-120218333D01*
X105911041Y-119908998D01*
X106172000Y-119518446D01*
X106432959Y-119908998D01*
X106895911Y-120218333D01*
X107442000Y-120326957D01*
X107988089Y-120218333D01*
X108451041Y-119908998D01*
X108712000Y-119518446D01*
X108972959Y-119908998D01*
X109435911Y-120218333D01*
X109982000Y-120326957D01*
X110528089Y-120218333D01*
X110991041Y-119908998D01*
X111300376Y-119446046D01*
X111409000Y-118899957D01*
X111409000Y-118844043D01*
X111300376Y-118297954D01*
X110991041Y-117835002D01*
X110528089Y-117525667D01*
X109982000Y-117417043D01*
X109435911Y-117525667D01*
X108972959Y-117835002D01*
X108712000Y-118225554D01*
X108451041Y-117835002D01*
X107988089Y-117525667D01*
X107442000Y-117417043D01*
X106895911Y-117525667D01*
X106432959Y-117835002D01*
X106172000Y-118225554D01*
X105911041Y-117835002D01*
X105448089Y-117525667D01*
X104902000Y-117417043D01*
X104355911Y-117525667D01*
X103892959Y-117835002D01*
X103632000Y-118225554D01*
X103371041Y-117835002D01*
X102908089Y-117525667D01*
X102362000Y-117417043D01*
X101815911Y-117525667D01*
X101352959Y-117835002D01*
X101092000Y-118225554D01*
X100831041Y-117835002D01*
X100368089Y-117525667D01*
X99822000Y-117417043D01*
X99275911Y-117525667D01*
X98812959Y-117835002D01*
X98713208Y-117984289D01*
X98680070Y-117808177D01*
X98553701Y-117611793D01*
X98360883Y-117480046D01*
X98132000Y-117433696D01*
X96432000Y-117433696D01*
X96218177Y-117473930D01*
X96021793Y-117600299D01*
X95890046Y-117793117D01*
X95843696Y-118022000D01*
X92527212Y-118022000D01*
X92281606Y-117776394D01*
X88419572Y-113914360D01*
X88373918Y-113803869D01*
X88127429Y-113556949D01*
X87805211Y-113423153D01*
X87456319Y-113422849D01*
X87133869Y-113556082D01*
X86886949Y-113802571D01*
X86753153Y-114124789D01*
X86752849Y-114473681D01*
X81617403Y-114473681D01*
X81617403Y-102281681D01*
X85990849Y-102281681D01*
X86124082Y-102604131D01*
X86370571Y-102851051D01*
X86482185Y-102897397D01*
X87307000Y-103722212D01*
X87307000Y-112014000D01*
X87370256Y-112332010D01*
X87550394Y-112601606D01*
X87602428Y-112653640D01*
X87648082Y-112764131D01*
X87894571Y-113011051D01*
X88216789Y-113144847D01*
X88565681Y-113145151D01*
X88888131Y-113011918D01*
X89135051Y-112765429D01*
X89268847Y-112443211D01*
X89269151Y-112094319D01*
X89135918Y-111771869D01*
X88969000Y-111604659D01*
X88969000Y-104382681D01*
X96112849Y-104382681D01*
X96246082Y-104705131D01*
X96492571Y-104952051D01*
X96814789Y-105085847D01*
X97163681Y-105086151D01*
X97486131Y-104952918D01*
X97733051Y-104706429D01*
X97779397Y-104594815D01*
X104433111Y-97941100D01*
X195288681Y-97941100D01*
X195431559Y-98659397D01*
X195838442Y-99268339D01*
X196447384Y-99675222D01*
X197165681Y-99818100D01*
X197883978Y-99675222D01*
X198492920Y-99268339D01*
X198899803Y-98659397D01*
X199042681Y-97941100D01*
X198899803Y-97222803D01*
X198747688Y-96995147D01*
X232853938Y-96995147D01*
X232996816Y-97713444D01*
X233403699Y-98322386D01*
X234012641Y-98729269D01*
X234730938Y-98872147D01*
X235449235Y-98729269D01*
X236058177Y-98322386D01*
X236465060Y-97713444D01*
X236607938Y-96995147D01*
X236465060Y-96276850D01*
X236058177Y-95667908D01*
X235449235Y-95261025D01*
X234730938Y-95118147D01*
X234012641Y-95261025D01*
X233403699Y-95667908D01*
X232996816Y-96276850D01*
X232853938Y-96995147D01*
X198747688Y-96995147D01*
X198492920Y-96613861D01*
X197883978Y-96206978D01*
X197165681Y-96064100D01*
X196447384Y-96206978D01*
X195838442Y-96613861D01*
X195431559Y-97222803D01*
X195288681Y-97941100D01*
X104433111Y-97941100D01*
X124200211Y-78174000D01*
X148040696Y-78174000D01*
X148040696Y-78193000D01*
X148080930Y-78406823D01*
X148207299Y-78603207D01*
X148400117Y-78734954D01*
X148629000Y-78781304D01*
X150329000Y-78781304D01*
X150542823Y-78741070D01*
X150739207Y-78614701D01*
X150870954Y-78421883D01*
X150897378Y-78291397D01*
X151252076Y-78614645D01*
X151662110Y-78784476D01*
X151892000Y-78663155D01*
X151892000Y-77470000D01*
X152146000Y-77470000D01*
X152146000Y-78663155D01*
X152375890Y-78784476D01*
X152785924Y-78614645D01*
X153214183Y-78224358D01*
X153460486Y-77699892D01*
X153339819Y-77470000D01*
X152146000Y-77470000D01*
X151892000Y-77470000D01*
X151872000Y-77470000D01*
X151872000Y-77216000D01*
X151892000Y-77216000D01*
X151892000Y-76022845D01*
X152146000Y-76022845D01*
X152146000Y-77216000D01*
X153339819Y-77216000D01*
X153460486Y-76986108D01*
X153214183Y-76461642D01*
X152785924Y-76071355D01*
X152375890Y-75901524D01*
X152146000Y-76022845D01*
X151892000Y-76022845D01*
X151662110Y-75901524D01*
X151252076Y-76071355D01*
X150898583Y-76393506D01*
X150877070Y-76279177D01*
X150750701Y-76082793D01*
X150557883Y-75951046D01*
X150329000Y-75904696D01*
X148629000Y-75904696D01*
X148415177Y-75944930D01*
X148218793Y-76071299D01*
X148087046Y-76264117D01*
X148040696Y-76493000D01*
X148040696Y-76512000D01*
X123856005Y-76512000D01*
X123856000Y-76511999D01*
X123537990Y-76575256D01*
X123268394Y-76755394D01*
X123268392Y-76755397D01*
X96604360Y-103419428D01*
X96493869Y-103465082D01*
X96246949Y-103711571D01*
X96113153Y-104033789D01*
X96112849Y-104382681D01*
X88969000Y-104382681D01*
X88969000Y-103378000D01*
X88905744Y-103059990D01*
X88725606Y-102790394D01*
X87657572Y-101722360D01*
X87611918Y-101611869D01*
X87365429Y-101364949D01*
X87043211Y-101231153D01*
X86694319Y-101230849D01*
X86371869Y-101364082D01*
X86124949Y-101610571D01*
X85991153Y-101932789D01*
X85990849Y-102281681D01*
X81617403Y-102281681D01*
X81617403Y-78391100D01*
X102713403Y-78391100D01*
X102856281Y-79109397D01*
X103263164Y-79718339D01*
X103872106Y-80125222D01*
X104590403Y-80268100D01*
X105308700Y-80125222D01*
X105917642Y-79718339D01*
X106324525Y-79109397D01*
X106467403Y-78391100D01*
X106324525Y-77672803D01*
X105917642Y-77063861D01*
X105308700Y-76656978D01*
X104590403Y-76514100D01*
X103872106Y-76656978D01*
X103263164Y-77063861D01*
X102856281Y-77672803D01*
X102713403Y-78391100D01*
X81617403Y-78391100D01*
X81617403Y-73941100D01*
X136549400Y-73941100D01*
X136711308Y-74755068D01*
X137172384Y-75445116D01*
X137862432Y-75906192D01*
X138676400Y-76068100D01*
X139490368Y-75906192D01*
X140180416Y-75445116D01*
X140641492Y-74755068D01*
X140803400Y-73941100D01*
X140641492Y-73127132D01*
X140180416Y-72437084D01*
X139490368Y-71976008D01*
X138676400Y-71814100D01*
X137862432Y-71976008D01*
X137172384Y-72437084D01*
X136711308Y-73127132D01*
X136549400Y-73941100D01*
X81617403Y-73941100D01*
X81617403Y-67648727D01*
X112293706Y-67648727D01*
X112293706Y-68648727D01*
X112305754Y-68709296D01*
X112305754Y-68771049D01*
X112400905Y-69249404D01*
X112453922Y-69377396D01*
X112494526Y-69475424D01*
X112765490Y-69880951D01*
X112938480Y-70053941D01*
X113344010Y-70324908D01*
X113476410Y-70379749D01*
X113570030Y-70418528D01*
X114048384Y-70513679D01*
X114293028Y-70513679D01*
X114771383Y-70418528D01*
X114903783Y-70363686D01*
X114997403Y-70324907D01*
X115402932Y-70053941D01*
X115575922Y-69880951D01*
X115846887Y-69475423D01*
X115901728Y-69343023D01*
X115940507Y-69249403D01*
X116035658Y-68771049D01*
X116035658Y-68709296D01*
X116047706Y-68648727D01*
X116047706Y-67648727D01*
X122298841Y-67648727D01*
X122298841Y-68648727D01*
X122310889Y-68709296D01*
X122310889Y-68771049D01*
X122406040Y-69249404D01*
X122459057Y-69377396D01*
X122499661Y-69475424D01*
X122770625Y-69880951D01*
X122943615Y-70053941D01*
X123349145Y-70324908D01*
X123481545Y-70379749D01*
X123575165Y-70418528D01*
X124053519Y-70513679D01*
X124298163Y-70513679D01*
X124776518Y-70418528D01*
X124908918Y-70363686D01*
X125002538Y-70324907D01*
X125408067Y-70053941D01*
X125581057Y-69880951D01*
X125852022Y-69475423D01*
X125906863Y-69343023D01*
X125945642Y-69249403D01*
X126040793Y-68771049D01*
X126040793Y-68709296D01*
X126052841Y-68648727D01*
X126052841Y-67648727D01*
X126040793Y-67588158D01*
X126040793Y-67526405D01*
X125945642Y-67048051D01*
X125879001Y-66887165D01*
X125852022Y-66822031D01*
X125581055Y-66416501D01*
X125408065Y-66243511D01*
X125002538Y-65972547D01*
X124908918Y-65933768D01*
X124776518Y-65878926D01*
X124298163Y-65783775D01*
X124053519Y-65783775D01*
X123575165Y-65878926D01*
X123481545Y-65917705D01*
X123349145Y-65972546D01*
X122943617Y-66243511D01*
X122770627Y-66416501D01*
X122499661Y-66822030D01*
X122491298Y-66842221D01*
X122406040Y-67048050D01*
X122310889Y-67526405D01*
X122310889Y-67588158D01*
X122298841Y-67648727D01*
X116047706Y-67648727D01*
X116035658Y-67588158D01*
X116035658Y-67526405D01*
X115940507Y-67048051D01*
X115873866Y-66887165D01*
X115846887Y-66822031D01*
X115575920Y-66416501D01*
X115402930Y-66243511D01*
X114997403Y-65972547D01*
X114903783Y-65933768D01*
X114771383Y-65878926D01*
X114293028Y-65783775D01*
X114048384Y-65783775D01*
X113570030Y-65878926D01*
X113476410Y-65917705D01*
X113344010Y-65972546D01*
X112938482Y-66243511D01*
X112765492Y-66416501D01*
X112494526Y-66822030D01*
X112486163Y-66842221D01*
X112400905Y-67048050D01*
X112305754Y-67526405D01*
X112305754Y-67588158D01*
X112293706Y-67648727D01*
X81617403Y-67648727D01*
X81617403Y-65241100D01*
X136549400Y-65241100D01*
X136711308Y-66055068D01*
X137172384Y-66745116D01*
X137862432Y-67206192D01*
X138676400Y-67368100D01*
X139490368Y-67206192D01*
X140180416Y-66745116D01*
X140641492Y-66055068D01*
X140803400Y-65241100D01*
X140641492Y-64427132D01*
X140180416Y-63737084D01*
X139490368Y-63276008D01*
X138676400Y-63114100D01*
X137862432Y-63276008D01*
X137172384Y-63737084D01*
X136711308Y-64427132D01*
X136549400Y-65241100D01*
X81617403Y-65241100D01*
X81617403Y-58039000D01*
X97859043Y-58039000D01*
X97967667Y-58585089D01*
X98277002Y-59048041D01*
X98739954Y-59357376D01*
X99286043Y-59466000D01*
X99341957Y-59466000D01*
X99888046Y-59357376D01*
X100282215Y-59094000D01*
X101939696Y-59094000D01*
X101939696Y-60794000D01*
X101979930Y-61007823D01*
X102106299Y-61204207D01*
X102299117Y-61335954D01*
X102528000Y-61382304D01*
X104228000Y-61382304D01*
X104441823Y-61342070D01*
X104638207Y-61215701D01*
X104769954Y-61022883D01*
X104816304Y-60794000D01*
X104816304Y-59094000D01*
X104776070Y-58880177D01*
X104649701Y-58683793D01*
X104456883Y-58552046D01*
X104228000Y-58505696D01*
X102528000Y-58505696D01*
X102314177Y-58545930D01*
X102117793Y-58672299D01*
X101986046Y-58865117D01*
X101939696Y-59094000D01*
X100282215Y-59094000D01*
X100350998Y-59048041D01*
X100660333Y-58585089D01*
X100768957Y-58039000D01*
X100660333Y-57492911D01*
X100350998Y-57029959D01*
X100201711Y-56930208D01*
X100377823Y-56897070D01*
X100574207Y-56770701D01*
X100705954Y-56577883D01*
X100752304Y-56349000D01*
X100752304Y-54649000D01*
X100712070Y-54435177D01*
X100585701Y-54238793D01*
X100392883Y-54107046D01*
X100164000Y-54060696D01*
X98464000Y-54060696D01*
X98250177Y-54100930D01*
X98053793Y-54227299D01*
X97922046Y-54420117D01*
X97875696Y-54649000D01*
X97875696Y-56349000D01*
X97915930Y-56562823D01*
X98042299Y-56759207D01*
X98235117Y-56890954D01*
X98426911Y-56929793D01*
X98277002Y-57029959D01*
X97967667Y-57492911D01*
X97859043Y-58039000D01*
X81617403Y-58039000D01*
X81617403Y-52363000D01*
X101939696Y-52363000D01*
X101939696Y-54063000D01*
X101979930Y-54276823D01*
X102106299Y-54473207D01*
X102299117Y-54604954D01*
X102528000Y-54651304D01*
X104228000Y-54651304D01*
X104441823Y-54611070D01*
X104638207Y-54484701D01*
X104769954Y-54291883D01*
X104816304Y-54063000D01*
X104816304Y-52363000D01*
X104776070Y-52149177D01*
X104649701Y-51952793D01*
X104456883Y-51821046D01*
X104228000Y-51774696D01*
X102528000Y-51774696D01*
X102314177Y-51814930D01*
X102117793Y-51941299D01*
X101986046Y-52134117D01*
X101939696Y-52363000D01*
X81617403Y-52363000D01*
X81617403Y-45648727D01*
X112293706Y-45648727D01*
X112293706Y-46648727D01*
X112305754Y-46709296D01*
X112305754Y-46771049D01*
X112400905Y-47249404D01*
X112453922Y-47377396D01*
X112494526Y-47475424D01*
X112765490Y-47880951D01*
X112938480Y-48053941D01*
X113344010Y-48324908D01*
X113476410Y-48379749D01*
X113570030Y-48418528D01*
X114048384Y-48513679D01*
X114293028Y-48513679D01*
X114771383Y-48418528D01*
X114903783Y-48363686D01*
X114997403Y-48324907D01*
X115402932Y-48053941D01*
X115575922Y-47880951D01*
X115846887Y-47475423D01*
X115901728Y-47343023D01*
X115940507Y-47249403D01*
X116035658Y-46771049D01*
X116035658Y-46709296D01*
X116047706Y-46648727D01*
X116047706Y-45648727D01*
X122298841Y-45648727D01*
X122298841Y-46648727D01*
X122310889Y-46709296D01*
X122310889Y-46771049D01*
X122406040Y-47249404D01*
X122459057Y-47377396D01*
X122499661Y-47475424D01*
X122770625Y-47880951D01*
X122943615Y-48053941D01*
X123349145Y-48324908D01*
X123481545Y-48379749D01*
X123575165Y-48418528D01*
X124053519Y-48513679D01*
X124298163Y-48513679D01*
X124776518Y-48418528D01*
X124908918Y-48363686D01*
X125002538Y-48324907D01*
X125408067Y-48053941D01*
X125581057Y-47880951D01*
X125852022Y-47475423D01*
X125906863Y-47343023D01*
X125945642Y-47249403D01*
X126040793Y-46771049D01*
X126040793Y-46709296D01*
X126052841Y-46648727D01*
X126052841Y-45648727D01*
X126040793Y-45588158D01*
X126040793Y-45526405D01*
X125945642Y-45048051D01*
X125879001Y-44887165D01*
X125852022Y-44822031D01*
X125581055Y-44416501D01*
X125408065Y-44243511D01*
X125002538Y-43972547D01*
X124908918Y-43933768D01*
X124776518Y-43878926D01*
X124298163Y-43783775D01*
X124053519Y-43783775D01*
X123575165Y-43878926D01*
X123481545Y-43917705D01*
X123349145Y-43972546D01*
X122943617Y-44243511D01*
X122770627Y-44416501D01*
X122499661Y-44822030D01*
X122491298Y-44842221D01*
X122406040Y-45048050D01*
X122310889Y-45526405D01*
X122310889Y-45588158D01*
X122298841Y-45648727D01*
X116047706Y-45648727D01*
X116035658Y-45588158D01*
X116035658Y-45526405D01*
X115940507Y-45048051D01*
X115873866Y-44887165D01*
X115846887Y-44822031D01*
X115575920Y-44416501D01*
X115402930Y-44243511D01*
X114997403Y-43972547D01*
X114903783Y-43933768D01*
X114771383Y-43878926D01*
X114293028Y-43783775D01*
X114048384Y-43783775D01*
X113570030Y-43878926D01*
X113476410Y-43917705D01*
X113344010Y-43972546D01*
X112938482Y-44243511D01*
X112765492Y-44416501D01*
X112494526Y-44822030D01*
X112486163Y-44842221D01*
X112400905Y-45048050D01*
X112305754Y-45526405D01*
X112305754Y-45588158D01*
X112293706Y-45648727D01*
X81617403Y-45648727D01*
X81617403Y-40818100D01*
X138817006Y-40818100D01*
X139590823Y-40972021D01*
G36*
X110568789Y-142608847D02*
X110785745Y-142609036D01*
X110635949Y-142758571D01*
X110502153Y-143080789D01*
X110501849Y-143429681D01*
X110635082Y-143752131D01*
X110881571Y-143999051D01*
X111203789Y-144132847D01*
X111552681Y-144133151D01*
X111818058Y-144023500D01*
X118046092Y-144023500D01*
X119797196Y-145774604D01*
X119906082Y-146038131D01*
X120152571Y-146285051D01*
X120404944Y-146389845D01*
X119808394Y-146986394D01*
X119289788Y-147505000D01*
X112053138Y-147505000D01*
X112249051Y-147309429D01*
X112382847Y-146987211D01*
X112383151Y-146638319D01*
X112249918Y-146315869D01*
X112111276Y-146176985D01*
X112237051Y-146051429D01*
X112370847Y-145729211D01*
X112371151Y-145380319D01*
X112237918Y-145057869D01*
X111991429Y-144810949D01*
X111669211Y-144677153D01*
X111320319Y-144676849D01*
X111208625Y-144723000D01*
X102083211Y-144723000D01*
X99923212Y-142563000D01*
X110458377Y-142563000D01*
X110568789Y-142608847D01*
X110568789Y-142608847D01*
G37*
X110568789Y-142608847D02*
X110785745Y-142609036D01*
X110635949Y-142758571D01*
X110502153Y-143080789D01*
X110501849Y-143429681D01*
X110635082Y-143752131D01*
X110881571Y-143999051D01*
X111203789Y-144132847D01*
X111552681Y-144133151D01*
X111818058Y-144023500D01*
X118046092Y-144023500D01*
X119797196Y-145774604D01*
X119906082Y-146038131D01*
X120152571Y-146285051D01*
X120404944Y-146389845D01*
X119808394Y-146986394D01*
X119289788Y-147505000D01*
X112053138Y-147505000D01*
X112249051Y-147309429D01*
X112382847Y-146987211D01*
X112383151Y-146638319D01*
X112249918Y-146315869D01*
X112111276Y-146176985D01*
X112237051Y-146051429D01*
X112370847Y-145729211D01*
X112371151Y-145380319D01*
X112237918Y-145057869D01*
X111991429Y-144810949D01*
X111669211Y-144677153D01*
X111320319Y-144676849D01*
X111208625Y-144723000D01*
X102083211Y-144723000D01*
X99923212Y-142563000D01*
X110458377Y-142563000D01*
X110568789Y-142608847D01*
G36*
X236298825Y-114276375D02*
X236429322Y-114471678D01*
X236624625Y-114602175D01*
X236855000Y-114648000D01*
X237058000Y-114648000D01*
X237058000Y-124442200D01*
X229479479Y-124442200D01*
X229547915Y-124339777D01*
X229626700Y-123943700D01*
X229547915Y-123547623D01*
X229343341Y-123241455D01*
X229544915Y-122939777D01*
X229623700Y-122543700D01*
X229544915Y-122147623D01*
X229340341Y-121841455D01*
X229541915Y-121539777D01*
X229620700Y-121143700D01*
X229541915Y-120747623D01*
X229337341Y-120441455D01*
X229538915Y-120139777D01*
X229617700Y-119743700D01*
X229538915Y-119347623D01*
X229334341Y-119041455D01*
X229535915Y-118739777D01*
X229614700Y-118343700D01*
X229535915Y-117947623D01*
X229331341Y-117641455D01*
X229532915Y-117339777D01*
X229611700Y-116943700D01*
X229532915Y-116547623D01*
X229328341Y-116241455D01*
X229529915Y-115939777D01*
X229608700Y-115543700D01*
X229529915Y-115147623D01*
X229305556Y-114811844D01*
X229060345Y-114648000D01*
X235585000Y-114648000D01*
X235815375Y-114602175D01*
X236010678Y-114471678D01*
X236141175Y-114276375D01*
X236159212Y-114185700D01*
X236280788Y-114185700D01*
X236298825Y-114276375D01*
X236298825Y-114276375D01*
G37*
X236298825Y-114276375D02*
X236429322Y-114471678D01*
X236624625Y-114602175D01*
X236855000Y-114648000D01*
X237058000Y-114648000D01*
X237058000Y-124442200D01*
X229479479Y-124442200D01*
X229547915Y-124339777D01*
X229626700Y-123943700D01*
X229547915Y-123547623D01*
X229343341Y-123241455D01*
X229544915Y-122939777D01*
X229623700Y-122543700D01*
X229544915Y-122147623D01*
X229340341Y-121841455D01*
X229541915Y-121539777D01*
X229620700Y-121143700D01*
X229541915Y-120747623D01*
X229337341Y-120441455D01*
X229538915Y-120139777D01*
X229617700Y-119743700D01*
X229538915Y-119347623D01*
X229334341Y-119041455D01*
X229535915Y-118739777D01*
X229614700Y-118343700D01*
X229535915Y-117947623D01*
X229331341Y-117641455D01*
X229532915Y-117339777D01*
X229611700Y-116943700D01*
X229532915Y-116547623D01*
X229328341Y-116241455D01*
X229529915Y-115939777D01*
X229608700Y-115543700D01*
X229529915Y-115147623D01*
X229305556Y-114811844D01*
X229060345Y-114648000D01*
X235585000Y-114648000D01*
X235815375Y-114602175D01*
X236010678Y-114471678D01*
X236141175Y-114276375D01*
X236159212Y-114185700D01*
X236280788Y-114185700D01*
X236298825Y-114276375D01*
G36*
X227789825Y-114276375D02*
X227920322Y-114471678D01*
X227975729Y-114508700D01*
X227446271Y-114508700D01*
X227501678Y-114471678D01*
X227632175Y-114276375D01*
X227650212Y-114185700D01*
X227771788Y-114185700D01*
X227789825Y-114276375D01*
X227789825Y-114276375D01*
G37*
X227789825Y-114276375D02*
X227920322Y-114471678D01*
X227975729Y-114508700D01*
X227446271Y-114508700D01*
X227501678Y-114471678D01*
X227632175Y-114276375D01*
X227650212Y-114185700D01*
X227771788Y-114185700D01*
X227789825Y-114276375D01*
M02*
